<?xml version="1.0" encoding="UTF-8"?>
<svg width="396px" height="366px" viewBox="0 0 396 366" version="1.1" xmlns="http://www.w3.org/2000/svg" xmlns:xlink="http://www.w3.org/1999/xlink">
    <!-- Generator: Sketch 52.4 (67378) - http://www.bohemiancoding.com/sketch -->
    <title>Check my email</title>
    <desc>Created with Sketch.</desc>
    <defs>
        <linearGradient x1="99.4276382%" y1="45.969348%" x2="0.799967126%" y2="55.0177505%" id="linearGradient-1">
            <stop stop-color="#ED4C4C" offset="0%"></stop>
            <stop stop-color="#ED6F4C" offset="88%"></stop>
            <stop stop-color="#ED744C" offset="100%"></stop>
        </linearGradient>
        <linearGradient x1="119.489729%" y1="47.7658469%" x2="-25.3953909%" y2="54.7973675%" id="linearGradient-2">
            <stop stop-color="#0879A5" offset="0%"></stop>
            <stop stop-color="#45A5BE" offset="60%"></stop>
            <stop stop-color="#68BFCC" offset="100%"></stop>
        </linearGradient>
        <linearGradient x1="82.6807853%" y1="-130.548054%" x2="38.2462003%" y2="92.0169622%" id="linearGradient-3">
            <stop stop-color="#0879A5" offset="0%"></stop>
            <stop stop-color="#45A5BE" offset="60%"></stop>
            <stop stop-color="#68BFCC" offset="100%"></stop>
        </linearGradient>
        <linearGradient x1="362.880886%" y1="50.2338971%" x2="-92.5207756%" y2="49.8920475%" id="linearGradient-4">
            <stop stop-color="#0879A5" offset="0%"></stop>
            <stop stop-color="#45A5BE" offset="60%"></stop>
            <stop stop-color="#68BFCC" offset="100%"></stop>
        </linearGradient>
        <linearGradient x1="53.8717283%" y1="3.14747056%" x2="40.8022324%" y2="77.9629636%" id="linearGradient-5">
            <stop stop-color="#61EEB6" offset="0%"></stop>
            <stop stop-color="#14CD9A" offset="100%"></stop>
        </linearGradient>
        <linearGradient x1="105.190567%" y1="55.946094%" x2="-8.71300531%" y2="35.8918354%" id="linearGradient-6">
            <stop stop-color="#61EEB6" offset="0%"></stop>
            <stop stop-color="#FFFFFF" offset="100%"></stop>
        </linearGradient>
        <linearGradient x1="52.8184974%" y1="-10.2231727%" x2="70.1763925%" y2="92.4067962%" id="linearGradient-7">
            <stop stop-color="#61EEB6" offset="0%"></stop>
            <stop stop-color="#14CD9A" offset="100%"></stop>
        </linearGradient>
        <linearGradient x1="104.04965%" y1="23.4322149%" x2="19.2555755%" y2="69.3973796%" id="linearGradient-8">
            <stop stop-color="#61EEB6" offset="0%"></stop>
            <stop stop-color="#FFFFFF" offset="100%"></stop>
        </linearGradient>
        <linearGradient x1="35.9876975%" y1="139.667488%" x2="56.3745418%" y2="10.1690161%" id="linearGradient-9">
            <stop stop-color="#B2E1FF" offset="0%"></stop>
            <stop stop-color="#C0E6FF" offset="10%"></stop>
            <stop stop-color="#DCEEFF" offset="32%"></stop>
            <stop stop-color="#EFF4FF" offset="54%"></stop>
            <stop stop-color="#FBF8FF" offset="77%"></stop>
            <stop stop-color="#FFF9FF" offset="100%"></stop>
        </linearGradient>
        <linearGradient x1="-858.529531%" y1="81.3178502%" x2="-861.346237%" y2="-14.3343056%" id="linearGradient-10">
            <stop stop-color="#B2E1FF" offset="0%"></stop>
            <stop stop-color="#C0E6FF" offset="10%"></stop>
            <stop stop-color="#DCEEFF" offset="32%"></stop>
            <stop stop-color="#EFF4FF" offset="54%"></stop>
            <stop stop-color="#FBF8FF" offset="77%"></stop>
            <stop stop-color="#FFF9FF" offset="100%"></stop>
        </linearGradient>
        <linearGradient x1="69.4201589%" y1="-48.6452788%" x2="35.2686935%" y2="51.2971673%" id="linearGradient-11">
            <stop stop-color="#61EEB6" offset="0%"></stop>
            <stop stop-color="#14CD9A" offset="100%"></stop>
        </linearGradient>
        <linearGradient x1="35.639523%" y1="139.051521%" x2="56.5139774%" y2="10.3965104%" id="linearGradient-12">
            <stop stop-color="#B2E1FF" offset="0%"></stop>
            <stop stop-color="#C0E6FF" offset="10%"></stop>
            <stop stop-color="#DCEEFF" offset="32%"></stop>
            <stop stop-color="#EFF4FF" offset="54%"></stop>
            <stop stop-color="#FBF8FF" offset="77%"></stop>
            <stop stop-color="#FFF9FF" offset="100%"></stop>
        </linearGradient>
        <linearGradient x1="41.4292728%" y1="108.765093%" x2="51.3517718%" y2="15.1414987%" id="linearGradient-13">
            <stop stop-color="#B2E1FF" offset="0%"></stop>
            <stop stop-color="#C0E6FF" offset="10%"></stop>
            <stop stop-color="#DCEEFF" offset="32%"></stop>
            <stop stop-color="#EFF4FF" offset="54%"></stop>
            <stop stop-color="#FBF8FF" offset="77%"></stop>
            <stop stop-color="#FFF9FF" offset="100%"></stop>
        </linearGradient>
        <linearGradient x1="12.5478559%" y1="10.9536018%" x2="-96.7814894%" y2="33.5612746%" id="linearGradient-14">
            <stop stop-color="#61EEB6" offset="0%"></stop>
            <stop stop-color="#14CD9A" offset="100%"></stop>
        </linearGradient>
        <linearGradient x1="78.8454727%" y1="23.9765713%" x2="49.8526135%" y2="113.523055%" id="linearGradient-15">
            <stop stop-color="#61EEB6" offset="0%"></stop>
            <stop stop-color="#14CD9A" offset="100%"></stop>
        </linearGradient>
        <linearGradient x1="30.724049%" y1="-24.3790304%" x2="56.5213609%" y2="80.2036616%" id="linearGradient-16">
            <stop stop-color="#61EEB6" offset="0%"></stop>
            <stop stop-color="#14CD9A" offset="100%"></stop>
        </linearGradient>
        <linearGradient x1="63.3886073%" y1="138.466842%" x2="45.1294912%" y2="7.88577261%" id="linearGradient-17">
            <stop stop-color="#B2E1FF" offset="0%"></stop>
            <stop stop-color="#C0E6FF" offset="10%"></stop>
            <stop stop-color="#DCEEFF" offset="32%"></stop>
            <stop stop-color="#EFF4FF" offset="54%"></stop>
            <stop stop-color="#FBF8FF" offset="77%"></stop>
            <stop stop-color="#FFF9FF" offset="100%"></stop>
        </linearGradient>
        <linearGradient x1="19.6341573%" y1="15.1348253%" x2="62.3133822%" y2="99.4164621%" id="linearGradient-18">
            <stop stop-color="#61EEB6" offset="0%"></stop>
            <stop stop-color="#14CD9A" offset="100%"></stop>
        </linearGradient>
        <linearGradient x1="59.0537303%" y1="106.726632%" x2="48.6263713%" y2="11.1285009%" id="linearGradient-19">
            <stop stop-color="#B2E1FF" offset="0%"></stop>
            <stop stop-color="#C0E6FF" offset="10%"></stop>
            <stop stop-color="#DCEEFF" offset="32%"></stop>
            <stop stop-color="#EFF4FF" offset="54%"></stop>
            <stop stop-color="#FBF8FF" offset="77%"></stop>
            <stop stop-color="#FFF9FF" offset="100%"></stop>
        </linearGradient>
        <linearGradient x1="27.9425403%" y1="-1.51882319%" x2="-40.8575269%" y2="61.2520505%" id="linearGradient-20">
            <stop stop-color="#61EEB6" offset="0%"></stop>
            <stop stop-color="#14CD9A" offset="100%"></stop>
        </linearGradient>
        <linearGradient x1="36.0462658%" y1="-1.81421632%" x2="70.9462777%" y2="89.2138396%" id="linearGradient-21">
            <stop stop-color="#61EEB6" offset="0%"></stop>
            <stop stop-color="#14CD9A" offset="100%"></stop>
        </linearGradient>
        <linearGradient x1="0%" y1="50.0049667%" x2="99.9820705%" y2="50.0049667%" id="linearGradient-22">
            <stop stop-color="#14CD9A" offset="0%"></stop>
            <stop stop-color="#61EEB6" offset="100%"></stop>
        </linearGradient>
        <linearGradient x1="-45.35355%" y1="58.5389632%" x2="40.032875%" y2="66.8588078%" id="linearGradient-23">
            <stop stop-color="#61EEB6" offset="0%"></stop>
            <stop stop-color="#14CD9A" offset="100%"></stop>
        </linearGradient>
        <linearGradient x1="121.088061%" y1="-314.793434%" x2="33.2177202%" y2="233.482759%" id="linearGradient-24">
            <stop stop-color="#61EEB6" offset="0%"></stop>
            <stop stop-color="#14CD9A" offset="100%"></stop>
        </linearGradient>
        <linearGradient x1="61.3853211%" y1="-622.726774%" x2="40.7155963%" y2="260.04893%" id="linearGradient-25">
            <stop stop-color="#61EEB6" offset="0%"></stop>
            <stop stop-color="#14CD9A" offset="100%"></stop>
        </linearGradient>
        <linearGradient x1="108.173913%" y1="-239.187956%" x2="17.4448161%" y2="343.74718%" id="linearGradient-26">
            <stop stop-color="#61EEB6" offset="0%"></stop>
            <stop stop-color="#14CD9A" offset="100%"></stop>
        </linearGradient>
        <linearGradient x1="92.8769319%" y1="-177.90616%" x2="-0.431597023%" y2="554.414836%" id="linearGradient-27">
            <stop stop-color="#61EEB6" offset="0%"></stop>
            <stop stop-color="#14CD9A" offset="100%"></stop>
        </linearGradient>
        <linearGradient x1="78.9900744%" y1="-73.6856976%" x2="-22.2617866%" y2="836.464582%" id="linearGradient-28">
            <stop stop-color="#61EEB6" offset="0%"></stop>
            <stop stop-color="#14CD9A" offset="100%"></stop>
        </linearGradient>
        <linearGradient x1="66.9107692%" y1="72.2815884%" x2="-58.4307692%" y2="1451.54513%" id="linearGradient-29">
            <stop stop-color="#61EEB6" offset="0%"></stop>
            <stop stop-color="#14CD9A" offset="100%"></stop>
        </linearGradient>
        <linearGradient x1="49.5380875%" y1="278.523899%" x2="-82.6045381%" y2="1720.45975%" id="linearGradient-30">
            <stop stop-color="#61EEB6" offset="0%"></stop>
            <stop stop-color="#14CD9A" offset="100%"></stop>
        </linearGradient>
        <linearGradient x1="48.245%" y1="-25.8548539%" x2="-2.6575%" y2="596.744581%" id="linearGradient-31">
            <stop stop-color="#61EEB6" offset="0%"></stop>
            <stop stop-color="#14CD9A" offset="100%"></stop>
        </linearGradient>
        <linearGradient x1="41.4700782%" y1="43.3236364%" x2="-31.496168%" y2="645.334545%" id="linearGradient-32">
            <stop stop-color="#61EEB6" offset="0%"></stop>
            <stop stop-color="#14CD9A" offset="100%"></stop>
        </linearGradient>
        <linearGradient x1="53.4695077%" y1="-130.640803%" x2="23.6825863%" y2="517.242398%" id="linearGradient-33">
            <stop stop-color="#61EEB6" offset="0%"></stop>
            <stop stop-color="#14CD9A" offset="100%"></stop>
        </linearGradient>
        <linearGradient x1="56.0585774%" y1="-306.446446%" x2="31.8469815%" y2="507.654178%" id="linearGradient-34">
            <stop stop-color="#61EEB6" offset="0%"></stop>
            <stop stop-color="#14CD9A" offset="100%"></stop>
        </linearGradient>
        <linearGradient x1="59.2693966%" y1="-524.225869%" x2="37.3900862%" y2="394.195338%" id="linearGradient-35">
            <stop stop-color="#61EEB6" offset="0%"></stop>
            <stop stop-color="#14CD9A" offset="100%"></stop>
        </linearGradient>
        <linearGradient x1="101.979723%" y1="74.6121216%" x2="25.2033931%" y2="38.6189196%" id="linearGradient-36">
            <stop stop-color="#61EEB6" offset="0%"></stop>
            <stop stop-color="#14CD9A" offset="100%"></stop>
        </linearGradient>
        <linearGradient x1="1.63204066%" y1="232.042368%" x2="52.9426795%" y2="297.592643%" id="linearGradient-37">
            <stop stop-color="#61EEB6" offset="0%"></stop>
            <stop stop-color="#14CD9A" offset="100%"></stop>
        </linearGradient>
        <linearGradient x1="170.386501%" y1="-16.8001558%" x2="156.554063%" y2="94.3270005%" id="linearGradient-38">
            <stop stop-color="#61EEB6" offset="0%"></stop>
            <stop stop-color="#14CD9A" offset="100%"></stop>
        </linearGradient>
        <linearGradient x1="43.9774192%" y1="-34.6475125%" x2="52.0074828%" y2="92.0980361%" id="linearGradient-39">
            <stop stop-color="#61EEB6" offset="0%"></stop>
            <stop stop-color="#14CD9A" offset="100%"></stop>
        </linearGradient>
        <linearGradient x1="92.2436625%" y1="-30.946494%" x2="108.839198%" y2="67.4944618%" id="linearGradient-40">
            <stop stop-color="#61EEB6" offset="0%"></stop>
            <stop stop-color="#14CD9A" offset="100%"></stop>
        </linearGradient>
    </defs>
    <g id="Login" stroke="none" stroke-width="1" fill="none" fill-rule="evenodd">
        <g id="3-confirm-email" transform="translate(-762.000000, -94.000000)">
            <g id="Check-my-email" transform="translate(762.000000, 94.000000)">
                <path d="M222.5,190 L206.592958,195.120189 L125.793679,195.120189 C125.793679,195.120189 106.296682,207.951382 99.6628486,219.758538 C98.4493425,220.198874 97.5796632,220.782575 97.5796632,221.601806 L97.5796632,225.554591 C97.4734456,226.342862 97.4734456,227.142089 97.5796632,227.930359 C98.2167539,232.55901 102.868527,236.34795 114.275484,238.109295 C139.961363,242.06208 166.698946,232.118674 183.799269,222.840891 C197.796157,215.280205 210.798434,205.966887 222.5,195.120189 L222.5,190 Z" id="Path" fill="#0A95A3"></path>
                <path d="M295.191943,78 L173.995489,78 L153.5,117.643259 L223.452656,190.891333 L223.452656,196 L337.461985,196 C337.461985,125.939735 340.37541,78 295.191943,78 Z" id="Path" fill="url(#linearGradient-1)"></path>
                <path d="M337.462152,196 C337.462152,125.943886 340.362761,78 295.378055,78 L272.355102,78 C291.274754,78 305.403853,103.811223 305.403853,149.905611 C305.403853,196 269.868866,196 260.5,196 L337.462152,196 Z" id="Path" fill="#D83A3A"></path>
                <path d="M223.5,190.523034 L223.5,196 C223.5,133.311223 219.197661,78 173.711408,78 C137.442994,78 126.385676,106.273814 125.772516,130.85885 C125.159356,155.443886 125.772516,179.405611 125.772516,196 L216.857433,196 C218.966138,194.050077 221.183898,192.221477 223.5,190.523034 Z" id="Path" fill="url(#linearGradient-2)"></path>
                <path d="M222.5,190.396637 C210.801227,201.179685 197.800047,210.439461 183.802759,217.957809 C166.703978,227.171987 139.968805,237.047226 114.285243,233.111368 C70.683857,226.439734 125.802399,190.396637 125.802399,190.396637 L222.5,190 L222.5,190.396637 Z" id="Path" fill="url(#linearGradient-3)"></path>
                <path d="M223.5,191.392656 L223.5,191 L126.173483,191.392656 C122.134279,194.052975 118.237843,196.919555 114.5,199.980752 C126.173483,191.392656 125.898693,195.178265 174.699346,196.386438 C223.5,197.594611 184.245752,215.304412 170.933707,225 C175.910458,222.986378 180.500467,220.791531 184.551074,218.647024 C198.637727,211.213528 211.723389,202.056884 223.5,191.392656 Z" id="Path" fill="#002630" opacity="0.06"></path>
                <polygon id="Path" fill="url(#linearGradient-4)" points="237.5 196 237.5 366 252.5 366 252.5 196"></polygon>
                <path d="M239.051137,366 C239.051137,366 250.878478,348.218468 248.068221,328.1455 C244.651433,303.805373 218.6515,287.673673 201.213753,284.129588 C184.281448,280.687344 172.251929,285.636843 166.5,291.910281 C173.185493,292.966276 179.129383,296.787337 182.896537,302.45088 C189.436955,312.095274 189.295432,324.550494 209.563654,340.60072 C229.831876,356.650947 233.097031,355.031666 239.051137,366 Z" id="Path" fill="url(#linearGradient-5)"></path>
                <path d="M182.109062,301.298881 C178.29308,295.632822 172.272147,291.810064 165.5,290.7536 C165.5,290.7536 178.525109,285.659262 194.570978,301.961145 C210.616847,318.263029 205.322836,318.935481 221.993337,334.758497 C237.260976,349.246796 238.377122,361.972453 238.5,364 C232.765675,353.964153 229.089564,355.054342 209.121826,339.455477 C188.631856,323.40831 188.734254,310.947558 182.109062,301.298881 Z" id="Path" fill="#002630" opacity="0.11"></path>
                <path d="M165.5,291.283702 C165.5,291.283702 185.012356,283.868558 203.917204,295.761544 C223.182438,307.880477 235.528251,325.956172 238.00977,342.594028 C239.258966,350.329773 239.724666,358.171255 239.399832,366 C239.399832,366 238.730543,346.999979 233.623351,332.878342 C228.516159,318.756705 212.206094,298.493439 194.578045,292.824244 C188.060197,290.749647 174.787676,287.771265 165.5,291.283702 Z" id="Path" fill="url(#linearGradient-6)"></path>
                <path d="M233.327085,340.145108 C224.155648,326.170857 205.333819,323.077944 195.5,326.007535 C199.449819,331.183781 204.069225,335.81096 209.236776,339.767425 L211.081254,341.206702 L211.468492,341.502723 L212.823827,342.523487 L213.445447,342.993038 L214.464495,343.779026 L215.096305,344.248577 L216.03383,344.942696 L216.645259,345.391832 L217.531832,346.034913 L218.082118,346.443218 L218.938119,347.055676 L219.457834,347.423151 L220.273072,348.004986 L220.752025,348.33163 L221.536693,348.89305 L221.934122,349.168656 L222.769742,349.750491 L222.993932,349.903606 L227.406413,352.965896 L227.55927,353.07818 L228.211461,353.527316 L228.435652,353.68043 L228.996129,354.078528 L229.2407,354.252058 L229.750225,354.619533 L230.004987,354.813478 L230.473749,355.160537 L230.728511,355.354482 L231.156512,355.681127 L231.411274,355.885279 L231.818893,356.211924 L232.063465,356.426284 C232.195941,356.52836 232.318227,356.640644 232.440513,356.752928 L232.685085,356.967288 L233.041752,357.283725 L233.286324,357.508293 L233.6328,357.845145 L233.856991,358.079921 L234.193277,358.416772 L234.417468,358.661756 L234.743563,359.019023 L234.957563,359.274214 C235.069659,359.396705 235.171564,359.519197 235.273468,359.651896 L235.487469,359.917295 L235.803374,360.315392 L236.017374,360.601206 L236.323088,361.019719 L236.537089,361.325948 L236.842803,361.764876 L237.056804,362.091521 L237.372709,362.571279 C237.434645,362.683804 237.502683,362.792848 237.576518,362.897924 L237.627471,363 C238.789186,358.753624 239.859187,350.05672 233.327085,340.145108 Z" id="Path" fill="#002630" opacity="0.06"></path>
                <path d="M249.101252,327.143075 C245.635147,302.744172 219.259931,286.573518 201.570488,283.020875 C198.908558,282.487383 196.211363,282.146202 193.5,282 C193.5,282.071461 193.5,282.142922 193.5,282.214384 C193.992228,288.339631 200.175842,305.786378 212.204663,316.92412 C225.792206,329.531921 241.789616,340.404236 247.142595,349 C249.350015,341.936046 250.017771,334.484467 249.101252,327.143075 Z" id="Path" fill="#002630" opacity="0.18"></path>
                <path d="M237.208193,366 C237.208193,366 239.316291,352.516836 232.200176,341.685429 C223.582684,328.559233 203.941384,326.315439 192.753041,328.997793 C181.883484,331.618952 176.165911,337.738391 174.5,342.929715 C178.708279,341.717493 183.236146,342.309353 186.984052,344.561566 C193.452312,348.345419 196.753285,355.586755 213.001062,359.340011 C229.248839,363.093267 230.678232,361.277833 237.208193,366 Z" id="Path" fill="url(#linearGradient-7)"></path>
                <path d="M174.5,343.527044 L174.910223,342.914702 C174.910223,342.914702 184.140241,333.454016 198.180124,335.219603 C212.537929,337.026012 224.454908,344.088358 230.351864,352.957113 C233.167846,357.055335 235.562603,361.424942 237.5,366 C237.5,366 231.582533,355.253396 224.854875,348.527838 C218.127218,341.802281 203.389956,335.668654 191.667833,336.189145 C182.232704,336.607578 174.5,343.527044 174.5,343.527044 Z" id="Path" fill="url(#linearGradient-8)"></path>
                <g id="Group" transform="translate(118.500000, 81.000000)">
                    <path d="M72.2345302,48.9031405 C65.0019349,50.7887603 63.4274233,50.4300826 35.9394977,14.4700826 C30.8604279,7.81917355 27.9247256,2.98214876 29.5703442,1.75239669 C24.826493,3.92495868 23.221507,9.78677686 20.235014,19.3378512 C11.6615442,46.7203306 6.17614884,59.5507438 18.924614,63.1887603 C31.6730791,66.8267769 76.8260093,77.7305785 96.1264744,80.8664463 C115.42694,84.002314 113.588316,71.5613223 120.658381,52.1209917 C125.280335,39.4135537 127.565916,30.9590083 124.721637,25.5480992 C125.432707,27.8026446 79.4569674,47.0072727 72.2345302,48.9031405 Z" id="Path" fill="url(#linearGradient-9)"></path>
                    <path d="M35.9394977,14.4700826 C33.9586605,11.8773554 32.3028837,9.56132231 31.1143814,7.63471074 C33.928186,13.9166942 40.6630326,25.8145455 56.5097302,43.9328926 C65.9161674,54.7239669 67.0335628,54.406281 80.5438884,49.5897521 C93.0891907,45.1216529 112.887405,35.2426446 122.659535,27.3107438 C113.73053,32.6909091 78.5224186,47.2634711 72.2751628,48.9031405 C65.012093,50.7887603 63.4274233,50.4300826 35.9394977,14.4700826 Z" id="Path" fill="#002630" opacity="0.06"></path>
                    <path d="M115.325358,19.3173554 C101.3376,15.4333884 64.6159256,7.11206612 43.4666791,2.07008264 C38.4993488,0.881322314 34.872893,0.522644628 32.1098791,0.994049587 L30.3220465,1.44495868 C30.0579349,1.53719008 29.8141395,1.63966942 29.5703442,1.75239669 C27.9247256,2.98214876 30.8502698,7.81917355 35.9394977,14.4700826 C63.4274233,50.4300826 65.0019349,50.7887603 72.2345302,48.9031405 C79.4671256,47.0175207 125.432707,27.8026446 124.670847,25.5480992 C123.147126,22.6786777 120.170791,20.6598347 115.325358,19.3173554 Z" id="Path" fill="url(#linearGradient-10)"></path>
                    <path d="M74.1544186,46.0542149 C66.4342326,48.1038017 61.3145302,47.0790083 32.4349395,9.58181818 C33.4507535,11.0575207 34.6392558,12.6561983 35.9902884,14.4700826 C63.478214,50.4300826 65.0527256,50.7887603 72.2853209,48.9031405 C77.6285023,47.4991736 104.181879,36.6056198 117.326512,30.1494215 C102.465153,36.3186777 79.2334884,44.6912397 74.1544186,46.0542149 Z" id="Path" fill="#FFFFFF"></path>
                    <path d="M24.0849488,42.1907438 C26.8987535,40.5510744 28.9506977,44.1583471 31.4191256,45.0806612 C32.2480599,45.3886087 33.1174575,45.571622 33.999293,45.6238017 C34.6087814,45.6238017 35.1471628,45.5520661 35.746493,45.5418182 C36.5492971,45.5233992 37.3268625,45.8253897 37.9101767,46.3821488 C40.7442977,48.4317355 46.1484279,49.9381818 49.3990326,48.36 C49.9577302,48.0833058 49.5717209,47.2019835 49.0130233,47.4786777 C46.5649116,48.677686 43.100986,47.745124 40.5919256,46.812562 C39.3221581,46.351405 38.7126698,45.418843 37.6562233,44.7629752 C36.9148269,44.4530701 36.0911407,44.4061024 35.3198512,44.6297521 C33.8353272,44.7951077 32.3347653,44.5321426 30.9924837,43.871405 C29.7430326,43.2360331 29.0827535,42.1804959 27.9450419,41.4733884 C26.5849656,40.6199278 24.8683074,40.5962581 23.4856186,41.4119008 C22.9472372,41.7193388 23.5567256,42.4879339 24.095107,42.1804959 L24.0849488,42.1907438 Z" id="Path" fill="#D5EFFF"></path>
                    <path d="M22.347907,47.888595 C24.318586,47.4479339 24.9280744,48.6161983 26.4111628,49.3028099 C27.1784886,49.6263887 28.0086042,49.7700522 28.8389581,49.7229752 C29.6518356,49.6205207 30.4741923,49.6205207 31.2870698,49.7229752 C32.0479808,49.9961632 32.7824446,50.3391985 33.4812279,50.7477686 C34.2758098,51.1377141 35.1257282,51.4004753 36.0004465,51.5266116 C37.0524418,51.6440257 38.0802745,51.9239937 39.0478884,52.3566942 C39.8356729,52.801778 40.7158608,53.0544805 41.6178977,53.0945455 C42.8267163,53.0945455 43.2533581,52.8383471 44.411386,53.5249587 C45.3451456,54.1240902 46.3352939,54.6286896 47.3674047,55.031405 C47.9667349,55.2466116 48.3832186,54.3960331 47.753414,54.1808264 C46.5216134,53.5960758 45.339322,52.9105917 44.2183814,52.1312397 C43.8349836,51.886711 43.3723501,51.8021863 42.9282977,51.8955372 C41.9468198,52.1401394 40.9159007,52.0902748 39.9621209,51.7520661 C39.4948465,51.5368595 39.1088372,51.1166942 38.6314047,50.9117355 C37.4530605,50.3993388 36.2137674,50.6965289 34.9846326,50.3173554 C33.7554977,49.9381818 32.902214,49.1080992 31.7137116,48.8109091 C30.5252093,48.513719 29.3163907,48.8109091 28.1075721,48.6879339 C26.5229023,48.513719 25.6899349,47.3966942 24.2779535,46.9252893 C23.5048722,46.6995377 22.6841883,46.6995377 21.911107,46.9252893 C21.2914605,47.0687603 21.6774698,47.9500826 22.2971163,47.8066116 L22.347907,47.888595 Z" id="Path" fill="#D5EFFF"></path>
                    <path d="M20.2553302,53.0740496 C22.0126884,51.8750413 24.4912744,55.5130579 26.350214,55.7897521 C27.9653581,56.0357025 29.4992372,55.1441322 31.083907,55.9434711 C31.9270326,56.3636364 32.5365209,57.04 33.4507535,57.4089256 C34.3661352,57.7454664 35.3233345,57.9523936 36.2950326,58.0238017 C37.558067,58.1988418 38.7679796,58.650012 39.8402233,59.3457851 C41.9344559,60.3740136 44.2358927,60.9000968 46.5649116,60.8829752 C47.2048744,60.8829752 47.0626605,59.9504132 46.4328558,59.9504132 C44.6363475,59.9546033 42.8561514,59.6065544 41.1912558,58.9256198 C40.0332279,58.4439669 38.9970977,57.5216529 37.7781209,57.2039669 C36.5591442,56.886281 35.3401674,57.1014876 34.1313488,56.6608264 C32.9225302,56.2201653 32.0489302,55.174876 30.8502698,54.7649587 C29.9787571,54.5550617 29.070508,54.5550617 28.1989953,54.7649587 C25.9235721,55.021157 25.0906047,54.1808264 23.5567256,52.9305785 C22.4494884,52.0185124 20.9054512,51.4241322 19.656,52.2747107 C19.1379349,52.6231405 19.7474233,53.3917355 20.2553302,53.0433058 L20.2553302,53.0740496 Z" id="Path" fill="#D5EFFF"></path>
                    <path d="M102.170567,40.8790083 C101.865823,30.4056198 101.154753,23.6624793 97.7822512,20.5573554 C96.0045767,18.907438 93.4955163,18.2720661 89.9198512,18.6512397 C79.5788651,19.7477686 52.9543814,23.9801653 37.5546419,26.2347107 C33.9383442,26.7573554 31.4597581,27.5157025 29.7227163,28.6224793 L28.7069023,29.442314 C28.5570521,29.5814738 28.4146373,29.7285683 28.2802605,29.8829752 C25.7102512,32.7728926 26.2486326,37.4561983 26.7565395,45.1933884 C28.3310512,67.3699174 28.0872558,78.1712397 37.5343256,77.2386777 C46.9813953,76.3061157 79.9242419,71.5920661 93.546307,68.4971901 C107.168372,65.402314 102.597209,56.9067769 102.170567,40.8790083 Z" id="Path" fill="#002630" opacity="0.06"></path>
                    <path d="M42.4203907,17.1345455 C42.4203907,17.1345455 53.7264,5.94380165 65.1949395,11.0677686 C76.6634791,16.1917355 79.5077581,26.0502479 79.5077581,26.0502479 C79.5077581,26.0502479 69.4207256,36.1547107 59.4860651,30.8975207 C49.5514047,25.6403306 52.0198326,22.473719 42.4203907,17.1345455 Z" id="Path" fill="url(#linearGradient-11)"></path>
                    <path d="M58.165507,19.4710744 C58.165507,19.4710744 75.1702326,21.0697521 84.8509395,30.7438017 C86.6895628,32.5679339 88.2742326,30.4056198 85.9581767,28.8786777 C83.6421209,27.3517355 72.0212093,19.3276033 58.165507,19.4710744 Z" id="Path" fill="#47BA83"></path>
                    <path d="M71.6555163,54.1295868 C67.3484651,57.511405 66.2005953,57.6958678 38.367293,39.372562 C33.2171163,35.9804959 29.9868279,33.3057851 30.7588465,31.9633058 C28.1786791,34.8532231 28.6764279,39.5365289 29.2249674,47.273719 C30.7994791,69.4502479 30.5658419,80.2515702 40.0027535,79.3190083 C49.4396651,78.3864463 82.3926698,73.6723967 96.0147349,70.5775207 C109.6368,67.4826446 105.15706,58.9871074 104.689786,42.9080992 C104.385042,32.4347107 103.673972,25.6915702 100.30147,22.5864463 C101.408707,24.0519008 75.9524093,50.7580165 71.6555163,54.1295868 Z" id="Path" fill="#E29A3B"></path>
                    <path d="M38.367293,39.372562 C36.3356651,38.0505785 34.649414,36.8413223 33.3491721,35.7755372 C36.8943628,39.5365289 44.5231256,46.2489256 59.8517581,54.9391736 C68.9940837,60.1143802 69.6238884,59.5712397 77.3339163,52.3259504 C84.444614,45.6033058 95.0090791,32.9163636 99.4075535,24.482314 C94.8973395,30.8565289 75.3733953,51.2089256 71.6555163,54.1295868 C67.3484651,57.511405 66.2005953,57.6958678 38.367293,39.372562 Z" id="Path" fill="#002630" opacity="0.06"></path>
                    <path d="M92.4390698,20.7315702 C82.0980837,21.8280992 55.4736,26.0604959 40.0840186,28.3150413 C36.4575628,28.837686 33.9891349,29.5960331 32.2419349,30.7028099 C31.744186,31.0922314 31.3886512,31.3689256 31.1753302,31.5226446 C31.0287477,31.6618683 30.8897177,31.8089691 30.7588465,31.9633058 C29.9868279,33.3057851 33.2171163,35.9804959 38.367293,39.372562 C66.2005953,57.6958678 67.3484651,57.511405 71.6555163,54.1295868 C75.9625674,50.7477686 101.408707,24.0519008 100.30147,22.637686 C98.5339535,20.9877686 96.0147349,20.3523967 92.4390698,20.7315702 Z" id="Path" fill="#F4B145"></path>
                    <path d="M72.1227907,51.5573554 C67.5414698,55.185124 63.8642233,55.8717355 34.7002047,36.8310744 C35.7160186,37.6201653 36.985786,38.4707438 38.3571349,39.372562 C66.1904372,57.6958678 67.338307,57.511405 71.6453581,54.1295868 C74.8248558,51.6290909 89.5846326,36.3699174 96.603907,28.0178512 C88.375814,36.6056198 75.1702326,49.1900826 72.1227907,51.5573554 Z" id="Path" fill="#FCCC8B"></path>
                    <path d="M37.859386,62.7071074 C39.2916837,60.7395041 41.6178977,62.778843 43.4971535,62.7583471 C44.1343003,62.7492295 44.7656747,62.6349929 45.3662512,62.4201653 C45.7725767,62.2766942 46.1077953,62.0614876 46.4938047,61.8872727 C47.0264694,61.6439392 47.6372329,61.6439392 48.1698977,61.8872727 C50.597693,62.5943802 54.5898419,62.153719 56.2964093,60.1041322 C56.5909953,59.7557025 56.1034047,59.2228099 55.8088186,59.5814876 C54.4882605,61.1289256 51.9487256,61.4261157 50.0288372,61.4466116 C49.1758326,61.3312739 48.3400336,61.1110128 47.540093,60.7907438 C46.9582925,60.7771089 46.39144,60.9774431 45.9452651,61.3543802 C45.0181879,61.877278 43.955084,62.1025033 42.8978233,62 C41.992614,61.7576336 41.100824,61.4668648 40.2262326,61.1289256 C39.0863119,60.8988307 37.9191811,61.3690061 37.2498977,62.3279339 C36.9756279,62.6968595 37.5851163,63.086281 37.859386,62.7071074 Z" id="Path" fill="#FFD49C"></path>
                    <path d="M38.1844465,67.3289256 C39.383107,66.4578512 40.0941767,67.1342149 41.2826791,67.2161983 C41.8766197,67.2288366 42.4650323,67.0988738 42.9994047,66.8370248 C43.5121619,66.5364015 44.0620854,66.3055284 44.6348651,66.1504132 C45.2171079,66.1416901 45.7988241,66.189737 46.371907,66.2938843 C47.0046522,66.3572855 47.6434697,66.3122422 48.2613209,66.1606612 C48.9894136,65.9448857 49.748418,65.8548017 50.5062698,65.8942149 C51.1471742,66.0009168 51.8044645,65.9409556 52.416,65.72 C53.2286512,65.3920661 53.431814,65.0743802 54.3866791,65.248595 C55.1643603,65.4198142 55.957562,65.5091084 56.7535256,65.5150413 C57.2106419,65.5150413 57.2512744,64.7771901 56.7535256,64.787438 C55.7805975,64.7171268 54.8154302,64.5628435 53.868614,64.326281 C53.5484956,64.2527983 53.2125047,64.3198455 52.9442233,64.5107438 C52.3627179,64.9683396 51.649939,65.2236129 50.9125953,65.2383471 C50.5367442,65.2383471 50.1710512,65.0128926 49.8053581,65.0026446 C48.8809674,65.0026446 48.1394233,65.5150413 47.2150326,65.5867769 C46.2906419,65.6585124 45.5186233,65.2895868 44.6450233,65.412562 C43.8126911,65.6542485 43.0008406,65.9626687 42.2172279,66.334876 C41.1099907,66.642314 40.256707,66.0684298 39.169786,66.1299174 C38.589555,66.1833999 38.0397631,66.4159959 37.5952744,66.7960331 C37.2295814,67.0727273 37.7171721,67.5953719 38.0930233,67.3289256 L38.1844465,67.3289256 Z" id="Path" fill="#FFD49C"></path>
                    <path d="M38.2047628,71.6433058 C39.0580465,70.2905785 41.6686884,72.227438 42.9790884,71.9097521 C44.1168,71.6330579 44.8989767,70.5570248 46.1687442,70.7004959 C46.8391814,70.7722314 47.4283535,71.0796694 48.1292651,71.1001653 C48.8196526,71.0841631 49.5040475,70.9667875 50.160893,70.7517355 C51.0524441,70.5370443 51.9815652,70.5370443 52.8731163,70.7517355 C54.5357938,70.917469 56.2130232,70.6566104 57.7490233,69.9933884 C58.1756651,69.8191736 57.8404465,69.1838017 57.4138047,69.3580165 C56.2241336,69.8595183 54.9444685,70.1072463 53.655293,70.0856198 C52.7560706,69.9208262 51.8462621,69.8215065 50.9329116,69.7884298 C50.0873029,70.0434075 49.229557,70.2554642 48.3629023,70.4238017 C47.4181953,70.4238017 46.5852279,69.9216529 45.6811535,69.9626446 C45.043717,70.0639023 44.4404468,70.3207116 43.9237953,70.7107438 C42.4813395,71.5408264 41.6991628,71.151405 40.3481302,70.7107438 C39.3958101,70.2292063 38.2393743,70.4856147 37.5749581,71.3256198 C37.5054251,71.4917733 37.5651605,71.6842877 37.7161922,71.7807866 C37.8672238,71.8772856 38.0652737,71.8494783 38.1844465,71.7150413 L38.2047628,71.6433058 Z" id="Path" fill="#FFD49C"></path>
                    <path d="M102.962902,57.2859504 C101.947088,55.328595 99.9154605,53.934876 96.6140651,53.002314 C87.0857302,50.2968595 62.0763907,44.4760331 47.682307,40.9507438 C45.1754553,40.1930988 42.5476049,39.9286867 39.9418047,40.1719008 L38.7228279,40.4793388 C38.5468015,40.5387387 38.3738891,40.6071469 38.2047628,40.6842975 C34.9643163,42.1395041 33.8469209,46.1361983 31.7746605,52.6436364 C25.8219907,71.2743802 22.0330047,79.9953719 30.7080558,82.5266116 C39.383107,85.0578512 70.1622698,92.6720661 83.2662698,94.8958678 C96.3702698,97.1196694 95.2122419,88.6138843 100.108465,75.4247934 C103.308279,66.7447934 104.903107,60.9854545 102.962902,57.2859504 Z" id="Path" fill="#002630" opacity="0.06"></path>
                    <path d="M68.7909209,75.9679339 C63.843907,77.2284298 62.7773023,76.9927273 44.1675907,52.397686 C40.7239814,47.8373554 38.7533023,44.5375207 39.8808558,43.6971901 C36.6404093,45.1626446 35.523014,49.1490909 33.4405953,55.6565289 C27.4980837,74.2975207 23.6989395,83.0185124 32.4247814,85.5497521 C41.1506233,88.0809917 71.8688372,95.6952066 84.9829953,97.9087603 C98.0971535,100.122314 96.9188093,91.6370248 101.825191,78.437686 C105.025005,69.7884298 106.619833,64.0905785 104.66947,60.3295868 C105.146902,61.7950413 73.7176186,74.707438 68.7909209,75.9679339 Z" id="Path" fill="url(#linearGradient-12)"></path>
                    <path d="M44.1675907,52.3464463 C43.0050955,50.8426647 41.9201242,49.2794933 40.916986,47.6631405 C42.8064,51.9672727 47.3470884,60.0938843 58.0537674,72.5246281 C64.4330791,79.9133884 65.1644651,79.6981818 74.4185302,76.4700826 C82.992,73.477686 96.5328,66.7960331 103.227014,61.4466116 C97.1321302,65.0743802 73.0573395,74.8816529 68.7909209,75.9679339 C63.843907,77.2284298 62.7773023,76.9722314 44.1675907,52.3464463 Z" id="Path" fill="#002630" opacity="0.06"></path>
                    <path d="M98.2901581,55.9639669 C88.7618233,53.2585124 63.7524837,47.4479339 49.3584,43.9226446 C46.8514991,43.1652507 44.223697,42.9008434 41.6178977,43.1438017 L40.3989209,43.4409917 C40.2160744,43.5024793 40.043386,43.5742149 39.8808558,43.6459504 C38.7533023,44.486281 40.7239814,47.745124 44.1675907,52.3464463 C62.7773023,76.9414876 63.843907,77.2284298 68.7909209,75.9166942 C73.7379349,74.6049587 105.146902,61.7950413 104.628837,60.2476033 C103.613023,58.2902479 101.581395,56.9067769 98.2901581,55.9639669 Z" id="Path" fill="url(#linearGradient-13)"></path>
                    <path d="M70.0911628,74.0310744 C64.8190884,75.4042975 61.3348465,74.6869421 41.790586,48.9953719 C42.4610233,50.0201653 43.2736744,51.1371901 44.187907,52.3464463 C62.7976186,76.9414876 63.8642233,77.2284298 68.8112372,75.9166942 C72.4580093,74.9841322 90.6004465,67.7183471 99.5904,63.3117355 C89.4525767,67.5031405 73.5652465,73.1292562 70.0911628,74.0310744 Z" id="Path" fill="#FFFFFF"></path>
                    <path d="M35.9801302,71.2026446 C37.9000186,70.0958678 39.2916837,72.5656198 40.9677767,73.2009917 C41.5356202,73.4131323 42.1310194,73.5408594 42.735293,73.5801653 C43.1416186,73.5801653 43.5073116,73.5801653 43.9136372,73.5289256 C44.4651783,73.5177719 44.9985706,73.7278548 45.3967256,74.1130579 C47.316614,75.5375207 50.9938605,76.572562 53.218493,75.5067769 C53.5943442,75.322314 53.3403907,74.717686 52.9645395,74.9021488 C51.2782884,75.7117355 48.9012837,75.0661157 47.2150326,74.4204959 C46.3617488,74.092562 45.9452651,73.4571901 45.1834047,73.0165289 C44.6792532,72.7985396 44.1160689,72.7623509 43.5885767,72.9140496 C42.5762734,73.025468 41.5535787,72.8404673 40.6427163,72.381157 C39.9378327,71.8667971 39.2597222,71.3160927 38.6110884,70.7312397 C37.6841996,70.1455019 36.513009,70.121871 35.5636465,70.6697521 C35.1979535,70.8849587 35.5636465,71.4076033 35.9699721,71.2026446 L35.9801302,71.2026446 Z" id="Path" fill="#D5EFFF"></path>
                    <path d="M34.7408372,75.0763636 C36.0918698,74.7894215 36.4981953,75.5887603 37.5241674,76.101157 C38.0474475,76.3227673 38.6130089,76.4242782 39.1799442,76.3983471 C39.7366881,76.3316862 40.2992932,76.3316862 40.8560372,76.3983471 C41.3746069,76.5947451 41.8744112,76.8382811 42.3492837,77.1259504 C42.8854508,77.3984905 43.4617238,77.581898 44.0558512,77.6690909 C44.7774272,77.7561964 45.4824482,77.9495468 46.1484279,78.2429752 C46.6840904,78.5484015 47.2815148,78.7271106 47.8956279,78.7656198 C48.7184372,78.7656198 49.0028651,78.591405 49.7952,79.0628099 C50.43576,79.4738296 51.1165573,79.8172373 51.8268279,80.0876033 C52.2331535,80.2310744 52.5074233,79.6571901 52.0909395,79.5034711 C51.2543713,79.1117687 50.4523695,78.6489412 49.6936186,78.12 C49.4324853,77.9486581 49.1143338,77.8896302 48.8098605,77.9560331 C48.1363904,78.1207451 47.429735,78.0815354 46.7782326,77.8433058 C46.4633302,77.6998347 46.1992186,77.4128926 45.8741581,77.2694215 C45.057495,77.0771647 44.2296707,76.9368334 43.3955721,76.8492562 C42.5930791,76.5930579 41.9835907,76.0191736 41.1709395,75.8244628 C40.3508031,75.7423906 39.526419,75.711588 38.7025116,75.7322314 C37.6257488,75.6092562 37.0670512,74.8406612 36.1020279,74.5127273 C35.5744688,74.3587145 35.0144428,74.3587145 34.4868837,74.5127273 C34.0704,74.6049587 34.3243535,75.1993388 34.7509953,75.1071074 L34.7408372,75.0763636 Z" id="Path" fill="#D5EFFF"></path>
                    <path d="M33.3288558,78.6016529 C34.5376744,77.802314 36.2036093,80.292562 37.4733767,80.4872727 C38.5704558,80.6512397 39.6269023,80.0568595 40.7036651,80.6102479 C41.2725209,80.8971901 41.7194791,81.3583471 42.3086512,81.6350413 C42.9322365,81.8693943 43.5853435,82.014279 44.2488558,82.0654545 C45.1073113,82.1901585 45.9287108,82.5013432 46.6563349,82.9775207 C48.0801061,83.6896446 49.6485122,84.0580224 51.2376558,84.0535537 C51.6744558,84.0535537 51.5830326,83.4284298 51.1462326,83.4181818 C49.9233946,83.4193014 48.7121487,83.1790885 47.5807256,82.7110744 C46.8374315,82.2602698 46.0634847,81.8630267 45.2646698,81.522314 C44.4287641,81.4376434 43.5979813,81.3076482 42.7759256,81.1328926 C41.9328,80.8357025 41.353786,80.1080992 40.5411349,79.831405 C39.9502509,79.6878502 39.3340282,79.6878502 38.7431442,79.831405 C37.1787907,80.0056198 36.620093,79.4214876 35.5839628,78.5606612 C34.8912851,77.8381465 33.8144787,77.651564 32.9225302,78.0995041 C32.5669953,78.3352066 32.9834791,78.8578512 33.3288558,78.6221488 L33.3288558,78.6016529 Z" id="Path" fill="#D5EFFF"></path>
                    <path d="M39.2002605,45.654535 C39.2002605,45.654535 55.0469581,45.5828099 59.7298605,57.3269421 C64.4127628,69.0710744 59.6282791,78.1302479 59.6282791,78.1302479 C59.6282791,78.1302479 45.4068837,78.2839669 41.9226419,67.5236364 C38.4384,56.7633058 42.4000744,56.2304132 39.2002605,45.654535 Z" id="Path" fill="url(#linearGradient-14)"></path>
                    <path d="M48.850493,58.4132231 C48.850493,58.4132231 59.9533395,71.4793388 60.2479256,85.2013223 C60.2987163,87.8042975 62.9296744,87.3636364 62.3303442,84.6479339 C61.731014,81.9322314 58.9172093,68.046281 48.850493,58.4132231 Z" id="Path" fill="#47BA83"></path>
                    <path d="M13.7541209,58.7719008 C13.7541209,58.7719008 23.6379907,50.0816529 34.801786,55.6975207 C45.9655814,61.3133884 49.3177674,70.2700826 49.3177674,70.2700826 C49.3177674,70.2700826 40.5005023,78.1302479 30.7791628,72.5246281 C21.0578233,66.9190083 23.1605581,64.4082645 13.7541209,58.7719008 Z" id="Path" fill="url(#linearGradient-15)"></path>
                    <path d="M28.757693,62.4201653 C28.757693,62.4201653 44.8685023,65.4945455 54.671107,74.9021488 C56.5198884,76.6852893 57.8709209,74.9021488 55.5853395,73.3752066 C53.2997581,71.8482645 41.8007442,63.6396694 28.757693,62.4201653 Z" id="Path" fill="#47BA83"></path>
                    <path d="M64.2908651,85.8981818 C65.0628837,76.8287603 65.1136744,70.9361983 62.5233488,67.9028099 C61.152,66.3041322 59.0492651,65.5047934 55.9205581,65.4740496 C46.8899721,65.3715702 23.4856186,66.334876 9.96513488,66.7140496 C9.19311628,66.7140496 8.47188837,66.7755372 7.8116093,66.8370248 C7.72018605,83.233719 7.99445581,98.6056198 8.04524651,110.759669 C18.924614,110.759669 43.2432,110.021818 54.0616186,108.863802 C66.1294884,107.603306 63.0922047,99.7841322 64.2908651,85.8981818 Z" id="Path" fill="#002630" opacity="0.06"></path>
                    <path d="M37.1787907,94.9778512 C33.1155349,97.4578512 32.0997209,97.498843 9.91434419,78.8680992 C5.85108837,75.4145455 3.28107907,72.7808264 4.07341395,71.6945455 C1.56435349,73.928595 1.52372093,78.0277686 1.22913488,84.7606612 C0.386009302,104.067769 -0.893916279,113.362645 7.3240186,113.516364 C15.5419535,113.670083 44.4723349,112.932231 56.5503628,111.640992 C68.6283907,110.349752 65.5809488,102.551074 66.7796093,88.6753719 C67.5516279,79.6059504 67.6024186,73.7031405 65.012093,70.68 C65.8552186,72.0224793 41.2217302,92.4876033 37.1787907,94.9778512 Z" id="Path" fill="#E29A3B"></path>
                    <path d="M9.91434419,78.9090909 C8.30935814,77.5666116 6.95832558,76.3471074 5.93235349,75.2915702 C8.62426047,78.898843 14.5464558,85.4677686 26.9089116,94.5166942 C34.2735628,99.9071074 34.8932093,99.507438 42.2578605,94.0350413 C49.1044465,88.9110744 59.4555907,79.0628099 64.0877023,72.227438 C59.5571721,77.2796694 40.7239814,92.8667769 37.1787907,95.018843 C33.125693,97.4578512 32.1200372,97.498843 9.91434419,78.9090909 Z" id="Path" fill="#002630" opacity="0.06"></path>
                    <path d="M58.4397767,68.2512397 C49.4091907,68.1487603 26.0048372,69.1018182 12.4843535,69.4912397 C10.0894657,69.4233524 7.70655019,69.8559989 5.48539535,70.7619835 L4.4695814,71.3666116 C4.32736744,71.4690909 4.19531163,71.5818182 4.06325581,71.6945455 C3.27092093,72.7808264 5.79013953,75.4145455 9.90418605,78.8680992 C32.1098791,97.498843 33.1155349,97.4578512 37.1686326,94.9778512 C41.2217302,92.4978512 65.8552186,72.0224793 65.012093,70.7107438 C63.6712186,69.0813223 61.5684837,68.2819835 58.4397767,68.2512397 Z" id="Path" fill="#F4B145"></path>
                    <path d="M37.8492279,92.7950413 C33.5320186,95.4697521 30.2915721,95.6952066 6.99895814,76.3061157 C7.84208372,77.0952066 8.81726512,77.9457851 9.91434419,78.8680992 C32.1200372,97.498843 33.125693,97.4578512 37.1787907,94.9778512 C40.1754419,93.1332231 54.4476279,81.4505785 61.3246884,74.9636364 C53.3810233,81.5428099 40.7239814,91.0221488 37.8492279,92.7950413 Z" id="Path" fill="#FCCC8B"></path>
                    <path d="M7.11069767,98.9642975 C8.54299535,97.4066116 10.3511442,99.3947107 11.9764465,99.5689256 C12.5263829,99.6255779 13.0817333,99.5944523 13.6220651,99.4766942 C13.9877581,99.3844628 14.2925023,99.2307438 14.6378791,99.1180165 C15.120701,98.9593052 15.6482935,99.023026 16.0803349,99.2922314 C18.1119628,100.14281 21.5962047,100.173554 23.3027721,98.585124 C23.5872,98.3084298 23.221507,97.7960331 22.9269209,98.0727273 C21.6469953,99.2819835 19.4122047,99.2717355 17.7564279,99.0975207 C17.0322751,98.9092785 16.3331355,98.6340318 15.6740093,98.277686 C15.1773353,98.2026112 14.6706999,98.3157864 14.2518698,98.5953719 C13.3896819,98.9657132 12.434401,99.0552787 11.5193302,98.8515702 C10.6762047,98.6568595 10.1073488,98.0829752 9.30485581,97.8267769 C8.3439229,97.5093756 7.28786573,97.7948203 6.61294884,98.5543802 C6.33867907,98.8515702 6.82626977,99.2409917 7.10053953,98.9540496 L7.11069767,98.9642975 Z" id="Path" fill="#FFD49C"></path>
                    <path d="M6.96848372,102.981488 C8.09603721,102.346116 8.64457674,102.981488 9.6603907,103.196694 C10.1731846,103.2686 10.6955861,103.215898 11.1841116,103.042975 C11.6546015,102.835929 12.1496994,102.691254 12.6570419,102.612562 C13.1638505,102.663601 13.6641841,102.766613 14.1502884,102.92 C14.6876376,103.035946 15.2404522,103.060194 15.7857488,102.991736 C16.4382927,102.88389 17.1038841,102.88389 17.7564279,102.991736 C18.3032673,103.13013 18.8755234,103.13013 19.4223628,102.991736 C20.1537488,102.786777 20.3670698,102.540826 21.1695628,102.786777 C21.828258,103.01413 22.509449,103.168753 23.2011907,103.247934 C23.5973581,103.247934 23.7090977,102.663802 23.3027721,102.633058 C22.4716821,102.472301 21.6559755,102.239141 20.8648186,101.936198 C20.5928553,101.841477 20.2938326,101.867547 20.0420093,102.007934 C19.5024883,102.337987 18.8724385,102.485221 18.2440186,102.428099 C17.9189581,102.366612 17.6243721,102.161653 17.3094698,102.110413 C16.5171349,101.987438 15.8162233,102.387107 15.0137302,102.356364 C14.2112372,102.32562 13.5814326,101.92595 12.809414,101.946446 C12.0698942,102.076585 11.3401601,102.258063 10.625414,102.489587 C9.6096,102.653554 8.96963721,102.069421 8.04524651,102.007934 C7.5402515,102.001616 7.04494381,102.147952 6.62310698,102.428099 C6.26757209,102.633058 6.62310698,103.135207 6.9888,102.940496 L6.96848372,102.981488 Z" id="Path" fill="#FFD49C"></path>
                    <path d="M6.56215814,106.701488 C7.43575814,105.625455 9.49786047,107.562314 10.625414,107.418843 C11.6412279,107.295868 12.4132465,106.445289 13.5001674,106.69124 C14.0423003,106.901367 14.5949852,107.082663 15.1559442,107.23438 C15.7596865,107.300861 16.3700766,107.269725 16.964093,107.142149 C17.7512347,107.038823 18.5514248,107.12306 19.3004651,107.388099 C20.7198215,107.703522 22.1955932,107.647074 23.5872,107.224132 C23.9732093,107.121653 23.7497302,106.537521 23.3637209,106.64 C22.2894244,106.956721 21.1608577,107.04054 20.0521674,106.88595 C19.2898079,106.657164 18.5125016,106.482521 17.7259535,106.363306 C16.9696905,106.497693 16.2066803,106.590063 15.4403721,106.64 C14.6277209,106.568264 13.9572837,106.035372 13.175107,105.973884 C12.6133893,105.997724 12.0659324,106.159544 11.5802791,106.445289 C10.2495628,107.008926 9.61975814,106.609256 8.53283721,106.055868 C7.75553844,105.547918 6.73252043,105.654536 6.07456744,106.312066 C5.82061395,106.619504 6.30820465,107.019174 6.56215814,106.701488 Z" id="Path" fill="#FFD49C"></path>
                    <path d="M24.5014326,123.190413 C24.5014326,123.190413 23.8614698,107.224132 35.3198512,102.069421 C46.7782326,96.9147107 55.9307163,101.413554 55.9307163,101.413554 C55.9307163,101.413554 56.6011535,115.760661 46.0671628,119.644628 C35.5331721,123.528595 34.8627349,119.58314 24.5014326,123.190413 Z" id="Path" fill="url(#linearGradient-16)"></path>
                    <path d="M36.8130977,112.993719 C36.8130977,112.993719 49.3482419,101.33157 62.9804651,100.532231 C65.5606326,100.38876 65.012093,97.7447934 62.3608186,98.4826446 C59.7095442,99.2204959 45.9655814,102.479339 36.8130977,112.993719 Z" id="Path" fill="#47BA83"></path>
                    <path d="M114.207963,86.1543802 C113.568,76.7672727 112.643609,70.7824793 109.301581,68.1385124 C109.301581,68.1385124 109.301581,68.2717355 109.301581,68.3844628 C109.301581,68.4971901 109.301581,68.3127273 109.301581,68.2922314 C107.534065,66.9087603 105.075795,66.4783471 101.622028,67.0112397 C91.656893,68.5381818 66.0075907,73.7543802 51.1665488,76.5930579 C48.525112,76.9620236 45.9774621,77.8349773 43.6596837,79.1652893 L42.6438698,79.9543802 C42.5040578,80.0867783 42.3717902,80.227058 42.2477023,80.3745455 C42.2041461,80.450023 42.1764819,80.5337491 42.1664372,80.6204959 C42.1764819,80.5337491 42.2041461,80.450023 42.2477023,80.3745455 C39.8503814,83.1004959 40.480186,87.1279339 41.2318884,94.0452893 C43.4768372,113.875041 43.7815814,122.350083 52.9035907,121.017851 C62.0256,119.68562 90.7426605,110.503471 103.836502,106.998678 C116.930344,103.493884 115.172986,100.521983 114.207963,86.1543802 Z" id="Path" fill="#002630" opacity="0.06"></path>
                    <path d="M84.4344558,99.2512397 C80.3712,102.520331 79.2741209,102.735537 51.7354047,87.7735537 C46.6563349,84.9963636 43.4158884,82.926281 44.1066419,81.6760331 C41.7093209,84.4019835 42.3391256,88.4294215 43.0908279,95.3467769 C45.3357767,115.176529 45.6405209,123.65157 54.7625302,122.319339 C63.8845395,120.987107 92.6016,111.804959 105.695442,108.300165 C118.789284,104.795372 116.991293,101.823471 116.02627,87.4558678 C115.386307,78.0687603 114.461916,72.0839669 111.119888,69.44 C112.277916,70.6492562 88.4875535,95.9821488 84.4344558,99.2512397 Z" id="Path" fill="url(#linearGradient-17)"></path>
                    <path d="M51.9893581,108.904793 C53.3099163,107.060165 55.6259721,108.761322 57.4544372,108.638347 C58.0666208,108.601583 58.6695848,108.470247 59.2422698,108.248926 C59.6384372,108.095207 59.9533395,107.88 60.3291907,107.705785 C60.8359095,107.441515 61.4294111,107.404325 61.9646512,107.603306 C64.3314977,108.105455 68.1915907,107.511074 69.8067349,105.553719 C70.0810047,105.225785 69.593414,104.764628 69.3191442,105.10281 C68.0900093,106.568264 65.6418977,106.967934 63.7829581,107.090909 C62.9568345,107.027639 62.1396481,106.876498 61.3450047,106.64 C60.7877324,106.647203 60.2511941,106.85427 59.8314419,107.224132 C58.9327659,107.751536 57.9042297,108.010943 56.8652651,107.972231 C55.9002419,107.972231 55.179014,107.449587 54.2546233,107.326612 C53.1554126,107.184292 52.0662643,107.655196 51.4103442,108.556364 C51.1563907,108.915041 51.7557209,109.222479 52.0096744,108.87405 L51.9893581,108.904793 Z" id="Path" fill="#D5EFFF"></path>
                    <path d="M52.4464744,113.034711 C53.584186,112.184132 54.2952558,112.758017 55.4431256,112.768264 C56.0198598,112.750437 56.5854428,112.603416 57.0989023,112.337851 C57.5882659,112.03569 58.1140004,111.798052 58.6632558,111.630744 C59.2241936,111.579537 59.7885692,111.579537 60.349507,111.630744 C60.963407,111.648442 61.5764327,111.572432 62.167814,111.405289 C62.8699493,111.174145 63.603112,111.053176 64.3416558,111.046612 C64.9660221,111.11089 65.596561,111.023029 66.1802791,110.790413 C66.9522977,110.452231 67.196093,110.155041 68.0798512,110.257521 C68.8389271,110.377543 69.6085489,110.415334 70.3755907,110.370248 C70.8225488,110.370248 70.832707,109.683636 70.3755907,109.724628 C69.4319862,109.714076 68.4908555,109.624958 67.561786,109.458182 C67.2506172,109.410058 66.9331723,109.48736 66.6780279,109.673388 C66.1260578,110.111397 65.4581654,110.375212 64.7581395,110.431736 C64.4026047,110.431736 64.0369116,110.278017 63.6813767,110.278017 C62.8407132,110.455543 62.0099667,110.677894 61.1926326,110.944132 C60.349507,111.046612 59.5368558,110.769917 58.6937302,110.944132 C57.8985736,111.210356 57.1215131,111.52872 56.3675163,111.89719 C55.3517023,112.24562 54.4679442,111.763967 53.4521302,111.89719 C52.8959049,111.975207 52.3738514,112.213631 51.9487256,112.583802 C51.5931907,112.850248 52.0909395,113.301157 52.4363163,113.034711 L52.4464744,113.034711 Z" id="Path" fill="#D5EFFF"></path>
                    <path d="M52.6090047,116.90843 C53.3911814,115.647934 55.981507,117.246612 57.2411163,116.90843 C58.3381953,116.600992 59.0594233,115.596694 60.2885581,115.658182 C60.9488372,115.658182 61.5278512,115.934876 62.2084465,115.904132 C62.8821804,115.862116 63.5461514,115.720551 64.1791256,115.483967 C65.0330072,115.232932 65.9310024,115.173469 66.8100837,115.309752 C68.4258674,115.368448 70.032907,115.045603 71.5031442,114.366942 C71.9094698,114.182479 71.564093,113.629091 71.1577674,113.813554 C70.0169805,114.326685 68.7895761,114.615379 67.5414698,114.664132 C66.6647056,114.565449 65.7822467,114.527784 64.9003535,114.551405 C64.0470698,114.694876 63.3156837,115.176529 62.4319256,115.248264 C61.5481674,115.32 60.6847256,114.899835 59.8111256,114.981818 C59.2006994,115.102772 58.6267394,115.365969 58.1350326,115.750413 C56.7636837,116.570248 56.0018233,116.26281 54.671107,115.91438 C53.7286962,115.5293 52.6474997,115.812396 52.0096744,116.61124 C51.7861953,116.980165 52.3855256,117.287603 52.6090047,116.928926 L52.6090047,116.90843 Z" id="Path" fill="#D5EFFF"></path>
                    <path d="M55.0368,113.106446 C55.0368,113.106446 52.558214,101.065124 60.6136186,95.6849587 C65.1518451,92.5222148 70.7903826,91.4083022 76.1758884,92.6105785 C76.1758884,92.6105785 78.4716279,103.401653 70.9647628,107.695537 C63.4578977,111.989421 62.4522419,109.048264 55.0368,113.106446 Z" id="Path" fill="url(#linearGradient-18)"></path>
                    <path d="M63.1125209,103.801322 C63.1125209,103.801322 71.1780837,93.3586777 81.3971721,91.0323967 C83.3373767,90.5917355 82.6059907,88.654876 80.665786,89.5361983 C78.7255814,90.4175207 68.7502884,94.6806612 63.1125209,103.801322 Z" id="Path" fill="#47BA83"></path>
                    <path d="M51.7252465,87.9272727 C49.7444093,86.8409917 48.0378419,85.877686 46.7477581,84.9553719 C50.2929488,88.1527273 57.9217116,93.768595 73.0268651,100.757686 C82.0371349,104.918347 82.6466233,104.395702 89.8690605,97.4783471 C96.5835907,91.0528926 106.365879,79.1038017 110.34787,71.305124 C106.193191,77.2694215 87.939014,96.5765289 84.4344558,99.4049587 C80.3712,102.67405 79.2334884,102.889256 51.7252465,87.9272727 Z" id="Path" fill="#002630" opacity="0.06"></path>
                    <path d="M103.480967,68.3127273 C93.5056744,69.8396694 67.8563721,75.0558678 53.0254884,77.8945455 C50.380495,78.2620018 47.8292405,79.1350092 45.5084651,80.4667769 L44.4926512,81.2558678 C44.3504372,81.3993388 44.2183814,81.532562 44.0964837,81.6760331 C43.4057302,82.926281 46.6157023,85.1500826 51.7150884,87.9272727 C79.2538047,102.889256 80.3610419,102.67405 84.4242977,99.4049587 C88.4875535,96.1358678 112.2576,70.8029752 111.140205,69.593719 C109.382847,68.2102479 106.924577,67.7798347 103.480967,68.3127273 Z" id="Path" fill="url(#linearGradient-19)"></path>
                    <path d="M84.8204651,97.0581818 C80.4930977,100.573223 76.9580651,101.38281 48.0987907,85.8366942 C49.1146047,86.492562 50.374214,87.1894215 51.7252465,87.886281 C79.2639628,102.848264 80.3712,102.633058 84.4344558,99.3639669 C87.431107,96.9454545 101.22586,82.454876 107.798177,74.5844628 C100.088149,82.772562 87.6850605,94.7319008 84.8204651,97.0581818 Z" id="Path" fill="#FFFFFF"></path>
                </g>
                <path d="M223.841714,161.450311 C222.453143,132.932614 218.38,108.318091 207.322857,93.1141022 C199.917143,82.9576739 189.384571,77.0109524 174.408571,77.0109524 C166.871322,76.8558971 159.391923,78.348867 152.5,81.3841428 C155.709198,81.3956951 158.903514,81.8181021 162.004,82.6409242 L168.329714,84.1122779 C173.407541,84.3660416 178.398986,85.5182856 183.069143,87.5147836 C205.193714,97.242067 212.897714,126.076514 215.294286,161.205086 C215.952571,170.758668 216.22,180.772048 216.271429,191 L221.414286,189.538864 L224.5,189.538864 C224.458857,179.90354 224.284,170.493007 223.841714,161.450311 Z" id="Path" fill="#002630" opacity="0.08"></path>
                <path d="M223.790083,162.015228 C222.401115,133.654344 218.347385,109.156233 207.328237,94.040593 C199.920406,83.8754016 189.364247,78.0100861 174.404544,78.0100861 C166.869015,77.8619575 159.392161,79.3470175 152.5,82.360788 C154.442396,82.3343903 156.382674,82.4978286 158.292512,82.8487172 C163.281908,81.4361536 168.453394,80.7512437 173.643184,80.8156789 C185.938125,80.8156789 195.095027,85.1968764 201.906116,92.82077 C214.674336,107.102864 219.201343,132.749642 220.713775,162.289688 C221.259074,172.952974 221.413404,178.675977 221.413404,190 L224.5,190 C224.469134,178.482838 224.314804,172.698844 223.790083,162.015228 Z" id="Path" fill="#00C0CD"></path>
                <path d="M125.777007,130.447608 C125.602595,137.397494 125.520519,144.296128 125.5,151 C125.971937,150.897494 126.525951,150.81549 127.018407,150.743736 C127.018407,144.070615 127.110742,137.31549 127.274894,130.734624 C127.613458,117.408884 131.152987,103.006834 140.448099,92.9920273 C141.01353,91.2818081 141.699205,89.6136449 142.5,88 C130.568196,98.4965831 126.156608,115.17426 125.777007,130.447608 Z" id="Path" fill="#00C0CD"></path>
                <path d="M190.77621,90.500843 C196.778676,93.372747 202.09683,97.5867615 206.350806,102.841888 L207.237903,102.737126 L207.5,102.737126 C207.154446,96.3754048 204.700277,90.3341978 200.554435,85.6398539 C192.247984,76.0016859 177.5,81.637919 177.5,81.637919 C184.022177,90.6789396 180.524194,92.5856206 187.368952,101.699975 C188.357113,103.026438 189.578265,104.146212 190.967742,105 C196.441532,104.182851 201.360887,103.470465 205,103.019985 C200.939138,98.077351 196.13587,93.8497308 190.77621,90.500843 Z" id="Path" fill="url(#linearGradient-20)"></path>
                <path d="M190.5,91 C196.004511,94.2093147 200.938884,98.2615505 205.112298,103 L206.5,102.84912 C202.129831,97.8034672 196.666417,93.7574273 190.5,91 Z" id="Path" fill="#47BA83"></path>
                <path d="M251.173578,366 C251.173578,366 265.849988,350.754734 267.22209,333.252801 C269.366634,305.999207 258.816695,294.562704 245.339604,285.699415 C230.094026,275.661842 205.640119,274.140379 193.504639,263 C193.504639,263 193.392838,269.688312 194.266918,280.665312 C194.76494,286.79201 200.883499,304.232676 212.805541,315.383266 C226.699344,328.392287 243.154404,339.502032 247.941516,348.273421 C250.727802,353.735325 251.851888,359.90049 251.173578,366 Z" id="Path" fill="url(#linearGradient-21)"></path>
                <path d="M252.361695,366 C257.623918,359.116754 260.483714,350.680398 260.498337,341.99702 C260.681412,327.38651 245.709991,309.993047 233.240587,298.288269 C218.675998,284.547432 205.545492,280.096752 194.5,263 C199.120881,270.856815 205.255208,277.706033 212.543004,283.145724 C224.198743,291.576438 235.935849,303.076587 244.825131,312.602066 C253.714412,322.127545 259.359207,333.566306 259.26767,343.091785 C259.176133,352.617264 252.361695,366 252.361695,366 Z" id="Path" fill="url(#linearGradient-22)"></path>
                <path d="M248.444294,331.021415 C240.559865,312.930451 222.591179,305.108709 206.863439,290.087293 C196.707225,280.378952 193.921462,270.272894 193.5,266 C193.5,268.916582 193.705591,274.097083 194.260688,280.960228 C194.764387,287.078931 200.952687,304.496839 213.010621,315.632878 C227.062791,328.624924 243.705413,339.720171 248.54709,348.480114 C251.338557,353.878018 252.478371,359.967775 251.826272,366 L251.970186,366 C251.970186,366 257.151088,351.019376 248.444294,331.021415 Z" id="Path" fill="#002630" opacity="0.06"></path>
                <path d="M22.3192444,248.82186 C20.6857171,249.086239 20.328383,249.97089 19.9710489,242.72082 C19.6137148,235.470751 15.3154961,191.5636 41.6459142,181.191832 C42.6668688,180.774928 43.2488129,181.01897 40.5534928,182.106988 C36.9393137,183.591575 27.8732372,189.316384 24.2896867,202.006547 C16.4998034,229.593416 24.6061826,248.455798 22.3192444,248.82186 Z" id="Path" fill="url(#linearGradient-23)"></path>
                <path d="M21.5,237.965131 C21.5,237.965131 27.5561858,226.105802 40.5,228.262043 C40.5,228.262043 33.602107,238.676691 21.5,237.965131 Z" id="Path" fill="url(#linearGradient-24)"></path>
                <path d="M20.5,236.190763 C20.5,236.190763 8.2675841,240.480937 0.5,229.305034 C0.5,229.326485 12.3450561,226.75238 20.5,236.190763 Z" id="Path" fill="url(#linearGradient-25)"></path>
                <path d="M20.5,226.947898 C20.5,226.947898 26.6956522,216.096602 39.5,218.29368 C39.5,218.29368 32.4994426,227.783407 20.5,226.947898 Z" id="Path" fill="url(#linearGradient-26)"></path>
                <path d="M21.5,215.711034 C21.5,215.711034 28.1765884,206.468337 39.5,209.676629 C39.5,209.676629 32.2361191,217.591757 21.5,215.711034 Z" id="Path" fill="url(#linearGradient-27)"></path>
                <path d="M23.5,204.366243 C23.5,204.366243 30.4075682,196.102691 40.5,200.08461 C40.5,200.127426 33.1705955,207.095784 23.5,204.366243 Z" id="Path" fill="url(#linearGradient-28)"></path>
                <path d="M27.5,194.252708 C27.5,194.252708 34.4246154,189.184116 41.5,194.252708 C41.4784615,194.252708 34.4784615,198.184116 27.5,194.252708 Z" id="Path" fill="url(#linearGradient-29)"></path>
                <path d="M32.5,187.238994 C32.5,187.238994 38.9367909,182.201258 45.5,187.238994 C45.5,187.238994 38.9578606,191.201258 32.5,187.238994 Z" id="Path" fill="url(#linearGradient-30)"></path>
                <path d="M27.5,195 C27.5,195 19.7,192.677663 19.5,184 C19.5,184 26.52,187.058435 27.5,195 Z" id="Path" fill="url(#linearGradient-31)"></path>
                <path d="M32.4734076,188 C32.4734076,188 25.3342383,184.64 26.6654518,177 C26.6976586,177.01 32.9565092,180.88 32.4734076,188 Z" id="Path" fill="url(#linearGradient-32)"></path>
                <path d="M23.5,205 C23.5,205 12.7916973,205 9.5,194.001045 C9.54114622,193.957657 19.5191036,195.226767 23.5,205 Z" id="Path" fill="url(#linearGradient-33)"></path>
                <path d="M21.5,214.785081 C21.5,214.785081 10.2106993,217.027434 4.5,207.026143 C4.5,207.026143 15.3015541,206.13317 21.5,214.785081 Z" id="Path" fill="url(#linearGradient-34)"></path>
                <path d="M20.5,226.351761 C20.5,226.351761 8.77855603,229.936227 1.5,220.247427 C1.5,220.247427 12.8426724,218.118235 20.5,226.351761 Z" id="Path" fill="url(#linearGradient-35)"></path>
                <path d="M89.3732391,2 C89.4958557,2.13104797 89.1995322,2.60483678 88.5762312,3.33064092 C84.6320639,7.95764232 67.5372662,22.5442894 64.3185805,24.7519437 C60.5992103,27.3124194 60.4561576,30.8003115 37.1692216,19.7116371 C35.4832433,18.9051881 34.8803784,17.6148696 33.7972651,16.9495492 C34.1446788,17.2318063 32.4484825,16.2338256 32.8980767,16.5664859 C32.4484825,16.2338256 32.8980767,17.3023706 32.5097908,17.0201135 C30.8135945,16.0120522 30.6603237,16.5463246 31.0792638,15.9515685 C28.8312928,18.0785778 29.3319772,17.554386 30.4355266,24.19751 C33.1024377,40.3264909 28.9232552,44.9837341 36.9648606,43.8345442 L39.5398092,43.4414003 C51.6481985,40.5180225 69.8771997,31.203536 75.8036687,30.1148298 C81.7301377,29.0261236 82.823469,25.5583927 84.5503195,23.5221089 C88.0142384,19.4898637 88.4638326,20.1047811 89.8228333,18.3507544 C90.4359163,17.5644666 92.5101804,13.9656877 92.4999624,12.8568203 C92.4386541,5.6290207 92.1627667,3.96571955 89.3732391,2 Z" id="Path" fill="#E29A3B"></path>
                <path d="M36.86362,19.6657671 C35.1714646,18.843274 32.5973372,17.7740329 31.5,17.0954761 C34.4535804,19.5423931 41.1401583,20.7966952 54.0620727,26.0606512 C61.7434329,29.1450005 62.2664628,28.7851597 69.0145736,23.2744557 C75.2396546,18.1338737 84.5721483,9.15841734 88.5,3 C84.5413818,7.71905435 67.3839511,22.5958989 64.1534725,24.8474739 C60.379453,27.4588896 60.2358762,31.0161724 36.86362,19.6657671 Z" id="Path" fill="#002630" opacity="0.06"></path>
                <path d="M82.0238892,2.01654712 C70.1659498,5.5291941 70.3585146,7.28045614 51.3351367,12.4127674 C43.2271439,14.5891914 37.2576343,13.9919401 33.4468777,14.7207891 C32.9407592,14.8240349 32.4478233,14.9836235 31.977304,15.1965655 C31.8455491,15.3079174 31.7239292,15.4091464 31.6124443,15.5204983 C30.9333999,16.5327885 33.3759327,17.2312688 37.6934389,19.2963408 C60.7910832,30.4315329 60.9329731,26.9695005 64.6221098,24.3577918 C68.3112464,21.7460831 90.3751217,2.4315861 89.4731075,1.51040202 C87.9629938,0.508234723 84.9630365,1.14597755 82.0238892,2.01654712 Z" id="Path" fill="#F4B145"></path>
                <path d="M64.1664046,23.506936 C60.2002162,26.3163087 57.9513466,30.5716819 33.5,18.735134 C34.3791036,19.2412342 35.3706507,19.5820772 36.5155298,20.1398203 C59.8117751,31.5012537 59.954885,27.9688808 63.6757421,25.3041082 C71.2864678,19.2678342 78.5716611,12.8238964 85.5,6 C78.3956163,12.5379885 66.8037154,21.6374638 64.1664046,23.506936 Z" id="Path" fill="#FCCC8B"></path>
                <path d="M35.0477053,32.864954 C36.3727473,31.1913817 38.227806,32.5627813 39.839057,32.5046711 C40.5646034,32.481924 41.2814094,32.3247452 41.9591242,32.0397899 C42.679947,31.7259951 43.1569621,31.284358 43.9837883,31.4122003 C46.3370628,31.7841052 49.6443675,31.5865307 51.4040232,29.5991636 C51.5298929,29.4643715 51.5322658,29.2432288 51.4093233,29.1052274 C51.2863809,28.967226 51.0846788,28.9646243 50.9588091,29.0994163 C49.7291702,30.4591938 47.5137,30.7846107 45.8282467,30.9356971 C44.5774071,31.0402953 43.7081795,30.2616193 42.5633433,30.9356971 C41.726519,31.4505263 40.7962181,31.7561193 39.839057,31.8305934 C38.9527731,31.7507546 38.0757947,31.5755817 37.2207742,31.307602 C36.2338102,31.163528 35.2457123,31.563796 34.5812906,32.3768288 C34.3162822,32.7254897 34.7614963,33.225237 35.0265047,32.8881981 L35.0477053,32.864954 Z" id="Path" fill="#FFD49C"></path>
                <path d="M35.9314401,35.9713491 C37.1326244,35.229485 38.490485,35.912 39.8170103,35.4866646 C40.7380194,35.0634165 41.7399877,34.8211526 42.7625231,34.7744749 C43.371209,34.8189504 43.9834911,34.778962 44.5799672,34.6557767 C45.2695143,34.4202642 45.9987627,34.3062816 46.7316538,34.3194649 C47.2774806,34.364591 47.827057,34.2936205 48.3401963,34.111743 C49.0817971,33.8446718 49.2802536,33.5776007 50.105415,33.6666244 C50.7973832,33.7585082 51.497891,33.7784097 52.1944312,33.7259736 C52.5913443,33.7259736 52.6122344,33.1028077 52.1944312,33.1324822 C50.9828018,33.2313975 49.8129527,32.7071468 48.7475545,33.2511805 C48.2625982,33.5453815 47.7039738,33.7126198 47.1285669,33.7358651 C46.8883301,33.7358651 46.4496367,33.6270584 46.1780646,33.6369499 C45.521232,33.7390169 44.8772164,33.9047464 44.2561697,34.131526 C43.4663787,34.171139 42.6749273,34.171139 41.8851363,34.131526 C41.1935137,34.266267 40.525413,34.4927046 39.9005709,34.8041495 C38.4173694,35.3580748 37.0490638,34.566753 35.6389779,35.4273154 C35.3047353,35.6449289 35.6389779,36.1592881 35.9523303,35.9515661 L35.9314401,35.9713491 Z" id="Path" fill="#FFD49C"></path>
                <path d="M35.1019505,38.8915857 C35.8869862,37.8492818 37.7540979,39.0166622 38.8361741,38.8915857 C39.5935459,38.7346439 40.3135964,38.4375122 40.957892,38.0160504 C41.7959706,37.6199749 42.5810062,37.9326661 43.440302,37.9535121 C44.9042874,37.9535121 46.1561009,37.2864376 47.6094777,37.390668 C49.2040744,37.4895517 50.8005949,37.2293073 52.2772572,36.6297861 C52.6591664,36.4838636 52.5106461,35.8689043 52.1287369,36.0252499 C51.113189,36.4320758 50.0395749,36.6817204 48.94616,36.7652857 C48.1399072,36.8174009 47.3230458,36.6297861 46.516793,36.7027474 C45.7105402,36.7757087 45.1058506,37.1613612 44.3950751,37.2760146 C43.5644533,37.2838299 42.7344735,37.2280717 41.9126651,37.109246 C41.3590729,37.1629068 40.8272893,37.3489965 40.363811,37.651244 C39.4006626,38.2055172 38.2417081,38.3269768 37.1812341,37.9847813 C36.2724463,37.6328866 35.2373295,37.8552293 34.5609125,38.5476254 C34.3169149,38.8707396 34.8685616,39.1834308 35.1125591,38.8707396 L35.1019505,38.8915857 Z" id="Path" fill="#FFD49C"></path>
                <path d="M36.8833543,44.880742 L39.4522172,44.485838 C51.5801161,41.5392462 65.8879665,35.7270687 72.4892279,33.2361355 C79.0904893,30.7452023 82.0789674,27.9909997 85.1800251,25.5101923 C87.4411895,23.8316199 89.3264158,21.7078538 90.716897,19.2727335 C91.6978095,17.7446835 92.3041289,16.0109387 92.4874679,14.2098611 C92.548875,13.4909332 92.3646538,11 92.3646538,11 C90.2256404,19.3233622 76.4192812,21.4396429 76.4192812,21.4396429 C76.4192812,21.4396429 75.180905,30.2389151 55.9502536,36.7295175 C36.9447614,43.1492396 32.9123629,43.8175388 31.5,41.7923898 C32.3289956,44.2124428 33.2296328,45.397155 36.8833543,44.880742 Z" id="Path" fill="#BC701D"></path>
                <path d="M311.424525,29.959893 C290.637883,15.5715241 317.316719,0 317.316719,0 L317.44366,0 C317.44366,0 336.601222,23.5026738 311.784192,30 L311.424525,29.959893 Z" id="Path" fill="#68B584"></path>
                <path d="M335.5,28.5783519 C335.5,28.5783519 333.80828,31.0275169 322.057962,32.7563392 C310.307643,34.4851615 306.312739,26.5819738 302.990446,22.6818329 C301.173992,20.4403697 298.347073,19.2946751 295.5,19.6461033 C295.5,19.6461033 297.049045,13.9348152 301.818471,13.0601135 C306.587898,12.1854117 315.413376,21.0764979 322.41465,25.4088443 C329.415924,29.7411907 335.5,28.5783519 335.5,28.5783519 Z" id="Path" fill="#75CB9A"></path>
                <path d="M313.068505,25.2527342 C308.091533,1.03888098 337.429476,6.53602516 337.429476,6.53602516 L337.5,6.63763595 C337.5,6.63763595 335.192861,36.6331436 313.320377,25.5372444 L313.068505,25.2527342 Z" id="Path" fill="#87E3AC"></path>
                <path d="M276.211768,31.9796126 C289.536113,23.0805301 273.480378,12 273.480378,12 L273.399746,12 C273.399746,12 260.811163,26.9745158 275.990031,32 L276.211768,31.9796126 Z" id="Path" fill="#68B584"></path>
                <path d="M261.5,29.5133178 C261.5,29.5133178 262.507361,31.2424764 270.032352,32.7353524 C277.557342,34.2282284 280.33766,29.0300126 282.59415,26.5168257 C283.828111,25.0524246 285.679329,24.363453 287.5,24.6910061 C287.5,24.6910061 286.633669,20.7816041 283.611585,20.0620164 C280.5895,19.3424287 274.635994,25.0669101 270.002131,27.8056395 C267.444963,29.4240847 264.434228,30.0287998 261.5,29.5133178 Z" id="Path" fill="#75CB9A"></path>
                <path d="M276.953727,28.4794337 C280.967022,12.4604144 261.550801,15.1737336 261.550801,15.1737336 L261.5,15.2363487 C261.5,15.2363487 262.099454,35.3462186 276.811484,28.6255356 L276.953727,28.4794337 Z" id="Path" fill="#87E3AC"></path>
                <path d="M360.5,237.949075 C360.5,237.949075 377.260032,239.340222 385.061942,227.580525 C392.863853,215.820829 389.978352,206.052774 389.978352,206.052774 C389.978352,206.052774 374.89734,204.711668 368.663855,215.550606 C362.43037,226.389543 366.411757,227.27027 360.5,237.949075 Z" id="Path" fill="url(#linearGradient-36)"></path>
                <path d="M373.5,225 C373.5,225 389.125208,212.15695 392.957607,197.734 C393.68608,194.992111 396.494394,195.695421 395.132467,198.488275 C393.77054,201.281128 387.129827,215.714271 373.5,225 Z" id="Path" fill="#47BA83"></path>
                <path d="M138.5,215.439771 C138.5,215.439771 126.130877,210.795576 117.75965,218.189217 C109.388422,225.582857 109.500038,233.728218 109.500038,233.728218 C109.500038,233.728218 120.570353,237.970809 127.612331,230.958178 C134.654309,223.945547 131.76243,222.400914 138.5,215.439771 Z" id="Path" fill="url(#linearGradient-37)"></path>
                <path d="M126.5,222 C126.5,222 112.353231,228.645403 106.537796,238.969886 C105.434513,240.929966 103.516657,239.818905 105.104559,237.921716 C106.692462,236.024526 114.611353,226.318464 126.5,222 Z" id="Path" fill="#47BA83"></path>
                <path d="M149.5,316 C149.5,316 147.203156,302.920001 136.756548,299.412229 C126.30994,295.904458 119.5,300.03606 119.5,300.03606 C119.5,300.03606 121.514775,311.786583 130.933848,314.353495 C140.352921,316.920407 140.242109,313.64785 149.5,316 Z" id="Path" fill="url(#linearGradient-38)"></path>
                <path d="M136.5,309 C136.5,309 124.271763,299.743328 113.078147,299.872042 C110.959637,299.872042 110.93993,297.608823 113.22595,298.059321 C115.51197,298.50982 127.227823,300.547789 136.5,309 Z" id="Path" fill="#47BA83"></path>
                <path d="M161.5,358.994318 C161.5,358.994318 154.975629,350.581676 144.526442,351.016277 C134.077254,351.450878 129.5,356.190104 129.5,356.190104 C129.5,356.190104 135.280185,363.764586 144.526442,362.936773 C153.772698,362.108961 152.508601,359.904911 161.5,358.994318 Z" id="Path" fill="url(#linearGradient-39)"></path>
                <path d="M147.5,356.350288 C147.5,356.350288 133.94769,354.110163 124.245022,356.877376 C122.408586,357.395679 121.662226,356.121883 123.803099,355.8232 C125.943971,355.524516 136.766178,353.855404 147.5,356.350288 Z" id="Path" fill="#47BA83"></path>
                <path d="M109.5,365 C109.5,365 110.483731,355.130444 119.701286,351.736811 C128.918842,348.343178 135.5,350.968832 135.5,350.968832 C135.5,350.968832 134.693341,359.831715 126.292281,362.436614 C117.891222,365.041512 117.743663,362.561151 109.5,365 Z" id="Path" fill="url(#linearGradient-40)"></path>
                <path d="M119.5,359 C119.5,359 130.869143,351.195934 142.017832,350.434031 C144.117397,350.292535 143.95993,348.583695 141.713395,349.095258 C139.466861,349.606822 128.003237,352.023143 119.5,359 Z" id="Path" fill="#47BA83"></path>
            </g>
        </g>
    </g>
</svg>