<?xml version="1.0" encoding="UTF-8"?>
<svg width="361px" height="388px" viewBox="0 0 361 388" version="1.1" xmlns="http://www.w3.org/2000/svg" xmlns:xlink="http://www.w3.org/1999/xlink">
    <!-- Generator: Sketch 52.4 (67378) - http://www.bohemiancoding.com/sketch -->
    <title>Creat a new company</title>
    <desc>Created with Sketch.</desc>
    <defs>
        <linearGradient x1="1.48518149%" y1="52.3257111%" x2="104.761905%" y2="49.8828779%" id="linearGradient-1">
            <stop stop-color="#33CFED" offset="0%"></stop>
            <stop stop-color="#87E0F3" offset="63%"></stop>
            <stop stop-color="#B4E9F7" offset="100%"></stop>
        </linearGradient>
        <linearGradient x1="45.9970694%" y1="81.007881%" x2="49.393899%" y2="32.5230325%" id="linearGradient-2">
            <stop stop-color="#33CFED" offset="0%"></stop>
            <stop stop-color="#87E0F3" offset="63%"></stop>
            <stop stop-color="#B4E9F7" offset="100%"></stop>
        </linearGradient>
        <linearGradient x1="92.1088901%" y1="24.4693023%" x2="48.9090143%" y2="42.4026927%" id="linearGradient-3">
            <stop stop-color="#61EEB6" offset="0%"></stop>
            <stop stop-color="#14CD9A" offset="100%"></stop>
        </linearGradient>
        <linearGradient x1="1602.00786%" y1="-10029.3027%" x2="1578.87385%" y2="-9207.73212%" id="linearGradient-4">
            <stop stop-color="#61EEB6" offset="0%"></stop>
            <stop stop-color="#14CD9A" offset="100%"></stop>
        </linearGradient>
        <linearGradient x1="1573.93782%" y1="-5384.18058%" x2="1635.90674%" y2="-4832.92102%" id="linearGradient-5">
            <stop stop-color="#61EEB6" offset="0%"></stop>
            <stop stop-color="#14CD9A" offset="100%"></stop>
        </linearGradient>
        <linearGradient x1="1645.52441%" y1="-10392.3731%" x2="1621.6094%" y2="-9528.72904%" id="linearGradient-6">
            <stop stop-color="#61EEB6" offset="0%"></stop>
            <stop stop-color="#14CD9A" offset="100%"></stop>
        </linearGradient>
        <linearGradient x1="1749.54436%" y1="-11732.5591%" x2="1724.17266%" y2="-10743.7996%" id="linearGradient-7">
            <stop stop-color="#61EEB6" offset="0%"></stop>
            <stop stop-color="#14CD9A" offset="100%"></stop>
        </linearGradient>
        <linearGradient x1="1949.14621%" y1="-12914.6542%" x2="1920.86446%" y2="-11811.512%" id="linearGradient-8">
            <stop stop-color="#61EEB6" offset="0%"></stop>
            <stop stop-color="#14CD9A" offset="100%"></stop>
        </linearGradient>
        <linearGradient x1="2604.03969%" y1="-13297.3562%" x2="2566.47768%" y2="-12149.1764%" id="linearGradient-9">
            <stop stop-color="#61EEB6" offset="0%"></stop>
            <stop stop-color="#14CD9A" offset="100%"></stop>
        </linearGradient>
        <linearGradient x1="2804.99627%" y1="-13881.8354%" x2="2765.5481%" y2="-12673.0283%" id="linearGradient-10">
            <stop stop-color="#61EEB6" offset="0%"></stop>
            <stop stop-color="#14CD9A" offset="100%"></stop>
        </linearGradient>
        <linearGradient x1="5570.49676%" y1="-4825.13678%" x2="5769.52816%" y2="-4302.11092%" id="linearGradient-11">
            <stop stop-color="#61EEB6" offset="0%"></stop>
            <stop stop-color="#14CD9A" offset="100%"></stop>
        </linearGradient>
        <linearGradient x1="7920.69651%" y1="-4948.69565%" x2="8191.38886%" y2="-4408.98551%" id="linearGradient-12">
            <stop stop-color="#61EEB6" offset="0%"></stop>
            <stop stop-color="#14CD9A" offset="100%"></stop>
        </linearGradient>
        <linearGradient x1="2765.60345%" y1="-4454.45306%" x2="2868.7069%" y2="-3976.71144%" id="linearGradient-13">
            <stop stop-color="#61EEB6" offset="0%"></stop>
            <stop stop-color="#14CD9A" offset="100%"></stop>
        </linearGradient>
        <linearGradient x1="1986.59466%" y1="-5006.03693%" x2="2062.57942%" y2="-4477.13068%" id="linearGradient-14">
            <stop stop-color="#61EEB6" offset="0%"></stop>
            <stop stop-color="#14CD9A" offset="100%"></stop>
        </linearGradient>
        <linearGradient x1="1683.68132%" y1="-5521.96662%" x2="1749.3956%" y2="-4949.13191%" id="linearGradient-15">
            <stop stop-color="#61EEB6" offset="0%"></stop>
            <stop stop-color="#14CD9A" offset="100%"></stop>
        </linearGradient>
        <linearGradient x1="103.239192%" y1="44.5040702%" x2="5.64850756%" y2="54.5772886%" id="linearGradient-16">
            <stop stop-color="#33CFED" offset="0%"></stop>
            <stop stop-color="#87E0F3" offset="63%"></stop>
            <stop stop-color="#B4E9F7" offset="100%"></stop>
        </linearGradient>
        <linearGradient x1="91.9719127%" y1="93.7650644%" x2="15.5875634%" y2="8.89535677%" id="linearGradient-17">
            <stop stop-color="#33CFED" offset="0%"></stop>
            <stop stop-color="#87E0F3" offset="63%"></stop>
            <stop stop-color="#B4E9F7" offset="100%"></stop>
        </linearGradient>
        <linearGradient x1="9.32164953e-14%" y1="49.905482%" x2="100%" y2="49.905482%" id="linearGradient-18">
            <stop stop-color="#B2E1FF" offset="0%"></stop>
            <stop stop-color="#F4F9FF" offset="100%"></stop>
        </linearGradient>
        <linearGradient x1="47.0476792%" y1="84.2806503%" x2="53.9416903%" y2="2.18799658%" id="linearGradient-19">
            <stop stop-color="#B2E1FF" offset="0%"></stop>
            <stop stop-color="#C0E6FF" offset="10%"></stop>
            <stop stop-color="#DCEEFF" offset="32%"></stop>
            <stop stop-color="#EFF4FF" offset="54%"></stop>
            <stop stop-color="#FBF8FF" offset="77%"></stop>
            <stop stop-color="#FFF9FF" offset="100%"></stop>
        </linearGradient>
        <linearGradient x1="-6.39662186%" y1="142.036358%" x2="42.3843189%" y2="41.9743739%" id="linearGradient-20">
            <stop stop-color="#B2E1FF" offset="0%"></stop>
            <stop stop-color="#BCE5FF" offset="15%"></stop>
            <stop stop-color="#F4F9FF" offset="100%"></stop>
        </linearGradient>
        <linearGradient x1="55.3682422%" y1="70.5321684%" x2="38.344587%" y2="-4.63330686%" id="linearGradient-21">
            <stop stop-color="#B2E1FF" offset="0%"></stop>
            <stop stop-color="#C0E6FF" offset="10%"></stop>
            <stop stop-color="#DCEEFF" offset="32%"></stop>
            <stop stop-color="#EFF4FF" offset="54%"></stop>
            <stop stop-color="#FBF8FF" offset="77%"></stop>
            <stop stop-color="#FFF9FF" offset="100%"></stop>
        </linearGradient>
        <linearGradient x1="-14.7872172%" y1="34.5085098%" x2="79.6747379%" y2="56.8575239%" id="linearGradient-22">
            <stop stop-color="#61EEB6" offset="0%"></stop>
            <stop stop-color="#14CD9A" offset="100%"></stop>
        </linearGradient>
        <linearGradient x1="39.4170271%" y1="95.8952306%" x2="57.5255604%" y2="8.73077925%" id="linearGradient-23">
            <stop stop-color="#B2E1FF" offset="0%"></stop>
            <stop stop-color="#C0E6FF" offset="10%"></stop>
            <stop stop-color="#DCEEFF" offset="32%"></stop>
            <stop stop-color="#EFF4FF" offset="54%"></stop>
            <stop stop-color="#FBF8FF" offset="77%"></stop>
            <stop stop-color="#FFF9FF" offset="100%"></stop>
        </linearGradient>
        <linearGradient x1="-416.441294%" y1="16.0192698%" x2="53.8699669%" y2="50.7298368%" id="linearGradient-24">
            <stop stop-color="#61EEB6" offset="0%"></stop>
            <stop stop-color="#14CD9A" offset="100%"></stop>
        </linearGradient>
        <linearGradient x1="51.3634431%" y1="131.280718%" x2="48.1728491%" y2="-28.6623671%" id="linearGradient-25">
            <stop stop-color="#FF948D" offset="0%"></stop>
            <stop stop-color="#EDD6BC" offset="93%"></stop>
        </linearGradient>
        <linearGradient x1="93.1058632%" y1="50.9100938%" x2="-210.139696%" y2="46.5526751%" id="linearGradient-26">
            <stop stop-color="#FF7678" offset="0%"></stop>
            <stop stop-color="#EDD6BC" offset="93%"></stop>
        </linearGradient>
        <linearGradient x1="25.4475522%" y1="41.0943607%" x2="229.653989%" y2="72.0268007%" id="linearGradient-27">
            <stop stop-color="#FF7678" offset="0%"></stop>
            <stop stop-color="#EDD6BC" offset="93%"></stop>
        </linearGradient>
        <linearGradient x1="50.2591718%" y1="119.130435%" x2="50.2591718%" y2="-18.8405797%" id="linearGradient-28">
            <stop stop-color="#FF948D" offset="15%"></stop>
            <stop stop-color="#EDD6BC" offset="93%"></stop>
        </linearGradient>
        <linearGradient x1="39.3786885%" y1="95.8952306%" x2="57.5114754%" y2="8.73077925%" id="linearGradient-29">
            <stop stop-color="#B2E1FF" offset="0%"></stop>
            <stop stop-color="#C0E6FF" offset="10%"></stop>
            <stop stop-color="#DCEEFF" offset="32%"></stop>
            <stop stop-color="#EFF4FF" offset="54%"></stop>
            <stop stop-color="#FBF8FF" offset="77%"></stop>
            <stop stop-color="#FFF9FF" offset="100%"></stop>
        </linearGradient>
        <linearGradient x1="-2.13357335%" y1="32.360506%" x2="45.9384354%" y2="48.4073311%" id="linearGradient-30">
            <stop stop-color="#61EEB6" offset="0%"></stop>
            <stop stop-color="#14CD9A" offset="100%"></stop>
        </linearGradient>
        <linearGradient x1="171.815053%" y1="-551.118827%" x2="36.4358137%" y2="121.364118%" id="linearGradient-31">
            <stop stop-color="#61EEB6" offset="0%"></stop>
            <stop stop-color="#14CD9A" offset="100%"></stop>
        </linearGradient>
        <linearGradient x1="152.142709%" y1="-490.875772%" x2="43.2082528%" y2="85.8954677%" id="linearGradient-32">
            <stop stop-color="#61EEB6" offset="0%"></stop>
            <stop stop-color="#14CD9A" offset="100%"></stop>
        </linearGradient>
        <linearGradient x1="152.331862%" y1="-464.078218%" x2="12.0942605%" y2="246.250744%" id="linearGradient-33">
            <stop stop-color="#61EEB6" offset="0%"></stop>
            <stop stop-color="#14CD9A" offset="100%"></stop>
        </linearGradient>
        <linearGradient x1="130.615917%" y1="-398.81205%" x2="-17.2718957%" y2="433.421479%" id="linearGradient-34">
            <stop stop-color="#61EEB6" offset="0%"></stop>
            <stop stop-color="#14CD9A" offset="100%"></stop>
        </linearGradient>
        <linearGradient x1="110.554196%" y1="-295.578009%" x2="-53.2575702%" y2="654.4464%" id="linearGradient-35">
            <stop stop-color="#61EEB6" offset="0%"></stop>
            <stop stop-color="#14CD9A" offset="100%"></stop>
        </linearGradient>
        <linearGradient x1="96.5542118%" y1="-175.385837%" x2="-118.348497%" y2="881.653789%" id="linearGradient-36">
            <stop stop-color="#61EEB6" offset="0%"></stop>
            <stop stop-color="#14CD9A" offset="100%"></stop>
        </linearGradient>
        <linearGradient x1="66.7519658%" y1="-29.2296632%" x2="-159.211912%" y2="1082.48647%" id="linearGradient-37">
            <stop stop-color="#61EEB6" offset="0%"></stop>
            <stop stop-color="#14CD9A" offset="100%"></stop>
        </linearGradient>
        <linearGradient x1="151.845478%" y1="-104.251247%" x2="-185.25184%" y2="413.822005%" id="linearGradient-38">
            <stop stop-color="#61EEB6" offset="0%"></stop>
            <stop stop-color="#14CD9A" offset="100%"></stop>
        </linearGradient>
        <linearGradient x1="140.543347%" y1="-48.4428517%" x2="-327.119018%" y2="480.217776%" id="linearGradient-39">
            <stop stop-color="#61EEB6" offset="0%"></stop>
            <stop stop-color="#14CD9A" offset="100%"></stop>
        </linearGradient>
        <linearGradient x1="130.033304%" y1="-169.37872%" x2="-45.7739723%" y2="312.024057%" id="linearGradient-40">
            <stop stop-color="#61EEB6" offset="0%"></stop>
            <stop stop-color="#14CD9A" offset="100%"></stop>
        </linearGradient>
        <linearGradient x1="131.376369%" y1="-285.114183%" x2="-1.20201314%" y2="260.316646%" id="linearGradient-41">
            <stop stop-color="#61EEB6" offset="0%"></stop>
            <stop stop-color="#14CD9A" offset="100%"></stop>
        </linearGradient>
        <linearGradient x1="142.437695%" y1="-431.119338%" x2="26.8328337%" y2="169.855279%" id="linearGradient-42">
            <stop stop-color="#61EEB6" offset="0%"></stop>
            <stop stop-color="#14CD9A" offset="100%"></stop>
        </linearGradient>
        <linearGradient x1="-14.7433695%" y1="34.4717867%" x2="79.64504%" y2="56.821463%" id="linearGradient-43">
            <stop stop-color="#61EEB6" offset="0%"></stop>
            <stop stop-color="#14CD9A" offset="100%"></stop>
        </linearGradient>
        <linearGradient x1="62.4411527%" y1="-15.4968849%" x2="45.6573789%" y2="88.6123569%" id="linearGradient-44">
            <stop stop-color="#61EEB6" offset="0%"></stop>
            <stop stop-color="#14CD9A" offset="100%"></stop>
        </linearGradient>
        <linearGradient x1="56.0566865%" y1="84.0459935%" x2="44.8487234%" y2="21.9996407%" id="linearGradient-45">
            <stop stop-color="#33CFED" offset="0%"></stop>
            <stop stop-color="#87E0F3" offset="63%"></stop>
            <stop stop-color="#B4E9F7" offset="100%"></stop>
        </linearGradient>
        <linearGradient x1="39.5717815%" y1="88.2180691%" x2="58.9074938%" y2="27.5514598%" id="linearGradient-46">
            <stop stop-color="#33CFED" offset="0%"></stop>
            <stop stop-color="#87E0F3" offset="63%"></stop>
            <stop stop-color="#B4E9F7" offset="100%"></stop>
        </linearGradient>
        <linearGradient x1="43.7637474%" y1="-34.1630306%" x2="51.7744736%" y2="92.1066498%" id="linearGradient-47">
            <stop stop-color="#61EEB6" offset="0%"></stop>
            <stop stop-color="#14CD9A" offset="100%"></stop>
        </linearGradient>
        <linearGradient x1="47.8503405%" y1="-26.0034277%" x2="51.9785062%" y2="93.5087565%" id="linearGradient-48">
            <stop stop-color="#61EEB6" offset="0%"></stop>
            <stop stop-color="#14CD9A" offset="100%"></stop>
        </linearGradient>
        <linearGradient x1="45.4443243%" y1="37.3357891%" x2="38.7877477%" y2="163.516121%" id="linearGradient-49">
            <stop stop-color="#61EEB6" offset="0%"></stop>
            <stop stop-color="#14CD9A" offset="100%"></stop>
        </linearGradient>
        <linearGradient x1="119.744843%" y1="-15.3893847%" x2="136.365164%" y2="83.0440383%" id="linearGradient-50">
            <stop stop-color="#61EEB6" offset="0%"></stop>
            <stop stop-color="#14CD9A" offset="100%"></stop>
        </linearGradient>
    </defs>
    <g id="Login" stroke="none" stroke-width="1" fill="none" fill-rule="evenodd">
        <g id="2-create-company" transform="translate(-780.000000, -72.000000)">
            <g id="Creat-a-new-company" transform="translate(780.000000, 72.000000)">
                <polygon id="Path" fill="url(#linearGradient-1)" points="31.52 164.46 181.67 211.55 181.67 121.9"></polygon>
                <polygon id="Path" fill="url(#linearGradient-2)" points="331.81 164.46 182.39 121.69 181.67 121.9 181.67 211.55 182.39 211.78"></polygon>
                <path d="M243.93,154.91 C240.67,157.99 239.74,158.22 215.56,145.52 C211.08,143.17 208.23,141.25 208.75,140.09 C206.87,142.64 207.63,146.4 208.68,152.64 C211.68,170.51 212.31,179.29 219.97,177.8 C227.63,176.31 254.23,169.93 265.14,166.36 C276.05,162.79 271.73,156.24 270.14,143.28 C269.09,134.81 267.97,129.39 264.99,127.13 C266,128.19 247.19,151.83 243.93,154.91 Z" id="Path" fill="#E29A3B"></path>
                <path d="M215.56,145.52 C213.81,144.6 212.32,143.75 211.17,142.99 C214.36,145.76 221.12,150.62 234.34,156.48 C242.2,159.97 242.69,159.48 248.44,153 C253.78,147 261.44,135.88 264.37,128.7 C261.17,134.22 246.75,152.25 243.93,154.91 C240.67,158 239.74,158.22 215.56,145.52 Z" id="Path" fill="#002630" opacity="0.06"></path>
                <path d="M258.37,126.2 C250,127.89 228.53,133.39 216.1,136.41 C213.870408,136.823675 211.749774,137.691671 209.87,138.96 L209.06,139.71 C208.95,139.83 208.85,139.96 208.75,140.09 C208.23,141.25 211.08,143.17 215.56,145.52 C239.74,158.22 240.67,157.99 243.93,154.91 C247.19,151.83 265.93,128.19 264.93,127.13 C263.38,125.93 261.27,125.61 258.37,126.2 Z" id="Path" fill="#F4B145"></path>
                <path d="M244.13,152.78 C240.65,156.08 237.7,156.92 212.36,143.78 C213.29,144.34 214.36,144.93 215.56,145.56 C239.74,158.26 240.67,158.03 243.93,154.95 C246.34,152.67 257.25,139.14 262.35,131.82 C256.3,139.39 246.44,150.59 244.13,152.78 Z" id="Path" fill="#FCCC8B"></path>
                <path d="M301.34,203.78 C303.16,203.53 303.81,204.37 301.96,196.41 C300.11,188.45 291.17,139.88 259.96,137.25 C258.74,137.15 258.21,137.58 261.41,137.89 C265.71,138.3 277.12,141.54 284.83,154.03 C301.62,181.21 298.79,204.12 301.34,203.78 Z" id="Path" fill="url(#linearGradient-3)"></path>
                <path d="M298.74,190.52 C298.74,190.52 288.88,180.42 275.83,186.79 C275.83,186.79 286.14,195.15 298.74,190.52 Z" id="Path" fill="url(#linearGradient-4)"></path>
                <path d="M300.13,188.63 C300.13,188.63 314.45,188.99 319.43,175.12 C319.43,175.12 306,176.35 300.13,188.63 Z" id="Path" fill="url(#linearGradient-5)"></path>
                <path d="M296.45,179.33 C296.45,179.33 286.8,169.76 274.33,176.08 C274.33,176.08 284.39,184 296.45,179.33 Z" id="Path" fill="url(#linearGradient-6)"></path>
                <path d="M291.81,167.51 C291.81,167.51 281.89,159.6 270.96,166.73 C271,166.73 281.08,173 291.81,167.51 Z" id="Path" fill="url(#linearGradient-7)"></path>
                <path d="M286.86,156.62 C286.86,156.62 277.34,150.34 268.12,157.62 C268.12,157.61 277.71,162.44 286.86,156.62 Z" id="Path" fill="url(#linearGradient-8)"></path>
                <path d="M279.73,147.2 C279.73,147.2 271.28,144.2 265.62,151.5 C265.62,151.5 273.84,153.37 279.73,147.2 Z" id="Path" fill="url(#linearGradient-9)"></path>
                <path d="M272.67,141.59 C272.67,141.59 264.67,138.75 259.26,145.68 C259.26,145.68 267.07,147.45 272.67,141.59 Z" id="Path" fill="url(#linearGradient-10)"></path>
                <path d="M280.46,147.28 C280.46,147.28 288.22,142.28 285.83,133.04 C285.83,133 279.12,138.58 280.46,147.28 Z" id="Path" fill="url(#linearGradient-11)"></path>
                <path d="M272.47,141.54 C272.47,141.54 278.64,135.68 274.91,127.74 C274.91,127.74 269.78,133.9 272.47,141.54 Z" id="Path" fill="url(#linearGradient-12)"></path>
                <path d="M287.5,157 C287.5,157 298.8,153.57 299.1,141.409983 C299.1,141.4 288.92,145.84 287.5,157 Z" id="Path" fill="url(#linearGradient-13)"></path>
                <path d="M292.47,166.4 C292.47,166.4 305.25,165.2 308.21,152.32 C308.21,152.32 296.4,154.85 292.47,166.4 Z" id="Path" fill="url(#linearGradient-14)"></path>
                <path d="M297.32,178.57 C297.32,178.57 310.9,178.8 315.52,165.57 C315.52,165.6 302.81,166.87 297.32,178.57 Z" id="Path" fill="url(#linearGradient-15)"></path>
                <path d="M219.11,167.83 C220.43,166.24 222.22,167.53 223.76,167.36 C225.3,167.19 226.2,166.36 227.67,166.31 C229.97,166.31 232.44,166.13 234.07,164.22 C234.35,163.89 233.87,163.4 233.58,163.74 C231.58,166.06 229.4,164.92 226.96,165.37 C226.306964,165.561245 225.681683,165.836906 225.1,166.19 C222.77,167.19 220.43,165.19 218.62,167.35 C218.34,167.69 218.82,168.18 219.11,167.83 Z" id="Path" fill="#FFD49C"></path>
                <path d="M219.77,171.49 C220.56,170.84 222.3,171.17 223.33,170.9 C224.85,170.49 226.26,170.07 227.81,169.77 C230.111542,169.20485 232.450996,168.807143 234.81,168.58 C235.25,168.58 235.25,167.87 234.81,167.89 C232.73,168.01 232.87,167.77 231.52,168.08 C229.63,168.52 227.74,168.96 225.82,169.28 C224.29,169.54 223,170.06 221.41,170.37 C220.41,170.58 220.18,170.28 219.29,171.01 C218.95,171.29 219.44,171.77 219.78,171.49 L219.77,171.49 Z" id="Path" fill="#FFD49C"></path>
                <path d="M220.08,175.05 C220.41,174.66 223.63,174.89 224.47,174.64 C225.226945,174.24047 226.016447,173.905935 226.83,173.64 C227.47,173.55 228.14,173.73 228.83,173.64 C231.16,173.32 233.83,173.1 236,172.06 C236.4,171.87 236.05,171.28 235.65,171.47 C233.72,172.39 232.27,172.01 230.31,172.34 C229.9054,172.513024 229.482798,172.640476 229.05,172.72 C228.220612,173.145006 227.249287,173.195937 226.38,172.86 C226.22,172.86 226.01,172.94 225.87,172.95 C225.3,173 225.54,173.3 224.87,173.48 C223.653761,173.656486 222.42843,173.763327 221.2,173.8 C220.39,173.93 220.13,173.87 219.57,174.52 C219.29,174.86 219.77,175.35 220.06,175.01 L220.08,175.05 Z" id="Path" fill="#FFD49C"></path>
                <path d="M182.39,211.78 C182.39,211.78 183.16,375.61 182.39,384.35 C182.39,384.35 309.78,336.3 331.81,326.1 C331.81,326.1 330.67,170.65 331.81,164.46 L182.39,211.78 Z" id="Path" fill="url(#linearGradient-16)"></path>
                <path d="M182.39,211.78 C182.39,211.78 183.3,358.5 182.39,384.35 C182.39,384.35 56.66,336.63 32.97,326.1 C32.97,326.1 32.66,170.65 31.52,164.46 L182.39,211.78 Z" id="Path" fill="url(#linearGradient-17)"></path>
                <path d="M81.05,282.25 C81.05,282.25 80.89,318.42 81.05,320.2 C81.05,320.2 53.98,311.44 50.56,309.43 C50.56,309.43 50.79,273.85 50.56,272.59 L81.05,282.25 Z" id="Path" fill="#002630" opacity="0.06"></path>
                <path d="M182.39,211.78 L161.55,205.18 L153.98,205.61 C153.98,205.61 162.1,275.2 162.24,296.23 C162.38,317.26 163.76,377.04 153.98,373.23 C170.78,379.86 182.39,384.39 182.39,384.39 C183.3,358.5 182.39,211.78 182.39,211.78 Z" id="Path" fill="#002630" opacity="0.06"></path>
                <path d="M160.37,283.12 C161.65,276.93 178.62,221.53 180.09,217.74 C174.09,233.3 158.34,274.4 157.46,280.57 C157.46,280.57 80.2,254.57 33.46,241.06 C33.46,243.69 33.46,243.68 33.46,246.34 C58.8,254.59 103.15,270.34 129.79,278.39 C154.42,285.85 159.1,289.31 160.37,283.12 Z" id="Path" fill="#002630" opacity="0.06"></path>
                <path d="M78.6,278.15 C78.6,278.15 78.44,314.32 78.6,316.15 C78.6,316.15 51.53,307.38 48.11,305.38 C48.11,305.38 48.34,269.8 48.11,268.54 L78.6,278.15 Z" id="Path" fill="url(#linearGradient-18)"></path>
                <path d="M296.45,340.58 L331.81,326.1 C331.81,326.1 331.49,295.56 331.36,248.4 C331.36,246.91 331.36,245.4 331.36,243.94 L331.36,243.39 C331.36,241.92 331.36,240.45 331.36,238.99 C331.29,207.25 331.36,178.17 331.63,168.06 L302.44,187.6 C302.44,187.6 310.17,220.2 310.5,245.44 C269.65,258.44 218.09,274.89 215.69,275.77 L182.39,211.77 C182.39,211.77 210.39,276.92 213.7,280.56 C217.01,284.2 265.48,267.28 293.91,258 C298.78,256.41 304.38,254.83 310.33,253.32 C310.25,254.45 310.16,255.56 310.05,256.63 C307.35,281.53 316.37,330.87 296.45,340.58 Z" id="Path" fill="#002630" opacity="0.06"></path>
                <path d="M131.33,188.4 C133.62,187.55 134.65,189.9 136.33,190.65 C138.01,191.4 139.51,191.14 141.1,192.09 C143.28,193.39 146.1,194.39 148.57,193.51 C148.99,193.36 148.81,192.69 148.39,192.84 C146.852276,193.29242 145.205183,193.196988 143.73,192.57 C142.51,192.18 141.92,191.37 140.86,190.82 C140.372197,190.562805 139.831313,190.422449 139.28,190.41 C137.673179,190.324312 136.135463,189.728841 134.89,188.71 C134.59,188.52 134.42,188.12 134.11,187.92 C133.216148,187.324096 132.071889,187.251626 131.11,187.73 C130.7,187.89 130.88,188.55 131.29,188.4 L131.33,188.4 Z" id="Path" fill="#FFD49C"></path>
                <path d="M129.77,192.5 C130.98,192.45 132.62,193.6 133.77,193.97 C134.903471,194.142152 136.025513,194.38259 137.13,194.69 C137.76,194.96 138.32,195.24 138.97,195.45 C140.25,195.87 141.5,196.36 142.78,196.78 C144.66,197.4 142.31,195.94 145.13,197.44 C145.72,197.75 146.13,198.06 146.75,198.34 C147.15,198.53 147.5,197.94 147.1,197.75 C146.1,197.28 145.3,196.29 144.27,195.96 C142.33,195.33 139.7,195.23 137.76,194.29 C136.777768,193.815201 135.734531,193.478673 134.66,193.29 C132.74,192.86 131.66,191.74 129.72,191.81 C129.28,191.81 129.27,192.52 129.72,192.5 L129.77,192.5 Z" id="Path" fill="#FFD49C"></path>
                <path d="M128.09,196.27 C128.83,196 131.63,198.15 132.74,198.41 C134.290664,198.706396 135.80572,199.165605 137.26,199.78 C138.69,200.42 140.2,200.78 141.65,201.47 C142.99257,202.103756 144.439693,202.486719 145.92,202.6 C146.36,202.6 146.36,201.95 145.92,201.91 C143.44,201.72 142.09,200.57 139.92,199.66 C138.938812,199.52973 137.973695,199.298505 137.04,198.97 L135.64,197.87 C135.3,197.73 135.33,197.82 134.72,197.6 C134.11,197.38 132.89,197.34 132.33,197.16 C129.76,196.3 131.78,196.78 130.24,196.04 C129.24,195.58 128.95,195.22 127.87,195.6 C127.45,195.75 127.63,196.42 128.05,196.27 L128.09,196.27 Z" id="Path" fill="#FFD49C"></path>
                <path d="M129.77,123.45 C130.87,123.45 207.58,114.72 213.86,113.9 C213.86,113.9 222.6,173.63 224.78,184.71 C224.78,184.71 142.78,195.42 137.78,195.71 L129.77,123.45 Z" id="Path" fill="url(#linearGradient-19)"></path>
                <path d="M144.36,128.87 C144.36,128.87 146.82,168.93 145.36,194.87 L147.08,194.66 C148.7,168.77 146.17,127.54 146.17,127.54 L130.22,127.54 L130.37,128.87 L144.36,128.87 Z" id="Path" fill="#002630" opacity="0.06"></path>
                <path d="M187.39,171.22 C179.09,176.81 163.39,176.55 157.12,165.05 C150.85,153.55 153.76,137.23 168.34,132.21 C182.92,127.19 193.55,137.01 196.26,146.49 C198.975237,155.784508 195.393674,165.770083 187.39,171.22 Z" id="Path" fill="#ED4C4C"></path>
                <path d="M167,143.6 C166.943156,150.393366 167.797433,157.163684 169.54,163.73 C170.54,167.13 185.13,156.79 189.27,153.42 C192.17,151.06 185.27,148.24 175.13,143.73 C169.87,141.41 167,140.2 167,143.6 Z" id="Path" fill="url(#linearGradient-20)"></path>
                <path d="M49.93,169.83 C49.93,169.83 48.59,156.21 49.93,147.83 C49.93,147.83 86.21,151.77 90.03,152.04 L99.03,163.2 L99.03,185.6 L49.93,169.83 Z" id="Path" fill="url(#linearGradient-21)"></path>
                <path d="M61,147.31 C56.16,157.72 57.82,165.89 58.78,168.97 C57.589842,171.832236 56.5648255,174.760378 55.71,177.74 C54.8,180.79 57.66,181.07 57.95,178.19 C58.2497945,175.490153 58.8433074,172.831082 59.72,170.26 C62.35,170 75.4,168.15 79.72,157.26 C84.52,145.1 80.21,144.81 84.67,132.88 C84.7,132.85 67.25,134 61,147.31 Z" id="Path" fill="#002630" opacity="0.06"></path>
                <path d="M83.61,132.4 C83.61,132.4 66.16,133.53 59.96,146.87 C53.76,160.21 58.21,169.87 58.21,169.87 C58.21,169.87 73.86,168.96 78.66,156.8 C83.46,144.64 79.15,144.34 83.61,132.4 Z" id="Path" fill="url(#linearGradient-22)"></path>
                <path d="M71.84,147.26 C71.84,147.26 58.45,162.56 56.9,177.75 C56.61,180.63 53.75,180.35 54.66,177.3 C55.57,174.25 59.9,158.66 71.84,147.26 Z" id="Path" fill="#47BA83"></path>
                <path d="M78.82,164.46 C78.82,148 78.03,128.87 78.03,128.87 L144.36,128.87 C144.36,128.87 147.63,182.15 144.36,205.61 L78,205.61 C78,205.61 78.82,180.2 78.82,164.46 Z" id="Path" fill="url(#linearGradient-23)"></path>
                <path d="M140.32,135.35 C134.79,134.71 129.57,135.35 124.06,135.35 C121.58,135.35 119.19,134.68 116.7,134.75 C114.21,134.82 111.7,135.5 109.03,135.26 C106.95,135.07 105.25,134.55 103.13,134.89 C100.13,135.37 98.4,136.07 94.99,135.63 C90.32,135.02 85.17,136.55 80.72,135.03 C80.3,134.89 80.12,135.55 80.54,135.7 C85.25,137.31 90.6,135.82 95.54,136.44 C96.7970937,136.664652 98.0791355,136.715126 99.35,136.59 C101.15,136.34 102.95,135.42 104.79,135.39 C106.159795,135.530743 107.521551,135.741014 108.87,136.02 C110.48365,136.098644 112.101124,136.021622 113.7,135.79 C116.566571,135.585817 119.446019,135.652781 122.3,135.99 C128.3,136.39 134.25,135.35 140.3,136.05 C140.74,136.1 140.73,135.41 140.3,135.36 L140.32,135.35 Z" id="Path" fill="#D5EFFF"></path>
                <path d="M140.32,140.27 C134.79,139.63 129.57,140.27 124.06,140.27 C121.58,140.27 119.19,139.6 116.7,139.67 C114.21,139.74 111.7,140.42 109.03,140.18 C106.95,139.99 105.25,139.47 103.13,139.81 C100.13,140.29 98.4,140.99 94.99,140.55 C90.32,139.94 85.17,141.47 80.72,139.95 C80.3,139.81 80.12,140.48 80.54,140.62 C85.25,142.23 90.6,140.75 95.54,141.36 C96.7970937,141.584652 98.0791355,141.635126 99.35,141.51 C101.15,141.26 102.95,140.34 104.79,140.31 C106.14,140.31 107.53,140.83 108.87,140.94 C110.483644,141.023645 112.101606,140.946599 113.7,140.71 C116.566571,140.505817 119.446019,140.572781 122.3,140.91 C128.3,141.32 134.25,140.27 140.3,140.97 C140.74,140.97 140.73,140.33 140.3,140.28 L140.32,140.27 Z" id="Path" fill="#D5EFFF"></path>
                <path d="M140.32,145 C134.79,144.37 129.57,145 124.06,145 C121.58,145 119.19,144.33 116.7,144.41 C114.21,144.49 111.7,145.16 109.03,144.92 C106.95,144.73 105.25,144.2 103.13,144.54 C100.13,145.03 98.4,145.73 94.99,145.28 C90.32,144.68 85.17,146.21 80.72,144.69 C80.3,144.54 80.12,145.21 80.54,145.35 C85.25,146.96 90.6,145.48 95.54,146.09 C96.7970937,146.314652 98.0791355,146.365126 99.35,146.24 C101.15,145.99 102.95,145.07 104.79,145.04 C106.14,145.04 107.53,145.57 108.87,145.68 C110.483971,145.755272 112.101441,145.674901 113.7,145.44 C116.566886,145.239136 119.446335,145.309448 122.3,145.65 C128.3,146.05 134.25,145 140.3,145.65 C140.74,145.7 140.73,145.01 140.3,144.96 L140.32,145 Z" id="Path" fill="#D5EFFF"></path>
                <path d="M140.32,151 C134.79,150.37 129.57,151 124.06,151 C121.58,151 119.19,150.33 116.7,150.41 C114.21,150.49 111.7,151.16 109.03,150.92 C106.95,150.73 105.25,150.2 103.13,150.54 C100.13,151.03 98.4,151.73 94.99,151.28 C90.32,150.68 85.17,152.21 80.72,150.69 C80.3,150.54 80.12,151.21 80.54,151.35 C85.25,152.96 90.6,151.48 95.54,152.09 C96.7970937,152.314652 98.0791355,152.365126 99.35,152.24 C101.15,151.99 102.95,151.07 104.79,151.04 C106.14,151.04 107.53,151.57 108.87,151.68 C110.483971,151.755272 112.101441,151.674901 113.7,151.44 C116.566886,151.239136 119.446335,151.309448 122.3,151.65 C128.3,152.05 134.25,151 140.3,151.65 C140.74,151.7 140.73,151.01 140.3,150.96 L140.32,151 Z" id="Path" fill="#D5EFFF"></path>
                <path d="M140.32,155.94 C134.79,155.31 129.57,155.94 124.06,155.94 C121.58,155.94 119.19,155.26 116.7,155.34 C114.21,155.42 111.7,156.09 109.03,155.85 C106.95,155.66 105.25,155.13 103.13,155.48 C100.13,155.96 98.4,156.66 94.99,156.22 C90.32,155.61 85.17,157.14 80.72,155.62 C80.3,155.48 80.12,156.14 80.54,156.28 C85.25,157.89 90.6,156.41 95.54,157.02 C96.7966326,157.247988 98.078677,157.301827 99.35,157.18 C101.15,156.92 102.95,156 104.79,155.97 C106.14,155.97 107.53,156.5 108.87,156.61 C110.483649,156.683539 112.10064,156.606539 113.7,156.38 C116.56645,156.170838 119.446372,156.237813 122.3,156.58 C128.3,156.98 134.25,155.93 140.3,156.63 C140.74,156.68 140.73,155.99 140.3,155.94 L140.32,155.94 Z" id="Path" fill="#D5EFFF"></path>
                <path d="M140.32,160.66 C134.79,160.02 129.57,160.66 124.06,160.66 C121.58,160.66 119.19,159.99 116.7,160.06 C114.21,160.13 111.7,160.81 109.03,160.57 C106.95,160.38 105.25,159.86 103.13,160.2 C100.13,160.68 98.4,161.38 94.99,160.94 C90.32,160.33 85.17,161.86 80.72,160.34 C80.3,160.2 80.12,160.86 80.54,161.01 C85.25,162.62 90.6,161.13 95.54,161.74 C96.7966326,161.967988 98.078677,162.021827 99.35,161.9 C101.15,161.65 102.95,160.73 104.79,160.7 C106.159795,160.840743 107.521551,161.051014 108.87,161.33 C110.48365,161.408644 112.101124,161.331622 113.7,161.1 C116.566571,160.895817 119.446019,160.962781 122.3,161.3 C128.3,161.7 134.25,160.66 140.3,161.3 C140.74,161.36 140.73,160.67 140.3,160.62 L140.32,160.66 Z" id="Path" fill="#D5EFFF"></path>
                <path d="M140.32,166.07 C134.79,165.43 129.57,166.07 124.06,166.07 C121.58,166.07 119.19,165.4 116.7,165.47 C114.21,165.54 111.7,166.23 109.03,165.99 C106.95,165.79 105.25,165.27 103.13,165.61 C100.13,166.09 98.4,166.8 94.99,166.35 C90.32,165.74 85.17,167.27 80.72,165.76 C80.3,165.61 80.12,166.28 80.54,166.42 C85.25,168.03 90.6,166.55 95.54,167.16 C96.7970937,167.384652 98.0791355,167.435126 99.35,167.31 C101.15,167.06 102.95,166.14 104.79,166.11 C106.14,166.11 107.53,166.63 108.87,166.74 C110.483644,166.823645 112.101606,166.746599 113.7,166.51 C116.56669,166.31085 119.445667,166.377803 122.3,166.71 C128.3,167.12 134.25,166.07 140.3,166.77 C140.74,166.82 140.73,166.13 140.3,166.08 L140.32,166.07 Z" id="Path" fill="#D5EFFF"></path>
                <path d="M140.32,171 C134.79,170.37 129.57,171 124.06,171 C121.58,171 119.19,170.33 116.7,170.4 C114.21,170.47 111.7,171.16 109.03,170.92 C106.95,170.73 105.25,170.2 103.13,170.54 C100.13,171.03 98.4,171.73 94.99,171.28 C90.32,170.68 85.17,172.2 80.72,170.69 C80.3,170.54 80.12,171.21 80.54,171.35 C85.25,172.96 90.6,171.48 95.54,172.09 C96.7970937,172.314652 98.0791355,172.365126 99.35,172.24 C101.15,171.99 102.95,171.07 104.79,171.04 C106.14,171.04 107.53,171.56 108.87,171.67 C110.483644,171.753645 112.101606,171.676599 113.7,171.44 C116.566886,171.239136 119.446335,171.309448 122.3,171.65 C128.3,172.05 134.25,171 140.3,171.7 C140.74,171.75 140.73,171.06 140.3,171.01 L140.32,171 Z" id="Path" fill="#D5EFFF"></path>
                <path d="M140.32,175.7 C134.79,175.07 129.57,175.7 124.06,175.7 C121.58,175.7 119.19,175.03 116.7,175.1 C114.21,175.17 111.7,175.85 109.03,175.61 C106.95,175.42 105.25,174.89 103.13,175.24 C100.13,175.72 98.4,176.42 94.99,175.98 C90.32,175.37 85.17,176.9 80.72,175.38 C80.3,175.24 80.12,175.9 80.54,176.04 C85.25,177.65 90.6,176.17 95.54,176.78 C96.7966326,177.007988 98.078677,177.061827 99.35,176.94 C101.15,176.69 102.95,175.76 104.79,175.73 C106.14,175.73 107.53,176.26 108.87,176.37 C110.483649,176.443539 112.10064,176.366539 113.7,176.14 C116.566571,175.935817 119.446019,176.002781 122.3,176.34 C128.3,176.74 134.25,175.69 140.3,176.39 C140.74,176.44 140.73,175.75 140.3,175.7 L140.32,175.7 Z" id="Path" fill="#D5EFFF"></path>
                <path d="M78.2,133.35 C78.38,138.49 78.65,147.35 78.77,156.52 C83.4,144.63 79.18,144.25 83.61,132.4 C81.7838269,132.568975 79.9744888,132.886697 78.2,133.35 Z" id="Path" fill="url(#linearGradient-24)"></path>
                <path d="M201.87,178.69 C202.27,180.36 169.44,193.27 164.34,194.47 C159.24,195.67 158.17,195.37 141.15,168.37 C137.99,163.37 136.23,159.76 137.44,158.9 C134.04,160.37 132.61,164.62 130.02,171.54 C122.59,191.36 118.09,200.61 126.71,203.54 C135.13,206.46 164.58,215.23 178.17,218.22 C179.63,215.95 182.39,211.73 182.39,211.73 L187.24,218.15 C192.4,215.78 193.31,208.15 197.62,197.99 C201.51,188.86 203.56,182.73 201.87,178.69 Z" id="Path" fill="#E29A3B"></path>
                <path d="M141.15,168.37 C139.92,166.42 138.9,164.68 138.15,163.24 C139.75,167.91 143.75,176.78 153.68,190.44 C159.59,198.57 160.37,198.37 169.97,195.19 C178.9,192.19 193.12,185.47 200.31,179.93 C193.84,183.64 168.71,193.43 164.31,194.47 C159.24,195.67 158.17,195.37 141.15,168.37 Z" id="Path" fill="#002630" opacity="0.06"></path>
                <path d="M195.75,173.9 C186.29,170.71 161.37,163.7 147.03,159.48 C143.66,158.48 141.18,158.13 139.24,158.4 L137.98,158.69 C137.796092,158.749503 137.615789,158.819621 137.44,158.9 C136.23,159.76 137.99,163.37 141.15,168.37 C158.15,195.37 159.24,195.67 164.34,194.47 C169.44,193.27 202.27,180.36 201.87,178.69 C201,176.55 199,175 195.75,173.9 Z" id="Path" fill="#F4B145"></path>
                <path d="M165.79,192.44 C160.34,193.74 156.86,192.87 138.96,164.7 C139.57,165.81 140.31,167.04 141.15,168.37 C158.15,195.37 159.24,195.67 164.34,194.47 C168.11,193.58 187.06,186.29 196.5,181.87 C185.93,186 169.4,191.57 165.79,192.44 Z" id="Path" fill="#FCCC8B"></path>
                <path d="M220,151.16 C215.49,155.01 207.64,156.61 196.52,154.94 C183.72,153.02 178.52,145.64 175.32,140.8 C172.12,135.96 170.85,135.09 168.69,135.09 C166.53,135.09 165.22,135.96 162.05,140.8 C158.88,145.64 153.65,153.02 140.85,154.94 C127.85,156.89 119.34,154.39 115.39,149.04 C114.488465,150.517022 113.779388,152.103204 113.28,153.76 C113.28,153.76 117.43,151.57 116.28,152.22 C115.76,152.51 115.12,156.93 114.83,158.95 C115.56449,158.524829 116.217907,157.972979 116.76,157.32 C116.76,157.32 114.26,164.24 114.16,166.84 C115.160174,166.107547 116.261749,165.524757 117.43,165.11 C117.43,165.11 117.24,172.7 117.04,176.55 C116.84,180.4 118.77,188.55 118.29,190.68 C119.049996,190.604909 119.778961,190.340143 120.41,189.91 C120.41,189.91 118.68,196.64 118.01,197.79 C118.940172,197.458373 119.791439,196.937398 120.51,196.26 C120.51,196.26 119.45,202.12 119.26,203.95 C119.26,203.95 120.26,203.08 120.89,202.41 C120.89,202.41 120.61,208.12 120.41,213.78 C134.83222,225.652451 152.939673,232.130259 171.62,232.1 C176.62,232.1 177.68,212.66 182.45,211.78 C182.45,211.78 216.55,220.21 227.72,209.42 C227.15,191.14 225.94,164.51 224.82,161.26 C223.19,156.74 221.23,154.65 220,151.16 Z" id="Path" fill="#E29A3B"></path>
                <path d="M132.22,219.23 C130.126227,219.124959 128.059985,218.706992 126.09,217.99 C128.21,219.43 130.39,220.78 132.65,221.99 C136.1,221.42 137,219.34 132.22,219.23 Z" id="Path" fill="#D37F1C"></path>
                <path d="M140.8,154.84 C153.6,152.92 158.8,145.54 162,140.7 C165.2,135.86 166.47,135 168.64,135 C170.81,135 172.1,135.87 175.27,140.7 C178.44,145.53 183.67,152.92 196.47,154.84 C207.59,156.51 215.47,154.91 219.95,151.06 C219.81,150.69 219.68,150.32 219.57,149.92 C218.817933,147.380618 218.331986,144.76991 218.12,142.13 C218.7,142.8 220.33,144.34 220.33,144.34 C218.89,137.47 212.07,126.94 212.07,126.94 C213.081105,127.40351 214.14595,127.739423 215.24,127.94 C212.068404,124.214991 209.534256,119.991413 207.74,115.44 C208.32,115.63 209.57,116.12 209.57,116.12 C209.28,114.77 207.64,113.81 207.93,110.83 C208.22,107.85 208.61,105.54 208.61,105.54 C208.61,105.92 209.37,106.21 209.37,106.21 C209.37,104.67 209.79,104.77 210.07,99 C210.35,93.23 207.55,94.39 202.55,95.93 C195.71,98.03 191.55,102.85 190.21,102.37 C186.26,100.96 177.55,101.69 177.55,101.69 C177.666356,100.714094 178.031343,99.7844101 178.61,98.99 C176.77,98.99 173.8,99.58 171.61,99.77 C169.42,99.96 166.04,100.44 166.04,100.44 C166.71,99.58 170.17,94.44 170.17,94.44 C170.17,94.44 166.32,94.06 158.63,96.44 C153.226944,98.2671382 148.012786,100.611333 143.06,103.44 C143.06,103.44 135.27,97.67 132.06,95.85 C128.85,94.03 127.83,93.25 126.19,97.1 C124.950419,100.032405 123.891767,103.038042 123.02,106.1 C123.518954,106.003771 124.003099,105.84239 124.46,105.62 C124.33059,107.952821 124.364005,110.291827 124.56,112.62 C124.66,113.29 120.43,115.62 119.37,119.06 C121.022702,118.406619 122.782846,118.067477 124.56,118.06 C124.56,118.06 118.4,125.56 116.96,132.58 C116.96,132.58 119.08,132.19 120.33,131.9 C120.33,131.9 117.54,139.9 117.54,144.59 C117.54,145.25 116.44,146.86 115.32,148.81 C119.29,154.29 127.82,156.79 140.8,154.84 Z" id="Path" fill="#E29A3B"></path>
                <path d="M138,104.83 C139.92,106.83 140,105.09 143,103.48 C143,103.48 135.21,97.71 132,95.89 C130.07,94.78 128.92,94.06 127.95,94.53 C129.29,94 136.12,102.81 138,104.83 Z" id="Path" fill="#002630" opacity="0.07"></path>
                <path d="M200.14,100 C204.39,96.81 206.66,94.51 208.3,94.73 C207.01,94.48 205.05,95.16 202.55,95.93 C195.71,98.03 191.55,102.85 190.21,102.37 C194.38,103.77 195.23,103.66 200.14,100 Z" id="Path" fill="#002630" opacity="0.07"></path>
                <path d="M116,149.71 L116.09,149.82 C116.31,150.06 116.53,150.29 116.76,150.51 L116.88,150.62 C117.12,150.85 117.37,151.07 117.63,151.29 C117.91,151.51 118.2,151.73 118.51,151.94 C118.82,152.15 119.14,152.35 119.46,152.54 L119.54,152.54 C119.866667,152.726667 120.2,152.906667 120.54,153.08 L120.59,153.08 C121.351782,153.444733 122.136825,153.75875 122.94,154.02 C122.517302,153.545658 122.139048,153.033508 121.81,152.49 C119.43184,151.606308 117.323294,150.121367 115.69,148.18 C115.56,148.39 115.44,148.61 115.31,148.83 C115.521702,149.137231 115.752138,149.431122 116,149.71 Z" id="Path" fill="#002630" opacity="0.06"></path>
                <path d="M153,150.34 C152.041411,150.347803 151.093797,150.135702 150.23,149.72 C146.56,150.28 140.08,150.91 136.12,149.22 C136.224633,149.676429 136.389406,150.116945 136.61,150.53 C142.35,152.59 152.42,150.47 153,150.34 Z" id="Path" fill="#002630" opacity="0.06"></path>
                <path d="M188.33,147.63 C188.678487,147.294039 188.9631,146.897614 189.17,146.46 C185.86,146.9 179.44,144.98 175.85,140.46 C175.65,140.16 175.45,139.87 175.27,139.58 C172.1,134.74 170.8,133.88 168.64,133.88 C166.48,133.88 165.17,134.74 162,139.58 C161.82,139.87 161.62,140.16 161.42,140.46 C157.83,144.98 151.42,146.9 148.11,146.46 C148.310925,146.898554 148.592478,147.295442 148.94,147.63 C153.758108,147.471769 158.287453,145.294199 161.42,141.63 C161.62,141.33 161.82,141.04 162,140.75 C165.17,135.92 166.47,135.05 168.64,135.05 C170.81,135.05 172.1,135.92 175.27,140.75 C175.45,141.04 175.65,141.33 175.85,141.62 C178.980727,145.287923 183.510325,147.469244 188.33,147.63 Z" id="Path" fill="#002630" opacity="0.06"></path>
                <path d="M138.8,153.92 C132.865149,153.973757 126.975181,152.887423 121.45,150.72 C121.670317,151.235532 121.952378,151.722424 122.29,152.17 C127.817753,154.203135 133.682478,155.16362 139.57,155 C139.98,154.94 140.39,154.89 140.8,154.82 L141.39,154.73 C140.479174,154.645827 139.596488,154.369774 138.8,153.92 Z" id="Path" fill="#002630" opacity="0.06"></path>
                <path d="M215,152.17 C215.337622,151.722424 215.619683,151.235532 215.84,150.72 C210.31815,152.886882 204.431557,153.97322 198.5,153.92 C197.700867,154.37534 196.81515,154.658088 195.9,154.75 L196.49,154.84 L197.8,155.02 C203.661979,155.166313 209.498501,154.199215 215,152.17 Z" id="Path" fill="#002630" opacity="0.06"></path>
                <path d="M200.63,150.52 C200.850594,150.106945 201.015367,149.666429 201.12,149.21 C197.12,150.9 190.68,150.27 187.01,149.71 C186.146557,150.12672 185.198702,150.338876 184.24,150.33 C184.85,150.47 194.92,152.59 200.63,150.52 Z" id="Path" fill="#002630" opacity="0.06"></path>
                <path d="M214.31,154.12 L215.13,153.83 C215.6,153.66 216.05,153.46 216.48,153.26 C216.569565,153.222724 216.65644,153.179287 216.74,153.13 L217.28,152.86 L217.8,152.57 L218.27,152.28 C218.49,152.15 218.7,152 218.91,151.86 L219.16,151.68 C219.42,151.48 219.68,151.28 219.93,151.07 C219.82,150.79 219.72,150.49 219.63,150.19 C218.35666,151.199112 216.937048,152.008392 215.42,152.59 C215.103158,153.136528 214.731221,153.649198 214.31,154.12 Z" id="Path" fill="#002630" opacity="0.06"></path>
                <path d="M118.52,152 C118.21,151.79 117.92,151.57 117.64,151.35 C117.92,151.55 118.21,151.77 118.52,152 Z" id="Path" fill="#002630" opacity="0.06"></path>
                <path d="M127.87,130 C124.629182,129.963622 121.410111,129.465272 118.31,128.52 C117.888057,129.533047 117.530676,130.571791 117.24,131.63 C118,131.82 118.83,132 119.71,132.16 L120.35,132.01 L120.27,132.25 C121.71,132.49 123.27,132.66 124.83,132.77 C129.8,133.13 131.37,129.91 127.87,130 Z" id="Path" fill="#D37F1C"></path>
                <path d="M224.76,161.16 C223.19,156.64 221.23,154.55 219.95,151.06 C218.285332,152.434771 216.370026,153.473927 214.31,154.12 C214.936667,153.449295 215.44701,152.67871 215.82,151.84 C210.091662,154.088198 203.971906,155.169355 197.82,155.02 L196.51,154.84 L195.92,154.75 C198.447438,154.586389 200.572711,152.793697 201.16,150.33 C195.56,152.72 184.91,150.47 184.29,150.33 C188.15,150.28 189.22,147.58 189.22,147.58 C185.91,148.02 179.49,146.1 175.9,141.58 C175.7,141.28 175.5,140.99 175.32,140.7 C172.15,135.87 170.85,135 168.69,135 C166.53,135 165.22,135.87 162.05,140.7 C161.87,140.99 161.67,141.28 161.47,141.58 C157.88,146.1 151.47,148.02 148.16,147.58 C148.16,147.58 149.22,150.28 153.08,150.33 C152.46,150.46 141.81,152.71 136.21,150.33 C136.797289,152.793697 138.922562,154.586389 141.45,154.75 L140.86,154.84 C140.45,154.91 140.04,154.96 139.63,155.02 C133.437491,155.190933 127.274255,154.109306 121.51,151.84 C121.882856,152.684161 122.396885,153.458587 123.03,154.13 C120.007121,153.23917 117.338995,151.424286 115.4,148.94 C114.423548,150.544965 113.641391,152.260339 113.07,154.05 L115.92,152.36 C115.41,152.67 115.08,157.12 114.8,159.13 C115.442042,158.721827 116.007315,158.203942 116.47,157.6 C116.47,157.6 114.17,164.47 114.08,167.07 C115.101999,166.327552 116.222868,165.731775 117.41,165.3 C117.41,165.3 116.87,173.36 116.96,177.02 C117.07,181.31 117.63,182.95 118.06,186.2 L128.95,184.89 C132.085575,183.852313 135.378642,183.371722 138.68,183.47 C142.14,183.47 144.6,184.33 144.68,186.64 C144.91,191.64 143.62,194.64 143.91,197.31 C144.326624,196.740875 144.810085,196.22384 145.35,195.77 C145.35,195.77 145.24,198.59 147.41,203.96 C149.282491,208.8064 152.934416,212.755201 157.62,215 L157.82,215.09 C161.27,216.63 165.68,218.3 167.02,219.21 C167.02,219.21 168.4,217.13 172.43,216.73 L172.83,216.67 C189.43,214.2 194.52,200.67 195.83,194.06 C197.17,187.01 219.38,170.51 219.38,170.51 C219.38,170.51 222.17,170.56 225.86,170.58 C225.731946,167.416711 225.364225,164.267685 224.76,161.16 Z" id="Path" fill="#FFFFFF"></path>
                <path d="M219.37,170.53 C219.37,170.53 197.16,187.03 195.82,194.08 C194.55,200.72 189.46,214.22 172.82,216.69 L172.42,216.75 C168.42,217.15 167.01,219.23 167.01,219.23 C165.67,218.32 161.26,216.65 157.81,215.11 L157.61,215.02 C152.92063,212.784051 149.26159,208.842445 147.38,204 C145.21,198.63 145.32,195.81 145.32,195.81 C144.780085,196.26384 144.296624,196.780875 143.88,197.35 C143.874658,197.246736 143.874658,197.143264 143.88,197.04 C143.839785,197.515818 143.839785,197.994182 143.88,198.47 C144.295037,197.902542 144.778713,197.388635 145.32,196.94 C145.32,196.94 145.21,199.75 147.38,205.12 C149.257565,209.975487 152.92121,213.928933 157.62,216.17 L157.82,216.26 C161.27,217.8 165.68,219.47 167.02,220.38 C167.02,220.38 168.4,218.3 172.43,217.9 L172.83,217.84 C189.43,215.37 194.52,201.84 195.83,195.23 C197.17,188.18 219.38,171.68 219.38,171.68 C219.38,171.68 222.17,171.73 225.86,171.75 C225.86,171.37 225.8,171 225.78,170.63 C222.12,170.58 219.37,170.53 219.37,170.53 Z" id="Path" fill="#002630" opacity="0.06"></path>
                <path d="M155.83,140.57 C154.59,140.19 152.98,138.06 150.08,137.97 C147.59,137.89 143.74,139.06 139.68,137.92 C138.594945,137.637107 137.575774,137.144508 136.68,136.47 C137.706763,137.018268 138.794158,137.444499 139.92,137.74 C142.12,138.22 144.57,138.14 149.25,137.44 C150.835835,137.223075 152.436987,137.712925 153.63,138.78 C154.41147,139.314938 155.147316,139.913649 155.83,140.57 Z" id="Path" fill="#A8602F"></path>
                <path d="M156.59,143 C155.326652,142.042274 153.655887,141.811171 152.18,142.39 C149.81,143.39 145.51,141.59 143.34,142.47 C140.59,143.58 134.41,142.47 134.41,142.47 C135.590247,142.627936 136.779264,142.711434 137.97,142.72 C139.828009,142.776332 141.683486,142.543554 143.47,142.03 C144.89,141.42 148.77,142.17 150.31,142.24 C151.85,142.31 151.93,141.6 154,141.79 C154.970908,141.904605 155.879082,142.328887 156.59,143 Z" id="Path" fill="#A8602F"></path>
                <path d="M156.05,144.12 C154.426976,144.95756 152.757611,145.702097 151.05,146.35 C147.05,147.79 145.42,147.85 142.05,148.56 C139.19,149.16 135.05,150.28 135.05,150.28 C135.05,150.28 136.99,149.66 138.96,149.09 C140.93,148.52 147.61,146.88 148.64,146.63 C149.67,146.38 155.07,144.24 156.05,144.12 Z" id="Path" fill="#A8602F"></path>
                <path d="M201.33,136.47 C200.38194,137.083778 199.342284,137.542846 198.25,137.83 C194.19,139 190.79,137.57 187.9,137.77 C185.73221,138.022001 183.716585,139.010398 182.19,140.57 C182.19,140.57 183.19,140.07 184.99,139.08 C186.79,138.09 187.99,138 191.39,138.4 C196.09,138.97 197.57,138.66 199.66,137.69 C200.315606,137.439727 200.892241,137.018473 201.33,136.47 Z" id="Path" fill="#A8602F"></path>
                <path d="M203.62,142.53 C203.62,142.53 197.25,143.45 194.55,142.68 C191.85,141.91 188.25,143.58 185.73,142.52 C184.306431,141.938791 182.683485,142.135511 181.44,143.04 C182.389942,142.461961 183.533205,142.292455 184.61,142.57 C186.21,143.1 187.2,143.65 189.61,143.18 C191.64583,142.69048 193.77288,142.72834 195.79,143.29 C198.419585,143.776934 201.133144,143.513549 203.62,142.53 Z" id="Path" fill="#A8602F"></path>
                <path d="M203.09,150.28 C203.09,150.28 198.82,149.18 196,148.43 C193.18,147.68 190.15,147.14 187.15,146.05 C184.61,145.14 181.97,144.12 181.97,144.12 C181.97,144.12 184.66,145.38 186.11,145.97 C187.406256,146.555534 188.743058,147.046808 190.11,147.44 C194.78,148.69 203.11,150.32 203.11,150.32" id="Path" fill="#A8602F"></path>
                <path d="M150.69,130.18 C150.79,129.98 152.01,126.29 156.9,126.43 C159.41,126.51 161.24,127.71 161.9,129.9 C162.19,130.9 160.98,129.45 159.59,128.44 C158.2,127.43 155.15,127.49 153.39,128.44 C151.63,129.39 150.18,131.2 150.69,130.18 Z" id="Path" fill="#A8602F"></path>
                <path d="M186.36,130.18 C186.25,129.98 185.03,126.29 180.14,126.43 C177.63,126.51 175.8,127.71 175.14,129.9 C174.85,130.9 176.06,129.45 177.45,128.44 C178.84,127.43 181.89,127.49 183.65,128.44 C185.41,129.39 186.86,131.2 186.36,130.18 Z" id="Path" fill="#A8602F"></path>
                <path d="M174.33,142.37 C173.896427,143.118336 173.160988,143.643147 172.312333,143.809813 C171.463679,143.976479 170.584384,143.768782 169.9,143.24 C168.9,142.16 168.71,140.06 168.64,138.98 C168.56,140.06 168.42,142.16 167.37,143.24 C166.685616,143.768782 165.806321,143.976479 164.957667,143.809813 C164.109012,143.643147 163.373573,143.118336 162.94,142.37 C162.58,141.58 162.29,143.53 164.31,144.25 C165.721589,144.861503 167.344953,144.730284 168.64,143.9 C169.93078,144.731996 171.55212,144.863355 172.96,144.25 C175,143.53 174.69,141.58 174.33,142.37 Z" id="Path" fill="url(#linearGradient-25)"></path>
                <path d="M176.29,117.31 C176.29,117.31 177.29,121.31 177.63,121.17 C177.97,121.03 177.9,117.26 178.2,115.34 C178.2,115.34 178.59,121.89 177.77,121.83 C176.95,121.77 176.35,119.61 176.29,117.31 Z" id="Path" fill="#A8602F"></path>
                <path d="M180.52,117.33 C180.52,117.33 180.45,121.07 180.67,121.08 C181.15,121.08 182.08,117.75 182.91,116 C182.91,116 181.41,122.38 180.64,122.09 C179.87,121.8 179.92,119.55 180.52,117.33 Z" id="Path" fill="#A8602F"></path>
                <path d="M153.58,117 C153.58,117 154.63,121 154.92,120.86 C155.21,120.72 155.19,116.95 155.49,115.03 C155.49,115.03 155.88,121.57 155.05,121.52 C154.22,121.47 153.64,119.3 153.58,117 Z" id="Path" fill="#A8602F"></path>
                <path d="M157.81,117 C157.81,117 157.74,120.74 157.96,120.75 C158.44,120.75 159.37,117.42 160.2,115.67 C160.2,115.67 158.7,122.05 157.93,121.76 C157.16,121.47 157.21,119.24 157.81,117 Z" id="Path" fill="#A8602F"></path>
                <path d="M131.31,109.83 C128.94,105.33 127.46,96.94 128.03,94.53 C127.41,94.83 126.86,95.63 126.21,97.14 C124.970419,100.072405 123.911767,103.078042 123.04,106.14 C123.538954,106.043771 124.023099,105.88239 124.48,105.66 C124.35059,107.992821 124.384005,110.331827 124.58,112.66 C129.1,111.27 132.27,111.65 131.31,109.83 Z" id="Path" fill="url(#linearGradient-26)"></path>
                <path d="M200.24,107.71 C199.18,109.83 206.58,109.66 208.07,112.87 C207.899604,112.190573 207.852189,111.486133 207.93,110.79 C208.22,107.79 208.61,105.5 208.61,105.5 C208.61,105.88 209.37,106.17 209.37,106.17 C209.37,104.63 209.79,104.73 210.07,98.96 C210.19,96.69 209.82,95.5 209.02,94.96 C209.76,95.94 201.3,105.6 200.24,107.71 Z" id="Path" fill="url(#linearGradient-27)"></path>
                <path d="M130.06,125.69 C132.94,125.59 132.32,124.04 130.51,123.83 C127.561858,123.588095 124.659392,122.952445 121.88,121.94 C121.68,122.28 120.59,124.02 120.39,124.38 C123.475375,125.532068 126.779314,125.979654 130.06,125.69 Z" id="Path" fill="#D37F1C"></path>
                <path d="M166,113.67 C166.28,115.88 168,115.5 168.5,110.4 C169,105.3 169.38,99.96 169.38,99.96 C167.63,100.17 166,100.4 166,100.4 C164.67,101.65 165.73,111.46 166,113.67 Z" id="Path" fill="#D37F1C"></path>
                <path d="M154.82,107.33 C155.06,109.54 156.88,109.63 156.82,106.46 C156.76,103.29 155.82,97.6 157.82,96.74 C156.82,97.07 155.82,97.43 154.89,97.8 C153.74,98.24 154.59,105.12 154.82,107.33 Z" id="Path" fill="#D37F1C"></path>
                <path d="M179.28,109.63 C179.09,110.98 180.72,112.42 181.28,108.29 C181.84,104.16 181.85,101.45 180.8,101.49 C179.8,101.49 178.98,101.56 178.39,101.59 C179.67,101.53 179.47,108.29 179.28,109.63 Z" id="Path" fill="#D37F1C"></path>
                <path d="M130,136.46 C126.408124,136.606069 122.814685,136.211667 119.34,135.29 C119.2,135.76 118.72,137.56 118.58,138.1 C120.72562,138.551791 122.901434,138.84591 125.09,138.98 C131.94,139.7 134.82,136.17 130,136.46 Z" id="Path" fill="#D37F1C"></path>
                <path d="M207.72,124 C209.27,123.76 210.61,123.47 211.72,123.17 C211.38,122.65 210.57,121.3 210.28,120.82 C208.082164,121.548446 205.841177,122.139585 203.57,122.59 C200.88,122.94 201.3,125 207.72,124 Z" id="Path" fill="#D37F1C"></path>
                <path d="M209.77,134.22 C211.587861,133.607206 213.293592,132.701987 214.82,131.54 C214.49,130.96 213.63,129.54 213.34,129 C211.186508,130.531671 208.830653,131.756716 206.34,132.64 C202.45,133.79 205,135.81 209.77,134.22 Z" id="Path" fill="#D37F1C"></path>
                <path d="M213.34,139.57 C214.6,138.94 216.66,138.29 217.74,137.18 C217.43,136.55 216.41,134.47 216.09,133.88 C214.223931,135.617322 212.089859,137.042287 209.77,138.1 C206,139.7 210,141.23 213.34,139.57 Z" id="Path" fill="#D37F1C"></path>
                <path d="M131.65,195.15 C131.93,194.36 131.57,193.49 127.03,193.78 C124.490773,193.87991 121.949947,193.62751 119.48,193.03 C119.27,193.8 119.03,194.62 118.8,195.35 C125.89,196.94 131.37,195.91 131.65,195.15 Z" id="Path" fill="#D37F1C"></path>
                <path d="M132.73,205.4 C137.34,205.11 137.99,201.4 129.55,201.78 C126.21656,201.903449 122.887024,201.446653 119.71,200.43 C119.57,201.24 119.44,202.04 119.35,202.71 L120.17,202.95 L120.83,202.31 C120.83,202.31 120.73,204.38 120.71,204.88 C124.31,205.73 129.38,205.61 132.73,205.4 Z" id="Path" fill="#D37F1C"></path>
                <path d="M168.64,137.25 C166.99,137.25 165.03,137.75 166.01,138.82 C167.11,140.04 168.01,140.7 168.64,140.7 C169.55,140.7 170.28,140.04 171.26,138.82 C172.24,137.6 170.28,137.25 168.64,137.25 Z" id="Path" fill="url(#linearGradient-28)"></path>
                <path d="M122.65,212.32 L122.57,212.56 C124.15,212.75 125.84,212.88 127.57,212.95 C133.01,213.16 134.65,209.9 130.83,210.1 C127.366624,210.154888 123.910861,209.758214 120.55,208.92 C120.55,209.98 120.46,211.09 120.41,212.23 C120.91,212.32 121.41,212.4 121.96,212.47 L122.65,212.32 Z" id="Path" fill="#D37F1C"></path>
                <path d="M162.12,192.16 C162.018589,193.669526 161.239133,195.051956 160,195.92 C159.988771,195.116852 159.80459,194.325556 159.46,193.6 C157.76,196.2 155.68,195.91 155.68,195.91 C156.4,193.75 157.49,190.14 157.49,190.14 C157.49,190.14 157.6,192.84 157.56,193.32 C157.52,193.8 159.46,192.32 160.01,191.64 C160.25,191.35 160.74,193.28 160.71,193.71 C160.68,194.14 162.12,192.16 162.12,192.16 Z" id="Path" fill="#EDEDED"></path>
                <path d="M169.23,175.55 C168.64,180.08 165.84,180.6 165.84,180.6 C166.12,178.34 166.46,174.6 166.46,174.6 C166.46,174.6 167.11,177.23 167.16,177.71 C167.21,178.19 168.83,176.32 169.23,175.57" id="Path" fill="#EDEDED"></path>
                <path d="M129.6,165.82 C128.49,170.25 125.66,170.45 125.66,170.45 C126.19,168.24 126.96,164.54 126.96,164.54 C126.96,164.54 127.31,167.22 127.3,167.71 C127.29,168.2 129.11,166.52 129.6,165.82" id="Path" fill="#EDEDED"></path>
                <path d="M172.46,207.6 C171.82,212.12 169.03,212.6 169.03,212.6 C169.32,210.35 169.71,206.6 169.71,206.6 C169.71,206.6 170.33,209.23 170.38,209.72 C170.43,210.21 172.05,208.34 172.46,207.6" id="Path" fill="#EDEDED"></path>
                <path d="M174.52,157.23 C174.928939,158.690261 174.653069,160.257205 173.77,161.49 C173.488547,160.738465 173.048577,160.056341 172.48,159.49 C171.75,162.49 169.69,162.93 169.69,162.93 C169.69,160.66 169.47,156.93 169.47,156.93 C169.47,156.93 170.47,159.44 170.6,159.93 C170.73,160.42 172.05,158.32 172.35,157.52 C172.48,157.17 173.59,158.82 173.7,159.24 C173.81,159.66 174.52,157.23 174.52,157.23 Z" id="Path" fill="#EDEDED"></path>
                <path d="M131.31,109.83 C128.94,105.33 127.46,96.94 128.03,94.53 C127.522497,94.8321853 127.115489,95.2774586 126.86,95.81 C127.33,95.14 126.66,100.06 128.71,106.56 C129.63,109.44 130.41,109.73 127.78,110.31 C126.67302,110.537855 125.54929,110.674977 124.42,110.72 C124.42,111.45 124.5,112.14 124.58,112.72 C129.1,111.27 132.27,111.65 131.31,109.83 Z" id="Path" fill="#002630" opacity="0.07"></path>
                <path d="M209,95 C209.74,96 201.28,105.63 200.22,107.74 C199.16,109.85 206.56,109.69 208.05,112.9 C207.879604,112.220573 207.832189,111.516133 207.91,110.82 C207.91,110.76 207.91,110.71 207.91,110.65 C206.774097,110.008892 205.598366,109.441067 204.39,108.95 C200.85,107.53 203.18,105.67 205.87,101.95 C208.56,98.23 209.62,95.77 209.94,96.8 C209.8992,96.0929881 209.556889,95.437499 209,95 Z" id="Path" fill="#002630" opacity="0.07"></path>
                <path d="M171.26,138.82 C172.12,137.82 170.96,137.39 169.62,137.28 C170.87,137.52 169.79,140.7 168.62,140.7 C169.55,140.7 170.28,140 171.26,138.82 Z" id="Path" fill="#002630" opacity="0.07"></path>
                <path d="M196.59,104.24 C189.81,101.64 184.75,103.06 182.87,103.79 C181.02172,103.166857 179.138488,102.652641 177.23,102.25 C175.23,101.81 175.23,103.62 177.04,103.68 C178.753246,103.748689 180.453613,104.00693 182.11,104.45 C182.38,106.06 184.11,114.2 191.18,116.45 C199.03,118.94 199.03,116.21 206.73,118.450027 C206.73,118.47 205.25,107.55 196.59,104.24 Z" id="Path" fill="#002630" opacity="0.06"></path>
                <path d="M194.06,199.51 C194.06,183.06 193.27,163.92 193.27,163.92 L259.6,163.92 C259.6,163.92 262.87,217.21 259.6,240.66 L193.27,240.66 C193.27,240.66 194.06,215.25 194.06,199.51 Z" id="Path" fill="#002630" opacity="0.06"></path>
                <path d="M196.84,197.55 C196.84,181.09 196.05,161.96 196.05,161.96 L262.37,161.96 C262.37,161.96 265.65,215.24 262.37,238.7 L196.05,238.7 C196.05,238.7 196.84,213.28 196.84,197.55 Z" id="Path" fill="url(#linearGradient-29)"></path>
                <path d="M247.79,159.46 C247.839912,157.994739 247.244209,156.581404 246.160508,155.593946 C245.076806,154.606488 243.614318,154.14442 242.16,154.33 C240.228759,154.345596 238.45405,155.395155 237.51,157.08 C237.51,157.08 237.51,153.87 235.67,152 C234.665442,150.931093 233.242176,150.357227 231.777135,150.430382 C230.312093,150.503538 228.953076,151.216336 228.06,152.38 C225.94,154.94 227.21,159.68 228.42,162.15 C229.699555,164.733478 231.26971,167.162521 233.1,169.39 C235.638621,168.804829 238.116292,167.981171 240.5,166.93 C243.59,165.56 247.81,162.77 247.79,159.46 Z" id="Path" fill="#002630" opacity="0.09"></path>
                <path d="M190.86,213.91 C165.86,199.58 193.5,177.97 193.5,177.97 L193.65,177.97 C193.65,177.97 218.06,203.21 191.28,213.97 L190.86,213.91 Z" id="Path" fill="#68B584"></path>
                <path d="M218.11,209.17 C218.11,209.17 216.47,212.17 203.06,215.69 C189.65,219.21 184.06,210.6 179.73,206.61 C177.343526,204.276468 173.927499,203.329039 170.68,204.1 C170.68,204.1 171.74,197.36 177.14,195.74 C182.54,194.12 193.89,203.17 202.55,207.27 C211.21,211.37 218.11,209.17 218.11,209.17 Z" id="Path" fill="#75CB9A"></path>
                <path d="M191.65,208.35 C182.7,180.92 217.72,183.46 217.72,183.46 L217.82,183.57 C217.82,183.57 219,218.66 191.94,208.65 L191.65,208.35 Z" id="Path" fill="#87E3AC"></path>
                <g id="Group" opacity="0.06" transform="translate(91.000000, 139.000000)" fill="#002630">
                    <path d="M19.56,77.67 C17.73,77.52 17.13,78.38 18.56,70.35 C19.99,62.32 26.41,13.35 57.43,9.09 C58.65,8.92 59.2,9.33 56.03,9.81 C51.75,10.44 40.52,14.26 33.47,27.13 C18.12,55.14 22.12,77.88 19.56,77.67 Z" id="Path"></path>
                    <path d="M21.47,64.3 C21.47,64.3 30.79,53.7 44.16,59.39 C44.16,59.39 34.29,68.26 21.47,64.3 Z" id="Path"></path>
                    <path d="M20,62.48 C20,62.48 5.72,63.58 0,49.98 C0,50 13.47,50.52 20,62.48 Z" id="Path"></path>
                    <path d="M23.18,53 C23.18,53 32.32,42.94 45.1,48.62 C45.1,48.62 35.47,57 23.18,53 Z" id="Path"></path>
                    <path d="M27.21,41 C27.21,41 36.7,32.58 47.99,39.14 C48,39.1 38.2,45.91 27.21,41 Z" id="Path"></path>
                    <path d="M31.58,29.82 C31.58,29.82 40.77,23.06 50.34,29.82 C50.34,29.85 41,35.16 31.58,29.82 Z" id="Path"></path>
                    <path d="M38.22,20.05 C38.22,20.05 46.5,16.63 52.53,23.61 C52.53,23.61 44.42,25.9 38.22,20.05 Z" id="Path"></path>
                    <path d="M45,14.09 C45,14.09 52.87,10.83 58.6,17.47 C58.58,17.47 50.87,19.65 45,14.09 Z" id="Path"></path>
                    <path d="M37.5,20.17 C37.5,20.17 29.5,15.55 31.4,6.17 C31.4,6.22 38.38,11.41 37.5,20.17 Z" id="Path"></path>
                    <path d="M45.18,14 C45.18,14 38.71,8.45 42.03,0.34 C42,0.37 47.47,6.25 45.18,14 Z" id="Path"></path>
                    <path d="M31,30.22 C31,30.22 19.53,27.38 18.5999354,15.22 C18.57,15.26 29,19.17 31,30.22 Z" id="Path"></path>
                    <path d="M26.48,39.88 C26.48,39.88 13.66,39.34 10.0399002,26.64 C10,26.64 22,28.55 26.48,39.88 Z" id="Path"></path>
                    <path d="M22.27,52.28 C22.27,52.28 8.72,53.22 3.42,40.2798839 C3.42,40.27 16.18,40.88 22.27,52.28 Z" id="Path"></path>
                </g>
                <path d="M108.89,215.68 C107.06,215.53 106.45,216.39 107.89,208.36 C109.33,200.33 115.74,151.36 146.76,147.1 C147.98,146.93 148.53,147.34 145.35,147.82 C141.07,148.45 129.85,152.27 122.8,165.14 C107.44,193.15 111.45,215.89 108.89,215.68 Z" id="Path" fill="url(#linearGradient-30)"></path>
                <path d="M110.79,202.31 C110.79,202.31 120.12,191.71 133.49,197.4 C133.49,197.4 123.62,206.27 110.79,202.31 Z" id="Path" fill="url(#linearGradient-31)"></path>
                <path d="M109.31,200.49 C109.31,200.49 95.03,201.59 89.31,187.99 C89.34,188 102.8,188.53 109.31,200.49 Z" id="Path" fill="url(#linearGradient-32)"></path>
                <path d="M112.51,191 C112.51,191 121.65,180.94 134.43,186.62 C134.43,186.63 124.79,195 112.51,191 Z" id="Path" fill="url(#linearGradient-33)"></path>
                <path d="M116.53,179 C116.53,179 126.02,170.58 137.31,177.14 C137.31,177.11 127.53,183.92 116.53,179 Z" id="Path" fill="url(#linearGradient-34)"></path>
                <path d="M120.91,167.83 C120.91,167.83 130.09,161.07 139.67,167.83 C139.67,167.86 130.35,173.17 120.91,167.83 Z" id="Path" fill="url(#linearGradient-35)"></path>
                <path d="M127.55,158.06 C127.55,158.06 135.83,154.64 141.85,161.62 C141.85,161.62 133.74,163.91 127.55,158.06 Z" id="Path" fill="url(#linearGradient-36)"></path>
                <path d="M134.31,152.1 C134.31,152.1 142.18,148.84 147.91,155.48 C147.91,155.48 140.2,157.66 134.31,152.1 Z" id="Path" fill="url(#linearGradient-37)"></path>
                <path d="M126.82,158.17 C126.82,158.17 118.82,153.56 120.73,144.23 C120.73,144.23 127.71,149.42 126.82,158.17 Z" id="Path" fill="url(#linearGradient-38)"></path>
                <path d="M134.51,152 C134.51,152 128.03,146.45 131.36,138.34 C131.36,138.38 136.79,144.26 134.51,152 Z" id="Path" fill="url(#linearGradient-39)"></path>
                <path d="M120.29,168.23 C120.29,168.23 108.83,165.39 107.9,153.23 C107.9,153.27 118.29,157.18 120.29,168.23 Z" id="Path" fill="url(#linearGradient-40)"></path>
                <path d="M115.81,177.89 C115.81,177.89 102.99,177.35 99.37,164.65 C99.37,164.65 111.29,166.56 115.81,177.89 Z" id="Path" fill="url(#linearGradient-41)"></path>
                <path d="M111.6,190.29 C111.6,190.29 98.04,191.22 92.75,178.289884 C92.75,178.28 105.51,178.89 111.6,190.29 Z" id="Path" fill="url(#linearGradient-42)"></path>
                <path d="M101.77,166.15 C99.9,162.35 95.87,161.35 92.26,163.35 C90.0117214,164.463727 88.5314609,166.695563 88.38,169.2 C88.38,169.2 86.52,165.47 83.38,164.31 C81.5961797,163.646249 79.6117026,163.792523 77.9444809,164.710647 C76.2772592,165.628772 75.0927177,167.227648 74.7,169.09 C73.7,173.27 77.85,178.09 80.7,180.3 C83.6628136,182.596261 86.8767233,184.548762 90.28,186.12 C92.9143095,183.986558 95.34475,181.613029 97.54,179.03 C100.31,175.68 103.67,170 101.77,166.15 Z" id="Path" fill="#002630" opacity="0.06"></path>
                <path d="M100.31,165.63 C98.44,161.83 94.42,160.83 90.8,162.83 C88.5555976,163.946406 87.0794909,166.17773 86.93,168.68 C86.93,168.68 85.06,164.95 81.93,163.79 C80.1448805,163.126295 78.1592818,163.272427 76.490561,164.190319 C74.8218402,165.108212 73.6352639,166.706959 73.24,168.57 C72.24,172.75 76.39,177.57 79.24,179.78 C82.2070724,182.075277 85.4241771,184.027681 88.83,185.6 C91.4669503,183.469528 93.8976563,181.095739 96.09,178.51 C98.86,175.16 102.21,169.5 100.31,165.63 Z" id="Path" fill="#ED4C4C"></path>
                <path d="M249.05,157.52 C249.099912,156.054739 248.504209,154.641404 247.420508,153.653946 C246.336806,152.666488 244.874318,152.20442 243.42,152.39 C241.489912,152.409734 239.717122,153.458159 238.77,155.14 C238.77,155.14 238.77,151.93 236.93,150.07 C235.925442,149.001093 234.502176,148.427227 233.037135,148.500382 C231.572093,148.573538 230.213076,149.286336 229.32,150.45 C227.2,153 228.47,157.74 229.68,160.21 C230.961007,162.795761 232.531032,165.227958 234.36,167.46 C236.898544,166.870114 239.376086,166.043151 241.76,164.99 C244.85,163.62 249.07,160.84 249.05,157.52 Z" id="Path" fill="#ED4C4C"></path>
                <path d="M272.23,156.2 L245.5,156.2 C244.18,156.2 243.07,156.2 242.16,156.28 C241.449914,156.309242 240.746968,156.433687 240.07,156.65 C240.236522,156.659812 240.403478,156.659812 240.57,156.65 C240.403478,156.659812 240.236522,156.659812 240.07,156.65 C239.334821,156.8867 238.734933,157.424782 238.42,158.13 C237.89,159.26 237.77,161.07 237.77,163.94 C237.77,166.28 238.32,176.43 238.62,180.24 C248.45,177.83 259.06,168.35 265.14,166.36 C271.59,164.25 272.72,161.1 272.23,156.2 Z" id="Path" fill="#002630" opacity="0.09"></path>
                <path d="M242.4,195.18 C242.4,195.18 240,173.63 240,165.71 C240,157.79 240.91,157.97 248.92,157.97 L283.68,157.97 C290.05,157.97 290.16,159.57 295.15,165.71 C297.88,169.07 297.88,169.07 297.88,177.62 L242.4,195.18 Z" id="Path" fill="#E29A3B"></path>
                <path d="M282.49,174.88 C289.5,167.5 278,163 278,163 C278,163 272.3,174 282.44,174.93 L282.49,174.88 Z" id="Path" fill="#68B584"></path>
                <path d="M272.79,176 C272.79,176 273.65,176.86 278.54,176.68 C283.43,176.5 284.45,173.04 285.54,171.25 C286.1124,170.218335 287.172301,169.55071 288.35,169.48 C288.35,169.48 287.35,167.31 285.35,167.31 C283.35,167.31 280.44,171.52 277.92,173.78 C276.532563,175.112766 274.711309,175.900911 272.79,176 Z" id="Path" fill="#75CB9A"></path>
                <path d="M281.66,173.08 C281.91,162.9 270.32,167.31 270.32,167.31 C270.32,167.31 273.47,179.31 281.61,173.17 L281.66,173.08 Z" id="Path" fill="#87E3AC"></path>
                <path d="M250.39,174.37 C250.39,174.37 232.94,175.5 226.73,188.83 C220.52,202.16 224.99,211.83 224.99,211.83 C224.99,211.83 240.64,210.92 245.44,198.76 C250.24,186.6 245.92,186.31 250.39,174.37 Z" id="Path" fill="url(#linearGradient-43)"></path>
                <path d="M238.62,189.23 C238.62,189.23 225.22,204.52 223.68,219.72 C223.39,222.6 220.52,222.31 221.44,219.26 C222.36,216.21 226.67,200.63 238.62,189.23 Z" id="Path" fill="#47BA83"></path>
                <path d="M206.73,117.07 C206.73,117.07 205.25,106.15 196.59,102.84 C187.93,99.53 182.06,102.75 182.06,102.75 C182.06,102.75 183.32,112.55 191.18,115.03 C199.04,117.51 199,114.79 206.73,117.07 Z" id="Path" fill="url(#linearGradient-44)"></path>
                <path d="M196.87,110.32 C196.87,110.32 186.66,102.58 177.04,102.32 C175.22,102.26 175.27,100.45 177.23,100.89 C179.19,101.33 189.18,103.32 196.87,110.32 Z" id="Path" fill="#47BA83"></path>
                <path d="M49.54,164.41 C49.54,164.41 60.09,168.74 71.01,172.47 C81.93,176.2 107.29,183.17 115.08,185.81 C122.87,188.45 177.66,206.5 181.85,207.32 C186.04,208.14 239.55,191.32 245.05,188.58 C250.55,185.84 311.05,167.9 312.05,167.58 L334.05,182.74 L308.75,194.39 L149.56,216.51 L105.41,198.05 L48.35,183.44 L49.54,164.41 Z" id="Path" fill="#002630" opacity="0.06"></path>
                <path d="M333.27,226.88 C335.27,228.52 339.96,236.06 343.42,234.96 L360.21,229.61 L331.81,164.46 L182.39,211.78 L215.69,275.78 C218.61,274.72 294,250.7 334.69,237.78 C336.26,237.23 331.31,225.25 333.27,226.88 Z" id="Path" fill="url(#linearGradient-45)"></path>
                <path d="M334.7,237.73 C336.26,237.23 331.31,225.25 333.27,226.88 C335.23,228.51 339.96,236.06 343.42,234.96 L360.21,229.61 L331.81,164.46 L321.93,167.59 C321.93,167.59 346.65,220.33 337.36,220.11 C328.07,219.89 328.63,230.43 322.08,234.26 C315.53,238.09 275.08,251.18 257.08,256.37 C239.08,261.56 213.95,271.66 211.81,268.37 L215.67,275.78 C218.61,274.71 294,250.69 334.7,237.73 Z" id="Path" fill="#002630" opacity="0.06"></path>
                <path d="M31.52,164.46 L0.22,231.8 C1.88,232.19 8.99,234.91 21.22,238.35 C23.12,238.88 26.95,234.35 26.95,234.35 C26.95,234.35 25.52,238.81 27.64,239.41 C73.46,252.3 157.44,280.57 157.44,280.57 C158.53,272.93 182.37,211.78 182.37,211.78 L31.52,164.46 Z" id="Path" fill="url(#linearGradient-46)"></path>
                <path d="M0.22,231.8 C1.88,232.19 8.99,234.91 21.22,238.35 C23.12,238.88 26.95,234.35 26.95,234.35 C26.95,234.35 25.52,238.81 27.64,239.41 C73.46,252.3 157.44,280.57 157.44,280.57 C157.949701,278.194648 158.617862,275.856085 159.44,273.57 C159.44,273.57 72.3,244.57 53.19,236.95 C34.08,229.33 16.06,227.12 17.7,216.77 C19.24,207.02 31.45,169.15 36.36,165.93 L31.53,164.42 L0.22,231.8 Z" id="Path" fill="#002630" opacity="0.06"></path>
                <path d="M245.7,164.75 C247.23,164.22 248.47,165.05 250,164.97 C252,164.88 253.91,164.73 255.93,164.8 C257.22,164.8 258.28,165.06 259.53,165.01 C260.26,165.01 260.29,164.76 261.12,164.81 C261.95,164.86 262.83,165.24 263.69,165.36 C264.12,165.42 264.31,164.76 263.87,164.7 C262.75,164.54 261.74,163.9 260.64,163.8 C258.5,163.61 256.14,164.43 253.93,164.12 C252.85646,163.930273 251.759812,163.910027 250.68,164.06 C248.68,164.27 247.35,163.45 245.51,164.06 C245.1,164.2 245.28,164.87 245.7,164.72 L245.7,164.75 Z" id="Path" fill="#FFD49C"></path>
                <path d="M245.7,168.88 C247.23,168.34 248.47,169.17 250,169.1 C252,169.01 253.91,168.86 255.93,168.93 C257.22,168.93 258.28,169.19 259.53,169.14 C260.26,169.14 260.29,168.89 261.12,168.94 C261.95,168.99 262.83,169.37 263.69,169.49 C264.12,169.55 264.31,168.88 263.87,168.82 C262.75,168.67 261.74,168.03 260.64,167.93 C258.5,167.74 256.14,168.56 253.93,168.24 C252.855477,168.058549 251.759596,168.041689 250.68,168.19 C248.68,168.39 247.35,167.57 245.51,168.19 C245.1,168.33 245.28,169 245.7,168.85 L245.7,168.88 Z" id="Path" fill="#FFD49C"></path>
                <path d="M102.66,368 C102.66,368 96.32,360 86.17,360.36 C76.02,360.72 71.57,365.36 71.57,365.36 C71.57,365.36 77.19,372.61 86.17,371.82 C95.15,371.03 93.93,368.85 102.66,368 Z" id="Path" fill="url(#linearGradient-47)"></path>
                <path d="M89.78,366.1 C89.78,366.1 76.1,363.57 66.33,366.68 C64.47,367.27 63.72,365.83 65.88,365.5 C68.04,365.17 79,363.28 89.78,366.1 Z" id="Path" fill="#47BA83"></path>
                <path d="M337.23,347.17 C334.269629,342.531021 328.914216,339.99711 323.45,340.65 C313.76,341.51 308.45,346.08 308.45,346.08 C311.036543,350.24783 315.899327,352.421827 320.73,351.57 C329.42,350.4 328.77,348.42 337.23,347.17 Z" id="Path" fill="url(#linearGradient-48)"></path>
                <path d="M325.5,346 C325.5,346 313.18,344.23 303.21,347.65 C301.32,348.3 300.95,346.96 303.07,346.54 C305.19,346.12 315.93,343.8 325.5,346 Z" id="Path" fill="#47BA83"></path>
                <path d="M255.56,20 C255.56,20 253.24,10.34 243.62,8.8 C234,7.26 227.81,11.2 227.81,11.2 C227.81,11.2 229.81,19.89 238.52,20.81 C247.23,21.73 247,19.25 255.56,20 Z" id="Path" fill="url(#linearGradient-49)"></path>
                <path d="M244.4,15.56 C244.4,15.56 232.8,10.26 222.32,11.63 C220.32,11.89 220.32,10.23 222.43,10.3 C224.54,10.37 235.58,10.51 244.4,15.56 Z" id="Path" fill="#47BA83"></path>
                <path d="M95.07,388 C95.07,388 96.07,378.58 105.35,375.34 C114.63,372.1 121.25,374.61 121.25,374.61 C121.25,374.61 120.44,383.07 111.98,385.55 C103.52,388.03 103.37,385.74 95.07,388 Z" id="Path" fill="url(#linearGradient-50)"></path>
                <path d="M105.48,381.81 C105.48,381.81 116.2,374.71 126.72,374.02 C128.72,373.89 128.55,372.34 126.43,372.8 C124.31,373.26 113.49,375.46 105.48,381.81 Z" id="Path" fill="#47BA83"></path>
                <path d="M338.49,364 C338.504568,363.930758 338.504568,363.859242 338.49,363.79 C337.98,358.79 338.64,357.93 337.59,356.52 C337.68,356.63 337.28,356.92 336.53,357.33 C333.72,358.86 325.94,362.27 319.21,365.06 C314.12,366.42 308.83,368.06 304.46,369.39 C302.51,368.34 298.67,365.68 289.28,359.76 C287.89,358.88 288.46,360.83 287.6,360.16 C287.86,360.42 285.04,359.04 285.38,359.36 C285.04,359.04 283.18,359.36 282.92,359.08 C281.57,358.03 278.92,358.21 279.41,357.85 C277.57,358.85 277.73,359.71 276.6,365.7 C276.18,367.92 275.73,369.78 275.39,371.33 C275.198712,371.411078 275.052535,371.571873 274.99,371.77 C274.55,373.85 274.28,375.25 275.12,376.72 L275.12,376.79 C275.59,377.54 276.56,377.93 278.26,378.04 L280.33,378.19 C293.92,377.86 329.18,376.73 333.94,376.29 C339.36,375.75 338.68,372.46 338.49,364 Z" id="Path" fill="#BC701D"></path>
                <path d="M338.49,361.72 C338.504568,361.650758 338.504568,361.579242 338.49,361.51 C337.98,356.51 338.64,355.65 337.59,354.24 C337.68,354.35 337.28,354.64 336.53,355.05 C333.72,356.58 325.94,359.99 319.21,362.78 C314.12,364.14 308.83,365.78 304.46,367.11 C302.51,366.06 298.67,363.39 289.28,357.47 C287.89,356.6 288.46,358.55 287.6,357.87 C287.86,358.14 285.04,356.76 285.38,357.08 C285.04,356.76 283.18,357.08 282.92,356.8 C281.57,355.74 278.92,355.93 279.41,355.57 C277.57,356.57 277.73,357.43 276.6,363.42 C274.95,372.19 272.82,375.42 278.3,375.76 L280.37,375.91 L280.29,375.91 C291.44,376.25 329.66,374.31 334.43,374.04 C339.2,373.77 338.68,370.22 338.49,361.72 Z" id="Path" fill="#E29A3B"></path>
                <path d="M284.27,359.37 C282.88,358.49 280.71,357.27 279.85,356.6 C282.04,358.85 288.02,359.97 298.85,365.97 C305.32,369.55 305.95,369.36 313.52,366.65 C320.52,364.14 331.41,358.71 336.52,355.05 C331.7,357.68 312.13,365.88 308.58,366.9 C304.51,368.08 303.54,371.53 284.27,359.37 Z" id="Path" fill="#002630" opacity="0.06"></path>
                <path d="M330.49,353.24 C318.2,354.15 314.13,354.24 302.62,354.61 C294.45,354.89 285.16,355.49 281.37,355.33 C280.865264,355.307763 280.359561,355.334555 279.86,355.41 C279.717173,355.455595 279.576962,355.509009 279.44,355.57 C278.57,356.15 280.71,357.11 284.27,359.37 C303.54,371.53 304.51,368.08 308.62,366.9 C312.73,365.72 338.26,355.06 337.62,354.24 C336.48,353.23 333.47,353 330.49,353.24 Z" id="Path" fill="#F4B145"></path>
                <path d="M309.48,365.69 C305.09,366.96 301.99,370.51 281.76,357.84 C282.48,358.35 283.33,358.77 284.27,359.37 C303.54,371.53 304.51,368.08 308.62,366.9 C311.62,366.03 326.42,359.81 333.62,356.48 C325.42,359.79 312.39,364.84 309.48,365.69 Z" id="Path" fill="#FCCC8B"></path>
                <path d="M279.55,367.46 C281.09,366.66 282.49,367.83 284.01,368.07 C284.670559,368.183644 285.343816,368.203842 286.01,368.13 C286.3,368.13 286.53,368.06 286.82,368.01 C287.298799,367.906027 287.799002,367.976978 288.23,368.21 C289.30882,368.539808 290.431954,368.701701 291.56,368.69 C292.767192,368.821522 293.988303,368.660308 295.12,368.22 C295.47,368.06 295.17,367.55 294.82,367.71 C293.348054,368.184809 291.781464,368.287874 290.26,368.01 C289.11,367.91 288.12,367.25 286.99,367.36 C286.219989,367.48818 285.440605,367.551735 284.66,367.55 C283.824081,367.433259 283.00916,367.197538 282.24,366.85 C281.289714,366.453101 280.214324,366.48591 279.29,366.94 C278.95,367.12 279.29,367.63 279.59,367.46 L279.55,367.46 Z" id="Path" fill="#FFD49C"></path>
                <path d="M279,369.77 C280.39,369.41 281.76,370.22 283.2,370.04 C284.054181,369.899621 284.927732,369.930212 285.77,370.13 C286.325781,370.268178 286.897427,370.332068 287.47,370.32 C288.211541,370.297458 288.953188,370.361219 289.68,370.51 C290.091465,370.592123 290.51329,370.608996 290.93,370.56 C291.568832,370.424892 292.230794,370.445472 292.86,370.62 C293.417546,370.788838 293.990274,370.902714 294.57,370.96 C294.95,370.96 294.94,370.41 294.57,370.36 C293.49,370.23 292.51,369.67 291.45,369.86 C290.600501,369.974264 289.736696,369.91645 288.91,369.69 C288.307502,369.645109 287.702498,369.645109 287.1,369.69 C286.37,369.69 285.71,369.4 284.99,369.31 C284.233337,369.293231 283.476753,369.346795 282.73,369.47 C281.34,369.55 280.24,368.8 278.84,369.17 C278.706916,369.232139 278.63839,369.381495 278.678084,369.522906 C278.717778,369.664317 278.854019,369.756195 279,369.74 L279,369.77 Z" id="Path" fill="#FFD49C"></path>
                <path d="M278.21,371.9 C279.35,371.2 280.88,372.57 282.1,372.56 C282.67559,372.509915 283.24698,372.419696 283.81,372.29 C284.624594,372.273757 285.435086,372.409404 286.2,372.69 C286.776427,372.799905 287.363966,372.840193 287.95,372.81 C288.69744,372.77146 289.446336,372.849048 290.17,373.04 C291.555254,373.342995 292.980749,373.41731 294.39,373.26 C294.77,373.26 294.77,372.63 294.39,372.66 C292.683533,372.742739 290.973847,372.587925 289.31,372.2 C288.71752,372.154994 288.12248,372.154994 287.53,372.2 C286.665937,372.132533 285.813136,371.961301 284.99,371.69 C284.547383,371.604935 284.092617,371.604935 283.65,371.69 C282.571413,371.962149 281.434594,371.888693 280.4,371.48 C279.632981,371.055574 278.711457,371.014864 277.91,371.37 C277.797803,371.464182 277.770029,371.62562 277.8443,371.751882 C277.918572,371.878144 278.073169,371.932305 278.21,371.88 L278.21,371.9 Z" id="Path" fill="#FFD49C"></path>
                <path d="M173.83,49.17 C170.33,50.81 169.51,50.76 153.13,33.88 C150.13,30.75 148.28,28.42 149.02,27.61 C146.79,29.19 146.41,32.47 145.59,37.86 C143.25,53.28 141.42,60.64 148.08,61.48 C154.74,62.32 178.22,64.22 188.08,64.23 C197.94,64.24 196.18,57.72 198.34,46.68 C199.75,39.46 200.29,34.68 198.46,32.08 C199,33.22 177.32,47.53 173.83,49.17 Z" id="Path" fill="#E29A3B"></path>
                <path d="M153.13,33.88 C151.95,32.66 150.95,31.56 150.22,30.63 C152.08,33.76 156.32,39.54 165.56,47.88 C171.05,52.88 171.56,52.58 178.03,48.82 C184.03,45.33 193.24,38.29 197.58,33.2 C193.48,36.87 176.85,47.75 173.83,49.2 C170.33,50.81 169.51,50.76 153.13,33.88 Z" id="Path" fill="#002630" opacity="0.06"></path>
                <path d="M193.35,29.55 C186.04,28.69 167,27.43 156.02,26.55 C154.085569,26.2899376 152.118352,26.4294807 150.24,26.96 L149.38,27.36 C149.254965,27.4284844 149.134692,27.5053255 149.02,27.59 C148.28,28.4 150.1,30.73 153.13,33.86 C169.51,50.74 170.33,50.79 173.83,49.15 C177.33,47.51 199.03,33.2 198.49,32.06 C197.51,30.67 195.88,29.85 193.35,29.55 Z" id="Path" fill="#F4B145"></path>
                <path d="M174.56,47.48 C170.83,49.25 168.19,49.15 150.99,31.56 C151.6,32.27 152.32,33.05 153.13,33.88 C169.51,50.76 170.33,50.81 173.83,49.17 C176.41,47.95 188.96,39.81 195.1,35.17 C188.11,39.79 177,46.31 174.56,47.48 Z" id="Path" fill="#FCCC8B"></path>
                <path d="M149.17,49.77 C150.46,48.64 151.75,50.4 153.06,50.68 C153.497408,50.7699124 153.946273,50.790162 154.39,50.74 C154.683152,50.6920754 154.973559,50.6286532 155.26,50.55 C155.662872,50.4685729 156.08134,50.5631829 156.41,50.81 C157.98,51.67 160.81,52 162.32,50.87 C162.58,50.67 162.32,50.23 162.07,50.43 C160.92,51.29 159.12,51.09 157.79,50.81 C157.218805,50.5947735 156.675036,50.3128195 156.17,49.97 C155.77402,49.8673495 155.354136,49.9136079 154.99,50.1 C154.265294,50.3353425 153.484706,50.3353425 152.76,50.1 C152.09,49.87 151.68,49.37 151.05,49.1 C150.302931,48.7413212 149.412044,48.8805222 148.81,49.45 C148.56,49.66 148.92,50.02 149.17,49.81 L149.17,49.77 Z" id="Path" fill="#FFD49C"></path>
                <path d="M148.68,53 C149.68,52.59 150.03,53.17 150.83,53.4 C151.240659,53.500065 151.669341,53.500065 152.08,53.4 C152.481933,53.2727522 152.898824,53.1987877 153.32,53.18 C153.721428,53.2637585 154.113404,53.3877168 154.49,53.55 C154.915689,53.690143 155.361903,53.7577512 155.81,53.75 C156.3491,53.7162371 156.890031,53.773711 157.41,53.92 C157.834058,54.0931029 158.295293,54.1550599 158.75,54.1 C159.36,54 159.56,53.82 160.19,54.1 C160.698481,54.342912 161.231522,54.5306499 161.78,54.66 C162.1,54.72 162.24,54.23 161.92,54.17 C161.258788,53.965619 160.616413,53.7046541 160,53.39 C159.785622,53.3005554 159.544378,53.3005554 159.33,53.39 C158.861826,53.6078521 158.336425,53.6709002 157.83,53.57 C157.58,53.5 157.36,53.31 157.1,53.24 C156.47,53.07 155.87,53.33 155.23,53.24 C154.59,53.15 154.1,52.77 153.48,52.71 C152.868292,52.7566963 152.260315,52.8435502 151.66,52.97 C150.85,52.97 150.35,52.48 149.61,52.36 C149.201169,52.3056274 148.785526,52.3789763 148.42,52.57 C148.12,52.7 148.42,53.14 148.68,53.01 L148.68,53 Z" id="Path" fill="#FFD49C"></path>
                <path d="M148,55.94 C148.79,55.14 150.3,56.88 151.25,56.86 C152.2,56.84 152.78,56.24 153.64,56.53 C154.059711,56.745448 154.490287,56.93904 154.93,57.11 C155.413075,57.2113122 155.908784,57.2382896 156.4,57.19 C157.049265,57.1751187 157.693031,57.3120903 158.28,57.59 C159.404272,57.9640828 160.605103,58.0466615 161.77,57.83 C162.09,57.78 161.95,57.29 161.63,57.34 C160.734025,57.4986109 159.815012,57.4713809 158.93,57.26 C158.333974,57.0024944 157.718776,56.791856 157.09,56.63 C156.467162,56.6651585 155.842838,56.6651585 155.22,56.63 C154.56,56.5 154.07,56.01 153.44,55.9 C152.983421,55.864618 152.525415,55.9472656 152.11,56.14 C150.98,56.48 150.51,56.14 149.64,55.56 C149.059575,55.0804407 148.220425,55.0804407 147.64,55.56 C147.4,55.79 147.76,56.15 148,55.92 L148,55.94 Z" id="Path" fill="#FFD49C"></path>
                <path d="M127,44.15 C155.24,21.98 117.25,0.38 117.25,0.38 L117.08,0.38 C117.08,0.38 91.58,35.86 126.49,44.22 L127,44.15 Z" id="Path" fill="#68B584"></path>
                <path d="M92.55,43.24 C92.55,43.24 95.11,46.68 112.25,48.54 C129.39,50.4 134.71,38.85 139.33,33.15 C141.845562,29.8556302 145.870219,28.0752758 150,28.43 C150,28.43 147.48,20.32 140.53,19.3 C133.58,18.28 121.26,31.48 111.34,38.09 C101.42,44.7 92.55,43.24 92.55,43.24 Z" id="Path" fill="#75CB9A"></path>
                <path d="M125,37.45 C131.07,2.06 88.41,11.52 88.41,11.52 L88.3,11.67 C88.3,11.67 93.2,55.09 124.7,37.87 L125,37.45 Z" id="Path" fill="#87E3AC"></path>
            </g>
        </g>
    </g>
</svg>