<?xml version="1.0" encoding="UTF-8"?>
<svg width="363px" height="367px" viewBox="0 0 363 367" version="1.1" xmlns="http://www.w3.org/2000/svg" xmlns:xlink="http://www.w3.org/1999/xlink">
    <!-- Generator: Sketch 52.4 (67378) - http://www.bohemiancoding.com/sketch -->
    <title>Find your company</title>
    <desc>Created with Sketch.</desc>
    <defs>
        <linearGradient x1="-2.11743956%" y1="32.373461%" x2="45.9553842%" y2="48.4215478%" id="linearGradient-1">
            <stop stop-color="#61EEB6" offset="0%"></stop>
            <stop stop-color="#14CD9A" offset="100%"></stop>
        </linearGradient>
        <linearGradient x1="-1257.74286%" y1="3585.52284%" x2="-1281.05714%" y2="4367.07681%" id="linearGradient-2">
            <stop stop-color="#61EEB6" offset="0%"></stop>
            <stop stop-color="#14CD9A" offset="100%"></stop>
        </linearGradient>
        <linearGradient x1="-1518.23128%" y1="2148.23118%" x2="-1458.36781%" y2="2742.91464%" id="linearGradient-3">
            <stop stop-color="#61EEB6" offset="0%"></stop>
            <stop stop-color="#14CD9A" offset="100%"></stop>
        </linearGradient>
        <linearGradient x1="-1332.01066%" y1="3927.65102%" x2="-1356.17412%" y2="4752.33166%" id="linearGradient-4">
            <stop stop-color="#61EEB6" offset="0%"></stop>
            <stop stop-color="#14CD9A" offset="100%"></stop>
        </linearGradient>
        <linearGradient x1="-1437.49911%" y1="4747.47137%" x2="-1462.99909%" y2="5710.08692%" id="linearGradient-5">
            <stop stop-color="#61EEB6" offset="0%"></stop>
            <stop stop-color="#14CD9A" offset="100%"></stop>
        </linearGradient>
        <linearGradient x1="-1627.01487%" y1="5622.1098%" x2="-1655.20581%" y2="6725.95052%" id="linearGradient-6">
            <stop stop-color="#61EEB6" offset="0%"></stop>
            <stop stop-color="#14CD9A" offset="100%"></stop>
        </linearGradient>
        <linearGradient x1="-2186.89956%" y1="6404.27381%" x2="-2223.99031%" y2="7631.12941%" id="linearGradient-7">
            <stop stop-color="#61EEB6" offset="0%"></stop>
            <stop stop-color="#14CD9A" offset="100%"></stop>
        </linearGradient>
        <linearGradient x1="-2323.28571%" y1="6882.41473%" x2="-2362.14286%" y2="8175.33595%" id="linearGradient-8">
            <stop stop-color="#61EEB6" offset="0%"></stop>
            <stop stop-color="#14CD9A" offset="100%"></stop>
        </linearGradient>
        <linearGradient x1="-4999.24919%" y1="2230.81937%" x2="-4814.47145%" y2="2764.94413%" id="linearGradient-9">
            <stop stop-color="#61EEB6" offset="0%"></stop>
            <stop stop-color="#14CD9A" offset="100%"></stop>
        </linearGradient>
        <linearGradient x1="-6998.7233%" y1="2316.19563%" x2="-6742.46689%" y2="2862.51849%" id="linearGradient-10">
            <stop stop-color="#61EEB6" offset="0%"></stop>
            <stop stop-color="#14CD9A" offset="100%"></stop>
        </linearGradient>
        <linearGradient x1="-2561.34102%" y1="2029.49585%" x2="-2464.85071%" y2="2528.31525%" id="linearGradient-11">
            <stop stop-color="#61EEB6" offset="0%"></stop>
            <stop stop-color="#14CD9A" offset="100%"></stop>
        </linearGradient>
        <linearGradient x1="-1897.63127%" y1="2205.29152%" x2="-1824.91117%" y2="2767.41793%" id="linearGradient-12">
            <stop stop-color="#61EEB6" offset="0%"></stop>
            <stop stop-color="#14CD9A" offset="100%"></stop>
        </linearGradient>
        <linearGradient x1="-1629.9274%" y1="2318.36898%" x2="-1566.41029%" y2="2937.81721%" id="linearGradient-13">
            <stop stop-color="#61EEB6" offset="0%"></stop>
            <stop stop-color="#14CD9A" offset="100%"></stop>
        </linearGradient>
        <linearGradient x1="62.7002576%" y1="3.98110264%" x2="36.7341758%" y2="34.2598165%" id="linearGradient-14">
            <stop stop-color="#61EEB6" offset="0%"></stop>
            <stop stop-color="#14CD9A" offset="100%"></stop>
        </linearGradient>
        <linearGradient x1="486.889275%" y1="180.205235%" x2="-160.567446%" y2="1.15895308%" id="linearGradient-15">
            <stop stop-color="#61EEB6" offset="0%"></stop>
            <stop stop-color="#14CD9A" offset="100%"></stop>
        </linearGradient>
        <linearGradient x1="362.994671%" y1="218.309715%" x2="-30.178508%" y2="-7.68493761%" id="linearGradient-16">
            <stop stop-color="#61EEB6" offset="0%"></stop>
            <stop stop-color="#14CD9A" offset="100%"></stop>
        </linearGradient>
        <linearGradient x1="390.136253%" y1="153.72073%" x2="-282.297118%" y2="-32.3797678%" id="linearGradient-17">
            <stop stop-color="#61EEB6" offset="0%"></stop>
            <stop stop-color="#14CD9A" offset="100%"></stop>
        </linearGradient>
        <linearGradient x1="273.568361%" y1="125.035509%" x2="-418.555511%" y2="-76.1893831%" id="linearGradient-18">
            <stop stop-color="#61EEB6" offset="0%"></stop>
            <stop stop-color="#14CD9A" offset="100%"></stop>
        </linearGradient>
        <linearGradient x1="156.455611%" y1="94.986618%" x2="-553.601063%" y2="-132.519465%" id="linearGradient-19">
            <stop stop-color="#61EEB6" offset="0%"></stop>
            <stop stop-color="#14CD9A" offset="100%"></stop>
        </linearGradient>
        <linearGradient x1="51.3126421%" y1="64.2214028%" x2="-582.511786%" y2="-252.341056%" id="linearGradient-20">
            <stop stop-color="#61EEB6" offset="0%"></stop>
            <stop stop-color="#14CD9A" offset="100%"></stop>
        </linearGradient>
        <linearGradient x1="-42.748472%" y1="17.7666271%" x2="-708.074895%" y2="-315.42399%" id="linearGradient-21">
            <stop stop-color="#61EEB6" offset="0%"></stop>
            <stop stop-color="#14CD9A" offset="100%"></stop>
        </linearGradient>
        <linearGradient x1="119.31055%" y1="137.399623%" x2="-319.274889%" y2="-638.702747%" id="linearGradient-22">
            <stop stop-color="#61EEB6" offset="0%"></stop>
            <stop stop-color="#14CD9A" offset="100%"></stop>
        </linearGradient>
        <linearGradient x1="72.188789%" y1="51.7556784%" x2="-396.084082%" y2="-883.643865%" id="linearGradient-23">
            <stop stop-color="#61EEB6" offset="0%"></stop>
            <stop stop-color="#14CD9A" offset="100%"></stop>
        </linearGradient>
        <linearGradient x1="169.282303%" y1="162.262939%" x2="-208.331343%" y2="-258.638083%" id="linearGradient-24">
            <stop stop-color="#61EEB6" offset="0%"></stop>
            <stop stop-color="#14CD9A" offset="100%"></stop>
        </linearGradient>
        <linearGradient x1="237.108385%" y1="171.841776%" x2="-157.790366%" y2="-116.837792%" id="linearGradient-25">
            <stop stop-color="#61EEB6" offset="0%"></stop>
            <stop stop-color="#14CD9A" offset="100%"></stop>
        </linearGradient>
        <linearGradient x1="321.128658%" y1="195.991473%" x2="-90.1597771%" y2="-44.2714353%" id="linearGradient-26">
            <stop stop-color="#61EEB6" offset="0%"></stop>
            <stop stop-color="#14CD9A" offset="100%"></stop>
        </linearGradient>
        <linearGradient x1="102.809682%" y1="96.0332503%" x2="15.1630003%" y2="18.6326616%" id="linearGradient-27">
            <stop stop-color="#F4B145" offset="0%"></stop>
            <stop stop-color="#E29A3B" offset="100%"></stop>
        </linearGradient>
        <linearGradient x1="103.055639%" y1="44.5930233%" x2="8.44711148%" y2="54.2325581%" id="linearGradient-28">
            <stop stop-color="#33CFED" offset="0%"></stop>
            <stop stop-color="#87E0F3" offset="63%"></stop>
            <stop stop-color="#B4E9F7" offset="100%"></stop>
        </linearGradient>
        <linearGradient x1="122.807723%" y1="48.4543792%" x2="59.7827836%" y2="50.0053779%" id="linearGradient-29">
            <stop stop-color="#ED744C" offset="0%"></stop>
            <stop stop-color="#ED6F4C" offset="12%"></stop>
            <stop stop-color="#ED4C4C" offset="100%"></stop>
        </linearGradient>
        <linearGradient x1="-0.0018039108%" y1="49.9709975%" x2="100%" y2="49.9709975%" id="linearGradient-30">
            <stop stop-color="#ED4C4C" offset="0%"></stop>
            <stop stop-color="#ED6F56" offset="57%"></stop>
            <stop stop-color="#ED8C5F" offset="100%"></stop>
        </linearGradient>
        <linearGradient x1="-344.323007%" y1="19.4688566%" x2="-424.249398%" y2="-16.3993595%" id="linearGradient-31">
            <stop stop-color="#ED744C" offset="0%"></stop>
            <stop stop-color="#ED6F4C" offset="12%"></stop>
            <stop stop-color="#ED4C4C" offset="100%"></stop>
        </linearGradient>
        <linearGradient x1="-17.9646011%" y1="47.325425%" x2="94.9737095%" y2="52.7772501%" id="linearGradient-32">
            <stop stop-color="#FF948D" offset="0%"></stop>
            <stop stop-color="#EDD6BC" offset="93%"></stop>
        </linearGradient>
        <linearGradient x1="-206.293111%" y1="11.101012%" x2="-289.108988%" y2="-9.57590601%" id="linearGradient-33">
            <stop stop-color="#FF948D" offset="0%"></stop>
            <stop stop-color="#EDD6BC" offset="93%"></stop>
        </linearGradient>
        <linearGradient x1="57.7983819%" y1="58.443865%" x2="43.1147199%" y2="21.2843385%" id="linearGradient-34">
            <stop stop-color="#F4B145" offset="0%"></stop>
            <stop stop-color="#E29A3B" offset="100%"></stop>
        </linearGradient>
        <linearGradient x1="75.0027023%" y1="86.7756031%" x2="33.1466377%" y2="4.42912335%" id="linearGradient-35">
            <stop stop-color="#61EEB6" offset="0%"></stop>
            <stop stop-color="#14CD9A" offset="100%"></stop>
        </linearGradient>
        <linearGradient x1="84.3722952%" y1="42.0111075%" x2="31.1499832%" y2="52.4473164%" id="linearGradient-36">
            <stop stop-color="#61EEB6" offset="0%"></stop>
            <stop stop-color="#FFFFFF" offset="100%"></stop>
        </linearGradient>
        <linearGradient x1="59.5000526%" y1="-0.954190052%" x2="42.3978647%" y2="101.334434%" id="linearGradient-37">
            <stop stop-color="#61EEB6" offset="0%"></stop>
            <stop stop-color="#14CD9A" offset="100%"></stop>
        </linearGradient>
        <linearGradient x1="8.57796963%" y1="34.9288094%" x2="92.8646051%" y2="79.7550747%" id="linearGradient-38">
            <stop stop-color="#61EEB6" offset="0%"></stop>
            <stop stop-color="#FFFFFF" offset="100%"></stop>
        </linearGradient>
        <linearGradient x1="44.8913112%" y1="1.72711963%" x2="62.2631134%" y2="104.346593%" id="linearGradient-39">
            <stop stop-color="#61EEB6" offset="0%"></stop>
            <stop stop-color="#14CD9A" offset="100%"></stop>
        </linearGradient>
        <linearGradient x1="96.1019083%" y1="38.0177398%" x2="11.2770018%" y2="84.0489818%" id="linearGradient-40">
            <stop stop-color="#61EEB6" offset="0%"></stop>
            <stop stop-color="#FFFFFF" offset="100%"></stop>
        </linearGradient>
        <linearGradient x1="54.768365%" y1="115.182684%" x2="48.0755703%" y2="8.89919016%" id="linearGradient-41">
            <stop stop-color="#B2E1FF" offset="0%"></stop>
            <stop stop-color="#F4F9FF" offset="100%"></stop>
        </linearGradient>
        <linearGradient x1="35.9853779%" y1="85.0646388%" x2="73.2609397%" y2="-21.1711027%" id="linearGradient-42">
            <stop stop-color="#B2E1FF" offset="0%"></stop>
            <stop stop-color="#F4F9FF" offset="100%"></stop>
        </linearGradient>
        <linearGradient x1="70.0759219%" y1="-27.1602548%" x2="67.7871475%" y2="101.044323%" id="linearGradient-43">
            <stop stop-color="#61EEB6" offset="0%"></stop>
            <stop stop-color="#14CD9A" offset="100%"></stop>
        </linearGradient>
        <linearGradient x1="39.1381051%" y1="50.0557018%" x2="21.8283338%" y2="155.347439%" id="linearGradient-44">
            <stop stop-color="#61EEB6" offset="0%"></stop>
            <stop stop-color="#14CD9A" offset="100%"></stop>
        </linearGradient>
    </defs>
    <g id="Login" stroke="none" stroke-width="1" fill="none" fill-rule="evenodd">
        <g id="2-find-company" transform="translate(-779.000000, -93.000000)">
            <g id="Find-your-company" transform="translate(779.000000, 93.000000)">
                <circle id="Oval" fill="#FFFFFF" cx="170.5" cy="176" r="94"></circle>
                <path d="M68.0710449,136.997678 C65.448874,136.780099 64.5871712,138.047732 66.6441392,126.326857 C68.7011071,114.605982 77.8462755,43.2306781 122.12668,37.0533323 C123.868617,36.8168336 124.656195,37.4033504 120.11604,38.0939265 C114.009996,39.0399213 97.9897365,44.5834506 87.918006,63.3425266 C66.0048113,104.18112 71.7216997,137.319316 68.0710449,136.997678 Z" id="Path" fill="url(#linearGradient-1)"></path>
                <path d="M68.5,117.523974 C68.5,117.523974 82.0394286,102.201864 101.5,110.426232 C101.434,110.426232 87.1308571,123.260377 68.5,117.523974 Z" id="Path" fill="url(#linearGradient-2)"></path>
                <path d="M66.5,113.97126 C66.5,113.97126 46.4805099,115.46043 38.5,97 C38.4818136,97 57.3638327,97.7313679 66.5,113.97126 Z" id="Path" fill="url(#linearGradient-3)"></path>
                <path d="M71.5,101.342803 C71.5,101.342803 84.4250814,85.9892273 102.5,94.6466631 C102.5,94.6565686 88.8772579,107.464423 71.5,101.342803 Z" id="Path" fill="url(#linearGradient-4)"></path>
                <path d="M77.5,82.3651478 C77.5,82.3651478 91.2062415,70.0670457 107.499981,79.6595654 C107.518731,79.6595654 93.3812401,89.5926478 77.5,82.3651478 Z" id="Path" fill="url(#linearGradient-5)"></path>
                <path d="M84.5,67.4618133 C84.5,67.4618133 97.7151505,57.4227334 111.5,67.4618133 C111.5,67.5100318 98.0887236,75.3985691 84.5,67.4618133 Z" id="Path" fill="url(#linearGradient-6)"></path>
                <path d="M94.5,52.213587 C94.5,52.213587 106.099949,47.2622239 114.499913,57.3618792 C114.536276,57.3618792 103.18178,60.6721655 94.5,52.213587 Z" id="Path" fill="url(#linearGradient-7)"></path>
                <path d="M104.5,43.2097812 C104.5,43.2097812 115.474762,38.2685012 123.5,48.358595 C123.454762,48.358595 112.715238,51.6791352 104.5,43.2097812 Z" id="Path" fill="url(#linearGradient-8)"></path>
                <path d="M92.379081,52 C92.379081,52 79.9903452,45.3798883 82.9596292,32 C82.9596292,32 93.753378,39.4487896 92.379081,52 Z" id="Path" fill="url(#linearGradient-9)"></path>
                <path d="M103.65839,43 C103.65839,43 93.9200895,35.2825288 98.9353142,24.0003641 C98.9353142,23.937032 107.086272,32.1430652 103.65839,43 Z" id="Path" fill="url(#linearGradient-10)"></path>
                <path d="M82.5,67 C82.5,67 66.7734416,63.0009232 65.5,46.0002817 C65.5,45.9546302 79.7661079,51.4510782 82.5,67 Z" id="Path" fill="url(#linearGradient-11)"></path>
                <path d="M75.5,81 C75.5,81 57.5667193,80.2273395 52.5,62 C52.5,62 69.1711409,64.7462028 75.5,81 Z" id="Path" fill="url(#linearGradient-12)"></path>
                <path d="M69.5,99.9789498 C69.5,99.9789498 50.0600409,101.300555 42.5,83 C42.4628154,83 60.7669149,83.8627142 69.5,99.9789498 Z" id="Path" fill="url(#linearGradient-13)"></path>
                <path d="M244.525058,85.9426321 C245.248411,83.7092579 244.334702,82.7061322 253.976234,86.8132695 C263.617766,90.9204068 323.027875,113.008099 319.334968,152.820833 C319.192201,154.391766 318.525955,154.959573 318.84956,150.861899 C319.296897,145.363635 317.774049,130.297822 303.725776,117.815532 C273.135566,90.6365033 243.516172,89.0561072 244.525058,85.9426321 Z" id="Path" fill="url(#linearGradient-14)"></path>
                <path d="M261.691472,94 C261.691472,94 272.81218,108.338015 261.229782,123 C261.229782,123 252.537965,108.486116 261.691472,94 Z" id="Path" fill="url(#linearGradient-15)"></path>
                <path d="M265.5,92 C265.5,92 268.213588,74.1256684 286.5,71 C286.5,71 282.014654,87.4050802 265.5,92 Z" id="Path" fill="url(#linearGradient-16)"></path>
                <path d="M275.446792,99 C275.446792,99 285.110677,113.004643 274.594369,127 C274.603634,127 267.089338,112.86534 275.446792,99 Z" id="Path" fill="url(#linearGradient-17)"></path>
                <path d="M288.921041,108 C288.921041,108 296.71175,121.988522 285.211634,134 C285.211634,134 279.509255,120.067432 288.921041,108 Z" id="Path" fill="url(#linearGradient-18)"></path>
                <path d="M300.96773,115 C300.96773,115 306.926914,128.188159 295.341242,138 C295.341242,138 291.29017,125.063666 300.96773,115 Z" id="Path" fill="url(#linearGradient-19)"></path>
                <path d="M311.360261,127 C311.360261,127 313.325344,137.771945 302.517387,142.999905 C302.478086,143.036022 301.947513,132.74263 311.360261,127 Z" id="Path" fill="url(#linearGradient-20)"></path>
                <path d="M316.379669,137 C316.379669,137 318.103167,147.10095 308.50475,152 C308.50475,152 308.037205,142.397862 316.379669,137 Z" id="Path" fill="url(#linearGradient-21)"></path>
                <path d="M311.5,126.009655 C311.5,126.009655 319.086924,117.6273 329.5,122.548376 C329.5,122.548376 321.520802,129.526021 311.5,126.009655 Z" id="Path" fill="url(#linearGradient-22)"></path>
                <path d="M317.5,136.795079 C317.5,136.795079 325.824696,130.506152 334.5,136.795079 C334.5,136.813521 326.103384,141.746917 317.5,136.795079 Z" id="Path" fill="url(#linearGradient-23)"></path>
                <path d="M301.5,114.968453 C301.5,114.968453 307.974627,100.827633 322.5,103.287339 C322.5,103.287339 315.058209,115.705369 301.5,114.968453 Z" id="Path" fill="url(#linearGradient-24)"></path>
                <path d="M291.5,106 C291.5,106 295.62132,90.801366 311.5,90 C311.5,90 306.022748,103.732499 291.5,106 Z" id="Path" fill="url(#linearGradient-25)"></path>
                <path d="M276.5,97 C276.5,97 279.193915,80.7091426 296.5,78 C296.5,78 292.171157,92.9227854 276.5,97 Z" id="Path" fill="url(#linearGradient-26)"></path>
                <path d="M345.263137,306.642286 L276.618016,238 L247.253999,253.753348 L231.5,283.116153 C247.886803,299.492835 286.280091,337.893982 300.145121,351.758439 C314.010151,365.622896 332.049802,375.227905 350.391687,356.886777 C368.733573,338.545649 359.109278,320.487854 345.263137,306.642286 Z M338.831199,345.317322 C333.039404,351.105307 323.65224,351.103377 317.862826,345.313011 C312.073411,339.522644 312.073411,330.135869 317.862826,324.345503 C323.65224,318.555137 333.039404,318.553206 338.831199,324.341191 C341.616362,327.120972 343.181493,330.894327 343.181493,334.829257 C343.181493,338.764186 341.616362,342.537541 338.831199,345.317322 Z" id="Shape" fill="url(#linearGradient-27)" fill-rule="nonzero"></path>
                <path d="M301.699639,351.944884 C315.647445,365.618924 333.838579,375.139415 352.31514,357.013146 C370.059108,339.60558 361.829332,322.478029 348.785375,309 C362.362127,322.87005 354.589032,348.202024 341.278677,354.044993 C327.968323,359.887961 303.802276,354.044993 282.5,333.099911 L301.699639,351.944884 Z" id="Path" fill="#002630" opacity="0.06"></path>
                <path d="M289.5,249.330275 L277.988941,238 C267.349995,256.223731 251.999527,271.34535 233.5,281.825688 L243.828289,292 C262.603056,282.003031 278.349998,267.27912 289.462747,249.330275 L289.5,249.330275 Z" id="Path" fill="#002630" opacity="0.06"></path>
                <path d="M257.461522,88.8668605 C209.423354,41.0378412 131.550545,41.0453382 83.5216623,88.883606 C35.4927792,136.721874 35.4927792,214.278126 83.5216623,262.116394 C131.550545,309.954662 209.423354,309.962159 257.461522,262.13314 C280.536212,239.158913 293.5,207.995175 293.5,175.5 C293.5,143.004825 280.536212,111.841087 257.461522,88.8668605 Z M236.580127,241.327132 C200.082262,277.651944 140.929689,277.638603 104.448348,241.297331 C67.9670062,204.956058 67.9670062,146.043942 104.448348,109.702669 C140.929689,73.3613969 200.082262,73.3480556 236.580127,109.672868 C254.117607,127.127196 263.971062,150.807464 263.971062,175.5 C263.971062,200.192536 254.117607,223.872804 236.580127,241.327132 Z" id="Shape" fill="url(#linearGradient-28)" fill-rule="nonzero"></path>
                <path d="M126.5,258 C122.03933,257.936466 111.050624,258 102.064097,255.331554 C93.0775708,252.663107 86.5588468,242.742659 79.5,241 L107.558451,241 L126.5,258 Z" id="Path" fill="#002630" opacity="0.06"></path>
                <path d="M258.914506,88.8822404 C233.809728,63.5030048 198.925129,50.5269924 163.5,53.3909397 C226.695851,58.3601895 275.464657,111.548786 275.464657,175.502662 C275.464657,239.456539 226.695851,292.645135 163.5,297.614384 C214.202217,301.672073 262.036259,273.410647 283.337251,226.811845 C304.638243,180.213043 294.8897,125.157286 258.914506,88.8822404 Z" id="Path" fill="#002630" opacity="0.06"></path>
                <path d="M264.17006,223.664934 C262.289113,224.154357 256.646271,226.112048 249.987719,228.512102 C246.509634,233.815077 242.497958,238.747592 238.01549,243.232431 C227.535534,253.747941 214.66188,261.560762 200.5,266 C203.89511,265.435281 220.927086,262.658749 237.930848,261.350484 C254.210445,260.098691 264.264107,255.90095 266.869219,254.715041 C274.658979,245.182278 280.942238,234.510608 285.5,223.07198 C276.06705,222.902564 266.765767,223.006096 264.17006,223.664934 Z" id="Path" fill="#002630" opacity="0.06"></path>
                <g id="Group" transform="translate(75.500000, 81.000000)">
                    <circle id="Oval" fill="#FFFFFF" cx="94.288934" cy="94.288934" r="94.0586802"></circle>
                    <path d="M127.800457,134.612132 C127.800457,134.612132 125.737766,180.096853 125.708985,180.989086 C125.844096,181.592189 126.010617,182.187823 126.207868,182.773553 C134.53836,179.778641 142.400857,175.614813 149.559442,170.407005 C141.260711,150.259797 131.916244,132.894822 127.800457,134.612132 Z" id="Path" fill="url(#linearGradient-29)"></path>
                    <path d="M128.999695,137.778122 C131.350203,145.318934 134.209188,161.609391 136.319848,178.437107 C138.305787,177.477716 140.262944,176.403198 142.19132,175.261523 C139.127569,162.33702 134.705778,149.772703 128.999695,137.778122 Z" id="Path" fill="#002630" opacity="0.11"></path>
                    <path d="M129.268325,134.506599 C125.258071,132.587817 113.687817,127.790863 108.372792,126.044772 C102.558883,124.12599 80.4449239,121.334162 69.3735533,124.903096 C58.3021827,128.47203 45.1105584,133.806244 39.1143655,138.843046 C33.1181726,143.879848 46.1083249,154.461929 46.1083249,154.461929 C46.1083249,154.461929 47.2308122,164.055838 48.4780203,176.460761 C76.362167,191.990667 110.211845,192.35173 138.420914,177.420152 C135.619492,155.795482 131.676396,135.648274 129.268325,134.506599 Z" id="Path" fill="url(#linearGradient-30)"></path>
                    <path d="M53.7258883,138.440102 C46.7415228,132.731726 40.3999492,135.744213 36.543198,141.826751 C32.7384249,147.577097 29.612374,153.748714 27.2275127,160.218274 C27.4193909,160.410152 27.5920812,160.611624 27.7839594,160.793909 C36.6033653,169.627363 47.1002574,176.607894 58.6571574,181.324873 C58.7051269,181.04665 58.7435025,180.758832 58.7818782,180.490203 C61.736802,157.70467 59.4822335,143.189086 53.7258883,138.440102 Z" id="Path" fill="url(#linearGradient-31)"></path>
                    <path d="M70.7646701,98.5486294 C70.7646701,98.5486294 70.5727919,112.469391 69.8532487,120.777716 C69.1337056,129.086041 82.2581726,136.396599 93.6077665,137.960406 C104.95736,139.524213 105.341117,132.731726 106.079848,126.764315 C106.818579,120.796904 107.039239,115.433909 107.039239,115.433909 C107.039239,115.433909 102.626041,89.674264 101.071827,87.4005076 C99.5176142,85.1267513 84.0810152,74.4583249 84.0810152,74.4583249 C84.0810152,74.4583249 68.7307614,81.1164975 68.8458883,84.0522335 C68.9610152,86.9879695 70.7646701,98.5486294 70.7646701,98.5486294 Z" id="Path" fill="url(#linearGradient-32)"></path>
                    <path d="M79.9556345,130.544315 C68.8362944,123.559949 73.6428426,109.610406 75.0819289,106.319695 C76.5210152,103.028985 77.6339086,103.623807 84.944467,112.267919 C92.2550254,120.91203 106.713046,120.029391 106.713046,120.029391 C106.933706,117.285533 107.029645,115.433909 107.029645,115.433909 C107.029645,115.433909 102.616447,89.674264 101.062234,87.4005076 C99.5080203,85.1267513 84.0714213,74.4583249 84.0714213,74.4583249 C84.0714213,74.4583249 68.7211675,81.1164975 68.8362944,84.0522335 C68.9514213,86.9879695 70.7550761,98.5486294 70.7550761,98.5486294 C70.7550761,98.5486294 70.563198,112.469391 69.8436548,120.777716 C69.1241117,129.086041 82.2485787,136.396599 93.5981726,137.960406 C101.752995,139.073299 104.247411,135.897716 105.264365,131.801117 C102.184721,137.557462 91.0749746,137.519086 79.9556345,130.544315 Z" id="Path" fill="#002630" opacity="0.06"></path>
                    <path d="M122.197614,60.8925381 C126.658782,72.4052284 120.010203,99.7286802 116.095888,109.524061 C112.997056,117.275939 104.583198,118.465584 87.9185787,106.713046 C74.9380203,97.5796447 76.0509137,90.7104061 76.0509137,90.7104061 L70.9949239,58.7339086 L96.4667513,50.0226396 L112.690051,51.4137563 L122.197614,60.8925381 Z" id="Path" fill="url(#linearGradient-33)"></path>
                    <path d="M122.18802,60.8925381 C114.992589,63.3869543 108.478325,60.7486294 101.983249,60.8157868 C93.7996447,60.8925381 90.3362437,67.2053299 89.8565482,72.8177665 C89.4440102,77.5475635 86.9783756,77.3748731 86.0189848,75.8974112 C87.5923858,79.1881218 89.7989848,80.4065482 91.6314213,77.1254315 C93.6269543,73.5469036 92.5332487,65.4304569 105.254772,66.8695431 C111.450192,67.4838561 117.606334,68.4447523 123.694264,69.7477157 C123.699915,66.7451609 123.207126,63.7624923 122.23599,60.9213198 L122.18802,60.8925381 Z" id="Path" fill="#002630" opacity="0.06"></path>
                    <path d="M76.0509137,91.5738579 C76.2798013,93.5291133 76.9739597,95.401038 78.0752284,97.0327919 C78.1702594,93.0851448 78.5841445,89.1516324 79.3128426,85.2706599 C78.4195154,87.4665677 77.3276791,89.5763808 76.0509137,91.5738579 Z" id="Path" fill="#002630" opacity="0.06"></path>
                    <path d="M85.577665,74.9763959 C86.0477665,77.1350254 89.4152284,78.4206091 89.8565482,72.8177665 C90.297868,67.2149239 93.7996447,60.8925381 101.983249,60.8157868 C110.166853,60.7390355 118.369645,64.9411675 127.934772,57.7841117 C137.499898,50.6270558 136.722792,27.9758376 125.286853,22.9102538 C125.286853,22.9102538 111.855381,32.2643147 95.2291371,30.6429442 C78.6028934,29.0215736 66.255533,25.4814213 56.3738071,38.7977665 C49.984264,47.4322843 55.9996447,54.5317766 55.9996447,54.5317766 C55.9996447,54.5317766 49.1112183,57.640203 53.5819797,71.2539594 C58.0527411,84.8677157 63.732335,90.4417766 65.9197462,99.958934 C67.195736,105.513807 79.3512183,88.8491878 80.0707614,82.4884264 C80.0707614,82.4884264 72.4819797,75.6095939 74.7173604,69.9587817 C77.0486802,64.0681218 84.0522335,67.8385279 85.577665,74.9763959 Z" id="Path" fill="url(#linearGradient-34)"></path>
                    <path d="M65.9197462,99.958934 C67.195736,105.513807 79.3512183,88.8491878 80.0707614,82.4884264 C80.0707614,82.4884264 72.4819797,75.6095939 74.7173604,69.9587817 C77.0486802,64.0681218 84.0522335,67.8385279 85.577665,74.9763959 C86.0477665,77.1350254 89.4152284,78.4206091 89.8565482,72.8177665 C90.297868,67.2149239 93.7996447,60.8925381 101.983249,60.8157868 C110.166853,60.7390355 118.369645,64.9411675 127.934772,57.7841117 C134.919137,52.5554315 136.377411,39.0855838 132.213655,30.2112183 C136.243096,38.845736 129.594518,51.0587817 112.709239,51.4137563 C95.5745178,51.7879188 87.0263452,53.553198 85.9806091,60.8061929 C84.9348731,68.0591878 78.9866497,53.447665 68.8362944,64.7396954 C58.6859391,76.0317259 69.7956853,78.8811168 69.0665482,86.4315228 C68.3374112,93.9819289 54.8771574,76.6745178 52.4594924,66.8983249 C52.7349468,68.3738674 53.1099665,69.8290719 53.5819797,71.2539594 C58.062335,84.8773096 63.732335,90.4417766 65.9197462,99.958934 Z" id="Path" fill="#002630" opacity="0.09"></path>
                    <path d="M61.4010152,167.893401 L59.9715228,167.183452 C59.7988325,171.264061 59.4022843,175.72203 58.7818782,180.55736 C58.7818782,180.816396 58.7051269,181.094619 58.6667513,181.363249 C59.530203,181.718223 60.4032487,182.063604 61.2858883,182.389797 C61.6328048,177.565042 61.6712587,172.723057 61.4010152,167.893401 Z" id="Path" fill="#002630" opacity="0.06"></path>
                </g>
                <path d="M85.5,172 C85.5,172 115.862905,173.264017 127.76002,189.649428 C144.774271,213.057158 147.916212,238.337507 126.124741,258 C126.124741,258 125.748075,251.876538 122.192721,247.775504 C115.348436,239.901143 100.079707,229.255308 95.6975265,218.225585 C92.0877828,208.684914 89.7038989,198.7085 88.6051927,188.544584 L85.5,172 Z" id="Path" fill="url(#linearGradient-35)"></path>
                <path d="M96.672448,218.154491 C101.128148,229.203928 116.653042,239.868793 123.612154,247.757228 C127.227156,251.865593 127.610141,258 127.610141,258 C127.610141,258 135.269836,247.250717 125.648512,232.046016 C116.027188,216.841315 115.027692,220.021077 104.584352,200.614213 C99.4360738,190.857932 93.3810326,181.612082 86.5,173 L89.4611258,188.420437 C90.578265,198.60252 93.0021434,208.596767 96.672448,218.154491 Z" id="Path" fill="#002630" opacity="0.11"></path>
                <path d="M84.5,171.009393 C107.688506,181.464047 127.99947,207.389333 132.353154,225.81883 C134.936123,236.798152 133.117102,248.358457 127.289427,258 C127.289427,258 135.69783,244.849493 131.353489,226.419996 C127.009147,207.990499 105.885371,181.576765 84.5,171 L84.5,171.009393 Z" id="Path" fill="url(#linearGradient-36)"></path>
                <path d="M200.065703,267 C200.065703,267 195.982454,240.372587 209.756361,219.023109 C226.456282,193.10893 264.485059,188.667858 286.162027,193.974321 C307.208631,199.128627 318.272917,211.225081 321.5,221.457615 C313.348614,219.069016 304.580212,220.23809 297.320396,224.681434 C284.807216,232.156129 278.418909,246.439834 246.94779,253.85747 C215.476672,261.275106 216.191711,262.92981 200.065703,267 Z" id="Path" fill="url(#linearGradient-37)"></path>
                <path d="M297.192175,224.493485 C304.490488,220.163533 313.305388,219.024293 321.5,221.351936 C321.5,221.351936 309.525795,208.943283 282.787188,218.81275 C256.048581,228.682216 261.685727,232.111045 234.549871,241.053801 C209.66509,249.264456 201.634996,262.794429 200.5,265 C215.33061,262.108663 215.841359,259.930894 246.618659,252.906428 C278.190456,245.696621 284.61264,231.777429 297.192175,224.493485 Z" id="Path" fill="#002630" opacity="0.11"></path>
                <path d="M321.5,219.57809 C321.5,219.57809 303.53797,200.949789 276.122239,204.434288 C248.167648,207.994743 224.854824,221.904253 213.330763,239.364724 C203.650174,254.043293 199.5,265 199.5,265 C199.5,265 210.220496,243.912612 223.351685,230.658225 C236.482875,217.403838 265.39229,203.124041 288.118985,205.972404 C296.494963,207.121245 312.934948,210.748161 321.5,219.57809 Z" id="Path" fill="url(#linearGradient-38)"></path>
                <path d="M127.275267,259 C127.275267,259 128.885138,248.712793 123.487337,240.447296 C116.915279,230.432785 101.943485,228.711982 93.411173,230.7619 C85.1250761,232.755399 80.7784264,237.428838 79.5,241.387625 C82.6944364,240.479111 86.1255814,240.932248 88.9698251,242.638264 C93.8941341,245.525076 96.4131076,251.054214 108.799639,253.92222 C121.18617,256.790225 122.341489,255.417344 127.275267,259 Z" id="Path" fill="url(#linearGradient-39)"></path>
                <path d="M79.5,241.308945 L79.811627,240.841742 C84.5786114,236.515479 91.0587336,234.430076 97.5460358,235.134537 C108.462424,236.47202 117.575152,241.721183 122.098465,248.307829 C124.233037,251.35255 126.042861,254.599983 127.5,258 C127.5,258 122.995573,250.011745 117.867893,245.019086 C112.740212,240.026427 101.512198,235.464328 92.5694472,235.858244 C85.4020264,236.188034 79.5,241.308945 79.5,241.308945 Z" id="Path" fill="url(#linearGradient-40)"></path>
                <path d="M288.951311,36.4339737 C305.293388,35.7498105 318.395387,30.3494819 323.609738,24.2285013 C332.753743,11.7858523 333.5,0 333.5,0 C333.5,0 307.900563,5.90204833 293.674455,0.957828554 C293.674455,0.957828554 290.122651,32.8215918 239.5,35.4305343 C244.274374,38.9991301 249.543122,41.9039112 255.152497,44.0601135 C274.895237,48.374903 288.951311,36.4339737 288.951311,36.4339737 Z" id="Path" fill="url(#linearGradient-41)"></path>
                <path d="M302.815441,42.0631696 C311.423736,37.7742198 318.854625,31.5843122 324.5,24 C319.320477,30.0601934 306.305989,35.4068916 290.073065,36.0842605 C290.073065,36.0842605 276.110873,47.906605 256.5,43.6346654 C268.10701,48.2136789 284.977991,51.1850703 302.815441,42.0631696 Z" id="Path" fill="#9FD1ED"></path>
                <path d="M302.399865,42.8617195 C308.79739,39.5634228 314.579965,35.214109 319.5,30 C315.281714,33.9323049 307.658535,39.1629243 294.455112,43.4875257 C274.593229,49.9697576 261.002027,46.4390895 256.5,44.8325421 C268.161762,49.3439514 284.826828,52.0806862 302.399865,42.8617195 Z" id="Path" fill="#93CAE2"></path>
                <path d="M25.5,334.655361 C47.6592302,325.112548 70.454521,303 70.454521,303 C78.517525,311.562129 112.5,327.281369 112.5,327.281369 C102.39786,341.265551 64.6457908,365 64.6457908,365 C38.1931513,352.86403 25.5,334.655361 25.5,334.655361 Z" id="Path" fill="url(#linearGradient-42)"></path>
                <path d="M68.029488,313.165169 C69.1889735,313.067623 69.6284559,314.415532 70.4606673,314.938733 C71.2928786,315.461934 72.2279475,315.35552 72.9853534,315.825515 C74.1074361,316.543808 74.4908144,318.015866 75.9962754,318.237562 C76.9313443,318.370579 77.5578405,317.971527 78.2684929,318.743027 C78.6537816,319.277867 79.0955467,319.774073 79.5869401,320.223953 C80.6342173,320.995453 81.9807165,321.039793 83.2056568,321.403373 C84.1968299,321.696011 84.4212465,322.050724 84.8794302,322.902035 C85.1120958,323.434767 85.5864887,323.839021 86.1698254,324.001644 C86.9272312,324.214472 87.7687932,323.912966 88.4794456,324.294282 C89.0228568,324.688507 89.5072869,325.150904 89.9194518,325.668794 C90.2843932,326.04879 90.7489935,326.330289 91.2659511,326.484634 C92.079461,326.697461 92.8555682,326.369352 93.6223248,326.821611 C94.3890813,327.273869 94.7350568,327.938956 95.4083064,328.382347 C96.3901288,329.029698 97.6992253,328.196123 98.2789681,329.614974 C98.5594887,330.297796 99.7376756,329.99629 99.4571549,329.3046 C99.2180997,328.638423 98.7242786,328.081501 98.0732529,327.743864 C97.7815763,327.601148 97.4645305,327.510946 97.138184,327.477829 C96.6082224,327.519636 96.0845556,327.345495 95.6981778,326.998967 C95.1570467,326.443304 94.5256951,325.973286 93.8280399,325.606719 C93.0706341,325.287478 92.3599817,325.606719 91.6119266,325.367288 C90.8638714,325.127857 90.3963369,324.356357 89.8726983,323.868627 C89.4191915,323.40905 88.8230946,323.098437 88.1708729,322.981845 C87.7874946,322.91977 87.385415,322.981845 87.0020367,322.981845 C86.1885267,322.857695 86.0669678,322.343362 85.6742388,321.74035 C85.3639319,321.250092 84.9042488,320.860524 84.3557916,320.623005 C82.990591,319.984522 81.1765573,320.188482 80.0544745,319.09774 C79.6328518,318.528335 79.1604663,317.994306 78.6425204,317.501533 C78.0773956,317.141245 77.3850264,317.007372 76.7162784,317.129084 C75.042505,317.208895 74.472113,315.062882 72.9760027,314.557417 C72.3963672,314.451916 71.8293654,314.291491 71.2835279,314.078554 C70.7879414,313.794784 70.5261221,313.280451 70.1333931,312.890267 C69.6459379,312.293483 68.8803809,311.961965 68.0855922,312.003485 C67.309485,312.065559 67.3001343,313.218376 68.0855922,313.156301 L68.029488,313.165169 Z" id="Path" fill="#9FD1ED"></path>
                <path d="M63.029488,318.163696 C64.1889735,318.066182 64.6284559,319.404791 65.4606673,319.936689 C66.2928786,320.468586 67.2279475,320.353342 67.9853534,320.823185 C69.1074361,321.550112 69.4908144,323.01283 70.9962754,323.234454 C71.9313443,323.376293 72.5578405,322.968505 73.2684929,323.739757 C73.6512646,324.278944 74.0932135,324.778168 74.5869401,325.22907 C75.6342173,326.000322 76.9807165,326.044647 78.2056568,326.40811 C79.1968299,326.691789 79.4212465,327.055252 79.8794302,327.906289 C80.1154328,328.436604 80.5884887,328.839588 81.1698254,329.005544 C81.9272312,329.218303 82.7687932,328.916894 83.4794456,329.289222 C84.0228568,329.68332 84.5072869,330.145568 84.9194518,330.663291 C85.2811569,331.048743 85.7465867,331.333718 86.2659511,331.487733 C87.079461,331.691627 87.8555682,331.363623 88.6223248,331.824601 C89.3890813,332.285579 89.7350568,332.941586 90.4083064,333.375969 C91.3433754,334.023112 92.6992253,333.189805 93.2789681,334.608199 C93.5594887,335.299666 94.7376756,334.998257 94.4571549,334.30679 C94.2180997,333.640828 93.7242786,333.084086 93.0732529,332.746557 C92.783154,332.600218 92.4653439,332.509828 92.138184,332.480608 C91.609138,332.515782 91.0882013,332.342604 90.6981778,332.001901 C90.1597536,331.443642 89.5278945,330.973398 88.8280399,330.610102 C88.0706341,330.290963 87.3599817,330.610102 86.6119266,330.370748 C85.8638714,330.131394 85.3963369,329.360142 84.8726983,328.872569 C84.4216674,328.410128 83.8244488,328.099031 83.1708729,327.986073 C82.7874946,327.924018 82.385415,327.986073 82.0020367,327.986073 C81.1885267,327.861964 81.0669678,327.338931 80.6742388,326.736114 C80.3606956,326.250716 79.9016769,325.864923 79.3557916,325.627994 C77.990591,324.989716 76.1765573,325.19361 75.0544745,324.10322 C74.6328518,323.533999 74.1604663,323.000142 73.6425204,322.507527 C73.0773956,322.147355 72.3850264,322.013526 71.7162784,322.135199 C70.042505,322.214984 69.472113,320.069663 67.9760027,319.56436 C67.3963672,319.458894 66.8293654,319.29852 66.2835279,319.085652 C65.8479794,318.734769 65.4614753,318.332593 65.1333931,317.888883 C64.6409145,317.298333 63.8788553,316.968436 63.0855922,317.002387 C62.309485,317.073306 62.3001343,318.225751 63.0855922,318.163696 L63.029488,318.163696 Z" id="Path" fill="#9FD1ED"></path>
                <path d="M56.0478285,323.17306 C57.2158951,323.075575 57.6550882,324.413788 58.4774071,324.945529 C59.299726,325.477269 60.2435238,325.353197 61.000431,325.831763 C62.1311195,326.549613 62.5142453,328.020762 64.0093706,328.24232 C64.9438239,328.375255 65.5792522,327.97645 66.2800922,328.747474 C66.6706679,329.283238 67.1150513,329.781858 67.6070158,330.236347 C68.6536035,331.007371 69.9992163,331.051683 71.2140056,331.406177 C72.2045261,331.698634 72.4287949,332.053128 72.8960215,332.912775 C73.1318687,333.442933 73.6046132,333.845799 74.1855671,334.011705 C74.9424743,334.224401 75.7741377,333.923082 76.4936667,334.2953 C77.0340362,334.689235 77.515064,335.151405 77.9233803,335.668963 C78.28811,336.050673 78.7521146,336.33488 79.2689931,336.493161 C80.091312,336.696995 80.8575637,336.369088 81.6331599,336.821068 C82.4087562,337.273047 82.7451593,337.946585 83.4086212,338.38084 C84.3991417,339.027791 85.6980318,338.194731 86.2773928,339.612706 C86.5577288,340.295106 87.7444845,340.002649 87.454804,339.302524 C87.2244483,338.637155 86.7324373,338.081652 86.0811576,337.751614 C85.7897476,337.607211 85.4731401,337.514128 85.1467043,337.476881 C84.6153376,337.523611 84.0882522,337.352682 83.6983017,337.007177 C83.1614126,336.447878 82.5297437,335.977605 81.8293951,335.615789 C81.0724879,335.296745 80.3529589,335.571478 79.6147408,335.376506 C78.8765227,335.181534 78.3999515,334.366199 77.8766576,333.869908 C77.4206939,333.41399 76.8262183,333.10421 76.1759526,332.983674 C75.7834822,332.930499 75.3816673,332.983674 74.9985415,332.983674 C74.1949116,332.859601 74.0640882,332.336723 73.6716178,331.734083 C73.3671918,331.245112 72.9100193,330.857985 72.3633832,330.62629 C70.9897368,329.988202 69.1862419,330.192036 68.064898,329.093105 C67.5509486,328.596814 67.2612681,327.923276 66.6538735,327.497884 C66.0829818,327.143913 65.3896128,327.013666 64.7195551,327.134528 C63.0562283,327.214289 62.4862117,325.069602 60.9817419,324.555586 C60.3984257,324.45851 59.8281082,324.300999 59.2810369,324.085882 C58.8463059,323.737237 58.4628731,323.334841 58.1410039,322.889466 C57.648887,322.29407 56.8817831,321.963379 56.0852066,322.003231 C55.3096104,322.065268 55.3002659,323.226235 56.0852066,323.164198 L56.0478285,323.17306 Z" id="Path" fill="#9FD1ED"></path>
                <path d="M49.0386813,327.272871 C50.207176,327.170193 50.6465301,328.579675 51.4691503,329.139734 C52.2917706,329.699794 53.2359144,329.569113 53.9930989,330.073166 C55.1148539,330.829246 55.5074681,332.378743 57.0031413,332.612101 C57.9379371,332.752116 58.5735983,332.332071 59.2746951,333.144157 C59.6629736,333.710315 60.1077161,334.235722 60.6021051,334.712323 C61.6490764,335.524408 62.9858343,335.57108 64.2104168,335.944453 C65.2013003,336.252485 65.4256513,336.625858 65.8837012,337.531287 C66.1238128,338.090196 66.599671,338.514083 67.1830674,338.688742 C67.940252,338.912766 68.7722202,338.595399 69.492013,338.98744 C70.0325805,339.402355 70.5137845,339.889138 70.9222505,340.43426 C71.2871139,340.836298 71.7512886,341.13564 72.2683564,341.302352 C73.0816287,341.517041 73.8575092,341.171671 74.6333897,341.647721 C75.4092702,342.123772 75.7457967,342.83318 76.4095017,343.290561 C77.4003852,343.971967 78.6997514,343.094541 79.2793248,344.588032 C79.5597635,345.316108 80.7376062,344.998742 80.4571674,344.26133 C80.2241809,343.561945 79.732697,342.977699 79.0830176,342.627825 C78.7908131,342.477404 78.4743972,342.379458 78.1482219,342.338461 C77.6166604,342.387679 77.0893818,342.207647 76.6992884,341.843742 C76.1622026,341.254657 75.5303021,340.759338 74.8296969,340.378254 C74.0631643,340.042218 73.3527195,340.331582 72.6142309,340.126227 C71.8757422,339.920872 71.3989963,339.062115 70.8755107,338.548728 C70.4229494,338.06393 69.8266601,337.736776 69.1741824,337.615296 C68.7815682,337.549955 68.379606,337.615296 67.9963397,337.568624 C67.1830674,337.437944 67.0615439,336.887219 66.6689297,336.252485 C66.3643922,335.737473 65.9070521,335.329729 65.3602156,335.085695 C63.9860658,334.413624 62.172562,334.628314 61.060155,333.470858 C60.6330152,332.873191 60.1578128,332.311272 59.6392654,331.790681 C59.0714234,331.418432 58.3808939,331.281197 57.7135861,331.407974 C56.0496497,331.491983 55.4794242,329.233078 53.974403,328.691687 C53.3941899,328.588205 52.8268944,328.422333 52.2824227,328.196968 C51.8475324,327.829756 51.463959,327.405929 51.1419718,326.936835 C50.6496745,326.309731 49.8822895,325.961429 49.0854211,326.003403 C48.3095406,326.068744 48.3001926,327.291539 49.0854211,327.226199 L49.0386813,327.272871 Z" id="Path" fill="#9FD1ED"></path>
                <path d="M42.0897889,331.215057 C43.214074,331.215057 43.6287694,332.82277 44.4489446,333.379989 C45.2691198,333.937208 46.1722341,333.873265 46.8357466,334.503562 C47.7019991,335.307419 47.9876781,336.604551 49.2133332,337.024749 C50.0703702,337.31706 50.8721145,336.896863 51.5448425,337.691585 C51.9193017,338.302566 52.338178,338.885689 52.7981439,339.436319 C53.7196891,340.26758 54.9914214,340.44114 56.1064911,340.861338 C56.889643,341.081788 57.4963226,341.697059 57.7007643,342.478186 C57.8646118,343.048466 58.2720519,343.519093 58.8158339,343.766184 C59.5622855,344.076765 60.4377534,343.848397 61.1289123,344.286864 C61.6514305,344.740127 62.1046602,345.266315 62.4743683,345.848904 C62.8071302,346.257853 63.242527,346.572877 63.7368852,346.762378 C64.6123531,347.054689 65.3680202,346.762378 66.160549,347.420079 C66.7226916,347.895085 67.0820942,348.59846 67.6350213,349.046062 C68.5565665,349.767706 69.8743761,349.046062 70.3167178,350.562428 C70.405785,350.880262 70.7379198,351.066346 71.0585616,350.978059 C71.3792035,350.889771 71.5669319,350.560546 71.4778647,350.242712 C71.3027381,349.54187 70.8556576,348.937853 70.2337787,348.561921 C69.9459979,348.402871 69.6351473,348.288863 69.3122335,348.223936 C68.6858389,348.130541 68.1189626,347.803848 67.7271758,347.310462 C67.2634023,346.693671 66.6522127,346.20084 65.9485936,345.876308 C65.1007721,345.556593 64.2160887,345.876308 63.5249298,345.182068 C62.5204456,344.186382 62.1241811,343.04454 60.5852007,342.816172 C59.9032572,342.724824 59.368761,342.861845 58.8803421,342.131067 C58.6776022,341.838755 58.6591712,341.409422 58.4656468,341.089707 C58.1268959,340.585113 57.6507947,340.18603 57.0925444,339.93873 C55.6365031,339.253625 54.0145835,339.253625 53.065392,337.801202 C52.780015,337.25755 52.4028815,336.766318 51.9503223,336.348778 C51.3144562,335.855503 50.7430982,336.001658 49.9874311,335.919446 C49.0105932,335.809829 48.678837,334.868951 48.1443407,334.174711 C47.7847837,333.641295 47.2798707,333.219996 46.6882994,332.959791 C46.0530125,332.809526 45.4504291,332.546464 44.9097172,332.183339 C44.6025362,331.806359 44.3164282,331.412975 44.0526801,331.004958 C43.6108454,330.368483 42.8783867,329.991763 42.0990044,330.000137 C41.7681834,330.000137 41.5,330.265971 41.5,330.593895 C41.5,330.921818 41.7681834,331.187652 42.0990044,331.187652 L42.0897889,331.215057 Z" id="Path" fill="#9FD1ED"></path>
                <path d="M36.0431089,336.156942 C36.8487204,336.156942 37.1745858,337.331547 37.7448501,337.773128 C38.3151144,338.214709 39.0754669,338.214709 39.6276276,338.65629 C40.4241873,339.283335 40.5328091,340.422614 41.6190269,340.78471 C42.3884312,341.067322 43.0130064,340.78471 43.6013744,341.508903 C43.865774,341.94311 44.1686594,342.35388 44.5065559,342.736498 C45.3383797,343.272844 46.256193,343.669843 47.2221003,343.911103 C48.0096082,344.237873 48.0820227,344.670622 48.4169399,345.350657 C48.5652244,345.703514 48.8426889,345.989968 49.195396,346.154334 C49.7656603,346.419283 50.4807537,346.24265 51.005759,346.542925 C51.5307642,346.8432 51.7570596,347.426087 52.1100804,347.814679 C52.3777262,348.155939 52.7339869,348.421208 53.1419873,348.583029 C53.8661325,348.847978 54.5450186,348.644851 55.1876975,349.236569 C55.604081,349.616329 55.8756354,350.208047 56.3734852,350.499491 C57.1066822,350.93224 58.0118637,350.499491 58.3377291,351.576948 C58.4252147,351.884235 58.7514519,352.064144 59.0664002,351.978787 C59.3813485,351.893429 59.5657434,351.575128 59.4782577,351.267841 C59.3508492,350.73152 59.0294584,350.258025 58.5730762,349.934267 C57.9937601,349.545676 57.2424595,349.660487 56.7627133,349.183579 C56.2829671,348.706672 55.9480499,348.159112 55.3234747,347.832342 C54.6988995,347.505572 53.7846662,347.699867 53.1872464,347.187634 C52.2820649,346.40162 52.0738731,345.491963 50.7161009,345.262341 C50.4535983,345.218183 50.0553184,345.262341 49.8109194,345.14753 C49.4488468,344.926739 49.4669504,344.582306 49.3221214,344.264368 C49.1349468,343.831245 48.819832,343.462305 48.4169399,343.204574 C47.4393439,342.559865 46.0182089,342.612855 45.185442,341.756188 C44.352675,340.899521 44.2350014,339.91038 42.8048146,339.751411 C41.6461823,339.618936 41.564716,339.177356 40.9401408,338.373678 C40.6601931,337.974578 40.2799591,337.652248 39.8358194,337.437527 C39.2021923,337.137252 38.7496016,337.163747 38.2064927,336.554365 C38.0164045,336.342406 37.898731,336.059794 37.7086428,335.839004 C37.3268994,335.324906 36.7207615,335.014507 36.0702643,335 C35.3099119,335 35.3099119,336.121616 36.0702643,336.156942 L36.0431089,336.156942 Z" id="Path" fill="#9FD1ED"></path>
                <path d="M220.5,347.419818 C220.5,347.419818 216.812364,336.04449 205.168655,335.110418 C193.524946,334.176346 186.5,339.475585 186.5,339.475585 C186.5,339.475585 189.717462,349.704132 200.208785,349.981579 C210.700108,350.259026 210.239154,347.30884 220.5,347.419818 Z" id="Path" fill="url(#linearGradient-43)"></path>
                <path d="M206.5,344 C206.5,344 191.937966,337.986994 179.377393,340.988213 C176.992474,341.558868 176.758659,339.297386 179.377393,339.149438 C181.996128,339.001491 195.332968,338.018697 206.5,344 Z" id="Path" fill="#47BA83"></path>
                <path d="M191.5,26 C191.5,26 190.69899,14.4093838 179.641372,10.7255445 C168.583754,7.04170529 160.5,10.4020855 160.5,10.4020855 C160.5,10.4020855 161.135284,20.85161 171.226166,23.5471022 C181.317048,26.2425943 181.593258,23.4572524 191.5,26 Z" id="Path" fill="url(#linearGradient-44)"></path>
                <path d="M179.5,20 C179.5,20 166.839303,11.1758563 154.16015,10.6745919 C151.760892,10.5800138 152.019274,8.56549864 154.566178,9.0856786 C157.113082,9.60585856 170.0783,12.0459755 179.5,20 Z" id="Path" fill="#47BA83"></path>
                <path d="M29.4409541,209.409507 C26.0012479,205.975522 21.1931572,206.322573 17.9221559,209.747425 C15.8404091,211.741027 15.0142176,214.66857 15.7571092,217.419094 C15.7571092,217.419094 12.3455205,214.058172 8.41844448,213.930311 C6.20343829,213.842906 4.05941378,214.700952 2.54683594,216.280149 C1.03425809,217.859345 0.303485328,220.002712 0.54554743,222.149956 C0.929819786,227.017812 7.2937449,230.744051 11.2020759,232.113991 C15.3079702,233.546604 19.5691363,234.514952 23.9018087,235 C26.0544084,231.781156 27.8842257,228.367981 29.3659741,224.807641 C31.2873359,220.177241 32.9743853,212.907422 29.4409541,209.409507 Z" id="Path" fill="#ED4C4C"></path>
                <path d="M6.69357514,220.467134 C6.45418545,218.015598 7.42460084,215.601696 9.29099763,214.006061 L9.14619359,214.006061 C7.00734344,213.91897 4.9370345,214.773931 3.4764619,216.34745 C2.0158893,217.920969 1.31024187,220.05663 1.54398142,222.196154 C1.91504178,227.046509 8.06016328,230.759352 11.8341186,232.124367 C15.7988446,233.551829 19.9135038,234.516696 24.0972109,235 C24.0972109,235 24.6854773,234.13549 25.5,232.734074 C22.6049769,232.195073 19.7572197,231.4252 16.9837123,230.431748 C13.2007067,229.030332 7.05558524,225.32659 6.69357514,220.467134 Z" id="Path" fill="#D83A3A"></path>
                <path d="M344.269544,192.308288 C345.177732,189.132943 343.315947,186.468573 340.191779,185.765982 C338.316174,185.264526 336.316664,185.803246 334.942452,187.180288 C334.942452,187.180288 335.777985,184.041441 334.524685,181.705555 C333.835045,180.395988 332.610971,179.453957 331.172897,179.126065 C329.734824,178.798172 328.225931,179.117065 327.041215,179.999264 C324.31665,181.906296 324.234913,186.870054 324.743499,189.616545 C325.279675,192.486167 326.142047,195.284442 327.313671,197.956388 C329.935428,198.076559 332.562623,197.948248 335.160417,197.573157 C338.529795,197.107804 343.37952,195.547505 344.269544,192.308288 Z" id="Path" fill="#ED4C4C"></path>
                <path d="M329.331403,182.480774 C330.828027,181.487858 332.757321,181.229034 334.5,181.787381 L334.450397,181.705269 C333.697074,180.39584 332.359965,179.453909 330.789094,179.126051 C329.218224,178.798194 327.569996,179.117052 326.275879,179.999158 C323.299719,181.905988 323.210434,186.869221 323.765984,189.615421 C324.351673,192.48474 325.293679,195.282719 326.573495,197.954382 C326.573495,197.954382 327.347296,198 328.557601,198 C327.810376,196.076863 327.226618,194.10328 326.811587,192.097038 C326.265958,189.359961 326.325481,184.396728 329.331403,182.480774 Z" id="Path" fill="#D83A3A"></path>
            </g>
        </g>
    </g>
</svg>