<?xml version="1.0" encoding="UTF-8"?>
<svg width="468px" height="363px" viewBox="0 0 468 363" version="1.1" xmlns="http://www.w3.org/2000/svg" xmlns:xlink="http://www.w3.org/1999/xlink">
    <!-- Generator: Sketch 52.4 (67378) - http://www.bohemiancoding.com/sketch -->
    <title>Get started</title>
    <desc>Created with Sketch.</desc>
    <defs>
        <linearGradient x1="102.714567%" y1="10.2480692%" x2="33.6172463%" y2="30.5917009%" id="linearGradient-1">
            <stop stop-color="#ED8B8E" offset="0%"></stop>
            <stop stop-color="#ED4C4C" offset="83%"></stop>
        </linearGradient>
        <linearGradient x1="49.0087291%" y1="74.005888%" x2="51.7198503%" y2="27.9142489%" id="linearGradient-2">
            <stop stop-color="#7AD7A1" offset="0%"></stop>
            <stop stop-color="#0FB990" offset="99%"></stop>
        </linearGradient>
        <linearGradient x1="70.9328004%" y1="6.95115416%" x2="57.0594812%" y2="36.639084%" id="linearGradient-3">
            <stop stop-color="#61EEB6" offset="0%"></stop>
            <stop stop-color="#14CD9A" offset="100%"></stop>
        </linearGradient>
        <linearGradient x1="80.8002863%" y1="57.7384487%" x2="21.5664171%" y2="0.380092648%" id="linearGradient-4">
            <stop stop-color="#0879A5" offset="0%"></stop>
            <stop stop-color="#45A5BE" offset="60%"></stop>
            <stop stop-color="#68BFCC" offset="100%"></stop>
        </linearGradient>
        <linearGradient x1="60.2561385%" y1="59.8767508%" x2="25.3144061%" y2="32.5786678%" id="linearGradient-5">
            <stop stop-color="#08AEEA" offset="0%"></stop>
            <stop stop-color="#40BBE6" offset="37%"></stop>
            <stop stop-color="#7BC9E3" offset="80%"></stop>
            <stop stop-color="#92CEE1" offset="100%"></stop>
        </linearGradient>
        <linearGradient x1="4433.45805%" y1="11.3109049%" x2="4425.07395%" y2="53.9733179%" id="linearGradient-6">
            <stop stop-color="#61EEB6" offset="0%"></stop>
            <stop stop-color="#14CD9A" offset="100%"></stop>
        </linearGradient>
        <linearGradient x1="4476.93986%" y1="2.13949304%" x2="4475.44406%" y2="35.9710795%" id="linearGradient-7">
            <stop stop-color="#7AD7A1" offset="0%"></stop>
            <stop stop-color="#0FB990" offset="99%"></stop>
        </linearGradient>
        <linearGradient x1="24669.7868%" y1="49.9970001%" x2="24769.6073%" y2="49.9970001%" id="linearGradient-8">
            <stop stop-color="#61EEB6" offset="0%"></stop>
            <stop stop-color="#14CD9A" offset="100%"></stop>
        </linearGradient>
        <linearGradient x1="100%" y1="50%" x2="1.02790993e-12%" y2="50%" id="linearGradient-9">
            <stop stop-color="#FF948D" offset="0%"></stop>
            <stop stop-color="#F7B0A1" offset="39%"></stop>
            <stop stop-color="#EDD6BC" offset="93%"></stop>
        </linearGradient>
        <linearGradient x1="27073.3399%" y1="36.6471735%" x2="27190.6838%" y2="70.9551657%" id="linearGradient-10">
            <stop stop-color="#FF948D" offset="0%"></stop>
            <stop stop-color="#F7B0A1" offset="39%"></stop>
            <stop stop-color="#EDD6BC" offset="93%"></stop>
        </linearGradient>
        <linearGradient x1="-21.4298907%" y1="7.41466867%" x2="-18.7464601%" y2="-86.0842412%" id="linearGradient-11">
            <stop stop-color="#ED4C4C" offset="17%"></stop>
            <stop stop-color="#ED8B8E" offset="100%"></stop>
        </linearGradient>
        <linearGradient x1="67.3090913%" y1="128.456685%" x2="46.0268946%" y2="63.9900415%" id="linearGradient-12">
            <stop stop-color="#ED4C4C" offset="17%"></stop>
            <stop stop-color="#ED8B8E" offset="100%"></stop>
        </linearGradient>
        <linearGradient x1="8124.56082%" y1="136.965384%" x2="8131.47608%" y2="11.9466397%" id="linearGradient-13">
            <stop stop-color="#FF948D" offset="0%"></stop>
            <stop stop-color="#F7B0A1" offset="39%"></stop>
            <stop stop-color="#EDD6BC" offset="93%"></stop>
        </linearGradient>
        <linearGradient x1="49.4931548%" y1="49.5514667%" x2="81.9336307%" y2="65.7381442%" id="linearGradient-14">
            <stop stop-color="#EACA3B" offset="0%"></stop>
            <stop stop-color="#EEA239" offset="39%"></stop>
            <stop stop-color="#F27E38" offset="79%"></stop>
            <stop stop-color="#F37037" offset="100%"></stop>
        </linearGradient>
        <linearGradient x1="113.49977%" y1="78.755129%" x2="21.277369%" y2="84.3345807%" id="linearGradient-15">
            <stop stop-color="#FF948D" offset="0%"></stop>
            <stop stop-color="#F7B0A1" offset="39%"></stop>
            <stop stop-color="#EDD6BC" offset="93%"></stop>
        </linearGradient>
        <linearGradient x1="-16.6391853%" y1="139.222542%" x2="-109.178702%" y2="143.101363%" id="linearGradient-16">
            <stop stop-color="#08AEEA" offset="0%"></stop>
            <stop stop-color="#40BBE6" offset="37%"></stop>
            <stop stop-color="#7BC9E3" offset="80%"></stop>
            <stop stop-color="#92CEE1" offset="100%"></stop>
        </linearGradient>
        <linearGradient x1="9347.23109%" y1="88.7307939%" x2="9233.91787%" y2="32.4500615%" id="linearGradient-17">
            <stop stop-color="#FF948D" offset="0%"></stop>
            <stop stop-color="#F7B0A1" offset="39%"></stop>
            <stop stop-color="#EDD6BC" offset="93%"></stop>
        </linearGradient>
        <linearGradient x1="71.1858727%" y1="5.62847559%" x2="40.3630791%" y2="64.8476269%" id="linearGradient-18">
            <stop stop-color="#ED8B8E" offset="0%"></stop>
            <stop stop-color="#ED4C4C" offset="83%"></stop>
        </linearGradient>
        <linearGradient x1="-1.55061634%" y1="47.7555824%" x2="101.963506%" y2="51.2740099%" id="linearGradient-19">
            <stop stop-color="#E2AD3B" offset="0%"></stop>
            <stop stop-color="#E2893B" offset="100%"></stop>
        </linearGradient>
        <linearGradient x1="39.212193%" y1="79.2646504%" x2="63.7586056%" y2="3.81163428%" id="linearGradient-20">
            <stop stop-color="#68BFCC" offset="0%"></stop>
            <stop stop-color="#45A5BE" offset="40%"></stop>
            <stop stop-color="#0879A5" offset="100%"></stop>
        </linearGradient>
        <linearGradient x1="19968.1802%" y1="90.0034372%" x2="19986.8303%" y2="-2.25865422%" id="linearGradient-21">
            <stop stop-color="#68BFCC" offset="0%"></stop>
            <stop stop-color="#45A5BE" offset="40%"></stop>
            <stop stop-color="#0879A5" offset="100%"></stop>
        </linearGradient>
        <linearGradient x1="6684.66217%" y1="93.3511135%" x2="6683.65304%" y2="-9.08681591%" id="linearGradient-22">
            <stop stop-color="#FF948D" offset="0%"></stop>
            <stop stop-color="#F7B0A1" offset="39%"></stop>
            <stop stop-color="#EDD6BC" offset="93%"></stop>
        </linearGradient>
        <linearGradient x1="15.2276909%" y1="99.2695534%" x2="95.972926%" y2="4.91632247%" id="linearGradient-23">
            <stop stop-color="#EACA3B" offset="0%"></stop>
            <stop stop-color="#ECB63A" offset="11%"></stop>
            <stop stop-color="#EF9839" offset="31%"></stop>
            <stop stop-color="#F18238" offset="51%"></stop>
            <stop stop-color="#F37437" offset="70%"></stop>
            <stop stop-color="#F37037" offset="87%"></stop>
        </linearGradient>
        <linearGradient x1="72.7516425%" y1="9.09586957%" x2="27.6590743%" y2="85.38163%" id="linearGradient-24">
            <stop stop-color="#61EEB6" offset="0%"></stop>
            <stop stop-color="#14CD9A" offset="100%"></stop>
        </linearGradient>
        <linearGradient x1="-6.23214612%" y1="44.2766047%" x2="97.9863415%" y2="51.6558764%" id="linearGradient-25">
            <stop stop-color="#61EEB6" offset="0%"></stop>
            <stop stop-color="#FFFFFF" offset="100%"></stop>
        </linearGradient>
        <linearGradient x1="59.5214907%" y1="-0.942965741%" x2="42.4251426%" y2="101.346387%" id="linearGradient-26">
            <stop stop-color="#61EEB6" offset="0%"></stop>
            <stop stop-color="#14CD9A" offset="100%"></stop>
        </linearGradient>
        <linearGradient x1="-1264.51039%" y1="1705.46023%" x2="-1177.34421%" y2="1705.46023%" id="linearGradient-27">
            <stop stop-color="#61EEB6" offset="0%"></stop>
            <stop stop-color="#FFFFFF" offset="100%"></stop>
        </linearGradient>
        <linearGradient x1="23.5548672%" y1="38.1280274%" x2="40.9045397%" y2="140.74372%" id="linearGradient-28">
            <stop stop-color="#61EEB6" offset="0%"></stop>
            <stop stop-color="#14CD9A" offset="100%"></stop>
        </linearGradient>
        <linearGradient x1="74.7496529%" y1="82.6856077%" x2="-10.0187413%" y2="128.684632%" id="linearGradient-29">
            <stop stop-color="#61EEB6" offset="0%"></stop>
            <stop stop-color="#FFFFFF" offset="100%"></stop>
        </linearGradient>
        <linearGradient x1="39.2567691%" y1="-26.4735935%" x2="38.6654059%" y2="128.625577%" id="linearGradient-30">
            <stop stop-color="#61EEB6" offset="0%"></stop>
            <stop stop-color="#14CD9A" offset="100%"></stop>
        </linearGradient>
        <linearGradient x1="347.34608%" y1="109.766234%" x2="-49.8546845%" y2="93.3376623%" id="linearGradient-31">
            <stop stop-color="#61EEB6" offset="0%"></stop>
            <stop stop-color="#14CD9A" offset="100%"></stop>
        </linearGradient>
        <linearGradient x1="944.383972%" y1="24.2858888%" x2="-145.755488%" y2="87.7849725%" id="linearGradient-32">
            <stop stop-color="#61EEB6" offset="0%"></stop>
            <stop stop-color="#14CD9A" offset="100%"></stop>
        </linearGradient>
        <linearGradient x1="293.087968%" y1="108.515814%" x2="-127.0091%" y2="91.5659474%" id="linearGradient-33">
            <stop stop-color="#61EEB6" offset="0%"></stop>
            <stop stop-color="#14CD9A" offset="100%"></stop>
        </linearGradient>
        <linearGradient x1="254.209325%" y1="104.486842%" x2="-264.685231%" y2="87.7598684%" id="linearGradient-34">
            <stop stop-color="#61EEB6" offset="0%"></stop>
            <stop stop-color="#14CD9A" offset="100%"></stop>
        </linearGradient>
        <linearGradient x1="194.663904%" y1="104.242634%" x2="-469.919544%" y2="86.7071057%" id="linearGradient-35">
            <stop stop-color="#61EEB6" offset="0%"></stop>
            <stop stop-color="#14CD9A" offset="100%"></stop>
        </linearGradient>
        <linearGradient x1="124.68239%" y1="109.288%" x2="-1068.89077%" y2="88.948%" id="linearGradient-36">
            <stop stop-color="#61EEB6" offset="0%"></stop>
            <stop stop-color="#14CD9A" offset="100%"></stop>
        </linearGradient>
        <linearGradient x1="-52.2510172%" y1="109.67019%" x2="-1341.39687%" y2="88.1691332%" id="linearGradient-37">
            <stop stop-color="#61EEB6" offset="0%"></stop>
            <stop stop-color="#14CD9A" offset="100%"></stop>
        </linearGradient>
        <linearGradient x1="187.945122%" y1="78.7178872%" x2="-597.676829%" y2="203.62545%" id="linearGradient-38">
            <stop stop-color="#61EEB6" offset="0%"></stop>
            <stop stop-color="#14CD9A" offset="100%"></stop>
        </linearGradient>
        <linearGradient x1="95.2653061%" y1="104.928349%" x2="-605.915646%" y2="266.996885%" id="linearGradient-39">
            <stop stop-color="#61EEB6" offset="0%"></stop>
            <stop stop-color="#14CD9A" offset="100%"></stop>
        </linearGradient>
        <linearGradient x1="368.036804%" y1="56.0734238%" x2="-579.426263%" y2="139.11253%" id="linearGradient-40">
            <stop stop-color="#61EEB6" offset="0%"></stop>
            <stop stop-color="#14CD9A" offset="100%"></stop>
        </linearGradient>
        <linearGradient x1="609.469997%" y1="43.8754325%" x2="-518.26958%" y2="115.880969%" id="linearGradient-41">
            <stop stop-color="#61EEB6" offset="0%"></stop>
            <stop stop-color="#14CD9A" offset="100%"></stop>
        </linearGradient>
        <linearGradient x1="834.279464%" y1="31.935567%" x2="-314.404225%" y2="98.9768041%" id="linearGradient-42">
            <stop stop-color="#61EEB6" offset="0%"></stop>
            <stop stop-color="#14CD9A" offset="100%"></stop>
        </linearGradient>
        <linearGradient x1="-23.6015304%" y1="58.7743209%" x2="52.5123063%" y2="50.7829073%" id="linearGradient-43">
            <stop stop-color="#61EEB6" offset="0%"></stop>
            <stop stop-color="#14CD9A" offset="100%"></stop>
        </linearGradient>
        <linearGradient x1="-56.0748489%" y1="-215.629224%" x2="61.5388419%" y2="79.9025163%" id="linearGradient-44">
            <stop stop-color="#61EEB6" offset="0%"></stop>
            <stop stop-color="#14CD9A" offset="100%"></stop>
        </linearGradient>
        <linearGradient x1="-97.1968692%" y1="-743.351366%" x2="59.7259358%" y2="98.8941904%" id="linearGradient-45">
            <stop stop-color="#61EEB6" offset="0%"></stop>
            <stop stop-color="#14CD9A" offset="100%"></stop>
        </linearGradient>
        <linearGradient x1="-37.4590812%" y1="-176.041463%" x2="82.0945612%" y2="133.793561%" id="linearGradient-46">
            <stop stop-color="#61EEB6" offset="0%"></stop>
            <stop stop-color="#14CD9A" offset="100%"></stop>
        </linearGradient>
        <linearGradient x1="-10.5878045%" y1="-145.947433%" x2="100.114027%" y2="213.615538%" id="linearGradient-47">
            <stop stop-color="#61EEB6" offset="0%"></stop>
            <stop stop-color="#14CD9A" offset="100%"></stop>
        </linearGradient>
        <linearGradient x1="8.64127444%" y1="-110.290124%" x2="119.933403%" y2="323.510039%" id="linearGradient-48">
            <stop stop-color="#61EEB6" offset="0%"></stop>
            <stop stop-color="#14CD9A" offset="100%"></stop>
        </linearGradient>
        <linearGradient x1="24.3582752%" y1="-112.372561%" x2="141.337624%" y2="638.935278%" id="linearGradient-49">
            <stop stop-color="#61EEB6" offset="0%"></stop>
            <stop stop-color="#14CD9A" offset="100%"></stop>
        </linearGradient>
        <linearGradient x1="40.5378634%" y1="-8.57832968%" x2="163.631115%" y2="782.010263%" id="linearGradient-50">
            <stop stop-color="#61EEB6" offset="0%"></stop>
            <stop stop-color="#14CD9A" offset="100%"></stop>
        </linearGradient>
        <linearGradient x1="-25.9895091%" y1="-284.113965%" x2="227.604878%" y2="832.956539%" id="linearGradient-51">
            <stop stop-color="#61EEB6" offset="0%"></stop>
            <stop stop-color="#14CD9A" offset="100%"></stop>
        </linearGradient>
        <linearGradient x1="-6.65857229%" y1="-116.668881%" x2="295.116053%" y2="779.391248%" id="linearGradient-52">
            <stop stop-color="#61EEB6" offset="0%"></stop>
            <stop stop-color="#14CD9A" offset="100%"></stop>
        </linearGradient>
        <linearGradient x1="-34.8624155%" y1="-491.605931%" x2="151.011689%" y2="684.762759%" id="linearGradient-53">
            <stop stop-color="#61EEB6" offset="0%"></stop>
            <stop stop-color="#14CD9A" offset="100%"></stop>
        </linearGradient>
        <linearGradient x1="-55.5661709%" y1="-598.792077%" x2="116.019401%" y2="449.48049%" id="linearGradient-54">
            <stop stop-color="#61EEB6" offset="0%"></stop>
            <stop stop-color="#14CD9A" offset="100%"></stop>
        </linearGradient>
        <linearGradient x1="-82.1836458%" y1="-670.225278%" x2="82.8403365%" y2="225.077291%" id="linearGradient-55">
            <stop stop-color="#61EEB6" offset="0%"></stop>
            <stop stop-color="#14CD9A" offset="100%"></stop>
        </linearGradient>
        <linearGradient x1="42.5091352%" y1="84.0035969%" x2="74.0386288%" y2="-46.5681478%" id="linearGradient-56">
            <stop stop-color="#B2E1FF" offset="0%"></stop>
            <stop stop-color="#F4F9FF" offset="100%"></stop>
        </linearGradient>
        <linearGradient x1="54.69467%" y1="115.373795%" x2="48.0056477%" y2="8.91330307%" id="linearGradient-57">
            <stop stop-color="#B2E1FF" offset="0%"></stop>
            <stop stop-color="#F4F9FF" offset="100%"></stop>
        </linearGradient>
    </defs>
    <g id="Login" stroke="none" stroke-width="1" fill="none" fill-rule="evenodd">
        <g id="1-get-started" transform="translate(-726.000000, -94.000000)">
            <g id="Get-started" transform="translate(725.500000, 94.000000)">
                <polygon id="Path" fill="#D38424" points="169.5 205.56751 152.358744 155.196314 147.5 153 162.483184 206.371625 165.849776 209"></polygon>
                <polygon id="Path" fill="#C1711A" points="228.429323 209 229.5 205 169.060902 205 165.5 208.466667 225.710526 209"></polygon>
                <path d="M152.303843,154.181811 L169.009207,205.090729 L222.5,205.090729 C220.098078,206.714966 216.399119,209.139201 216.06285,208.993746 C215.726581,208.848292 210.898719,206.02406 210.898719,206.02406 C210.898719,206.02406 194.625701,206.387695 188.608887,206.02406 C182.592074,205.660424 168.060448,206.02406 168.060448,206.02406 L151.102882,154.27878 L147.5,152 L152.303843,154.181811 Z" id="Path" fill="#002630" opacity="0.06"></path>
                <path d="M329.5,86.0562609 C333.367443,84.3833327 337.59948,83.714105 341.798744,84.1114147 C349.141277,84.670558 361.219745,89.5448288 364.707449,107.315861 C368.195152,125.086893 358.931322,136.379157 360.779193,149.652732 C362.627064,162.926308 361.611347,171.094662 351.221662,173.574341 C339.045294,176.467299 329.279724,164.166147 333.783145,150.260497 C338.286565,136.354846 347.905284,123.628259 340.207862,104.179797 C338.139715,98.9651777 337.050572,93.4709871 332.608339,94.1030621 L329.5,86.0562609 Z" id="Path" fill="url(#linearGradient-1)"></path>
                <path d="M337.408609,92.9394609 C340.806744,95.1887721 349.057612,104.417028 347.480779,117.706202 C345.903947,130.995376 338.557619,149.233035 344.204879,154.789442 C349.583223,160.139155 358.054113,156.880693 360.841073,141.415158 C360.421665,144.141107 360.392857,146.91243 360.755508,149.646422 C362.601258,162.923438 361.574483,171.093909 351.196726,173.57423 C339.034336,176.467939 329.279977,164.163598 333.778228,150.254344 C338.276478,136.345089 347.884155,123.615203 340.195569,104.1617 C338.129796,98.9457299 337.041904,93.4501153 332.604771,94.0823542 L329.5,86.0334673 C330.412618,85.6060465 331.36164,85.2601954 332.335854,85 C332.335854,85 334.022698,90.6779912 337.408609,92.9394609 Z" id="Path" fill="#002630" opacity="0.09"></path>
                <path d="M308.68161,289.039135 C339.529816,289.851226 367.049601,313.874568 374.128528,334.152596 C377.319172,343.505938 377.289442,353.665683 374.044112,363 C374.249123,359.872844 374.152647,344.818863 354.085636,340.188734 C331.654962,334.952566 312.55271,353.618533 285.563544,345.824886 C258.574378,338.031239 243.5,311.99585 243.5,311.99585 C245.779246,308.638401 249.963893,304.723396 255.655978,300.747787 C269.548525,292.79657 289.410525,288.542184 308.68161,289.039135 Z" id="Path" fill="url(#linearGradient-2)"></path>
                <path d="M247.189626,316.694938 C256.120505,329.176948 282.430391,344.964088 308.052359,343.099656 C321.557296,342.119013 334.145008,338.474896 344.5,338.511216 C325.793429,338.89863 308.402353,351.768055 285.15793,345.073049 C264.520358,339.116551 250.786115,322.494049 245.5,315 C246.158596,315.460421 246.730648,316.034272 247.189626,316.694938 Z" id="Path" fill="#002630" opacity="0.06"></path>
                <path d="M255.641717,300.747787 C269.531745,292.79657 289.402201,288.542184 308.693906,289.039135 C339.53652,289.851226 367.051314,313.874568 374.128958,334.152596 C377.319024,343.505938 377.289298,353.665683 374.044557,363 C374.044557,363 377.914956,330.419403 354.427305,312.735217 C330.939654,295.051031 287.882979,284.615058 243.5,311.99585 C245.766775,308.674763 249.950664,304.674913 255.641717,300.747787 Z" id="Path" fill="#002630" opacity="0.06"></path>
                <path d="M395.917161,327.322041 C400.744152,361.092802 374.002623,363 374.002623,363 C374.002623,363 374.002623,362.793488 374.002623,362.429055 C377.250099,353.073947 377.279849,342.891573 374.087095,333.517397 C367.003486,313.194202 339.465504,289.11735 308.596898,288.30345 C289.288935,287.805392 269.437936,292.069254 255.5,300.038182 C267.796759,291.534753 287.104722,283.152802 309.489892,281.306343 C342.325496,278.621689 391.102238,293.551281 395.917161,327.322041 Z" id="Path" fill="url(#linearGradient-3)"></path>
                <path d="M294.22643,289 C289.00312,288.444428 283.74819,288.262097 278.5,288.454338 C288.526051,284.638965 299.013066,282.231764 309.673548,281.298729 C317.623035,280.705406 325.612131,280.996482 333.5,282.166827 C332.127732,282.01801 328.763855,284.647108 319.498013,286.594128 C315.854824,287.325811 312.090197,287.970684 308.48344,288.441937 C303.724574,288.350529 298.964481,288.536854 294.22643,289 Z" id="Path" fill="#002630" opacity="0.06"></path>
                <path d="M282.5,237 C280.614391,239.108089 265.829778,241.02233 252.150107,240.634636 C238.470436,240.246941 220.839394,239.277705 215.206588,246.849863 C209.573782,254.422022 209.057342,265.422853 213.33299,280.082551 C217.608637,294.74225 240.572229,333.996318 243.358606,339 L251.597635,339 L255.008545,335.365364 C255.008545,335.365364 250.564754,306.288277 248.006572,292.658392 C245.448389,279.028507 235.035505,267.676327 235.035505,267.676327 C235.035505,267.676327 270.033364,249.939304 271.402532,249.600071 C272.7717,249.260839 282.5,237 282.5,237 Z" id="Path" fill="url(#linearGradient-4)"></path>
                <path d="M247.43831,292.937183 C250.01831,306.460985 254.5,335.38723 254.5,335.38723 L251.06,339 L242.750704,339 C242.14507,337.904126 240.55831,335.182506 238.402254,331.437268 C241.394085,336.675785 250.51493,328.643393 249.02507,320.743469 C247.535211,312.843545 242.338873,283.977513 239.855775,283.471725 C237.372676,282.965937 236.282535,288.746369 234.889577,294.008971 C233.49662,299.271573 225.611268,308.556391 226.410704,309.977414 C220.354366,298.7417 214.479718,287.096538 212.529577,280.436998 C212.141972,279.160486 211.802817,277.908059 211.5,276.679718 L225.841408,266.407408 C225.841408,266.407408 239.092676,261.3977 246.663099,259.386592 C248.5779,258.985034 250.545619,258.895555 252.489296,259.121655 L234.392958,268.117453 C234.392958,268.117453 244.894648,279.41338 247.43831,292.937183 Z" id="Path" fill="#002630" opacity="0.06"></path>
                <path d="M282.5,237 C279.100601,240.706237 277.274775,243.470825 272.28979,243.98994 C263.953453,244.871227 238.656156,245.197183 233.370871,244.871227 C228.085586,244.545272 218.355856,246.778672 210.704204,267 C210.584084,265.792757 210.512012,264.585513 210.5,263.450704 C213.226727,255.54326 213.731231,252.416499 222.01952,246.549296 C229.971471,240.863179 245.178679,243.277666 256.95045,243.024145 C268.277778,242.782696 275.400901,239.402414 278.451952,238.641851 L278.74024,238.641851 L278.8003,238.641851 C280.138334,238.437478 281.407511,237.911516 282.5,237.108652 L282.5,237 Z" id="Path" fill="#002630" opacity="0.06"></path>
                <path d="M327.486783,236.593747 C328.613897,239.71975 334.891802,250.715073 331.510459,265.705405 C328.129117,280.695736 317.076127,283.701044 292.618963,283.701044 C268.161798,283.701044 244.443924,272.198801 238.675039,272.70572 C232.906154,273.21264 238.044824,280.200886 229.270302,295.637789 C220.495779,311.074693 207.68546,329.11861 204.304118,337 L190.5,332.172196 C190.5,332.172196 201.916575,289.192671 209.697298,267.829638 C217.478022,246.466606 227.755363,244.100982 233.027349,244.475137 C238.299334,244.849291 263.883613,244.475137 272.29455,243.594062 C280.705488,242.712988 280.196468,235.604047 293.115862,228.229576 C306.035257,220.855106 318.203241,221.73618 318.833456,222.484489 C319.46367,223.232799 327.486783,236.593747 327.486783,236.593747 Z" id="Path" fill="url(#linearGradient-5)"></path>
                <path d="M331.505744,265.850037 C328.112396,280.809958 317.071895,283.809169 292.615548,283.809169 C268.159202,283.809169 244.44212,272.33026 238.673428,272.836151 C232.904736,273.342043 238.043235,280.316112 229.269005,295.721699 C220.494776,311.127286 207.684886,329.134599 204.303656,337 L190.5,332.18199 C190.5,332.18199 191.348337,328.990058 192.742034,323.919103 C191.663434,327.821691 200.861832,332.001315 202.63122,328.857563 C204.400609,325.713812 212.229549,304.514567 219.682796,296.335995 C227.136043,288.157423 225.996848,275.498102 232.747187,265.585046 C239.497527,255.671991 268.292512,269.608085 282.593051,272.2339 C296.893591,274.859716 318.671616,275.751048 321.701391,261.200657 C324.731167,246.650267 319.532072,232.846668 315.763032,231.702391 C315.763032,231.702391 311.47287,225.559428 311.218369,225.053537 C310.963868,224.547646 318.841283,227.751623 323.034492,229.413836 C325.240169,233.027344 327.482203,236.773346 327.482203,236.773346 C328.609279,239.917098 334.899093,250.890116 331.505744,265.850037 Z" id="Path" fill="#002630" opacity="0.06"></path>
                <path d="M316.028843,231.567627 C310.241683,230.681445 303.439655,234.347567 295.393206,236.047093 C287.346758,237.74662 282.961081,236.678346 283.553087,236.047093 C286.441625,232.966355 289.777754,230.342819 293.448044,228.265689 C306.327194,220.848469 318.457276,221.73465 319.085527,222.487298 C319.713779,223.239946 327.7119,236.678346 327.7119,236.678346 C328.026026,237.552389 328.726768,239.021265 329.5,241 C326.74536,237.406715 321.816004,232.453808 316.028843,231.567627 Z" id="Path" fill="#002630" opacity="0.06"></path>
                <path d="M164.770042,222.481439 C173.689858,217.085267 194.065987,221.12935 204.981341,221.397332 C211.547631,221.550777 218.047685,220.039216 223.89087,217 C226.956305,218.973318 218.03649,223.151392 206.447942,225.526682 C194.859394,227.901972 169.96325,229.302784 156.3431,243.164733 C150.092016,249.523202 146.726047,259 146.726047,259 C146.424651,254.481953 146.424651,249.948441 146.726047,245.430394 C149.84429,235.843435 156.244643,227.703252 164.770042,222.481439 Z" id="Path" fill="url(#linearGradient-6)"></path>
                <path d="M161.196228,236.091535 C171.927385,226.866288 196.9425,226.363745 207.273512,224.604846 C217.604525,222.845947 223.727953,220.153754 223.885586,218 C226.977614,219.938379 217.980418,224.042477 206.291339,226.37571 C194.602259,228.708944 169.49014,230.084954 155.751834,243.701466 C151.824664,247.882182 148.690905,252.725346 146.5,258 C149.46403,249.598874 154.517084,242.066012 161.196228,236.091535 Z" id="Path" fill="#002630" opacity="0.06"></path>
                <path d="M161.229822,215.329222 C177.247897,205.427536 209.575725,207.921294 224.5,217.431802 C218.592652,220.48183 212.021223,221.998767 205.38283,221.844776 C194.347616,221.575841 173.784201,217.517372 164.729978,222.932739 C156.10874,228.184371 149.641822,236.367271 146.5,246 C147.326426,235.095921 150.595668,221.905897 161.229822,215.329222 Z" id="Path" fill="url(#linearGradient-7)"></path>
                <path d="M146.5,246 C149.641822,236.367271 156.10874,228.184371 164.729978,222.932739 C173.747741,217.517372 194.347616,221.575841 205.38283,221.844776 C212.021223,221.998767 218.592652,220.48183 224.5,217.431802 C209.575725,207.921294 177.247897,205.427536 161.229822,215.329222 C150.619975,221.905897 147.350732,235.095921 146.5,246 Z M163.028514,217.065073 C172.021969,214.326829 211.265036,217.065073 215.713151,216.429409 C219.359146,215.964886 220.647398,219.363242 213.173107,219.998906 C205.698816,220.63457 187.857744,218.593111 179.75148,219.106532 C171.645217,219.619953 160.59785,217.774083 152.090527,232.47992 C151.312714,233.751248 154.095824,219.803317 163.028514,217.065073 Z" id="Shape" fill="#002630" fill-rule="nonzero" opacity="0.06"></path>
                <path d="M147.016281,259.334802 C145.827943,267.78724 150.438695,285.150965 150.830846,301.0657 C151.222998,316.980435 137.248141,346.720945 138.590963,361.778362 C138.72168,363.251501 140.432887,363.867322 140.563604,360.848593 C140.931989,352.553128 147.146998,329.45382 151.365599,313.50286 C155.584199,297.551901 146.612246,264.056092 147.515383,258.079011 C148.41852,252.101929 147.063814,253.055847 147.063814,253.055847 L147.016281,259.334802 Z" id="Path" fill="url(#linearGradient-8)"></path>
                <polygon id="Path" fill="url(#linearGradient-9)" points="200.5 343.632967 198.184448 349 189.815552 348.202198 187.5 345.494505 190.003617 339.027473 196.915009 338"></polygon>
                <polygon id="Path" fill="url(#linearGradient-10)" points="244.5 342.146199 245.130327 346.766082 251.231417 349 256.5 345.573099 255.037166 339.666667 249.911298 337"></polygon>
                <path d="M188.5,341.206897 L189.457513,338.977011 L196.76943,338 L200.5,343.356322 L199.71658,345 C199.865803,344.827586 191.384974,342.827586 188.5,341.206897 Z" id="Path" fill="#002630" opacity="0.06"></path>
                <path d="M244.5,342.57971 L249.922367,337 L255.070033,339.891304 L255.5,341.755435 C255.5,341.755435 247.485885,343.353261 244.66721,344 L244.5,342.57971 Z" id="Path" fill="#002630" opacity="0.06"></path>
                <path d="M197.561218,355.466202 C198.441979,351.761349 198.784497,349.155603 198.234021,347.747759 C197.43889,345.821235 194.723209,349.279098 191.298026,348.179992 C187.872843,347.080885 187.628187,344.919721 186.600632,344.117003 C185.573077,343.314285 183.407873,346.907992 178.123305,346.821546 C172.838737,346.735099 166.538847,345.216109 165.645853,349.377894 C164.752859,353.539679 167.713195,354.317698 181.438392,357.689114 C195.16359,361.06053 196.227843,361.085229 197.561218,355.466202 Z" id="Path" fill="url(#linearGradient-11)"></path>
                <path d="M260.905835,349.927636 C259.832093,346.373568 258.866932,344.087118 257.684609,343.210448 C256.067964,342.025759 255.452673,346.195865 251.990157,346.942219 C248.527641,347.688573 247.224673,346.041855 245.957899,345.864152 C244.691124,345.686449 244.606673,349.738086 240.05835,352.225933 C235.510027,354.713781 229.393317,356.526355 230.672156,360.43583 C231.950995,364.345304 234.882672,363.551563 248.226028,359.630241 C261.569383,355.70892 262.534545,355.246891 260.905835,349.927636 Z" id="Path" fill="url(#linearGradient-12)"></path>
                <path d="M246.024245,202.714287 C244.822864,202.714287 239.584842,201.715952 238.155198,202.015453 C236.725554,202.314953 233.734115,205.085332 229.601363,204.997978 C225.468611,204.910624 226.249509,202.701808 220.506907,204.062039 C214.764304,205.42227 214.5,204.062039 214.5,204.062039 C214.5,204.062039 214.5,201.715952 222.453144,198.808302 C230.406288,195.900652 233.265576,196.150236 236.088822,196.474695 C238.912068,196.799153 244.498491,194.665213 244.498491,194.665213 C244.498491,194.665213 256.055779,193.554565 255.479116,194.203483 C254.902453,194.852401 246.024245,202.714287 246.024245,202.714287 Z" id="Path" fill="url(#linearGradient-13)"></path>
                <path d="M238.327922,202.16687 C236.887839,202.451176 233.874557,205.081003 229.711629,204.99808 C225.548701,204.915158 226.335301,202.818404 220.550767,204.109625 C214.766234,205.400847 214.5,204.109625 214.5,204.109625 C214.5,204.109625 214.5,203.410708 215.91588,202.297177 C213.55608,204.595314 219.195396,202.948711 227.593861,202.297177 C235.992326,201.645644 233.644628,200.733496 236.924144,199.797657 C240.20366,198.861818 242.80549,199.655504 243.180638,197.854902 L255.5,195 C253.914699,196.44522 246.266529,202.853942 246.266529,202.853942 C245.020071,202.794712 239.768005,201.882565 238.327922,202.16687 Z" id="Path" fill="#002630" opacity="0.06"></path>
                <path d="M291.074419,145.08498 C291.074419,145.08498 282.205708,156.897208 278.813304,164.059813 C275.420901,171.222418 269.278227,186.810188 266.697578,191.459811 C264.116928,196.109434 256.035738,193.341513 252.40102,192.091092 C248.766302,190.840671 243.920012,187.817809 243.629234,192.467432 C243.338457,197.117055 243.629234,198.537436 243.629234,201.511738 C243.629234,204.48604 243.629234,206.367741 249.263047,203.76978 C254.89686,201.171818 279.443322,198.112536 279.443322,198.112536 C279.443322,198.112536 283.33247,191.629771 286.08274,186.142488 C288.202992,181.929905 291.7529,157.370668 292.479844,147.379442 C292.697927,144.32016 291.074419,145.08498 291.074419,145.08498 Z" id="Path" fill="url(#linearGradient-14)"></path>
                <path d="M292.479858,147.387139 C291.75342,157.372829 288.205981,181.918456 286.087203,186.128704 C283.338846,191.612947 279.452403,198.092119 279.452403,198.092119 C279.452403,198.092119 254.886691,201.113306 249.24469,203.746228 C243.602688,206.37915 243.614795,204.498491 243.614795,201.489437 C243.614795,199.28118 243.469508,197.934386 243.505829,195.54413 C243.433186,198.177052 247.138019,194.330802 251.532969,194.464268 C255.927919,194.597734 260.613444,197.242789 266.001193,196.890924 C271.388941,196.539059 275.747569,197.182123 278.520141,193.772671 C281.292713,190.363219 280.941601,191.916279 279.113399,180.207663 C277.793703,171.8357 278.75018,165.016796 281.135318,159.775219 C285.142834,152.980582 291.075411,145.081816 291.075411,145.081816 C291.075411,145.081816 292.697789,144.329552 292.479858,147.387139 Z" id="Path" fill="#002630" opacity="0.06"></path>
                <path d="M298.72087,131.913203 C299.460993,135.193913 299.778057,138.557875 299.664143,141.921071 L316.213208,144 L317.466925,141.389252 C317.466925,141.389252 317.586326,129.20576 317.371403,124.612777 C317.156481,120.019794 305.049156,117.529913 304.356627,118.073819 C303.664097,118.617725 296.5,126.631272 296.5,126.631272 L298.72087,131.913203 Z" id="Path" fill="url(#linearGradient-15)"></path>
                <path d="M298.72087,131.913203 C299.460993,135.193913 299.778057,138.557875 299.664143,141.921071 L316.213208,144 L317.466925,141.389252 C317.466925,141.389252 317.586326,129.20576 317.371403,124.612777 C317.156481,120.019794 305.049156,117.529913 304.356627,118.073819 C303.664097,118.617725 296.5,126.631272 296.5,126.631272 L298.72087,131.913203 Z M309.562537,131.163821 C313.347569,130.644089 314.840089,128.347597 315.938584,130.511134 C316.267087,132.060749 316.267087,133.663283 315.938584,135.212898 C315.699781,136.240276 304.105883,134.282215 301.765612,135.212898 C299.926827,135.96228 300.105929,132.517542 309.562537,131.187995 L309.562537,131.163821 Z" id="Shape" fill="#002630" fill-rule="nonzero" opacity="0.06"></path>
                <path d="M327.962164,88.4294222 C326.812605,86.0064499 328.088615,85.4890444 328.75536,85.0978353 C329.422104,84.7066263 330.307265,85.324989 332.445445,89.9942584 C334.583625,94.6635278 333.043216,97.2505555 331.583275,95.3954674 C330.52119,94.1071645 329.368042,92.9129954 328.134598,91.8241072 L327.962164,88.4294222 Z" id="Path" fill="url(#linearGradient-16)"></path>
                <path d="M331.780227,95.4251595 C330.676817,94.1915865 329.478803,93.0481482 328.197367,92.0055183 L327.982395,88.7550466 C327.158337,87.1600196 327.528566,86.4229238 328.065995,86 C327.349423,86.8820983 329.952968,89.0692186 331.111427,90.9300834 C332.269885,92.7909483 333.213371,95.7634986 333.5,95.3284912 C333.225314,96.1501718 332.496799,96.2589236 331.780227,95.4251595 Z" id="Path" fill="#002630" opacity="0.09"></path>
                <path d="M291.248855,96.0657351 C287.844228,100.24004 286.440887,114.23482 286.501902,116.997583 C286.501902,118.52977 288.698435,117.974805 288.698435,117.974805 C288.698435,117.974805 289.198757,125.466838 289.686875,128.374374 C290.174994,131.28191 296.044619,131.5232 304.122981,130.316753 C312.201342,129.110307 321.5,120.870277 321.5,120.870277 L321.5,91.1072397 C321.5,91.1072397 306.270702,90.8659504 303.976545,91.1072397 C301.682388,91.348529 293.347764,93.4356816 291.248855,96.0657351 Z" id="Path" fill="url(#linearGradient-17)"></path>
                <path d="M295.938016,100.369605 C305.908383,103.264617 308.037026,108.496997 308.037026,108.496997 C309.994399,107.547812 309.994399,102.469675 309.994399,102.469675 C313.309699,104.676529 312.379947,110.893687 312.379947,110.893687 C310.973355,110.39539 309.399837,110.657263 308.244997,111.581846 C306.495595,113.17173 306.079653,110.003827 299.290017,105.86301 C292.50038,101.722193 288.5,102.244244 288.5,102.244244 C288.950504,100.41623 289.645555,98.6532008 290.567475,97 C291.978763,98.6090721 293.846209,99.780752 295.938016,100.369605 Z" id="Path" fill="#002630" opacity="0.06"></path>
                <path d="M315.476744,125.798799 C314.848837,126.219219 314.186047,126.63964 313.5,127 C313.5,127 314.5,122.603604 315.5,119 C315.181705,121.253777 315.173875,123.542754 315.476744,125.798799 Z" id="Path" fill="#002630" opacity="0.06"></path>
                <path d="M307.973961,108.860587 C307.973961,108.860587 305.862478,103.569735 295.972487,100.64237 C288.897807,98.5548226 286.264521,90.7805094 290.620971,86.9293449 C294.977421,83.0781805 302.294801,77.5953701 317.147989,81.1465996 C325.181332,83.0781805 332.729276,91.9442569 333.457373,107.624855 C334.185471,123.305453 325.424031,130 319.587116,130 C313.750201,130 314.915157,121.349877 315.169991,118.950397 C315.53404,115.447157 319.429362,111.284061 317.876087,108.824594 C315.873819,105.645284 312.281871,111.284061 312.281871,111.284061 C312.281871,111.284061 313.204128,104.997425 309.915554,102.765909 C309.915554,102.765909 309.915554,107.900795 307.973961,108.860587 Z" id="Path" fill="url(#linearGradient-18)"></path>
                <path d="M308.013852,137.03313 C313.446714,136.755041 319.942002,138.157576 324.32451,143.912805 C328.707018,149.668033 331.073331,158.312967 328.320682,179.967619 C325.568032,201.622271 322.066854,211.028926 324.32451,227.121803 C325.193768,233.372755 327.946418,234.751108 327.065087,237 C325.876402,234.964607 324.256866,233.214746 322.320388,231.873494 C318.69848,229.116788 312.323922,227.496618 303.450249,231.619587 C294.576575,235.742555 284.326576,235.005015 284.326576,235.005015 C284.326576,235.005015 281.078932,234.255385 284.326576,230.62814 C287.57422,227.000895 287.453489,224.11119 287.199956,217.727239 C286.946422,211.343288 283.203784,190.825172 280.704668,181.684515 C278.205552,172.543858 279.581877,168.179073 284.954373,156.656525 C290.32687,145.133977 296.085703,137.661852 308.013852,137.03313 Z" id="Path" fill="url(#linearGradient-19)"></path>
                <path d="M292.540356,155.781092 C292.66219,156.257696 293.01421,156.655182 293.493989,156.857893 C293.973768,157.060604 294.527416,157.045772 294.993838,156.817711 C296.247844,156.319744 296.833974,154.974039 296.30586,153.805417 C296.022848,153.36687 295.538017,153.074197 294.991898,153.012233 C294.445779,152.950269 293.899444,153.125942 293.511253,153.488333 C292.746214,154.019723 292.37025,154.907556 292.540356,155.781092 Z" id="Path" fill="#002630" opacity="0.06"></path>
                <path d="M288.540731,163.769192 C288.659394,164.248404 289.010355,164.649392 289.490947,164.854855 C289.971538,165.060318 290.527446,165.047035 290.996049,164.818892 C292.247236,164.310451 292.830882,162.964894 292.309053,161.791851 C292.016332,161.360197 291.530168,161.073939 290.985271,161.012397 C290.440374,160.950854 289.894617,161.120563 289.499224,161.4745 C288.741045,162.011042 288.370727,162.897608 288.540731,163.769192 Z" id="Path" fill="#002630" opacity="0.06"></path>
                <path d="M285.709469,171.130076 C285.945491,171.559851 286.395132,171.869072 286.926656,171.967143 C287.45818,172.065213 288.011411,171.94103 288.424262,171.630978 C289.571453,170.90366 289.843263,169.502614 289.03509,168.482455 C288.631363,168.131685 288.070271,167.957901 287.505433,168.008682 C286.940596,168.059464 286.431191,168.32949 286.116688,168.744832 C285.479738,169.408777 285.322266,170.331156 285.709469,171.130076 Z" id="Path" fill="#002630" opacity="0.06"></path>
                <path d="M284.042567,179.568295 C284.334395,179.887515 284.738171,180.042327 285.142442,179.989997 C285.546713,179.937668 285.908727,179.683732 286.128558,179.298282 C286.758434,178.306171 286.568466,176.929361 285.70093,176.199005 C285.310691,175.958548 284.843594,175.934725 284.435634,176.134472 C284.027674,176.33422 283.724706,176.735085 283.614939,177.220358 C283.365127,178.032123 283.529138,178.932642 284.042567,179.568295 Z" id="Path" fill="#002630" opacity="0.06"></path>
                <path d="M291.041545,223.562969 C291.331149,223.883909 291.732854,224.040956 292.135938,223.990824 C292.539022,223.940691 292.900929,223.688672 293.121907,223.30423 C293.758196,222.314961 293.572752,220.931117 292.705834,220.199364 C292.316649,219.958473 291.850812,219.934607 291.443953,220.134715 C291.037094,220.334822 290.734944,220.736411 290.625473,221.222558 C290.360835,222.028821 290.521923,222.934944 291.041545,223.562969 Z" id="Path" fill="#002630" opacity="0.06"></path>
                <path d="M285.029648,156.211622 C286.698556,152.632718 288.696328,149.214359 290.997567,146 L291.5,146.766784 C290.818287,150.250412 289.506264,153.582408 287.627593,156.601099 C284.490452,161.664311 279.208783,169.879859 279.760233,177 C278.792131,170.476247 280.520009,165.790342 285.029648,156.211622 Z" id="Path" fill="#FF7131"></path>
                <path d="M294.370369,140.370972 C292.107132,141.709934 288.921837,145.762368 291.400619,147.362013 C293.879402,148.961658 296.609656,147.634545 302.800625,142.456435 C308.991594,137.278325 312.117016,137.136134 314.5,137.882635 C314.5,137.882635 303.914281,134.718893 294.370369,140.370972 Z" id="Path" fill="#FFFFFF"></path>
                <path d="M302.771817,142.195568 C296.595347,147.622315 293.871488,149.000733 291.39851,147.336696 C288.925533,145.67266 292.103369,141.413223 294.361305,140.009968 C295.018376,139.600168 295.687394,139.24004 296.344465,138.917168 C293.142736,140.692968 291.338777,144.604696 292.903801,145.287696 C295.759074,146.529514 304.097907,136.383858 312.938503,137.029604 L313.5,137.153786 C311.230117,136.731567 308.183696,137.439404 302.771817,142.195568 Z" id="Path" fill="#002630" opacity="0.06"></path>
                <path d="M196.614231,332.733885 C199.904672,333.723034 203.119522,334.952386 206.233357,336.41222 C207.37502,337.000753 204.508715,342.542777 204.059337,343.707583 C203.609959,344.872389 196.031254,342.383383 189.970719,339.318104 C186.072058,337.356325 187.675246,335.970819 188.81691,332.733885 C189.958574,329.496951 191.683215,331.569079 196.614231,332.733885 Z" id="Path" fill="url(#linearGradient-20)"></path>
                <path d="M246.447491,334.948541 C249.419556,334.082298 252.453954,333.431784 255.525551,333.002387 C256.677338,332.870241 257.271809,338.26421 257.494735,339.321379 C257.717662,340.378549 250.819326,342.24061 244.750773,342.925367 C240.861945,343.393886 241.382106,341.615918 240.639018,338.732728 C239.89593,335.849538 242.174734,336.498255 246.447491,334.948541 Z" id="Path" fill="url(#linearGradient-21)"></path>
                <path d="M291.544954,154.785073 C291.668131,155.258832 292.018772,155.65379 292.496039,155.856365 C292.973306,156.058941 293.524307,156.046683 293.990585,155.823118 C295.2473,155.324466 295.834695,153.97691 295.305441,152.806681 C295.018951,152.367116 294.530884,152.074198 293.9817,152.012226 C293.432516,151.950254 292.88313,152.126101 292.49165,152.489161 C291.732213,153.025353 291.365425,153.914883 291.544954,154.785073 Z" id="Path" fill="#FF7131"></path>
                <path d="M288.539137,162.773137 C288.66235,163.250287 289.013607,163.648461 289.492214,163.853513 C289.97082,164.058566 290.523927,164.047856 290.992974,163.824452 C292.248877,163.320192 292.834337,161.967561 292.305186,160.792753 C292.015407,160.360919 291.531735,160.074148 290.9891,160.012441 C290.446464,159.950735 289.902947,160.120697 289.510174,160.474913 C288.747553,161.009364 288.372169,161.897811 288.539137,162.773137 Z" id="Path" fill="#FF7131"></path>
                <path d="M284.709667,170.142409 C284.95373,170.565855 285.403141,170.869008 285.931454,170.966574 C286.459768,171.06414 287.009885,170.945574 287.427026,170.644235 C288.577481,169.915557 288.844375,168.507312 288.024844,167.489899 C287.625535,167.134547 287.064552,166.957565 286.499435,167.008655 C285.934318,167.059744 285.426014,167.333396 285.117271,167.752761 C284.479719,168.417932 284.322098,169.342014 284.709667,170.142409 Z" id="Path" fill="#FF7131"></path>
                <path d="M284.052625,178.568295 C284.343259,178.887515 284.745382,179.042327 285.147998,178.989997 C285.550614,178.937668 285.911147,178.683732 286.130079,178.298282 C286.757376,177.306171 286.568186,175.929361 285.704201,175.199005 C285.315559,174.958548 284.850374,174.934725 284.444083,175.134472 C284.037793,175.33422 283.736065,175.735085 283.626748,176.220358 C283.358266,177.03052 283.523752,177.942872 284.052625,178.568295 Z" id="Path" fill="#FF7131"></path>
                <path d="M290.235162,222.564096 C290.619556,222.884208 291.152744,223.040851 291.687762,222.990847 C292.22278,222.940844 292.703143,222.689475 292.99645,222.306025 C293.847365,221.31416 293.594302,219.924441 292.430386,219.197435 C291.911905,218.95732 291.291692,218.935031 290.751199,219.13709 C290.210707,219.339149 289.811029,219.742716 289.669098,220.229721 C289.31114,221.035417 289.53152,221.944236 290.235162,222.564096 Z" id="Path" fill="#FF7131"></path>
                <path d="M222.566207,212.785419 C222.566207,212.785419 223.873856,215.192239 214.34497,214.98766 C204.816084,214.78308 159.617443,214.98766 159.617443,214.98766 C159.617443,214.98766 143.380803,160.665723 142.581684,157.464652 C141.782565,154.263581 147.110023,153 147.110023,153 C147.110023,153 164.315292,206.226833 165.126519,209.15112 C165.126519,209.15112 178.033498,209.271461 207.504029,209.042813 C236.97456,208.814165 226.803958,210.76369 226.803958,210.76369 L222.566207,212.785419 Z" id="Path" fill="#E29A3B"></path>
                <path d="M226.798861,210.747661 L222.561461,212.770707 C222.561461,212.770707 223.869001,215.193517 214.340903,214.987578 C204.812806,214.781639 159.617902,214.987578 159.617902,214.987578 C159.617902,214.987578 143.382605,160.30477 142.583552,157.082434 C142.038743,154.914019 144.278512,153.617816 145.816083,153 C144.594875,153.688156 143.969783,155.096681 144.278512,156.464617 C144.823321,158.742058 159.581582,211.91061 160.586451,213.340067 C161.59132,214.769525 200.539085,213.594462 208.190619,213.340067 C215.842154,213.085672 220.21273,213.255269 219.449998,212.4194 C218.687266,211.583531 212.185883,211.741013 209.195489,211.207995 C206.205094,210.674977 205.91453,208.954782 205.079157,209.051695 L204.982302,208.954782 L207.524742,208.954782 C236.980729,208.748844 226.798861,210.747661 226.798861,210.747661 Z" id="Path" fill="#002630" opacity="0.06"></path>
                <path d="M244.537434,215 C243.119848,214.652906 237.269303,212.27283 235.539368,212.27283 C233.809433,212.27283 229.676809,214.752075 224.89546,213.636415 C220.114111,212.520754 221.519684,210.153074 214.515849,210.339018 C207.512013,210.524961 207.5,208.839074 207.5,208.839074 C207.5,208.839074 207.992551,206.099508 217.975719,204.698734 C227.958887,203.29796 231.190503,204.264866 234.374064,205.318545 C237.557626,206.372225 244.573474,205.318545 244.573474,205.318545 C244.573474,205.318545 258.292822,206.843281 257.463895,207.463093 C256.634968,208.082904 244.537434,215 244.537434,215 Z" id="Path" fill="url(#linearGradient-22)"></path>
                <path d="M257.463895,207.25602 C256.634968,207.889734 244.537434,215 244.537434,215 C243.119848,214.64512 237.269303,212.21166 235.539368,212.21166 C233.809433,212.21166 229.676809,214.746515 224.89546,213.60583 C220.114111,212.465146 221.519684,210.04436 214.515849,210.234474 C207.512013,210.424588 207.5,208.700887 207.5,208.700887 C207.5,208.700887 207.596108,208.193916 208.461075,207.43346 C211.019938,206.229404 226.180898,207.750317 229.376473,208.333333 C232.572048,208.91635 228.763788,211.451204 232.499968,210.576679 C236.236147,209.702155 241.281792,211.983523 241.942531,211.185044 C242.60327,210.386565 241.942531,205.316857 241.942531,205.316857 C243.468238,205.17744 244.573474,205 244.573474,205 C244.573474,205 258.292822,206.622307 257.463895,207.25602 Z" id="Path" fill="#002630" opacity="0.06"></path>
                <path d="M244.84579,201.823746 C245.730424,195.451886 248.614574,195.705313 256.006723,197.708587 C263.398872,199.711861 266.040656,199.205008 276.07459,197.708587 C280.776482,196.99658 282.82447,196.501795 284.060535,195.620837 C285.296599,194.739879 285.829803,193.267593 287.865674,190.709195 C291.695049,185.882028 300.662574,162.603017 304.176875,153.358993 C307.691175,144.114968 316.210324,138.298232 320.74256,140.446322 C322.276637,141.485043 323.631292,142.764783 324.75371,144.235647 C325.266392,144.918905 325.743667,145.627815 326.183666,146.359601 C328.861805,152.598714 329.903977,161.734127 325.505043,169.602409 C321.106108,177.47069 301.413908,205.202763 297.027091,210.693665 C294.203533,214.229565 291.537512,215.026047 287.33247,215.339813 C284.981524,215.520832 282.133729,215.544968 278.510364,215.810462 C268.355247,216.570741 259.945163,217.56031 253.061982,219.81701 C246.1788,222.073711 244.906381,221.313432 244.906381,215.689783 C244.906381,210.066134 244.033865,208.195606 244.84579,201.823746 Z" id="Path" fill="url(#linearGradient-23)"></path>
                <path d="M282,207.575 L282,207.425" id="Path"></path>
                <path d="M319.587116,130 C313.738066,130 314.915157,121.310977 315.169991,118.900707 C315.53404,115.381713 319.429362,111.199895 317.876087,108.729369 C315.873819,105.535761 312.281871,111.199895 312.281871,111.199895 C312.281871,111.199895 313.204128,104.884988 309.915554,102.643437 C309.915554,102.643437 309.915554,107.801415 307.973961,108.765523 C307.973961,108.765523 305.862478,103.450878 295.972487,100.510348 C288.897807,98.4134137 286.264521,90.6041394 290.620971,86.7356563 C291.711737,85.7539408 292.862719,84.8403041 294.067299,84 C290.620971,86.7356563 295.996757,95.0510872 302.452555,98.0639245 C308.908353,101.076762 311.905688,97.8831543 315.716064,102.414462 C319.526441,106.945769 322.717935,108.11475 321.28601,113.465549 C319.854085,118.816348 319.028908,121.491747 321.637924,121.829185 C324.24694,122.166623 335.144132,114.477862 332.389497,99.5100865 C332.990519,102.143588 333.347964,104.826124 333.457373,107.524234 C334.185471,123.239193 325.424031,130 319.587116,130 Z" id="Path" fill="#002630" opacity="0.09"></path>
                <path d="M290.544004,146.060432 L291.002605,145.406216 C290.988096,145.950166 291.208503,146.471874 291.602314,146.82574 C291.688784,146.9135 291.783317,146.99206 291.88453,147.060271 C294.318644,148.714326 296.999696,147.344176 303.0791,141.949982 C304.733899,140.416928 306.553114,139.091342 308.5,138 C304.795914,140.012022 300.985998,145.801214 296.494059,148.010735 C293.319128,149.578384 291.543519,149.072293 290.837979,147.949017 C290.535666,147.373831 290.431823,146.706712 290.544004,146.060432 Z" id="Path" fill="#002630" opacity="0.06"></path>
                <path d="M283.969187,230.6577 C284.560644,230.014115 285.08323,229.31102 285.528504,228.559769 C284.310288,232.1978 287.818751,231.215531 294.336208,229.52991 C300.853666,227.844289 303.899207,225.152147 312.268354,224.230512 C320.6375,223.308878 319.041637,222.035567 316.166646,210.248348 C313.291656,198.461128 321.404977,171.163772 319.967481,158.188129 C318.529986,145.212486 309.003534,138.651904 304.398676,140.604314 C308.455336,137.536241 311.037955,136.845016 313.023648,137.026917 C313.523117,137.111805 314.022585,137.220945 314.534236,137.342213 C318.417837,138.258557 321.862064,140.487124 324.279967,143.648133 C328.689911,149.432602 331.089797,158.091115 328.312264,179.798031 C325.53473,201.504947 322.001903,210.963827 324.279967,227.09243 C325.157083,233.361969 327.934617,234.744421 327.045319,237 C325.845888,234.958555 324.211711,233.203491 322.257728,231.85825 C318.603079,229.093347 312.170896,227.46836 303.217006,231.603588 C294.263115,235.738816 283.920458,234.999083 283.920458,234.999083 C283.920458,234.999083 280.692185,234.295731 283.969187,230.6577 Z" id="Path" fill="#002630" opacity="0.06"></path>
                <path d="M258.586595,214.464478 C267.779312,211.624138 276.717013,212.623071 288.763481,210.625205 C300.809948,208.627338 298.9034,202.260644 309.031176,185.964794 C319.158952,169.668945 319.65684,159.643507 319.001085,153 C319.663667,154.90221 320.107691,156.872408 320.324739,158.873246 C320.93192,164.253042 319.863281,172.112119 318.624632,180.29615 C311.010585,191.549192 300.032756,206.773896 296.88756,210.721487 C294.058097,214.247842 291.386502,215.042174 287.172667,215.355093 C284.816805,215.535623 281.963056,215.559694 278.332114,215.824471 C268.155764,216.582698 259.728095,217.569595 252.830521,219.820204 C245.932947,222.070812 244.657867,221.312586 244.657867,215.704118 C244.657867,214.067312 244.585005,212.75546 244.5,211.551926 C244.670011,215.306952 249.406021,217.304818 258.586595,214.464478 Z" id="Path" fill="#002630" opacity="0.06"></path>
                <path d="M248.246785,359.468078 C234.885353,363.566324 231.949703,364.420641 230.669132,360.310014 C230.5693,359.997701 230.512377,359.672665 230.5,359.344264 C231.708086,361.436722 239.161978,359.170924 248.089734,356.471777 C257.017491,353.77263 261.20955,350.454413 260.170596,347 C260.412213,347.718122 260.65383,348.485769 260.895447,349.327705 C262.538444,354.886957 261.596137,355.35745 248.246785,359.468078 Z" id="Path" fill="#002630" opacity="0.06"></path>
                <path d="M181.325,357.773234 C167.700112,354.543504 164.749267,353.75108 165.647878,349.692907 C165.772183,349.034679 166.119013,348.437748 166.631493,348 C163.741365,352.034161 174.828284,352.706521 180.64497,353.402894 C186.461655,354.099266 196.78354,357.509093 197.5,354.903697 C197.439283,355.131819 197.390709,355.371948 197.329992,355.612077 C196.006363,361.075002 194.962031,361.002964 181.325,357.773234 Z" id="Path" fill="#002630" opacity="0.06"></path>
                <path d="M297.108327,210.951688 C300.203547,206.960291 311.006939,191.447717 318.5,180 C318.237086,181.861019 317.95027,183.673064 317.687355,185.607545 C311.508867,195.035076 300.801079,208.809067 297.932922,212.641297 C295.064765,216.473527 290.153045,216.314361 287.631457,217 C287.631457,216.595963 287.547803,216.142952 287.5,215.665453 C291.69468,215.347121 294.323824,214.539047 297.108327,210.951688 Z" id="Path" fill="#002630" opacity="0.06"></path>
                <path d="M54.0739899,357 C54.0739899,357 26.6321104,336.845149 25.6152962,314.410448 C24.1384946,282.395522 36.7518331,257.329291 69.04779,253 C69.04779,253 65.6463043,258.833022 66.4331248,264.79944 C67.9583462,276.271455 75.6207677,295.553172 72.9334729,308.371269 C70.4367916,319.340312 66.5306359,329.938653 61.3127388,339.901119 L54.0739899,357 Z" id="Path" fill="url(#linearGradient-24)"></path>
                <path d="M72.9217582,308.479297 C75.6646212,295.636192 67.8437552,276.316857 66.2869951,264.822461 C65.4839046,258.844403 68.9557266,253 68.9557266,253 C68.9557266,253 55.093149,258.09107 54.5742289,277.920727 C54.0553089,297.750383 56.95879,295.441784 54.5742289,319.621328 C53.2839255,331.708746 53.1556869,343.8889 54.1912165,356 L61.0607292,340.082812 C66.3875196,330.097079 70.3744699,319.473916 72.9217582,308.479297 Z" id="Path" fill="#002630" opacity="0.11"></path>
                <path d="M54.5130898,358 C39.8166114,334.337009 37.122658,298.43246 44.3626579,279.075121 C48.6769524,267.538998 57.3485851,258.171195 68.5,253 C68.5,253 52.8654486,259.741902 45.6495018,279.099242 C38.433555,298.456582 41.5364121,335.301861 54.5251163,357.951757 L54.5130898,358 Z" id="Path" fill="url(#linearGradient-25)"></path>
                <path d="M30.5,332 C30.7582888,332.452987 30.5,332 30.7705882,332.440744 C37.5967914,333.836435 44.3,337.142018 48.2727273,343.202253 C50.7444082,347.160199 52.2171589,351.654743 52.5652406,356.302155 L53.5,357 L53.5,356.877571 C53.2167386,351.848803 51.5952051,346.985449 48.8016043,342.785994 C44.5705882,336.248286 37.8673797,333.187561 30.5,332 Z" id="Path" fill="#002630" opacity="0.11"></path>
                <path d="M52.8781505,363 C52.8781505,363 50.1412754,345.25967 59.3933664,331.016407 C70.6193982,313.737495 96.183749,310.774702 110.740049,314.32034 C124.933047,317.720266 132.320188,325.819376 134.5,332.643514 C129.018673,331.051126 123.123194,331.825803 118.23618,334.780611 C109.831794,339.771217 105.53272,349.291011 84.388544,354.208762 C63.2443676,359.126512 61.3067569,356.782992 52.8781505,363 Z" id="Path" fill="url(#linearGradient-26)"></path>
                <path d="M118.224865,335.445201 C123.115279,332.509452 129.014859,331.739772 134.5,333.321889 C134.5,333.321889 126.477558,324.876898 108.590664,331.596698 C90.7037702,338.316498 94.4726212,340.632838 76.3070018,346.713232 C59.6561939,352.29899 54.287702,361.491966 53.5,363 C61.3770197,357.43837 63.7643627,359.549618 84.3536804,354.772166 C105.536804,349.862007 109.814632,340.403617 118.224865,335.445201 Z" id="Path" fill="#002630" opacity="0.11"></path>
                <path d="M133.5,332.434209 C133.5,332.434209 121.602374,319.873427 103.359347,322.314784 C84.8038576,324.756141 69.3369436,334.033298 61.6936202,345.764019 C58.0676705,351.181588 54.987616,356.956001 52.5,363 C52.5,363 59.6265579,348.840129 68.3394659,339.953589 C77.0523739,331.067049 96.2327893,321.460309 111.327151,323.401188 C116.891395,324.060355 127.803561,326.489505 133.5,332.434209 Z" id="Path" fill="url(#linearGradient-27)"></path>
                <path d="M52.2594541,363 C52.2594541,363 53.9968344,351.642653 48.1331759,342.532351 C41.0147429,331.468096 24.8112587,329.575205 15.5572957,331.846675 C6.58083097,334.044871 1.87542605,339.173995 0.5,343.570388 C3.97253934,342.54979 7.70852638,343.045728 10.8036303,344.938154 C16.1243574,348.137751 18.8510792,354.23164 32.2675158,357.3946 C45.6839524,360.55756 46.9145967,358.982186 52.2594541,363 Z" id="Path" fill="url(#linearGradient-28)"></path>
                <path d="M0.5,344.135163 L0.84891254,343.611478 C6.01984262,338.706043 13.0577966,336.346188 20.0992596,337.156757 C31.9261916,338.666918 41.7559,344.597954 46.6527071,352.039152 C48.9603,355.48485 50.9192781,359.156987 52.5,363 C52.5,363 47.6272559,353.975569 42.0687182,348.385536 C36.5101805,342.795504 24.3583989,337.595191 14.6850995,338.033624 C6.88870893,338.277199 0.5,344.135163 0.5,344.135163 Z" id="Path" fill="url(#linearGradient-29)"></path>
                <path d="M68.2084041,321.096272 C64.0653119,322.865277 56.5202673,329.435867 53.2641128,341.301438 C52.0499933,345.794298 51.4573392,350.429624 51.5023874,355.080423 C51.5004214,357.396686 51.6750656,359.709789 52.0248301,362 C51.8022277,359.780982 51.725117,357.550004 51.7939833,355.321104 C51.964081,348.906956 53.2884125,339.520399 58.6829371,331.313179 C61.1914415,327.539562 64.4387636,324.302725 68.2327037,321.794247 C68.3177525,321.529498 68.4149512,321.264749 68.5,321 L68.2084041,321.096272 Z" id="Path" fill="#002630" opacity="0.11"></path>
                <path d="M322.92338,27.3626476 C322.304296,25.9573467 321.418157,25.862072 327.985297,23.7898486 C334.552436,21.7176253 373.615382,7.22397099 389.15316,28.2677566 C389.760105,29.0895004 389.675133,29.6492389 388.048521,27.5055595 C385.87566,24.6354111 378.55591,17.9185491 366.198521,17.7875465 C339.140936,17.4898132 323.785241,29.3157776 322.92338,27.3626476 Z" id="Path" fill="url(#linearGradient-30)"></path>
                <path d="M333.5,24 C333.5,24 345.393881,26.7272727 346.5,39 C346.5,39 335.699809,35.1647727 333.5,24 Z" id="Path" fill="url(#linearGradient-31)"></path>
                <path d="M334.151118,22 C334.151118,22 327.33579,11.7251069 335.559873,2 C335.559873,2.01221747 340.750691,12.323763 334.151118,22 Z" id="Path" fill="url(#linearGradient-32)"></path>
                <path d="M342.5,20 C342.5,20 353.638524,22.8874773 354.5,35 C354.5,35.024882 344.404954,31.074913 342.5,20 Z" id="Path" fill="url(#linearGradient-33)"></path>
                <path d="M352.5,18 C352.5,18 362.841023,21.7870066 362.491327,33 C362.416392,33 353.199393,28.3495066 352.5,18 Z" id="Path" fill="url(#linearGradient-34)"></path>
                <path d="M362.50482,17 C362.50482,17 371.677841,21.1611785 370.372892,31 C370.372892,31 362.274535,26.220104 362.50482,17 Z" id="Path" fill="url(#linearGradient-35)"></path>
                <path d="M372.891299,19 C372.891299,19 378.44152,23.8 375.775575,31 C375.752593,30.952 371.156137,25.876 372.891299,19 Z" id="Path" fill="url(#linearGradient-36)"></path>
                <path d="M379.860936,21 C383.203793,23.7272592 384.382155,28.1153769 382.814818,32 C379.965536,29.0084434 378.861908,24.8986278 379.860936,21 Z" id="Path" fill="url(#linearGradient-37)"></path>
                <path d="M372.5,18 C372.5,18 372.743902,10.2689076 380.5,8 C380.5,8 379.402439,15.1908764 372.5,18 Z" id="Path" fill="url(#linearGradient-38)"></path>
                <path d="M379.5,21 C380.563049,16.6817691 384.152272,13.4913492 388.5,13 C386.970418,17.0070818 383.607485,19.9963555 379.5,21 Z" id="Path" fill="url(#linearGradient-39)"></path>
                <path d="M361.83303,17 C361.83303,17 359.259241,7.42298484 368.421929,2 C368.421929,2 369.708823,11.1819633 361.83303,17 Z" id="Path" fill="url(#linearGradient-40)"></path>
                <path d="M352.983474,17 C352.983474,17 347.889294,7.52941176 356.580911,0 C356.580911,-3.34373052e-14 360.230865,9.35294118 352.983474,17 Z" id="Path" fill="url(#linearGradient-41)"></path>
                <path d="M342.625834,20 C342.625834,20 337.053681,10.2061856 343.952006,1 C343.952006,1 348.197987,10.8427835 342.625834,20 Z" id="Path" fill="url(#linearGradient-42)"></path>
                <path d="M84.3777396,88.2296728 C83.1513839,89.2741462 83.3108101,90.1850241 79.1534643,84.3554054 C74.9961184,78.5257868 48.286091,44.4346629 64.8786838,22.5614479 C65.5286523,21.6991502 66.1050395,21.6141349 64.4494593,23.8731121 C62.1929648,26.9215169 57.618658,36.2367617 61.3099887,48.539686 C69.2935644,75.2830615 86.0946376,86.7722682 84.3777396,88.2296728 Z" id="Path" fill="url(#linearGradient-43)"></path>
                <path d="M76.5135932,79 C76.5135932,79 75.6590949,66.7691761 87.5,62 C87.4755858,62.0965909 86.9140583,73.5426136 76.5135932,79 Z" id="Path" fill="url(#linearGradient-44)"></path>
                <path d="M74.5,78.8126931 C74.5,78.8126931 66.4272727,88.5296221 54.5,83.609345 C54.5,83.609345 63.0939394,75.4500917 74.5,78.8126931 Z" id="Path" fill="url(#linearGradient-45)"></path>
                <path d="M70.506099,71 C70.506099,71 69.8732672,59.3723079 81.5,55 C81.5,54.9880961 80.7679005,65.9367119 70.506099,71 Z" id="Path" fill="url(#linearGradient-46)"></path>
                <path d="M65.5,61 C65.5,61 66.1269092,49.9645635 77.4990425,47 C77.5491952,47 75.6559294,57.2247191 65.5,61 Z" id="Path" fill="url(#linearGradient-47)"></path>
                <path d="M61.5,51 C61.5,51 63.012605,40.8394161 73.5,39 C73.5,39 70.9663866,48.3347237 61.5,51 Z" id="Path" fill="url(#linearGradient-48)"></path>
                <path d="M59.5,41 C59.5,41 62.4624724,33.4166618 70.5,34.0359678 C70.5,34.0359678 66.9426049,40.7472221 59.5,41 Z" id="Path" fill="url(#linearGradient-49)"></path>
                <path d="M60.5,33 C60.5,33 63.1945412,26.5363465 70.5,27.0265354 C68.3683681,30.508724 64.6305083,32.7415213 60.5,33 Z" id="Path" fill="url(#linearGradient-50)"></path>
                <path d="M59.5,41.6995609 C59.5,41.6995609 51.9545368,43.7608218 47.5001279,37.0851472 C47.4648687,37.0851472 54.7282585,35.9842465 59.5,41.6995609 Z" id="Path" fill="url(#linearGradient-51)"></path>
                <path d="M59.5,32.9862195 C55.2019333,33.2042757 51.2156818,30.818018 49.5,27 C53.6468854,27.2874203 57.384064,29.5245774 59.5,32.9862195 Z" id="Path" fill="url(#linearGradient-52)"></path>
                <path d="M61.5,51.9738389 C61.5,51.9738389 52.6399856,57.4252062 44.5,50.444496 C44.5,50.444496 53.3722182,46.3374704 61.5,51.9738389 Z" id="Path" fill="url(#linearGradient-53)"></path>
                <path d="M64.5,60.5525357 C64.5,60.5525357 56.4244533,68.8349095 46.5,62.7945795 C46.5,62.7945795 54.8499006,56.0420709 64.5,60.5525357 Z" id="Path" fill="url(#linearGradient-54)"></path>
                <path d="M69.5,70.7452249 C69.5,70.7452249 61.7619503,79.0805495 50.5,74.7551919 C50.5,74.7551919 58.710325,67.7490137 69.5,70.7452249 Z" id="Path" fill="url(#linearGradient-55)"></path>
                <path d="M196.452149,40.3475361 C208.206282,54.6772574 234.5,46.8851699 234.5,46.8851699 C222.145554,42.3618993 214.341483,21 214.341483,21 C194.074909,33.6892818 165.5,24.8960437 165.5,24.8960437 C178.202627,40.0339227 196.452149,40.3475361 196.452149,40.3475361 Z" id="Path" fill="url(#linearGradient-56)"></path>
                <path d="M189.863526,50.4670715 C210.256433,57.7295443 234.5,47.0658134 234.5,47.0658134 C234.5,47.0658134 208.229138,54.8850758 196.485223,40.5053795 C196.485223,40.5053795 178.251565,40.1301518 165.5,25 C165.559979,25 169.506606,43.1561821 189.863526,50.4670715 Z" id="Path" fill="#9FD1ED"></path>
                <path d="M189.824691,50.4670715 C210.23534,57.7295443 234.5,47.0658134 234.5,47.0658134 C229.315654,49.1704793 223.81487,50.3737352 218.231512,50.6244251 C208.818601,51.4717136 196.956412,50.4670715 188.528015,47.3442081 C172.475639,41.4010845 165.5,25 165.5,25 C165.5,25 169.450061,43.1561821 189.824691,50.4670715 Z" id="Path" fill="#93CAE2"></path>
                <path d="M436.228203,219.57776 C448.049594,219.05651 457.530709,214.971365 461.299153,210.340725 C465.211979,204.949293 467.691168,198.63474 468.5,192 C468.5,192 449.981821,196.473052 439.696611,192.727326 C439.696611,192.727326 437.128309,216.838167 400.5,218.814068 C403.954981,221.516989 407.768671,223.716406 411.829333,225.347876 C420.407222,227.192943 429.352856,225.07738 436.228203,219.57776 Z" id="Path" fill="url(#linearGradient-57)"></path>
                <path d="M445.556215,223.56468 C451.884552,220.349613 457.348753,215.700772 461.5,210 C457.695784,214.561362 448.173128,218.585391 436.191059,219.098843 C429.231576,224.525556 420.174965,226.601595 411.5,224.758754 C420.029198,228.149924 432.447419,230.382842 445.556215,223.56468 Z" id="Path" fill="#9FD1ED"></path>
                <path d="M446.011861,223.494177 C450.681936,221.059212 454.904669,217.848856 458.5,214 C455.408276,216.897967 449.855298,220.765965 440.20427,223.967067 C425.715604,228.756594 415.797839,226.149636 412.5,224.961348 C421.023458,228.247328 433.184238,230.260142 446.011861,223.494177 Z" id="Path" fill="#93CAE2"></path>
                <path d="M438.5,204.536585 C440.607119,202.105566 442.042992,199.162218 442.664459,196 C444.902703,196.526741 447.205285,196.723925 449.5,196.585366 C448.220361,199.819708 446.727729,202.964877 445.032009,206 C442.810911,205.735877 440.622315,205.245549 438.5,204.536585 Z" id="Path" fill="#9FD1ED" opacity="0.22"></path>
                <path d="M36.3182738,172.443598 C46.6053335,174.187449 55.3462907,176.464143 59.8385097,177.081757 C64.9637784,177.796252 64.0385518,179.503773 61.1411314,193.527241 C59.26633,202.561358 59.7898135,202.585578 54.3114977,201.640992 C50.0627595,200.902278 48.3462205,200.575306 47.6523005,200.999158 C46.9583805,201.423011 47.3357756,204.632181 47.3966458,206.872545 C47.3966458,208.156213 39.9583103,199.327968 38.3756858,199.013106 C35.4539173,198.456042 35.4539173,198.456042 27.9060156,196.809072 C25.0085952,196.179348 24.6433742,195.755495 27.2729658,182.821933 C29.5129882,171.801764 29.2451594,171.2447 36.3182738,172.443598 Z" id="Path" fill="#ED4C4C"></path>
                <path d="M53.4640443,184.825143 C53.3290183,183.568625 52.6594017,182.434841 51.6311378,181.721694 C50.6028739,181.008548 49.3187734,180.787344 48.1162365,181.116204 C46.5023748,181.365826 45.1444972,182.474906 44.5591524,184.02154 C44.3054608,182.453237 43.5472871,181.014303 42.4029748,179.929343 C41.4328044,179.151337 40.1769577,178.840537 38.9628039,179.07796 C37.74865,179.315383 36.6964998,180.077504 36.0806234,181.165656 C34.6066262,183.638282 36.2511685,187.470853 37.5546205,189.424228 C38.941433,191.461165 40.5516189,193.331733 42.3542476,195 C44.4151478,194.195805 46.3938953,193.189633 48.262418,191.995759 C50.6256861,190.53691 53.8782253,187.643937 53.4640443,184.825143 Z" id="Path" fill="#FFFFFF"></path>
                <path d="M61.1186431,193.397337 C64.043686,179.313778 64.9777334,177.559425 59.8036028,176.852811 C58.5745932,176.682249 56.9768807,176.389856 55.1210762,176 C58.0829894,176.633516 58.8081051,178.948288 58.3042111,186.818512 C57.8003172,194.688736 54.1870289,201.596502 50.5,200.962985 C51.4586275,201.109182 52.6630569,201.328476 54.1870289,201.596502 C59.7544425,202.546777 59.2259683,202.522411 61.1186431,193.397337 Z" id="Path" fill="#D83A3A"></path>
            </g>
        </g>
    </g>
</svg>