<?xml version="1.0" encoding="UTF-8" standalone="no"?>
<!DOCTYPE svg PUBLIC "-//W3C//DTD SVG 1.1//EN"
 "http://www.w3.org/Graphics/SVG/1.1/DTD/svg11.dtd">
<!-- Generated by graphviz version 2.40.1 (20161225.0304)
 -->
<!-- Title: dependencies Pages: 1 -->
<svg width="1138pt" height="211pt"
 viewBox="0.00 0.00 1138.00 211.00" xmlns="http://www.w3.org/2000/svg" xmlns:xlink="http://www.w3.org/1999/xlink">
<g id="graph0" class="graph" transform="scale(1 1) rotate(0) translate(4 207)">
<title>dependencies</title>
<polygon fill="#ffffff" stroke="transparent" points="-4,4 -4,-207 1134,-207 1134,4 -4,4"/>
<text text-anchor="start" x="544.0091" y="-42.4" font-family="sans-serif" font-weight="bold" font-size="14.00" fill="#000000">Legend</text>
<polygon fill="#ffffb3" stroke="transparent" points="331,-10 331,-30 351,-30 351,-10 331,-10"/>
<text text-anchor="start" x="354.629" y="-15.4" font-family="sans-serif" font-size="14.00" fill="#000000"> &#160;Declarations</text>
<polygon fill="#8dd3c7" stroke="transparent" points="444,-10 444,-30 464,-30 464,-10 444,-10"/>
<text text-anchor="start" x="467.7251" y="-15.4" font-family="sans-serif" font-size="14.00" fill="#000000"> &#160;Module</text>
<polygon fill="#80b1d3" stroke="transparent" points="530,-10 530,-30 550,-30 550,-10 530,-10"/>
<text text-anchor="start" x="553.7812" y="-15.4" font-family="sans-serif" font-size="14.00" fill="#000000"> &#160;Bootstrap</text>
<polygon fill="#fdb462" stroke="transparent" points="627,-10 627,-30 647,-30 647,-10 627,-10"/>
<text text-anchor="start" x="650.6732" y="-15.4" font-family="sans-serif" font-size="14.00" fill="#000000"> &#160;Providers</text>
<polygon fill="#fb8072" stroke="transparent" points="723,-10 723,-30 743,-30 743,-10 723,-10"/>
<text text-anchor="start" x="746.7258" y="-15.4" font-family="sans-serif" font-size="14.00" fill="#000000"> &#160;Exports</text>
<g id="clust1" class="cluster">
<title>cluster_DtoModule</title>
<polygon fill="none" stroke="#000000" stroke-dasharray="1,5" points="8,-70 8,-195 1122,-195 1122,-70 8,-70"/>
</g>
<g id="clust3" class="cluster">
<title>cluster_DtoModule_imports</title>
<polygon fill="none" stroke="#000000" points="16,-78 16,-130 1114,-130 1114,-78 16,-78"/>
</g>
<!-- CannedReplyDtoModule -->
<g id="node1" class="node">
<title>CannedReplyDtoModule</title>
<polygon fill="#8dd3c7" stroke="#000000" points="1106.2548,-122 1103.2548,-126 1082.2548,-126 1079.2548,-122 949.7452,-122 949.7452,-86 1106.2548,-86 1106.2548,-122"/>
<text text-anchor="middle" x="1028" y="-99.8" font-family="Times,serif" font-size="14.00" fill="#000000">CannedReplyDtoModule</text>
</g>
<!-- DtoModule -->
<g id="node9" class="node">
<title>DtoModule</title>
<polygon fill="#8dd3c7" stroke="#000000" points="593.0483,-187 590.0483,-191 569.0483,-191 566.0483,-187 512.9517,-187 512.9517,-151 593.0483,-151 593.0483,-187"/>
<text text-anchor="middle" x="553" y="-164.8" font-family="Times,serif" font-size="14.00" fill="#000000">DtoModule</text>
</g>
<!-- CannedReplyDtoModule&#45;&gt;DtoModule -->
<g id="edge1" class="edge">
<title>CannedReplyDtoModule&#45;&gt;DtoModule</title>
<path fill="none" stroke="#000000" d="M1028,-122.2921C1028,-144.2057 1028,-178 1028,-178 1028,-178 603.0889,-178 603.0889,-178"/>
<polygon fill="#000000" stroke="#000000" points="603.0889,-174.5001 593.0889,-178 603.0888,-181.5001 603.0889,-174.5001"/>
</g>
<!-- CompanyModule -->
<g id="node2" class="node">
<title>CompanyModule</title>
<polygon fill="#8dd3c7" stroke="#000000" points="931.9916,-122 928.9916,-126 907.9916,-126 904.9916,-122 818.0084,-122 818.0084,-86 931.9916,-86 931.9916,-122"/>
<text text-anchor="middle" x="875" y="-99.8" font-family="Times,serif" font-size="14.00" fill="#000000">CompanyModule</text>
</g>
<!-- CompanyModule&#45;&gt;DtoModule -->
<g id="edge2" class="edge">
<title>CompanyModule&#45;&gt;DtoModule</title>
<path fill="none" stroke="#000000" d="M875,-122.1061C875,-141.3391 875,-169 875,-169 875,-169 603.1305,-169 603.1305,-169"/>
<polygon fill="#000000" stroke="#000000" points="603.1305,-165.5001 593.1305,-169 603.1304,-172.5001 603.1305,-165.5001"/>
</g>
<!-- LabelModule -->
<g id="node3" class="node">
<title>LabelModule</title>
<polygon fill="#8dd3c7" stroke="#000000" points="799.9232,-122 796.9232,-126 775.9232,-126 772.9232,-122 708.0768,-122 708.0768,-86 799.9232,-86 799.9232,-122"/>
<text text-anchor="middle" x="754" y="-99.8" font-family="Times,serif" font-size="14.00" fill="#000000">LabelModule</text>
</g>
<!-- LabelModule&#45;&gt;DtoModule -->
<g id="edge3" class="edge">
<title>LabelModule&#45;&gt;DtoModule</title>
<path fill="none" stroke="#000000" d="M754,-122.027C754,-138.3976 754,-160 754,-160 754,-160 603.1923,-160 603.1923,-160"/>
<polygon fill="#000000" stroke="#000000" points="603.1923,-156.5001 593.1923,-160 603.1922,-163.5001 603.1923,-156.5001"/>
</g>
<!-- MailboxDtoModule -->
<g id="node4" class="node">
<title>MailboxDtoModule</title>
<polygon fill="#8dd3c7" stroke="#000000" points="689.9874,-122 686.9874,-126 665.9874,-126 662.9874,-122 562.0126,-122 562.0126,-86 689.9874,-86 689.9874,-122"/>
<text text-anchor="middle" x="626" y="-99.8" font-family="Times,serif" font-size="14.00" fill="#000000">MailboxDtoModule</text>
</g>
<!-- MailboxDtoModule&#45;&gt;DtoModule -->
<g id="edge4" class="edge">
<title>MailboxDtoModule&#45;&gt;DtoModule</title>
<path fill="none" stroke="#000000" d="M577.6399,-122.1061C577.6399,-122.1061 577.6399,-140.991 577.6399,-140.991"/>
<polygon fill="#000000" stroke="#000000" points="574.14,-140.9909 577.6399,-150.991 581.14,-140.991 574.14,-140.9909"/>
</g>
<!-- NotificationModule -->
<g id="node5" class="node">
<title>NotificationModule</title>
<polygon fill="#8dd3c7" stroke="#000000" points="543.6994,-122 540.6994,-126 519.6994,-126 516.6994,-122 416.3006,-122 416.3006,-86 543.6994,-86 543.6994,-122"/>
<text text-anchor="middle" x="480" y="-99.8" font-family="Times,serif" font-size="14.00" fill="#000000">NotificationModule</text>
</g>
<!-- NotificationModule&#45;&gt;DtoModule -->
<g id="edge5" class="edge">
<title>NotificationModule&#45;&gt;DtoModule</title>
<path fill="none" stroke="#000000" d="M528.1631,-122.1061C528.1631,-122.1061 528.1631,-140.991 528.1631,-140.991"/>
<polygon fill="#000000" stroke="#000000" points="524.6631,-140.9909 528.1631,-150.991 531.6631,-140.991 524.6631,-140.9909"/>
</g>
<!-- StatusDtoModule -->
<g id="node6" class="node">
<title>StatusDtoModule</title>
<polygon fill="#8dd3c7" stroke="#000000" points="398.2702,-122 395.2702,-126 374.2702,-126 371.2702,-122 283.7298,-122 283.7298,-86 398.2702,-86 398.2702,-122"/>
<text text-anchor="middle" x="341" y="-99.8" font-family="Times,serif" font-size="14.00" fill="#000000">StatusDtoModule</text>
</g>
<!-- StatusDtoModule&#45;&gt;DtoModule -->
<g id="edge6" class="edge">
<title>StatusDtoModule&#45;&gt;DtoModule</title>
<path fill="none" stroke="#000000" d="M341,-122.027C341,-138.3976 341,-160 341,-160 341,-160 502.6254,-160 502.6254,-160"/>
<polygon fill="#000000" stroke="#000000" points="502.6255,-163.5001 512.6254,-160 502.6254,-156.5001 502.6255,-163.5001"/>
</g>
<!-- TicketDtoModule -->
<g id="node7" class="node">
<title>TicketDtoModule</title>
<polygon fill="#8dd3c7" stroke="#000000" points="265.3104,-122 262.3104,-126 241.3104,-126 238.3104,-122 148.6896,-122 148.6896,-86 265.3104,-86 265.3104,-122"/>
<text text-anchor="middle" x="207" y="-99.8" font-family="Times,serif" font-size="14.00" fill="#000000">TicketDtoModule</text>
</g>
<!-- TicketDtoModule&#45;&gt;DtoModule -->
<g id="edge7" class="edge">
<title>TicketDtoModule&#45;&gt;DtoModule</title>
<path fill="none" stroke="#000000" d="M207,-122.1061C207,-141.3391 207,-169 207,-169 207,-169 502.6322,-169 502.6322,-169"/>
<polygon fill="#000000" stroke="#000000" points="502.6323,-172.5001 512.6322,-169 502.6322,-165.5001 502.6323,-172.5001"/>
</g>
<!-- UserDtoModule -->
<g id="node8" class="node">
<title>UserDtoModule</title>
<polygon fill="#8dd3c7" stroke="#000000" points="130.4734,-122 127.4734,-126 106.4734,-126 103.4734,-122 23.5266,-122 23.5266,-86 130.4734,-86 130.4734,-122"/>
<text text-anchor="middle" x="77" y="-99.8" font-family="Times,serif" font-size="14.00" fill="#000000">UserDtoModule</text>
</g>
<!-- UserDtoModule&#45;&gt;DtoModule -->
<g id="edge8" class="edge">
<title>UserDtoModule&#45;&gt;DtoModule</title>
<path fill="none" stroke="#000000" d="M77,-122.2921C77,-144.2057 77,-178 77,-178 77,-178 502.8267,-178 502.8267,-178"/>
<polygon fill="#000000" stroke="#000000" points="502.8268,-181.5001 512.8267,-178 502.8267,-174.5001 502.8268,-181.5001"/>
</g>
</g>
</svg>
