<?xml version="1.0" encoding="UTF-8"?>
<svg width="20px" height="20px" viewBox="0 0 20 20" version="1.1" xmlns="http://www.w3.org/2000/svg" xmlns:xlink="http://www.w3.org/1999/xlink">
    <!-- Generator: Sketch 54.1 (76490) - https://sketchapp.com -->
    <title>Path</title>
    <desc>Created with Sketch.</desc>
    <g id="Mailbox-v4" stroke="none" stroke-width="1" fill="none" fill-rule="evenodd">
        <g id="Settings-mailbox-settings-progress-popup-Copy" transform="translate(-577.000000, -257.000000)" fill="#929395" fill-rule="nonzero">
            <g id="cancel" transform="translate(577.000000, 257.000000)">
                <path d="M12.8181818,10.2727273 C12.6363636,10.0909091 12.6363636,9.81818182 12.8181818,9.63636364 L19.6363636,2.81818182 C19.8181818,2.63636364 19.9090909,2.36363636 19.9090909,2.18181818 C19.9090909,2 19.8181818,1.72727273 19.6363636,1.54545455 L18.3636364,0.272727273 C18.1818182,0.0909090909 17.9090909,0 17.7272727,0 C17.4545455,0 17.2727273,0.0909090909 17.0909091,0.272727273 L10.2727273,7.09090909 C10.0909091,7.27272727 9.81818182,7.27272727 9.63636364,7.09090909 L2.81818182,0.272727273 C2.63636364,0.0909090909 2.36363636,0 2.18181818,0 C2,0 1.72727273,0.0909090909 1.54545455,0.272727273 L0.272727273,1.54545455 C0.0909090909,1.72727273 0,2 0,2.18181818 C0,2.36363636 0.0909090909,2.63636364 0.272727273,2.81818182 L7.09090909,9.63636364 C7.27272727,9.81818182 7.27272727,10.0909091 7.09090909,10.2727273 L0.272727273,17.0909091 C0.0909090909,17.2727273 0,17.5454545 0,17.7272727 C0,17.9090909 0.0909090909,18.1818182 0.272727273,18.3636364 L1.54545455,19.6363636 C1.72727273,19.8181818 2,19.9090909 2.18181818,19.9090909 C2.36363636,19.9090909 2.63636364,19.8181818 2.81818182,19.6363636 L9.63636364,12.8181818 C9.81818182,12.6363636 10.0909091,12.6363636 10.2727273,12.8181818 L17.0909091,19.6363636 C17.2727273,19.8181818 17.5454545,19.9090909 17.7272727,19.9090909 C17.9090909,19.9090909 18.1818182,19.8181818 18.3636364,19.6363636 L19.6363636,18.3636364 C19.8181818,18.1818182 19.9090909,17.9090909 19.9090909,17.7272727 C19.9090909,17.5454545 19.8181818,17.2727273 19.6363636,17.0909091 L12.8181818,10.2727273 Z" id="Path"></path>
            </g>
        </g>
    </g>
</svg>