<svg width="24" height="20" xmlns="http://www.w3.org/2000/svg"><g fill="none" fill-rule="evenodd"><path d="M0-2h24v24H0z"/><path d="M2.302 6.425c.303.214 1.218.85 2.743 1.907a671.143 671.143 0 013.507 2.442l.568.408c.29.21.531.38.723.509.192.13.424.274.696.435.272.16.529.28.77.36.24.081.464.121.669.121h.027c.205 0 .428-.04.669-.12.24-.08.498-.2.77-.361.272-.16.503-.306.695-.435.192-.13.433-.299.723-.509.29-.21.48-.345.569-.408l6.263-4.35a6.358 6.358 0 001.633-1.646c.437-.642.655-1.315.655-2.02 0-.589-.212-1.093-.635-1.512a2.068 2.068 0 00-1.506-.63h-19.7C1.454.617.926.85.555 1.313.185 1.776 0 2.356 0 3.052c0 .562.245 1.171.736 1.827.49.656 1.013 1.171 1.566 1.546z" fill="#FFF" fill-rule="nonzero"/><path d="M22.644 7.857c-2.926 1.98-5.148 3.52-6.665 4.617-.508.374-.92.667-1.237.876-.317.21-.739.424-1.265.643-.526.218-1.017.328-1.472.328h-.027c-.455 0-.946-.11-1.472-.328-.527-.219-.948-.433-1.265-.643-.317-.21-.73-.502-1.238-.876C6.8 11.59 4.582 10.05 1.352 7.857A7.089 7.089 0 010 6.692v10.626c0 .59.21 1.093.629 1.513.42.42.923.629 1.512.629h19.7c.59 0 1.093-.21 1.513-.63.419-.419.629-.923.629-1.512V6.692a7.38 7.38 0 01-1.339 1.165z" fill="#FFF" fill-rule="nonzero"/></g></svg>