<?xml version="1.0" encoding="UTF-8"?>
<svg width="400px" height="362px" viewBox="0 0 400 362" version="1.1" xmlns="http://www.w3.org/2000/svg" xmlns:xlink="http://www.w3.org/1999/xlink">
    <!-- Generator: sketchtool 55.2 (78181) - https://sketchapp.com -->
    <title>D26C8443-EC55-4A7A-B0DE-DAD4C49B69B2</title>
    <desc>Created with sketchtool.</desc>
    <defs>
        <rect id="path-1" x="0" y="0" width="400" height="353" rx="2"></rect>
        <rect id="path-3" x="0" y="0" width="400" height="362" rx="2"></rect>
        <linearGradient x1="50%" y1="0%" x2="50%" y2="100%" id="linearGradient-5">
            <stop stop-color="#C1E9FD" offset="0%"></stop>
            <stop stop-color="#FFFFFF" offset="100%"></stop>
        </linearGradient>
        <linearGradient x1="50%" y1="35.6730229%" x2="50%" y2="100%" id="linearGradient-6">
            <stop stop-color="#FFFFFF" offset="0%"></stop>
            <stop stop-color="#FFFFFF" stop-opacity="0.158486187" offset="100%"></stop>
        </linearGradient>
        <linearGradient x1="50%" y1="35.6730229%" x2="50%" y2="100%" id="linearGradient-7">
            <stop stop-color="#FFFFFF" offset="0%"></stop>
            <stop stop-color="#FFFFFF" stop-opacity="0.158486187" offset="100%"></stop>
        </linearGradient>
        <linearGradient x1="50%" y1="35.6730229%" x2="50%" y2="100%" id="linearGradient-8">
            <stop stop-color="#FFFFFF" offset="0%"></stop>
            <stop stop-color="#FFFFFF" stop-opacity="0.158486187" offset="100%"></stop>
        </linearGradient>
        <linearGradient x1="68.9780238%" y1="19.9128624%" x2="50%" y2="65.730116%" id="linearGradient-9">
            <stop stop-color="#5CE6C0" offset="0%"></stop>
            <stop stop-color="#14CD9A" offset="100%"></stop>
        </linearGradient>
        <path d="M6.83384428,0.711269298 L25.9082689,9.314371 C34.3354204,13.2039372 43.902411,13.2032624 52.332984,9.31252077 L71.402213,0.712532604 C73.6369816,-0.277990615 76.137344,0.682341337 76.9725566,2.85749405 C77.1874962,3.42063223 77.2756661,4.03221609 77.2315231,4.650995 L74.4891998,34.4365878 C74.1481903,39.2167241 70.3678227,43.0917901 66.0455125,43.0917901 L12.1411885,43.0917901 C7.8188783,43.0917901 4.04230508,39.2167241 3.70597612,34.4365878 L1.00122166,4.64997839 C0.833057179,2.25991027 2.63223151,0.322336594 5.01979001,0.322336594 C5.63771866,0.322336594 6.2564397,0.45498751 6.83384428,0.711269298 Z" id="path-10"></path>
        <linearGradient x1="50%" y1="0.0321931864%" x2="50%" y2="64.1966025%" id="linearGradient-12">
            <stop stop-color="#73E6C6" offset="0.0501478041%"></stop>
            <stop stop-color="#14CD9A" offset="100%"></stop>
        </linearGradient>
        <linearGradient x1="50%" y1="0%" x2="50%" y2="64.1966025%" id="linearGradient-13">
            <stop stop-color="#73E6C6" offset="0%"></stop>
            <stop stop-color="#14CD9A" offset="100%"></stop>
        </linearGradient>
    </defs>
    <g id="Setup-Completing-v5" stroke="none" stroke-width="1" fill="none" fill-rule="evenodd">
        <g id="Setup-completeness-Done-v5" transform="translate(-1441.000000, -64.000000)">
            <g id="popup" transform="translate(1441.000000, 56.000000)">
                <g id="illustration" transform="translate(0.000000, 8.000000)">
                    <mask id="mask-2" fill="white">
                        <use xlink:href="#path-1"></use>
                    </mask>
                    <use id="Mask" fill="#FFFFFF" xlink:href="#path-1"></use>
                    <mask id="mask-4" fill="white">
                        <use xlink:href="#path-3"></use>
                    </mask>
                    <use id="Mask" fill="#FFFFFF" xlink:href="#path-3"></use>
                    <g id="Group-3" mask="url(#mask-4)">
                        <g transform="translate(-111.000000, -220.000000)">
                            <rect id="Rectangle" x="0" y="0" width="580" height="580.992971"></rect>
                            <g id="Artwork" stroke-width="1" fill-rule="evenodd" transform="translate(44.537522, 0.000000)">
                                <g id="sky" transform="translate(0.000000, 115.763331)">
                                    <polygon fill="url(#linearGradient-5)" points="65.8342868 0 470.553263 0 470.553263 465.217123 65.8342868 465.217123"></polygon>
                                    <path d="M410.193353,322.352875 C402.356173,332.602266 388.094993,337.552889 371.801833,337.552889 C350.988374,337.552889 333.490781,329.474258 328.464543,312.591263 C327.627852,312.642943 326.783957,312.669182 325.933682,312.669182 C304.475751,312.669182 287.080661,295.95796 287.080661,275.343623 C287.080661,254.729285 304.475751,238.018063 325.933682,238.018063 C325.985181,238.018063 326.036656,238.018159 326.088108,238.018351 C327.771236,220.419615 343.005025,206.642954 361.548952,206.642954 C372.053866,206.642954 381.496527,211.064005 388.015302,218.096453 C395.978238,210.982161 406.575945,206.642954 418.209609,206.642954 C442.945835,206.642954 462.998509,226.260476 462.998509,250.459916 C462.998509,251.628154 462.951776,252.785714 462.860039,253.930904 C478.232443,260.87209 488.900524,276.085212 488.900524,293.735927 C488.900524,317.935367 468.84785,337.552889 444.111623,337.552889 C430.555826,337.552889 418.40659,331.661369 410.193353,322.352875 Z" id="cloud" fill="url(#linearGradient-6)"></path>
                                    <path d="M298.716332,145.027646 C294.609147,150.398985 287.135373,152.993429 278.596712,152.993429 C267.689124,152.993429 258.519262,148.759708 255.885191,139.911935 C255.446711,139.939018 255.004456,139.95277 254.558858,139.95277 C243.313525,139.95277 234.197381,131.195017 234.197381,120.391781 C234.197381,109.588545 243.313525,100.830792 254.558858,100.830792 C254.585846,100.830792 254.612823,100.830843 254.639787,100.830944 C255.521854,91.6080763 263.505337,84.3882223 273.223545,84.3882223 C278.728793,84.3882223 283.677354,86.7051365 287.09361,90.3905904 C291.266699,86.6622447 296.820578,84.3882223 302.917365,84.3882223 C315.880735,84.3882223 326.389622,94.6690626 326.389622,107.351122 C326.389622,107.963354 326.365131,108.569989 326.317055,109.170142 C334.373181,112.807769 339.96394,120.780421 339.96394,130.030529 C339.96394,142.712588 329.455052,152.993429 316.491682,152.993429 C309.387575,152.993429 303.020596,149.905894 298.716332,145.027646 Z" id="cloud" fill="url(#linearGradient-7)"></path>
                                    <path d="M105.995419,389.571187 C99.2479014,398.395529 86.9695586,402.65783 72.9417581,402.65783 C55.0221487,402.65783 39.9573765,395.702431 35.6299736,381.166804 C34.9096136,381.211299 34.1830516,381.23389 33.4509973,381.23389 C14.9765216,381.23389 0,366.846153 0,349.09798 C0,331.349807 14.9765216,316.96207 33.4509973,316.96207 C33.4953357,316.96207 33.539654,316.962153 33.5839519,316.962319 C35.0330622,301.810465 48.1487843,289.949276 64.1144115,289.949276 C73.1587489,289.949276 81.2885269,293.755636 86.9009477,299.81031 C93.7567373,293.685171 102.880967,289.949276 112.897116,289.949276 C134.194081,289.949276 151.458682,306.839228 151.458682,327.67404 C151.458682,328.679849 151.418447,329.676465 151.339465,330.662431 C164.574529,336.638532 173.759347,349.73646 173.759347,364.933066 C173.759347,385.767878 156.494746,402.65783 135.197781,402.65783 C123.526747,402.65783 113.066709,397.585451 105.995419,389.571187 Z" id="cloud" fill="url(#linearGradient-8)"></path>
                                </g>
                                <g id="ballon" transform="translate(97.132554, 0.000000)">
                                    <g id="Group" transform="translate(153.623022, 430.475640)">
                                        <g id="Group-2-Copy" transform="translate(14.031925, 16.928502) rotate(6.000000) translate(-14.031925, -16.928502) translate(8.464735, 9.830857)" fill="#9FB2C3">
                                            <polygon id="Rectangle-4-Copy" transform="translate(5.115636, 7.196948) rotate(-63.000000) translate(-5.115636, -7.196948) " points="-1.36163456 4.8675909 11.5975308 6.64871649 11.5038501 9.51354779 -1.36625884 9.52630444"></polygon>
                                        </g>
                                        <rect id="Rectangle-8" fill="#FAC1B7" x="4.31700242" y="11.9009031" width="4.31700242" height="6.49140171"></rect>
                                        <path d="M5.18689277,16.7843944 C7.38296008,16.30672 9.97222081,16.8881225 12.954675,18.5286021 C11.7965155,28.1317386 12.0673552,35.582924 13.767194,40.8821582 C7.82293825,43.3430762 3.8272161,42.5411778 1.78002755,38.4764629 C2.05730215,26.3078298 2.19593945,20.2235132 2.19593945,20.2235132 C2.19593945,20.2235132 1.89279179,17.500906 5.18689277,16.7843944 Z" id="Rectangle" fill="#ACBBCA"></path>
                                        <path d="M21.7549432,7.6084302 L24.3992965,8.13436524 C25.8030488,8.41355735 26.8140892,9.64548645 26.8140892,11.0767338 L26.8140892,12.2153182 C26.8140892,13.6952951 25.6143308,14.8950535 24.1343539,14.8950535 C23.8737818,14.8950535 23.6146028,14.8570483 23.3650007,14.7822379 L20.6934376,13.9815212 C19.3998933,13.5938221 18.5248087,12.3896507 18.5555145,11.0396046 L18.5755708,10.1577895 C18.6089875,8.68854827 19.8271326,7.52458257 21.2963738,7.55799936 C21.450402,7.56150262 21.6038349,7.57837629 21.7549432,7.6084302 Z" id="Rectangle-3" fill="#FFFFFF"></path>
                                        <path d="M26.059992,11.5546356 C26.2090054,11.5546356 26.3298047,11.6754348 26.3298047,11.8244483 L26.3298047,12.8735853 C26.3298047,13.0225988 26.2090054,13.143398 26.059992,13.143398 C25.9109786,13.143398 25.7901794,13.0225988 25.7901794,12.8735853 L25.7901794,11.8244483 C25.7901794,11.6754348 25.9109786,11.5546356 26.059992,11.5546356 Z" id="Rectangle-5" fill="#E8EDF0"></path>
                                        <path d="M25.9342586,10.6880379 C26.0934041,10.6880379 26.222417,10.8170509 26.222417,10.9761964 L26.222417,10.9776113 C26.222417,11.1367568 26.0934041,11.2657697 25.9342586,11.2657697 C25.7751131,11.2657697 25.6461002,11.1367568 25.6461002,10.9776113 L25.6461002,10.9761964 C25.6461002,10.8170509 25.7751131,10.6880379 25.9342586,10.6880379 Z" id="Rectangle-5-Copy" fill="#E8EDF0"></path>
                                        <g id="Group-4" transform="translate(20.947081, 11.196852) rotate(23.000000) translate(-20.947081, -11.196852) translate(13.861566, 6.634080)">
                                            <path d="M8.86717617,0.116577332 C8.18204944,0.468927884 7.68172489,1.57980013 7.68172489,2.89567429 C7.68172489,4.49491105 8.42073199,5.79134859 9.33234346,5.79134859 L2.72986917,7.44601961 L2.72986917,1.65467102 L8.86717617,0.116577332 Z M9.33234346,5.87723254e-14 L9.33234346,5.79134859 Z" id="Combined-Shape" fill="#4C4C4C"></path>
                                            <ellipse id="Oval-27" fill="#838383" cx="2.72986917" cy="4.55034532" rx="1.65061857" ry="2.89567429"></ellipse>
                                            <path d="M12.9937226,0.943912844 C12.3085959,1.2962634 11.8082713,2.40713564 11.8082713,3.72300981 C11.8082713,5.32224656 12.5472784,6.6186841 13.4588899,6.6186841 L6.8564156,8.27335512 L6.8564156,2.48200654 L12.9937226,0.943912844 Z M13.4588899,0.827335512 L13.4588899,6.6186841 Z" id="Combined-Shape" fill="#565656"></path>
                                            <ellipse id="Oval-27-Copy" fill="#838383" cx="6.8564156" cy="5.37768083" rx="1.65061857" ry="2.89567429"></ellipse>
                                            <ellipse id="Oval-27-Copy-5" fill="#000000" opacity="0.229110054" cx="2.15924747" cy="4.65232085" rx="1.24371545" ry="2.18184559"></ellipse>
                                            <ellipse id="Oval-27-Copy-4" fill="#000000" opacity="0.229110054" cx="6.3477867" cy="5.2757053" rx="1.24371545" ry="2.18184559"></ellipse>
                                        </g>
                                        <g id="Group-2" transform="translate(17.426449, 18.681315) rotate(4.000000) translate(-17.426449, -18.681315) translate(7.810393, 9.555771)">
                                            <path d="M2.58043914,8.20713767 L14.125514,13.8518714 L12.9307808,16.3074513 C12.4488195,17.2980445 11.301126,17.7672057 10.2655881,17.3969451 L0.350792923,13.8518714 L2.58043914,8.20713767 Z" id="Rectangle-4" fill="#ACBBCA"></path>
                                            <path d="M18.1807964,0.567842856 C19.4336545,1.10632066 19.5457874,2.19738918 18.5171949,3.84104841 C17.0927572,6.11725612 16.8494489,6.85168585 17.7872699,6.04433757 L16.1000427,3.83884626 C16.6137857,3.90448637 16.7323885,3.77993311 16.455851,3.46518649 C16.2505719,3.231544 16.3215367,2.85266505 16.3371382,1.76334564 C16.3371382,1.76334564 16.3371382,1.76334564 16.3371382,1.76334564 C16.3475927,1.03339324 16.9478112,0.450125004 17.6777636,0.460579568 C17.8508456,0.463058493 18.0217554,0.499508982 18.1807884,0.567861279 Z" id="Path-2" fill="#FAC1B7"></path>
                                            <polygon id="Rectangle-4-Copy" fill="#ACBBCA" transform="translate(13.780610, 9.388352) rotate(-63.000000) translate(-13.780610, -9.388352) " points="7.30333971 7.0590046 20.2625051 8.84012309 20.1688244 11.704943 7.29871543 11.7176996"></polygon>
                                        </g>
                                        <ellipse id="Oval-2" fill="#FAC1B7" cx="9.17363013" cy="8.65520228" rx="3.77737711" ry="6.49140171"></ellipse>
                                        <path d="M7.06478997,0.0804788048 C9.40776744,0.0487392137 11.332856,1.92236771 11.3645956,4.26534518 C11.3711162,4.74669215 11.2956712,5.22563847 11.1414476,5.68165659 C9.97935419,9.11890136 9.22893002,11.0740436 8.89017508,11.5470833 C6.79776878,14.2692578 5.27119505,14.6515507 3.52456508,13.2823794 C2.66852572,12.6113359 0.619445651,10.4854665 0.619445651,8.44924684 C0.619445651,7.75928376 0.628771276,7.07859045 0.647422527,6.40716691 C0.744355301,2.91881011 3.57540684,0.127748399 7.06478997,0.0804788048 Z" id="Rectangle-41" fill="#7BCDB6"></path>
                                        <rect id="Rectangle-9" fill="#FF6D6D" x="9.71325543" y="6.49140171" width="1.0792506" height="3.24570086"></rect>
                                    </g>
                                    <g id="Group-2" transform="translate(129.115731, 376.219880)">
                                        <path d="M14.1796925,2.91737851 L14.1796925,91.1763031" id="Line" stroke="#88776D" stroke-width="2" stroke-linecap="square"></path>
                                        <path d="M63.2357835,2.91737851 L63.2357835,91.1763031" id="Line-Copy-3" stroke="#88776D" stroke-width="2" stroke-linecap="square"></path>
                                        <path d="M29.6710897,0.972459505 L29.6710897,40.6411794" id="Line-Copy" stroke="#88776D" stroke-width="2" stroke-linecap="square"></path>
                                        <path d="M45.1624868,0.972459505 L45.1624868,40.6411794" id="Line-Copy-2" stroke="#88776D" stroke-width="2" stroke-linecap="square"></path>
                                        <g id="Rectangle-10" transform="translate(0.000000, 77.896821)">
                                            <mask id="mask-11" fill="white">
                                                <use xlink:href="#path-10"></use>
                                            </mask>
                                            <use id="Mask" fill="url(#linearGradient-9)" xlink:href="#path-10"></use>
                                            <rect fill="#11B386" mask="url(#mask-11)" x="0" y="16.2285043" width="78.7852941" height="6.49140171"></rect>
                                        </g>
                                        <path d="M17.2680097,112.156996 C19.6522243,112.156996 21.5850121,110.219463 21.5850121,107.829395 C21.5850121,106.236016 20.1460113,103.831793 17.2680097,100.616727 C14.3900081,103.831793 12.9510072,106.236016 12.9510072,107.829395 C12.9510072,110.219463 14.8837951,112.156996 17.2680097,112.156996 Z" id="Oval-3" fill="#EDD58E"></path>
                                        <path d="M31.2982675,112.156996 C33.6824821,112.156996 35.6152699,110.219463 35.6152699,107.829395 C35.6152699,106.236016 34.1762691,103.831793 31.2982675,100.616727 C28.4202659,103.831793 26.9812651,106.236016 26.9812651,107.829395 C26.9812651,110.219463 28.9140529,112.156996 31.2982675,112.156996 Z" id="Oval-3-Copy" fill="#EDD58E"></path>
                                        <path d="M46.407776,112.156996 C48.7919906,112.156996 50.7247784,110.219463 50.7247784,107.829395 C50.7247784,106.236016 49.2857776,103.831793 46.407776,100.616727 C43.5297744,103.831793 42.0907736,106.236016 42.0907736,107.829395 C42.0907736,110.219463 44.0235614,112.156996 46.407776,112.156996 Z" id="Oval-3-Copy-2" fill="#EDD58E"></path>
                                        <path d="M61.5172844,112.156996 C63.901499,112.156996 65.8342868,110.219463 65.8342868,107.829395 C65.8342868,106.236016 64.395286,103.831793 61.5172844,100.616727 C58.6392828,103.831793 57.200282,106.236016 57.200282,107.829395 C57.200282,110.219463 59.1330698,112.156996 61.5172844,112.156996 Z" id="Oval-3-Copy-3" fill="#EDD58E"></path>
                                        <path d="M16.4556035,38.2730043 L60.6889801,38.2730043 C62.4815312,38.2730043 63.934681,39.7261541 63.934681,41.5187052 C63.934681,43.3112563 62.4815312,44.764406 60.6889801,44.764406 L16.4556035,44.764406 C14.6630524,44.764406 13.2099026,43.3112563 13.2099026,41.5187052 C13.2099026,39.7261541 14.6630524,38.2730043 16.4556035,38.2730043 Z" id="Rectangle-2" fill="#756660"></path>
                                    </g>
                                    <g id="Group">
                                        <path d="M55.0937097,267.191246 C23.7962354,234.992157 0,192.943991 0,148.676863 C0,54.1517419 72.5597709,2.80793773 166.853391,2.80793773 C261.147011,2.80793773 335.646938,54.1517419 335.646938,148.676863 C335.646938,185.967072 318.458662,221.682658 294.061151,251.2625 C294.191903,251.262428 294.322041,251.262428 294.451621,251.262428 C293.269907,252.504433 292.097896,253.741326 290.935587,254.973107 C286.90641,259.657899 282.700773,264.178129 278.360481,268.514709 C233.510781,317.628595 205.085624,358.08826 193.085009,389.893704 C185.150485,387.300479 177.215962,386.003866 169.281438,386.003866 C161.346915,386.003866 152.648024,387.300479 143.184766,389.893704 C125.766431,356.307585 96.4027458,315.406765 55.0937097,267.191246 Z" id="Combined-Shape" fill="url(#linearGradient-12)"></path>
                                        <path d="M113.276749,5.8790583 C156.078083,-1.57651725 76.0113836,52.5893307 76.0113836,126.339667 C76.0113836,200.090003 129.58612,286.917548 143.225603,356.783198 C130.638682,356.783198 134.45215,356.783198 133.271246,356.783198 C116.77364,296.814993 29.1023356,198.802586 29.1023356,126.339667 C29.1023356,53.8767478 70.4754152,13.3346339 113.276749,5.8790583 Z" id="Rectangle-42-Copy" fill="#FFFFFF"></path>
                                        <path d="M274.309673,5.8790583 C317.111007,-1.57651725 237.044308,52.5893307 237.044308,126.339667 C237.044308,200.090003 290.619044,286.917548 304.258527,356.783198 C291.671606,356.783198 295.485074,356.783198 294.30417,356.783198 C277.806564,296.814993 190.13526,198.802586 190.13526,126.339667 C190.13526,53.8767478 231.508339,13.3346339 274.309673,5.8790583 Z" id="Rectangle-42-Copy-3" fill="#FFFFFF" transform="translate(247.196893, 180.988056) scale(-1, 1) translate(-247.196893, -180.988056) "></path>
                                        <path d="M159.452636,10.5876138 C198.839394,-26.3006188 265.316293,40.8895666 265.316293,117.476454 C265.316293,194.063342 207.006678,286.679411 193.702643,356.783198 C173.502666,356.783198 165.67991,356.783198 140.770814,356.783198 C127.488752,280.945568 72.2708002,192.726409 72.2708002,117.476454 C72.2708002,42.2264998 121.579007,-25.1159405 159.452636,10.5876138 Z" id="Rectangle-42-Copy-2" fill="url(#linearGradient-13)"></path>
                                        <path d="M162.97308,0.863018725 C195.175764,0.863018725 228.938374,52.5893307 228.938374,126.339667 C228.938374,200.090003 194.124148,269.682189 181.077041,356.783198 C168.49012,356.783198 170.091143,356.783198 154.569897,356.783198 C144.080788,276.487994 108.64872,196.857667 108.64872,124.394748 C108.64872,51.9318288 130.770395,0.863018725 162.97308,0.863018725 Z" id="Rectangle-42" fill="#FFFFFF"></path>
                                        <path d="M58.1067816,270.237944 C28.5281183,240.840816 5.00593501,202.689602 0.704507247,161.94846 C33.4947715,217.458857 99.482693,255.379 175.544497,255.379 C237.209935,255.379 292.254012,230.454849 328.354639,191.439844 C318.370075,221.059566 299.064045,248.322614 276.30166,270.54822 C230.651691,320.576597 202.912808,360.358424 193.085009,389.893704 C185.150485,387.412472 177.215962,386.171856 169.281438,386.171856 C161.346915,386.171856 152.648024,387.412472 143.184766,389.893704 C127.552434,358.98511 99.1931126,319.099863 58.1068025,270.237965 Z" id="Combined-Shape" fill="#B1EBFF" opacity="0.25854846" style="mix-blend-mode: multiply;"></path>
                                    </g>
                                </g>
                            </g>
                        </g>
                    </g>
                </g>
            </g>
        </g>
    </g>
</svg>