<?xml version="1.0" encoding="UTF-8"?>
<svg width="50px" height="50px" viewBox="0 0 50 50" version="1.1" xmlns="http://www.w3.org/2000/svg" xmlns:xlink="http://www.w3.org/1999/xlink">
    <!-- Generator: Sketch 54.1 (76490) - https://sketchapp.com -->
    <title>exclamation</title>
    <desc>Created with Sketch.</desc>
    <g id="Mailbox-v4" stroke="none" stroke-width="1" fill="none" fill-rule="evenodd">
        <g id="Settings-mailbox-settings-progress-popup-Copy" transform="translate(-255.000000, -231.000000)" fill="#FFFFFF" fill-rule="nonzero">
            <g id="Group-2" transform="translate(80.000000, 24.000000)">
                <g id="notification-on-click" transform="translate(0.000000, 33.000000)">
                    <g id="exclamation" transform="translate(175.000000, 174.000000)">
                        <g id="Group">
                            <path d="M25,0 C11.1813477,0 0,11.1823242 0,25 C0,38.8186523 11.1823242,50 25,50 C38.8186523,50 50,38.8176758 50,25 C50,11.1813477 38.8176758,0 25,0 Z M25,45.9459459 C13.4222254,45.9459459 4.05405405,36.5769989 4.05405405,25 C4.05405405,13.4222254 13.4230011,4.05405405 25,4.05405405 C36.5777746,4.05405405 45.9459459,13.4230011 45.9459459,25 C45.9459459,36.5777746 36.5769989,45.9459459 25,45.9459459 Z" id="Shape" transform="translate(25.000000, 25.000000) scale(-1, 1) translate(-25.000000, -25.000000) "></path>
                            <path d="M15.2307692,25.4615385 C15.0769231,25.3076923 15,25.0769231 15,24.9230769 C15,24.7692308 15.0769231,24.5384615 15.2307692,24.3846154 L16.3076923,23.3076923 C16.6153846,23 17.0769231,23 17.3846154,23.3076923 L17.4615385,23.3846154 L21.6923077,27.9230769 C21.8461538,28.0769231 22.0769231,28.0769231 22.2307692,27.9230769 L32.5384615,17.2307692 L32.6153846,17.2307692 L32.6153846,17.2307692 C32.9230769,16.9230769 33.3846154,16.9230769 33.6923077,17.2307692 L34.7692308,18.3076923 C35.0769231,18.6153846 35.0769231,19.0769231 34.7692308,19.3846154 L34.7692308,19.3846154 L22.4615385,32.1538462 C22.3076923,32.3076923 22.1538462,32.3846154 21.9230769,32.3846154 C21.6923077,32.3846154 21.5384615,32.3076923 21.3846154,32.1538462 L15.3846154,25.6923077 L15.2307692,25.4615385 Z" id="Path"></path>
                        </g>
                    </g>
                </g>
            </g>
        </g>
    </g>
</svg>