
<svg viewBox="0 0 24 24" xmlns="http://www.w3.org/2000/svg"><path d="M14.404 21.993c.5-.1 1.1.2 1.1.602.1.502-.2 1.104-.7 1.204-.2.1-.5.201-.7.201-.2 0-.5-.1-.7-.2-.2-.101-.4-.302-.4-.603-.1-.502.3-1.004.8-1.104.2 0 .4-.1.6-.1zm7.197-13.048c-.1-.201-.2-.402-.2-.502-.2-.502 0-1.104.5-1.305.5-.2 1.1 0 1.3.502.1.2.2.502.3.702.2.502-.1 1.004-.6 1.205-.3.1-.7.1-.9-.1-.2-.101-.3-.302-.4-.502zm-3.998 11.642c.4-.3 1-.1 1.3.201.3.402.1 1.004-.3 1.305-.2.1-.4.301-.6.401-.3.201-.7.201-1 0l-.3-.3c-.2-.402-.1-1.004.4-1.305.2-.1.3-.201.5-.302zM24 11.654v.703c0 .602-.5 1.004-1 1.004-.2 0-.3-.1-.5-.201-.2-.2-.4-.502-.4-.803v-.602c0-.502.4-1.004.9-1.004.5-.1 1 .402 1 .903zm-2.599 6.424c.4.301.5.904.2 1.405-.2.201-.3.402-.5.603-.3.401-.9.501-1.3.2l-.1-.1c-.399-.402-.399-1.004-.099-1.405.1-.201.3-.301.4-.502.4-.402 1-.502 1.4-.2zm1.4-3.513c.5.1.8.703.5 1.104 0 .201-.1.502-.2.703-.1.502-.7.803-1.2.602-.1 0-.1-.1-.2-.1-.3-.201-.5-.703-.3-1.104.1-.201.1-.402.2-.603.2-.501.7-.803 1.2-.602zm-12.595 7.628c.5.1.9.603.8.904-.1.502-.6.903-1.1.803a11.947 11.947 0 0 1-4.798-2.008c-.5-.401-1-.803-1.499-1.305C1.81 18.881.61 16.573.211 14.063c0-.2-.1-.501-.1-.702-.1-.201-.1-.502-.1-.703-.1-2.51.5-5.018 1.899-7.126.1-.1.2-.301.3-.402 0-.1.1-.1.2-.2v-.1C4.009 2.62 6.408 1.115 9.007.412c.3-.1.6-.2 1-.2 2.998-.603 6.097.1 8.595 1.806l.8-1.104c.2-.301.5-.301.6.1l.9 3.312c.1.302-.1.703-.5.703l-3.299.301c-.4 0-.5-.2-.3-.502l.8-1.104c-3.499-2.308-7.997-2.208-11.295.1-1 .703-1.8 1.506-2.499 2.51-3.199 4.517-2.1 10.94 2.399 14.152.4.2.7.402 1 .602.1.1.3.201.5.301.799.402 1.599.603 2.498.803zm1.2-17.966c.4 0 .8.402.8.803v6.825l6.296 3.312c.3.201.5.703.3 1.105-.1.2-.4.401-.7.401-.2 0-.3 0-.4-.1l-7.096-3.714V5.03c0-.401.4-.803.8-.803z" fill="currentColor" fill-rule="nonzero"></path></svg>