<svg width="24px" height="24px" viewBox="0 0 24 24" version="1.1" xmlns="http://www.w3.org/2000/svg" xmlns:xlink="http://www.w3.org/1999/xlink">
    <g id="Mailbox-v4" stroke="none" stroke-width="1" fill="none" fill-rule="evenodd">
        <g id="delete-tickets-mob-basic-header" transform="translate(-244.000000, -24.000000)" fill="currentColor" fill-rule="nonzero">
            <g id="spinner-of-dots-copy-2" transform="translate(244.000000, 24.000000)">
                <path d="M5.00198914,17.7311344 C4.51641579,17.7311344 4.10378683,17.9010404 3.76393224,18.2408525 C3.42420518,18.5809622 3.25421412,18.9935061 3.25421412,19.4790794 C3.25421412,19.9646953 3.42407765,20.3772392 3.76393224,20.7173489 C4.10391436,21.057161 4.51654331,21.227067 5.00198914,21.227067 C5.47940088,21.227067 5.88994693,21.057161 6.23388232,20.7173489 C6.57769019,20.3776643 6.74959412,19.9646953 6.74959412,19.4790794 C6.74959412,18.9935061 6.5777327,18.5812597 6.23388232,18.2408525 C5.88990442,17.901338 5.47940088,17.7311344 5.00198914,17.7311344 Z" id="Path"></path>
                <path d="M3.7077631,12.3389071 C3.7077631,11.8301738 3.52669746,11.394782 3.16436369,11.0321648 C2.80207042,10.6698715 2.36647614,10.4887654 1.85774285,10.4887654 C1.34896906,10.4887654 0.913455774,10.669912 0.551122007,11.0321648 C0.188869235,11.3944986 0.00776309795,11.8300118 0.00776309795,12.3389071 C0.00776309795,12.8475594 0.188828737,13.2828702 0.551122007,13.645285 C0.913455774,14.0076997 1.34896906,14.1888464 1.85774285,14.1888464 C2.36647614,14.1888464 2.80207042,14.0076997 3.16436369,13.645285 C3.52669746,13.2831132 3.7077631,12.8475594 3.7077631,12.3389071 Z" id="Path"></path>
                <path d="M19.2384146,6.74500228 C19.5131596,6.74500228 19.748943,6.6469416 19.9444952,6.45121425 C20.1403101,6.25531178 20.2384146,6.01983483 20.2384146,5.74491472 C20.2384146,5.46986329 20.1403101,5.23456144 19.9444952,5.03879031 C19.7488116,4.84288784 19.5131596,4.74500228 19.2384146,4.74500228 C18.9633631,4.74500228 18.7278424,4.84306295 18.5320275,5.03879031 C18.3363439,5.23460522 18.2384146,5.46986329 18.2384146,5.74491472 C18.2384146,6.01996616 18.3363439,6.25531178 18.5320275,6.45121425 C18.7278424,6.64711671 18.9633631,6.74500228 19.2384146,6.74500228 Z" id="Path"></path>
                <path d="M4.75504999,3.24672437 C4.20192456,3.24672437 3.73035298,3.44183273 3.34017606,3.83193005 C2.94995934,4.22202736 2.75497039,4.69363874 2.75497039,5.24664477 C2.75497039,5.79984981 2.94995934,6.27126218 3.34017606,6.6615187 C3.73047239,7.05173542 4.20204396,7.24680398 4.75504999,7.24680398 C5.30805602,7.24680398 5.7796674,7.05161601 6.16976471,6.6615187 C6.55986203,6.27126218 6.75497039,5.7997304 6.75497039,5.24664477 C6.75497039,4.69363874 6.55986203,4.22202736 6.16976471,3.83193005 C5.7796674,3.44183273 5.30805602,3.24672437 4.75504999,3.24672437 Z" id="Path"></path>
                <path d="M23.1215396,11.8524742 C22.878496,11.6093394 22.5833131,11.4879089 22.2361276,11.4879089 C21.8886229,11.4879089 21.5934399,11.6093394 21.3503964,11.8524742 C21.1074898,12.0956089 20.9860592,12.3908831 20.9860592,12.7383879 C20.9860592,13.0855277 21.1074898,13.3812124 21.3503964,13.6237998 C21.5935768,13.8670258 21.8886229,13.9884563 22.2361276,13.9884563 C22.5833131,13.9884563 22.8786785,13.8670258 23.1215396,13.6237998 C23.3647655,13.3809387 23.4860592,13.0855277 23.4860592,12.7383879 C23.4860592,12.3910655 23.364948,12.0957458 23.1215396,11.8524742 Z" id="Path"></path>
                <path d="M19.0889608,18.2308702 C18.7191076,18.2308702 18.4017288,18.3633435 18.1364865,18.6285858 C17.8715397,18.8935326 17.7388975,19.2110803 17.7388975,19.5809335 C17.7388975,19.9504912 17.8715397,20.2680389 18.1364865,20.5333234 C18.4017288,20.7985234 18.7191499,20.9308702 19.0889608,20.9308702 C19.4585185,20.9308702 19.7758974,20.7982701 20.0411396,20.5333234 C20.3063819,20.2680811 20.4388975,19.95066 20.4388975,19.5809335 C20.4388975,19.2110803 20.3063819,18.8938703 20.0411396,18.6285858 C19.7759396,18.3633013 19.4585185,18.2308702 19.0889608,18.2308702 Z" id="Path"></path>
                <path d="M11.9945763,20.9776948 C11.5810805,20.9776948 11.2280023,21.124271 10.9352597,21.4168906 C10.6428041,21.7095102 10.4964738,22.0623834 10.4964738,22.4759202 C10.4964738,22.889457 10.6426401,23.2423712 10.9352597,23.5349498 C11.2280023,23.8275694 11.5809165,23.9740227 11.9945763,23.9740227 C12.4081131,23.9740227 12.7610273,23.8275694 13.0536469,23.5349498 C13.3462665,23.2423712 13.4925558,22.889457 13.4925558,22.4759202 C13.4925558,22.0623834 13.3462665,21.7095102 13.0536469,21.4168906 C12.7610273,21.124271 12.4081131,20.9776948 11.9945763,20.9776948 Z" id="Path"></path>
                <path d="M11.7477473,0 C11.1228214,0 10.5913163,0.218652231 10.1537656,0.656161922 C9.71633797,1.09371266 9.49760364,1.62509463 9.49760364,2.25006157 C9.49760364,2.87506955 9.71625588,3.40620525 10.1537656,3.84379703 C10.5913163,4.28122463 11.1226983,4.5 11.7477473,4.5 C12.3729605,4.5 12.9040962,4.28134777 13.3414828,3.84379703 C13.7788693,3.40641048 13.9976036,2.87506955 13.9976036,2.25006157 C13.9976036,1.62513568 13.7788693,1.09387684 13.3414828,0.656161922 C12.9040962,0.218775369 12.3729605,0 11.7477473,0 Z" id="Path"></path>
            </g>
        </g>
    </g>
</svg>