<svg width="18" height="18" xmlns="http://www.w3.org/2000/svg"><g fill="#929395" fill-rule="nonzero" stroke="#979797" stroke-width=".3"><path d="M15.908 5.012a.292.292 0 0 0-.398-.105l-1.421.82a.29.29 0 1 0 .292.501l1.422-.82a.29.29 0 0 0 .105-.396zM15.803 12.596l-1.422-.82a.29.29 0 1 0-.293.502l1.422.82a.29.29 0 1 0 .293-.502zM9.004 14.74a.292.292 0 0 0-.314.312v1.638a.292.292 0 1 0 .584 0v-1.638a.292.292 0 0 0-.27-.313zM3.874 5.726l-1.421-.82a.29.29 0 1 0-.293.502l1.422.82a.29.29 0 1 0 .293-.502zM9.004 1a.292.292 0 0 0-.314.314V2.95a.292.292 0 0 0 .584-.001V1.314A.292.292 0 0 0 9.004 1zM6.2 3.615l-.82-1.418a.292.292 0 0 0-.504.292l.82 1.418a.292.292 0 0 0 .504-.292zM16.959 8.98a.292.292 0 0 0-.27-.27h-1.642a.292.292 0 1 0 0 .582h1.642a.292.292 0 0 0 .27-.313zM2.96 8.711a.29.29 0 0 0-.044 0H1.274a.292.292 0 0 0 0 .583h1.642a.292.292 0 1 0 .043-.583zM8.983 4.717a4.29 4.29 0 0 0-4.296 4.284 4.286 4.286 0 0 0 4.294 4.285 4.29 4.29 0 0 0 4.296-4.284 4.29 4.29 0 0 0-4.294-4.285zm2.623 6.907a3.718 3.718 0 0 1-5.249 0A3.697 3.697 0 0 1 5.27 9.002a3.685 3.685 0 0 1 1.087-2.618v.005a3.718 3.718 0 0 1 5.249 0 3.695 3.695 0 0 1 0 5.235zM13.088 15.515l-.001-.001-.822-1.418a.292.292 0 0 0-.503.292l.821 1.418a.291.291 0 0 0 .505-.29zM12.991 2.092a.292.292 0 0 0-.398.105l-.822 1.418a.29.29 0 0 0 .104.398h.001c.139.08.317.034.398-.104v-.002l.822-1.418a.29.29 0 0 0-.105-.397zM6.096 13.99a.292.292 0 0 0-.398.106l-.822 1.418a.292.292 0 0 0 .503.292l.822-1.418a.29.29 0 0 0-.105-.397zM3.98 11.88a.292.292 0 0 0-.398-.105l-1.422.82a.29.29 0 1 0 .293.502l1.421-.82a.29.29 0 0 0 .106-.397z"/></g></svg>