<svg width="26" height="26" xmlns="http://www.w3.org/2000/svg"><g fill="#ffffff" fill-rule="nonzero"><path d="M24.226 6.519a.474.474 0 0 0-.647-.17l-2.31 1.331a.471.471 0 1 0 .476.816l2.31-1.332a.471.471 0 0 0 .17-.645zM24.055 18.844l-2.31-1.332a.471.471 0 1 0-.476.816l2.31 1.332a.471.471 0 1 0 .476-.816zM13.006 22.326a.475.475 0 0 0-.509.508v2.662a.475.475 0 1 0 .949 0v-2.662a.475.475 0 0 0-.44-.508zM4.67 7.68L2.36 6.348a.471.471 0 1 0-.476.816l2.311 1.332a.471.471 0 1 0 .476-.816zM13.006.001a.475.475 0 0 0-.509.509v2.66a.475.475 0 0 0 .949-.002V.51a.475.475 0 0 0-.44-.509zM8.45 4.25L7.116 1.946a.474.474 0 0 0-.818.474L7.63 4.724a.474.474 0 0 0 .818-.474zM25.933 12.966a.475.475 0 0 0-.439-.438h-2.668a.475.475 0 1 0 0 .946h2.668a.475.475 0 0 0 .44-.508zM3.184 12.53a.47.47 0 0 0-.07 0H.445a.475.475 0 0 0 0 .947h2.667a.475.475 0 1 0 .07-.946zM12.972 6.04c-3.855 0-6.98 3.117-6.98 6.962 0 1.847.735 3.618 2.044 4.924a6.965 6.965 0 0 0 4.934 2.039c3.855 0 6.98-3.116 6.98-6.961S16.827 6.04 12.972 6.04zm4.262 11.224a6.042 6.042 0 0 1-8.529 0 6.008 6.008 0 0 1-1.766-4.261 5.987 5.987 0 0 1 1.766-4.254v.008a6.042 6.042 0 0 1 8.53 0 6.005 6.005 0 0 1 0 8.507zM19.642 23.587l-.001-.002-1.335-2.304a.474.474 0 0 0-.818.474l1.335 2.304a.474.474 0 0 0 .82-.472zM19.486 1.775a.474.474 0 0 0-.647.17L17.504 4.25a.471.471 0 0 0 .168.646h.001a.474.474 0 0 0 .647-.17l.002-.002 1.335-2.304a.471.471 0 0 0-.171-.645zM8.28 21.11a.474.474 0 0 0-.646.17L6.3 23.586a.474.474 0 0 0 .818.474l1.335-2.304a.471.471 0 0 0-.171-.645zM4.842 17.68a.474.474 0 0 0-.647-.17l-2.31 1.331a.471.471 0 1 0 .476.816l2.31-1.332a.471.471 0 0 0 .171-.645z"/></g></svg>