<?xml version="1.0" encoding="UTF-8" standalone="no"?>
<!DOCTYPE svg PUBLIC "-//W3C//DTD SVG 1.1//EN"
 "http://www.w3.org/Graphics/SVG/1.1/DTD/svg11.dtd">
<!-- Generated by graphviz version 2.40.1 (20161225.0304)
 -->
<!-- Title: dependencies Pages: 1 -->
<svg width="504pt" height="284pt"
 viewBox="0.00 0.00 504.00 284.00" xmlns="http://www.w3.org/2000/svg" xmlns:xlink="http://www.w3.org/1999/xlink">
<g id="graph0" class="graph" transform="scale(1 1) rotate(0) translate(4 280)">
<title>dependencies</title>
<polygon fill="#ffffff" stroke="transparent" points="-4,4 -4,-280 500,-280 500,4 -4,4"/>
<text text-anchor="start" x="227.0091" y="-42.4" font-family="sans-serif" font-weight="bold" font-size="14.00" fill="#000000">Legend</text>
<polygon fill="#ffffb3" stroke="transparent" points="14,-10 14,-30 34,-30 34,-10 14,-10"/>
<text text-anchor="start" x="37.629" y="-15.4" font-family="sans-serif" font-size="14.00" fill="#000000"> &#160;Declarations</text>
<polygon fill="#8dd3c7" stroke="transparent" points="127,-10 127,-30 147,-30 147,-10 127,-10"/>
<text text-anchor="start" x="150.7251" y="-15.4" font-family="sans-serif" font-size="14.00" fill="#000000"> &#160;Module</text>
<polygon fill="#80b1d3" stroke="transparent" points="213,-10 213,-30 233,-30 233,-10 213,-10"/>
<text text-anchor="start" x="236.7812" y="-15.4" font-family="sans-serif" font-size="14.00" fill="#000000"> &#160;Bootstrap</text>
<polygon fill="#fdb462" stroke="transparent" points="310,-10 310,-30 330,-30 330,-10 310,-10"/>
<text text-anchor="start" x="333.6732" y="-15.4" font-family="sans-serif" font-size="14.00" fill="#000000"> &#160;Providers</text>
<polygon fill="#fb8072" stroke="transparent" points="406,-10 406,-30 426,-30 426,-10 406,-10"/>
<text text-anchor="start" x="429.7258" y="-15.4" font-family="sans-serif" font-size="14.00" fill="#000000"> &#160;Exports</text>
<g id="clust1" class="cluster">
<title>cluster_ApplicationPipesModule</title>
<polygon fill="none" stroke="#000000" stroke-dasharray="1,5" points="40,-70 40,-268 456,-268 456,-70 40,-70"/>
</g>
<g id="clust2" class="cluster">
<title>cluster_ApplicationPipesModule_declarations</title>
<polygon fill="none" stroke="#000000" points="56,-78 56,-130 442,-130 442,-78 56,-78"/>
</g>
<g id="clust8" class="cluster">
<title>cluster_ApplicationPipesModule_exports</title>
<polygon fill="none" stroke="#000000" points="48,-208 48,-260 448,-260 448,-208 48,-208"/>
</g>
<!-- CircleLetters -->
<g id="node1" class="node">
<title>CircleLetters</title>
<polygon fill="#ffffb3" stroke="#000000" points="433.5758,-122 344.4242,-122 344.4242,-86 433.5758,-86 433.5758,-122"/>
<text text-anchor="middle" x="389" y="-99.8" font-family="Times,serif" font-size="14.00" fill="#000000">CircleLetters</text>
</g>
<!-- ApplicationPipesModule -->
<g id="node5" class="node">
<title>ApplicationPipesModule</title>
<polygon fill="#8dd3c7" stroke="#000000" points="275.9804,-187 272.9804,-191 251.9804,-191 248.9804,-187 120.0196,-187 120.0196,-151 275.9804,-151 275.9804,-187"/>
<text text-anchor="middle" x="198" y="-164.8" font-family="Times,serif" font-size="14.00" fill="#000000">ApplicationPipesModule</text>
</g>
<!-- CircleLetters&#45;&gt;ApplicationPipesModule -->
<g id="edge1" class="edge">
<title>CircleLetters&#45;&gt;ApplicationPipesModule</title>
<path fill="none" stroke="#000000" d="M404.9293,-122.0225C404.9293,-139.3734 404.9293,-163 404.9293,-163 404.9293,-163 286.2311,-163 286.2311,-163"/>
<polygon fill="#000000" stroke="#000000" points="286.2311,-159.5001 276.2311,-163 286.2311,-166.5001 286.2311,-159.5001"/>
</g>
<!-- CutString -->
<g id="node2" class="node">
<title>CutString</title>
<polygon fill="#ffffb3" stroke="#000000" points="326.4531,-122 255.5469,-122 255.5469,-86 326.4531,-86 326.4531,-122"/>
<text text-anchor="middle" x="291" y="-99.8" font-family="Times,serif" font-size="14.00" fill="#000000">CutString</text>
</g>
<!-- CutString&#45;&gt;ApplicationPipesModule -->
<g id="edge2" class="edge">
<title>CutString&#45;&gt;ApplicationPipesModule</title>
<path fill="none" stroke="#000000" d="M265.8822,-122.1061C265.8822,-122.1061 265.8822,-140.991 265.8822,-140.991"/>
<polygon fill="#000000" stroke="#000000" points="262.3823,-140.9909 265.8822,-150.991 269.3823,-140.991 262.3823,-140.9909"/>
</g>
<!-- SanitizePipe -->
<g id="node3" class="node">
<title>SanitizePipe</title>
<polygon fill="#ffffb3" stroke="#000000" points="237.986,-122 152.014,-122 152.014,-86 237.986,-86 237.986,-122"/>
<text text-anchor="middle" x="195" y="-99.8" font-family="Times,serif" font-size="14.00" fill="#000000">SanitizePipe</text>
</g>
<!-- SanitizePipe&#45;&gt;ApplicationPipesModule -->
<g id="edge3" class="edge">
<title>SanitizePipe&#45;&gt;ApplicationPipesModule</title>
<path fill="none" stroke="#000000" d="M195,-122.1061C195,-122.1061 195,-140.991 195,-140.991"/>
<polygon fill="#000000" stroke="#000000" points="191.5001,-140.9909 195,-150.991 198.5001,-140.991 191.5001,-140.9909"/>
</g>
<!-- TimePipe -->
<g id="node4" class="node">
<title>TimePipe</title>
<polygon fill="#ffffb3" stroke="#000000" points="134.4376,-122 63.5624,-122 63.5624,-86 134.4376,-86 134.4376,-122"/>
<text text-anchor="middle" x="99" y="-99.8" font-family="Times,serif" font-size="14.00" fill="#000000">TimePipe</text>
</g>
<!-- TimePipe&#45;&gt;ApplicationPipesModule -->
<g id="edge4" class="edge">
<title>TimePipe&#45;&gt;ApplicationPipesModule</title>
<path fill="none" stroke="#000000" d="M127.114,-122.1061C127.114,-122.1061 127.114,-140.991 127.114,-140.991"/>
<polygon fill="#000000" stroke="#000000" points="123.614,-140.9909 127.114,-150.991 130.614,-140.991 123.614,-140.9909"/>
</g>
<!-- CircleLetters  -->
<g id="node6" class="node">
<title>CircleLetters </title>
<polygon fill="#fb8072" stroke="#000000" points="440.0768,-252 347.9232,-252 347.9232,-216 440.0768,-216 440.0768,-252"/>
<text text-anchor="middle" x="394" y="-229.8" font-family="Times,serif" font-size="14.00" fill="#000000">CircleLetters </text>
</g>
<!-- ApplicationPipesModule&#45;&gt;CircleLetters  -->
<g id="edge5" class="edge">
<title>ApplicationPipesModule&#45;&gt;CircleLetters </title>
<path fill="none" stroke="#000000" stroke-dasharray="5,2" d="M276.2141,-175C324.1266,-175 376.3207,-175 376.3207,-175 376.3207,-175 376.3207,-205.9775 376.3207,-205.9775"/>
<polygon fill="#000000" stroke="#000000" points="372.8208,-205.9774 376.3207,-215.9775 379.8208,-205.9775 372.8208,-205.9774"/>
</g>
<!-- CutString  -->
<g id="node7" class="node">
<title>CutString </title>
<polygon fill="#fb8072" stroke="#000000" points="329.9516,-252 256.0484,-252 256.0484,-216 329.9516,-216 329.9516,-252"/>
<text text-anchor="middle" x="293" y="-229.8" font-family="Times,serif" font-size="14.00" fill="#000000">CutString </text>
</g>
<!-- ApplicationPipesModule&#45;&gt;CutString  -->
<g id="edge6" class="edge">
<title>ApplicationPipesModule&#45;&gt;CutString </title>
<path fill="none" stroke="#000000" stroke-dasharray="5,2" d="M266.0072,-187.1061C266.0072,-187.1061 266.0072,-205.991 266.0072,-205.991"/>
<polygon fill="#000000" stroke="#000000" points="262.5073,-205.9909 266.0072,-215.991 269.5073,-205.991 262.5073,-205.9909"/>
</g>
<!-- SanitizePipe  -->
<g id="node8" class="node">
<title>SanitizePipe </title>
<polygon fill="#fb8072" stroke="#000000" points="237.9873,-252 148.0127,-252 148.0127,-216 237.9873,-216 237.9873,-252"/>
<text text-anchor="middle" x="193" y="-229.8" font-family="Times,serif" font-size="14.00" fill="#000000">SanitizePipe </text>
</g>
<!-- ApplicationPipesModule&#45;&gt;SanitizePipe  -->
<g id="edge7" class="edge">
<title>ApplicationPipesModule&#45;&gt;SanitizePipe </title>
<path fill="none" stroke="#000000" stroke-dasharray="5,2" d="M193,-187.1061C193,-187.1061 193,-205.991 193,-205.991"/>
<polygon fill="#000000" stroke="#000000" points="189.5001,-205.9909 193,-215.991 196.5001,-205.991 189.5001,-205.9909"/>
</g>
<!-- TimePipe  -->
<g id="node9" class="node">
<title>TimePipe </title>
<polygon fill="#fb8072" stroke="#000000" points="129.9362,-252 56.0638,-252 56.0638,-216 129.9362,-216 129.9362,-252"/>
<text text-anchor="middle" x="93" y="-229.8" font-family="Times,serif" font-size="14.00" fill="#000000">TimePipe </text>
</g>
<!-- ApplicationPipesModule&#45;&gt;TimePipe  -->
<g id="edge8" class="edge">
<title>ApplicationPipesModule&#45;&gt;TimePipe </title>
<path fill="none" stroke="#000000" stroke-dasharray="5,2" d="M124.989,-187.1061C124.989,-187.1061 124.989,-205.991 124.989,-205.991"/>
<polygon fill="#000000" stroke="#000000" points="121.489,-205.9909 124.989,-215.991 128.489,-205.991 121.489,-205.9909"/>
</g>
</g>
</svg>
