<?xml version="1.0" encoding="UTF-8" standalone="no"?>
<!DOCTYPE svg PUBLIC "-//W3C//DTD SVG 1.1//EN"
 "http://www.w3.org/Graphics/SVG/1.1/DTD/svg11.dtd">
<!-- Generated by graphviz version 2.40.1 (20161225.0304)
 -->
<!-- Title: dependencies Pages: 1 -->
<svg width="1226pt" height="211pt"
 viewBox="0.00 0.00 1226.00 211.00" xmlns="http://www.w3.org/2000/svg" xmlns:xlink="http://www.w3.org/1999/xlink">
<g id="graph0" class="graph" transform="scale(1 1) rotate(0) translate(4 207)">
<title>dependencies</title>
<polygon fill="#ffffff" stroke="transparent" points="-4,4 -4,-207 1222,-207 1222,4 -4,4"/>
<text text-anchor="start" x="588.0091" y="-42.4" font-family="sans-serif" font-weight="bold" font-size="14.00" fill="#000000">Legend</text>
<polygon fill="#ffffb3" stroke="transparent" points="375,-10 375,-30 395,-30 395,-10 375,-10"/>
<text text-anchor="start" x="398.629" y="-15.4" font-family="sans-serif" font-size="14.00" fill="#000000"> &#160;Declarations</text>
<polygon fill="#8dd3c7" stroke="transparent" points="488,-10 488,-30 508,-30 508,-10 488,-10"/>
<text text-anchor="start" x="511.7251" y="-15.4" font-family="sans-serif" font-size="14.00" fill="#000000"> &#160;Module</text>
<polygon fill="#80b1d3" stroke="transparent" points="574,-10 574,-30 594,-30 594,-10 574,-10"/>
<text text-anchor="start" x="597.7812" y="-15.4" font-family="sans-serif" font-size="14.00" fill="#000000"> &#160;Bootstrap</text>
<polygon fill="#fdb462" stroke="transparent" points="671,-10 671,-30 691,-30 691,-10 671,-10"/>
<text text-anchor="start" x="694.6732" y="-15.4" font-family="sans-serif" font-size="14.00" fill="#000000"> &#160;Providers</text>
<polygon fill="#fb8072" stroke="transparent" points="767,-10 767,-30 787,-30 787,-10 767,-10"/>
<text text-anchor="start" x="790.7258" y="-15.4" font-family="sans-serif" font-size="14.00" fill="#000000"> &#160;Exports</text>
<g id="clust1" class="cluster">
<title>cluster_TicketDtoModule</title>
<polygon fill="none" stroke="#000000" stroke-dasharray="1,5" points="8,-70 8,-195 1210,-195 1210,-70 8,-70"/>
</g>
<g id="clust6" class="cluster">
<title>cluster_TicketDtoModule_providers</title>
<polygon fill="none" stroke="#000000" points="16,-78 16,-130 1202,-130 1202,-78 16,-78"/>
</g>
<!-- AssignedUser -->
<g id="node1" class="node">
<title>AssignedUser</title>
<ellipse fill="#fdb462" stroke="#000000" cx="1129" cy="-104" rx="65.4072" ry="18"/>
<text text-anchor="middle" x="1129" y="-99.8" font-family="Times,serif" font-size="14.00" fill="#000000">AssignedUser</text>
</g>
<!-- TicketDtoModule -->
<g id="node9" class="node">
<title>TicketDtoModule</title>
<polygon fill="#8dd3c7" stroke="#000000" points="657.3104,-187 654.3104,-191 633.3104,-191 630.3104,-187 540.6896,-187 540.6896,-151 657.3104,-151 657.3104,-187"/>
<text text-anchor="middle" x="599" y="-164.8" font-family="Times,serif" font-size="14.00" fill="#000000">TicketDtoModule</text>
</g>
<!-- AssignedUser&#45;&gt;TicketDtoModule -->
<g id="edge1" class="edge">
<title>AssignedUser&#45;&gt;TicketDtoModule</title>
<path fill="none" stroke="#000000" d="M1129,-122.2921C1129,-144.2057 1129,-178 1129,-178 1129,-178 667.2354,-178 667.2354,-178"/>
<polygon fill="#000000" stroke="#000000" points="667.2354,-174.5001 657.2354,-178 667.2353,-181.5001 667.2354,-174.5001"/>
</g>
<!-- CustomerTickets -->
<g id="node2" class="node">
<title>CustomerTickets</title>
<ellipse fill="#fdb462" stroke="#000000" cx="969" cy="-104" rx="77.0216" ry="18"/>
<text text-anchor="middle" x="969" y="-99.8" font-family="Times,serif" font-size="14.00" fill="#000000">CustomerTickets</text>
</g>
<!-- CustomerTickets&#45;&gt;TicketDtoModule -->
<g id="edge2" class="edge">
<title>CustomerTickets&#45;&gt;TicketDtoModule</title>
<path fill="none" stroke="#000000" d="M969,-122.1061C969,-141.3391 969,-169 969,-169 969,-169 667.2195,-169 667.2195,-169"/>
<polygon fill="#000000" stroke="#000000" points="667.2196,-165.5001 657.2195,-169 667.2195,-172.5001 667.2196,-165.5001"/>
</g>
<!-- IndividualHistory -->
<g id="node3" class="node">
<title>IndividualHistory</title>
<ellipse fill="#fdb462" stroke="#000000" cx="794" cy="-104" rx="79.8953" ry="18"/>
<text text-anchor="middle" x="794" y="-99.8" font-family="Times,serif" font-size="14.00" fill="#000000">IndividualHistory</text>
</g>
<!-- IndividualHistory&#45;&gt;TicketDtoModule -->
<g id="edge3" class="edge">
<title>IndividualHistory&#45;&gt;TicketDtoModule</title>
<path fill="none" stroke="#000000" d="M794,-122.027C794,-138.3976 794,-160 794,-160 794,-160 667.2423,-160 667.2423,-160"/>
<polygon fill="#000000" stroke="#000000" points="667.2423,-156.5001 657.2423,-160 667.2423,-163.5001 667.2423,-156.5001"/>
</g>
<!-- Ticket -->
<g id="node4" class="node">
<title>Ticket</title>
<ellipse fill="#fdb462" stroke="#000000" cx="661" cy="-104" rx="35.9115" ry="18"/>
<text text-anchor="middle" x="661" y="-99.8" font-family="Times,serif" font-size="14.00" fill="#000000">Ticket</text>
</g>
<!-- Ticket&#45;&gt;TicketDtoModule -->
<g id="edge4" class="edge">
<title>Ticket&#45;&gt;TicketDtoModule</title>
<path fill="none" stroke="#000000" d="M641.2249,-119.0757C641.2249,-119.0757 641.2249,-140.7642 641.2249,-140.7642"/>
<polygon fill="#000000" stroke="#000000" points="637.725,-140.7642 641.2249,-150.7642 644.725,-140.7642 637.725,-140.7642"/>
</g>
<!-- TicketTimeline -->
<g id="node5" class="node">
<title>TicketTimeline</title>
<ellipse fill="#fdb462" stroke="#000000" cx="537" cy="-104" rx="70.6393" ry="18"/>
<text text-anchor="middle" x="537" y="-99.8" font-family="Times,serif" font-size="14.00" fill="#000000">TicketTimeline</text>
</g>
<!-- TicketTimeline&#45;&gt;TicketDtoModule -->
<g id="edge5" class="edge">
<title>TicketTimeline&#45;&gt;TicketDtoModule</title>
<path fill="none" stroke="#000000" d="M574.2073,-119.4041C574.2073,-119.4041 574.2073,-140.9397 574.2073,-140.9397"/>
<polygon fill="#000000" stroke="#000000" points="570.7074,-140.9397 574.2073,-150.9397 577.7074,-140.9398 570.7074,-140.9397"/>
</g>
<!-- Tickets -->
<g id="node6" class="node">
<title>Tickets</title>
<ellipse fill="#fdb462" stroke="#000000" cx="409" cy="-104" rx="39.4216" ry="18"/>
<text text-anchor="middle" x="409" y="-99.8" font-family="Times,serif" font-size="14.00" fill="#000000">Tickets</text>
</g>
<!-- Tickets&#45;&gt;TicketDtoModule -->
<g id="edge6" class="edge">
<title>Tickets&#45;&gt;TicketDtoModule</title>
<path fill="none" stroke="#000000" d="M409,-122.027C409,-138.3976 409,-160 409,-160 409,-160 530.7025,-160 530.7025,-160"/>
<polygon fill="#000000" stroke="#000000" points="530.7025,-163.5001 540.7025,-160 530.7025,-156.5001 530.7025,-163.5001"/>
</g>
<!-- TicketsHistory -->
<g id="node7" class="node">
<title>TicketsHistory</title>
<ellipse fill="#fdb462" stroke="#000000" cx="283" cy="-104" rx="68.3536" ry="18"/>
<text text-anchor="middle" x="283" y="-99.8" font-family="Times,serif" font-size="14.00" fill="#000000">TicketsHistory</text>
</g>
<!-- TicketsHistory&#45;&gt;TicketDtoModule -->
<g id="edge7" class="edge">
<title>TicketsHistory&#45;&gt;TicketDtoModule</title>
<path fill="none" stroke="#000000" d="M283,-122.1061C283,-141.3391 283,-169 283,-169 283,-169 530.6725,-169 530.6725,-169"/>
<polygon fill="#000000" stroke="#000000" points="530.6725,-172.5001 540.6725,-169 530.6724,-165.5001 530.6725,-172.5001"/>
</g>
<!-- TicketsNotification -->
<g id="node8" class="node">
<title>TicketsNotification</title>
<ellipse fill="#fdb462" stroke="#000000" cx="110" cy="-104" rx="86.2483" ry="18"/>
<text text-anchor="middle" x="110" y="-99.8" font-family="Times,serif" font-size="14.00" fill="#000000">TicketsNotification</text>
</g>
<!-- TicketsNotification&#45;&gt;TicketDtoModule -->
<g id="edge8" class="edge">
<title>TicketsNotification&#45;&gt;TicketDtoModule</title>
<path fill="none" stroke="#000000" d="M110,-122.2921C110,-144.2057 110,-178 110,-178 110,-178 530.5009,-178 530.5009,-178"/>
<polygon fill="#000000" stroke="#000000" points="530.5009,-181.5001 540.5009,-178 530.5009,-174.5001 530.5009,-181.5001"/>
</g>
</g>
</svg>
