<?xml version="1.0" encoding="UTF-8" standalone="no"?>
<!DOCTYPE svg PUBLIC "-//W3C//DTD SVG 1.1//EN"
 "http://www.w3.org/Graphics/SVG/1.1/DTD/svg11.dtd">
<!-- Generated by graphviz version 2.40.1 (20161225.0304)
 -->
<!-- Title: dependencies Pages: 1 -->
<svg width="813pt" height="284pt"
 viewBox="0.00 0.00 813.00 284.00" xmlns="http://www.w3.org/2000/svg" xmlns:xlink="http://www.w3.org/1999/xlink">
<g id="graph0" class="graph" transform="scale(1 1) rotate(0) translate(4 280)">
<title>dependencies</title>
<polygon fill="#ffffff" stroke="transparent" points="-4,4 -4,-280 809,-280 809,4 -4,4"/>
<text text-anchor="start" x="381.5091" y="-42.4" font-family="sans-serif" font-weight="bold" font-size="14.00" fill="#000000">Legend</text>
<polygon fill="#ffffb3" stroke="transparent" points="168.5,-10 168.5,-30 188.5,-30 188.5,-10 168.5,-10"/>
<text text-anchor="start" x="192.129" y="-15.4" font-family="sans-serif" font-size="14.00" fill="#000000"> &#160;Declarations</text>
<polygon fill="#8dd3c7" stroke="transparent" points="281.5,-10 281.5,-30 301.5,-30 301.5,-10 281.5,-10"/>
<text text-anchor="start" x="305.2251" y="-15.4" font-family="sans-serif" font-size="14.00" fill="#000000"> &#160;Module</text>
<polygon fill="#80b1d3" stroke="transparent" points="367.5,-10 367.5,-30 387.5,-30 387.5,-10 367.5,-10"/>
<text text-anchor="start" x="391.2812" y="-15.4" font-family="sans-serif" font-size="14.00" fill="#000000"> &#160;Bootstrap</text>
<polygon fill="#fdb462" stroke="transparent" points="464.5,-10 464.5,-30 484.5,-30 484.5,-10 464.5,-10"/>
<text text-anchor="start" x="488.1732" y="-15.4" font-family="sans-serif" font-size="14.00" fill="#000000"> &#160;Providers</text>
<polygon fill="#fb8072" stroke="transparent" points="560.5,-10 560.5,-30 580.5,-30 580.5,-10 560.5,-10"/>
<text text-anchor="start" x="584.2258" y="-15.4" font-family="sans-serif" font-size="14.00" fill="#000000"> &#160;Exports</text>
<g id="clust1" class="cluster">
<title>cluster_NgObjectPipesModule</title>
<polygon fill="none" stroke="#000000" stroke-dasharray="1,5" points="8,-70 8,-268 797,-268 797,-70 8,-70"/>
</g>
<g id="clust2" class="cluster">
<title>cluster_NgObjectPipesModule_declarations</title>
<polygon fill="none" stroke="#000000" points="33,-78 33,-130 779,-130 779,-78 33,-78"/>
</g>
<g id="clust12" class="cluster">
<title>cluster_NgObjectPipesModule_exports</title>
<polygon fill="none" stroke="#000000" points="16,-208 16,-260 789,-260 789,-208 16,-208"/>
</g>
<!-- DiffObjPipe -->
<g id="node1" class="node">
<title>DiffObjPipe</title>
<polygon fill="#ffffb3" stroke="#000000" points="770.7036,-122 685.2964,-122 685.2964,-86 770.7036,-86 770.7036,-122"/>
<text text-anchor="middle" x="728" y="-99.8" font-family="Times,serif" font-size="14.00" fill="#000000">DiffObjPipe</text>
</g>
<!-- NgObjectPipesModule -->
<g id="node9" class="node">
<title>NgObjectPipesModule</title>
<polygon fill="#8dd3c7" stroke="#000000" points="422.3061,-187 419.3061,-191 398.3061,-191 395.3061,-187 277.6939,-187 277.6939,-151 422.3061,-151 422.3061,-187"/>
<text text-anchor="middle" x="350" y="-164.8" font-family="Times,serif" font-size="14.00" fill="#000000">NgObjectPipesModule</text>
</g>
<!-- DiffObjPipe&#45;&gt;NgObjectPipesModule -->
<g id="edge1" class="edge">
<title>DiffObjPipe&#45;&gt;NgObjectPipesModule</title>
<path fill="none" stroke="#000000" d="M689.0233,-122.2222C689.0233,-140.8285 689.0233,-167 689.0233,-167 689.0233,-167 432.3132,-167 432.3132,-167"/>
<polygon fill="#000000" stroke="#000000" points="432.3132,-163.5001 422.3132,-167 432.3131,-170.5001 432.3132,-163.5001"/>
</g>
<!-- InvertByPipe -->
<g id="node2" class="node">
<title>InvertByPipe</title>
<polygon fill="#ffffb3" stroke="#000000" points="667.1515,-122 576.8485,-122 576.8485,-86 667.1515,-86 667.1515,-122"/>
<text text-anchor="middle" x="622" y="-99.8" font-family="Times,serif" font-size="14.00" fill="#000000">InvertByPipe</text>
</g>
<!-- InvertByPipe&#45;&gt;NgObjectPipesModule -->
<g id="edge2" class="edge">
<title>InvertByPipe&#45;&gt;NgObjectPipesModule</title>
<path fill="none" stroke="#000000" d="M638.5251,-122.0336C638.5251,-139.0597 638.5251,-162 638.5251,-162 638.5251,-162 432.4347,-162 432.4347,-162"/>
<polygon fill="#000000" stroke="#000000" points="432.4347,-158.5001 422.4347,-162 432.4346,-165.5001 432.4347,-158.5001"/>
</g>
<!-- InvertPipe -->
<g id="node3" class="node">
<title>InvertPipe</title>
<polygon fill="#ffffb3" stroke="#000000" points="559.3149,-122 484.6851,-122 484.6851,-86 559.3149,-86 559.3149,-122"/>
<text text-anchor="middle" x="522" y="-99.8" font-family="Times,serif" font-size="14.00" fill="#000000">InvertPipe</text>
</g>
<!-- InvertPipe&#45;&gt;NgObjectPipesModule -->
<g id="edge3" class="edge">
<title>InvertPipe&#45;&gt;NgObjectPipesModule</title>
<path fill="none" stroke="#000000" d="M534.469,-122.2396C534.469,-137.5706 534.469,-157 534.469,-157 534.469,-157 432.3776,-157 432.3776,-157"/>
<polygon fill="#000000" stroke="#000000" points="432.3776,-153.5001 422.3776,-157 432.3776,-160.5001 432.3776,-153.5001"/>
</g>
<!-- KeysPipe -->
<g id="node4" class="node">
<title>KeysPipe</title>
<polygon fill="#ffffb3" stroke="#000000" points="466.6545,-122 397.3455,-122 397.3455,-86 466.6545,-86 466.6545,-122"/>
<text text-anchor="middle" x="432" y="-99.8" font-family="Times,serif" font-size="14.00" fill="#000000">KeysPipe</text>
</g>
<!-- KeysPipe&#45;&gt;NgObjectPipesModule -->
<g id="edge4" class="edge">
<title>KeysPipe&#45;&gt;NgObjectPipesModule</title>
<path fill="none" stroke="#000000" d="M409.6631,-122.1061C409.6631,-122.1061 409.6631,-140.991 409.6631,-140.991"/>
<polygon fill="#000000" stroke="#000000" points="406.1631,-140.9909 409.6631,-150.991 413.1631,-140.991 406.1631,-140.9909"/>
</g>
<!-- OmitPipe -->
<g id="node5" class="node">
<title>OmitPipe</title>
<polygon fill="#ffffb3" stroke="#000000" points="378.667,-122 309.333,-122 309.333,-86 378.667,-86 378.667,-122"/>
<text text-anchor="middle" x="344" y="-99.8" font-family="Times,serif" font-size="14.00" fill="#000000">OmitPipe</text>
</g>
<!-- OmitPipe&#45;&gt;NgObjectPipesModule -->
<g id="edge5" class="edge">
<title>OmitPipe&#45;&gt;NgObjectPipesModule</title>
<path fill="none" stroke="#000000" d="M344,-122.1061C344,-122.1061 344,-140.991 344,-140.991"/>
<polygon fill="#000000" stroke="#000000" points="340.5001,-140.9909 344,-150.991 347.5001,-140.991 340.5001,-140.9909"/>
</g>
<!-- PairsPipe -->
<g id="node6" class="node">
<title>PairsPipe</title>
<polygon fill="#ffffb3" stroke="#000000" points="291.3809,-122 222.6191,-122 222.6191,-86 291.3809,-86 291.3809,-122"/>
<text text-anchor="middle" x="257" y="-99.8" font-family="Times,serif" font-size="14.00" fill="#000000">PairsPipe</text>
</g>
<!-- PairsPipe&#45;&gt;NgObjectPipesModule -->
<g id="edge6" class="edge">
<title>PairsPipe&#45;&gt;NgObjectPipesModule</title>
<path fill="none" stroke="#000000" d="M284.6438,-122.1061C284.6438,-122.1061 284.6438,-140.991 284.6438,-140.991"/>
<polygon fill="#000000" stroke="#000000" points="281.1438,-140.9909 284.6438,-150.991 288.1438,-140.991 281.1438,-140.9909"/>
</g>
<!-- PickPipe -->
<g id="node7" class="node">
<title>PickPipe</title>
<polygon fill="#ffffb3" stroke="#000000" points="204.776,-122 139.224,-122 139.224,-86 204.776,-86 204.776,-122"/>
<text text-anchor="middle" x="172" y="-99.8" font-family="Times,serif" font-size="14.00" fill="#000000">PickPipe</text>
</g>
<!-- PickPipe&#45;&gt;NgObjectPipesModule -->
<g id="edge7" class="edge">
<title>PickPipe&#45;&gt;NgObjectPipesModule</title>
<path fill="none" stroke="#000000" d="M199.7628,-122.0091C199.7628,-138.0494 199.7628,-159 199.7628,-159 199.7628,-159 267.5218,-159 267.5218,-159"/>
<polygon fill="#000000" stroke="#000000" points="267.5218,-162.5001 277.5218,-159 267.5218,-155.5001 267.5218,-162.5001"/>
</g>
<!-- ValuesPipe -->
<g id="node8" class="node">
<title>ValuesPipe</title>
<polygon fill="#ffffb3" stroke="#000000" points="120.7592,-122 41.2408,-122 41.2408,-86 120.7592,-86 120.7592,-122"/>
<text text-anchor="middle" x="81" y="-99.8" font-family="Times,serif" font-size="14.00" fill="#000000">ValuesPipe</text>
</g>
<!-- ValuesPipe&#45;&gt;NgObjectPipesModule -->
<g id="edge8" class="edge">
<title>ValuesPipe&#45;&gt;NgObjectPipesModule</title>
<path fill="none" stroke="#000000" d="M114.2544,-122.2667C114.2544,-140.5552 114.2544,-166 114.2544,-166 114.2544,-166 267.6664,-166 267.6664,-166"/>
<polygon fill="#000000" stroke="#000000" points="267.6665,-169.5001 277.6664,-166 267.6664,-162.5001 267.6665,-169.5001"/>
</g>
<!-- DiffObjPipe  -->
<g id="node10" class="node">
<title>DiffObjPipe </title>
<polygon fill="#fb8072" stroke="#000000" points="781.2039,-252 692.7961,-252 692.7961,-216 781.2039,-216 781.2039,-252"/>
<text text-anchor="middle" x="737" y="-229.8" font-family="Times,serif" font-size="14.00" fill="#000000">DiffObjPipe </text>
</g>
<!-- NgObjectPipesModule&#45;&gt;DiffObjPipe  -->
<g id="edge9" class="edge">
<title>NgObjectPipesModule&#45;&gt;DiffObjPipe </title>
<path fill="none" stroke="#000000" stroke-dasharray="5,2" d="M422.2294,-172C532.8665,-172 731.625,-172 731.625,-172 731.625,-172 731.625,-205.7333 731.625,-205.7333"/>
<polygon fill="#000000" stroke="#000000" points="728.1251,-205.7333 731.625,-215.7333 735.1251,-205.7333 728.1251,-205.7333"/>
</g>
<!-- InvertByPipe  -->
<g id="node11" class="node">
<title>InvertByPipe </title>
<polygon fill="#fb8072" stroke="#000000" points="675.1509,-252 580.8491,-252 580.8491,-216 675.1509,-216 675.1509,-252"/>
<text text-anchor="middle" x="628" y="-229.8" font-family="Times,serif" font-size="14.00" fill="#000000">InvertByPipe </text>
</g>
<!-- NgObjectPipesModule&#45;&gt;InvertByPipe  -->
<g id="edge10" class="edge">
<title>NgObjectPipesModule&#45;&gt;InvertByPipe </title>
<path fill="none" stroke="#000000" stroke-dasharray="5,2" d="M422.3479,-177C499.1983,-177 609.7249,-177 609.7249,-177 609.7249,-177 609.7249,-205.9648 609.7249,-205.9648"/>
<polygon fill="#000000" stroke="#000000" points="606.225,-205.9648 609.7249,-215.9648 613.225,-205.9649 606.225,-205.9648"/>
</g>
<!-- InvertPipe  -->
<g id="node12" class="node">
<title>InvertPipe </title>
<polygon fill="#fb8072" stroke="#000000" points="562.8144,-252 485.1856,-252 485.1856,-216 562.8144,-216 562.8144,-252"/>
<text text-anchor="middle" x="524" y="-229.8" font-family="Times,serif" font-size="14.00" fill="#000000">InvertPipe </text>
</g>
<!-- NgObjectPipesModule&#45;&gt;InvertPipe  -->
<g id="edge11" class="edge">
<title>NgObjectPipesModule&#45;&gt;InvertPipe </title>
<path fill="none" stroke="#000000" stroke-dasharray="5,2" d="M422.4105,-182C464.6865,-182 509.781,-182 509.781,-182 509.781,-182 509.781,-205.8129 509.781,-205.8129"/>
<polygon fill="#000000" stroke="#000000" points="506.2811,-205.8129 509.781,-215.8129 513.2811,-205.813 506.2811,-205.8129"/>
</g>
<!-- KeysPipe  -->
<g id="node13" class="node">
<title>KeysPipe </title>
<polygon fill="#fb8072" stroke="#000000" points="467.6538,-252 394.3462,-252 394.3462,-216 467.6538,-216 467.6538,-252"/>
<text text-anchor="middle" x="431" y="-229.8" font-family="Times,serif" font-size="14.00" fill="#000000">KeysPipe </text>
</g>
<!-- NgObjectPipesModule&#45;&gt;KeysPipe  -->
<g id="edge12" class="edge">
<title>NgObjectPipesModule&#45;&gt;KeysPipe </title>
<path fill="none" stroke="#000000" stroke-dasharray="5,2" d="M408.2881,-187.1061C408.2881,-187.1061 408.2881,-205.991 408.2881,-205.991"/>
<polygon fill="#000000" stroke="#000000" points="404.7881,-205.9909 408.2881,-215.991 411.7881,-205.991 404.7881,-205.9909"/>
</g>
<!-- OmitPipe  -->
<g id="node14" class="node">
<title>OmitPipe </title>
<polygon fill="#fb8072" stroke="#000000" points="376.6664,-252 303.3336,-252 303.3336,-216 376.6664,-216 376.6664,-252"/>
<text text-anchor="middle" x="340" y="-229.8" font-family="Times,serif" font-size="14.00" fill="#000000">OmitPipe </text>
</g>
<!-- NgObjectPipesModule&#45;&gt;OmitPipe  -->
<g id="edge13" class="edge">
<title>NgObjectPipesModule&#45;&gt;OmitPipe </title>
<path fill="none" stroke="#000000" stroke-dasharray="5,2" d="M340,-187.1061C340,-187.1061 340,-205.991 340,-205.991"/>
<polygon fill="#000000" stroke="#000000" points="336.5001,-205.9909 340,-215.991 343.5001,-205.991 336.5001,-205.9909"/>
</g>
<!-- PairsPipe  -->
<g id="node15" class="node">
<title>PairsPipe </title>
<polygon fill="#fb8072" stroke="#000000" points="285.3818,-252 212.6182,-252 212.6182,-216 285.3818,-216 285.3818,-252"/>
<text text-anchor="middle" x="249" y="-229.8" font-family="Times,serif" font-size="14.00" fill="#000000">PairsPipe </text>
</g>
<!-- NgObjectPipesModule&#45;&gt;PairsPipe  -->
<g id="edge14" class="edge">
<title>NgObjectPipesModule&#45;&gt;PairsPipe </title>
<path fill="none" stroke="#000000" stroke-dasharray="5,2" d="M281.5188,-187.1061C281.5188,-187.1061 281.5188,-205.991 281.5188,-205.991"/>
<polygon fill="#000000" stroke="#000000" points="278.0188,-205.9909 281.5188,-215.991 285.0188,-205.991 278.0188,-205.9909"/>
</g>
<!-- PickPipe  -->
<g id="node16" class="node">
<title>PickPipe </title>
<polygon fill="#fb8072" stroke="#000000" points="194.7762,-252 125.2238,-252 125.2238,-216 194.7762,-216 194.7762,-252"/>
<text text-anchor="middle" x="160" y="-229.8" font-family="Times,serif" font-size="14.00" fill="#000000">PickPipe </text>
</g>
<!-- NgObjectPipesModule&#45;&gt;PickPipe  -->
<g id="edge15" class="edge">
<title>NgObjectPipesModule&#45;&gt;PickPipe </title>
<path fill="none" stroke="#000000" stroke-dasharray="5,2" d="M277.6242,-180C226.4376,-180 166.875,-180 166.875,-180 166.875,-180 166.875,-205.7181 166.875,-205.7181"/>
<polygon fill="#000000" stroke="#000000" points="163.3751,-205.718 166.875,-215.7181 170.3751,-205.7181 163.3751,-205.718"/>
</g>
<!-- ValuesPipe  -->
<g id="node17" class="node">
<title>ValuesPipe </title>
<polygon fill="#fb8072" stroke="#000000" points="107.7592,-252 24.2408,-252 24.2408,-216 107.7592,-216 107.7592,-252"/>
<text text-anchor="middle" x="66" y="-229.8" font-family="Times,serif" font-size="14.00" fill="#000000">ValuesPipe </text>
</g>
<!-- NgObjectPipesModule&#45;&gt;ValuesPipe  -->
<g id="edge16" class="edge">
<title>NgObjectPipesModule&#45;&gt;ValuesPipe </title>
<path fill="none" stroke="#000000" stroke-dasharray="5,2" d="M277.5828,-173C195.9198,-173 74.375,-173 74.375,-173 74.375,-173 74.375,-205.698 74.375,-205.698"/>
<polygon fill="#000000" stroke="#000000" points="70.8751,-205.698 74.375,-215.698 77.8751,-205.698 70.8751,-205.698"/>
</g>
</g>
</svg>
