<svg width="40" height="30" xmlns="http://www.w3.org/2000/svg" xmlns:xlink="http://www.w3.org/1999/xlink"><defs><path id="a" d="M.061.02h18.82v25.927H.06z"/><path id="c" d="M.048.098h33.837V20H.048z"/></defs><g fill="none" fill-rule="evenodd"><g transform="translate(13)"><mask id="b" fill="#fff"><use xlink:href="#a"/></mask><path d="M13.837 25.834C29.485 9.803 3.727.02 3.727.02l-.106.04s-12.714 23.904 9.91 25.887l.306-.113z" fill="#0FB783" mask="url(#b)"/></g><g transform="translate(6 10)"><mask id="d" fill="#fff"><use xlink:href="#c"/></mask><path d="M.048 18.509s1.874 1.821 12.529 1.438c10.654-.384 12.874-7.72 15.192-11.507 2.318-3.788 6.116-3.74 6.116-3.74S31.616.097 27.275.097c-4.34 0-10.703 8.918-16.178 13.713C5.622 18.604.048 18.509.048 18.509" fill="#14CD9A" mask="url(#d)"/></g><path d="M24.991 22.076C25.544.76.051 9.986.051 9.986L0 10.08s6.945 25.097 24.844 12.27l.147-.274z" fill="#38E5AC"/></g></svg>