<?xml version="1.0" encoding="UTF-8" standalone="no"?>
<!DOCTYPE svg PUBLIC "-//W3C//DTD SVG 1.1//EN"
 "http://www.w3.org/Graphics/SVG/1.1/DTD/svg11.dtd">
<!-- Generated by graphviz version 2.40.1 (20161225.0304)
 -->
<!-- Title: dependencies Pages: 1 -->
<svg width="642pt" height="284pt"
 viewBox="0.00 0.00 642.00 284.00" xmlns="http://www.w3.org/2000/svg" xmlns:xlink="http://www.w3.org/1999/xlink">
<g id="graph0" class="graph" transform="scale(1 1) rotate(0) translate(4 280)">
<title>dependencies</title>
<polygon fill="#ffffff" stroke="transparent" points="-4,4 -4,-280 638,-280 638,4 -4,4"/>
<text text-anchor="start" x="296.0091" y="-42.4" font-family="sans-serif" font-weight="bold" font-size="14.00" fill="#000000">Legend</text>
<polygon fill="#ffffb3" stroke="transparent" points="83,-10 83,-30 103,-30 103,-10 83,-10"/>
<text text-anchor="start" x="106.629" y="-15.4" font-family="sans-serif" font-size="14.00" fill="#000000"> &#160;Declarations</text>
<polygon fill="#8dd3c7" stroke="transparent" points="196,-10 196,-30 216,-30 216,-10 196,-10"/>
<text text-anchor="start" x="219.7251" y="-15.4" font-family="sans-serif" font-size="14.00" fill="#000000"> &#160;Module</text>
<polygon fill="#80b1d3" stroke="transparent" points="282,-10 282,-30 302,-30 302,-10 282,-10"/>
<text text-anchor="start" x="305.7812" y="-15.4" font-family="sans-serif" font-size="14.00" fill="#000000"> &#160;Bootstrap</text>
<polygon fill="#fdb462" stroke="transparent" points="379,-10 379,-30 399,-30 399,-10 379,-10"/>
<text text-anchor="start" x="402.6732" y="-15.4" font-family="sans-serif" font-size="14.00" fill="#000000"> &#160;Providers</text>
<polygon fill="#fb8072" stroke="transparent" points="475,-10 475,-30 495,-30 495,-10 475,-10"/>
<text text-anchor="start" x="498.7258" y="-15.4" font-family="sans-serif" font-size="14.00" fill="#000000"> &#160;Exports</text>
<g id="clust1" class="cluster">
<title>cluster_DropdownModule</title>
<polygon fill="none" stroke="#000000" stroke-dasharray="1,5" points="8,-70 8,-268 626,-268 626,-70 8,-70"/>
</g>
<g id="clust2" class="cluster">
<title>cluster_DropdownModule_declarations</title>
<polygon fill="none" stroke="#000000" points="25,-78 25,-130 611,-130 611,-78 25,-78"/>
</g>
<g id="clust8" class="cluster">
<title>cluster_DropdownModule_exports</title>
<polygon fill="none" stroke="#000000" points="16,-208 16,-260 618,-260 618,-208 16,-208"/>
</g>
<!-- CannedRepliesDropdown -->
<g id="node1" class="node">
<title>CannedRepliesDropdown</title>
<polygon fill="#ffffb3" stroke="#000000" points="603.1316,-122 442.8684,-122 442.8684,-86 603.1316,-86 603.1316,-122"/>
<text text-anchor="middle" x="523" y="-99.8" font-family="Times,serif" font-size="14.00" fill="#000000">CannedRepliesDropdown</text>
</g>
<!-- DropdownModule -->
<g id="node5" class="node">
<title>DropdownModule</title>
<polygon fill="#8dd3c7" stroke="#000000" points="306.9244,-187 303.9244,-191 282.9244,-191 279.9244,-187 187.0756,-187 187.0756,-151 306.9244,-151 306.9244,-187"/>
<text text-anchor="middle" x="247" y="-164.8" font-family="Times,serif" font-size="14.00" fill="#000000">DropdownModule</text>
</g>
<!-- CannedRepliesDropdown&#45;&gt;DropdownModule -->
<g id="edge1" class="edge">
<title>CannedRepliesDropdown&#45;&gt;DropdownModule</title>
<path fill="none" stroke="#000000" d="M550.8552,-122.2667C550.8552,-140.5552 550.8552,-166 550.8552,-166 550.8552,-166 317.032,-166 317.032,-166"/>
<polygon fill="#000000" stroke="#000000" points="317.032,-162.5001 307.032,-166 317.032,-169.5001 317.032,-162.5001"/>
</g>
<!-- Dropdown -->
<g id="node2" class="node">
<title>Dropdown</title>
<polygon fill="#ffffb3" stroke="#000000" points="424.8739,-122 349.1261,-122 349.1261,-86 424.8739,-86 424.8739,-122"/>
<text text-anchor="middle" x="387" y="-99.8" font-family="Times,serif" font-size="14.00" fill="#000000">Dropdown</text>
</g>
<!-- Dropdown&#45;&gt;DropdownModule -->
<g id="edge2" class="edge">
<title>Dropdown&#45;&gt;DropdownModule</title>
<path fill="none" stroke="#000000" d="M399.6456,-122.0091C399.6456,-138.0494 399.6456,-159 399.6456,-159 399.6456,-159 316.8915,-159 316.8915,-159"/>
<polygon fill="#000000" stroke="#000000" points="316.8915,-155.5001 306.8915,-159 316.8914,-162.5001 316.8915,-155.5001"/>
</g>
<!-- DropdownNotClosableZone -->
<g id="node3" class="node">
<title>DropdownNotClosableZone</title>
<polygon fill="#ffffb3" stroke="#000000" points="331.1302,-122 156.8698,-122 156.8698,-86 331.1302,-86 331.1302,-122"/>
<text text-anchor="middle" x="244" y="-99.8" font-family="Times,serif" font-size="14.00" fill="#000000">DropdownNotClosableZone</text>
</g>
<!-- DropdownNotClosableZone&#45;&gt;DropdownModule -->
<g id="edge3" class="edge">
<title>DropdownNotClosableZone&#45;&gt;DropdownModule</title>
<path fill="none" stroke="#000000" d="M247,-122.1061C247,-122.1061 247,-140.991 247,-140.991"/>
<polygon fill="#000000" stroke="#000000" points="243.5001,-140.9909 247,-150.991 250.5001,-140.991 243.5001,-140.9909"/>
</g>
<!-- DropdownOpen -->
<g id="node4" class="node">
<title>DropdownOpen</title>
<polygon fill="#ffffb3" stroke="#000000" points="139.1952,-122 32.8048,-122 32.8048,-86 139.1952,-86 139.1952,-122"/>
<text text-anchor="middle" x="86" y="-99.8" font-family="Times,serif" font-size="14.00" fill="#000000">DropdownOpen</text>
</g>
<!-- DropdownOpen&#45;&gt;DropdownModule -->
<g id="edge4" class="edge">
<title>DropdownOpen&#45;&gt;DropdownModule</title>
<path fill="none" stroke="#000000" d="M100.1992,-122.0225C100.1992,-139.3734 100.1992,-163 100.1992,-163 100.1992,-163 176.8669,-163 176.8669,-163"/>
<polygon fill="#000000" stroke="#000000" points="176.8669,-166.5001 186.8669,-163 176.8669,-159.5001 176.8669,-166.5001"/>
</g>
<!-- CannedRepliesDropdown  -->
<g id="node6" class="node">
<title>CannedRepliesDropdown </title>
<polygon fill="#fb8072" stroke="#000000" points="610.1313,-252 445.8687,-252 445.8687,-216 610.1313,-216 610.1313,-252"/>
<text text-anchor="middle" x="528" y="-229.8" font-family="Times,serif" font-size="14.00" fill="#000000">CannedRepliesDropdown </text>
</g>
<!-- DropdownModule&#45;&gt;CannedRepliesDropdown  -->
<g id="edge5" class="edge">
<title>DropdownModule&#45;&gt;CannedRepliesDropdown </title>
<path fill="none" stroke="#000000" stroke-dasharray="5,2" d="M306.8959,-173C381.2533,-173 498.3948,-173 498.3948,-173 498.3948,-173 498.3948,-205.698 498.3948,-205.698"/>
<polygon fill="#000000" stroke="#000000" points="494.8949,-205.698 498.3948,-215.698 501.8949,-205.698 494.8949,-205.698"/>
</g>
<!-- Dropdown  -->
<g id="node7" class="node">
<title>Dropdown </title>
<polygon fill="#fb8072" stroke="#000000" points="427.8747,-252 348.1253,-252 348.1253,-216 427.8747,-216 427.8747,-252"/>
<text text-anchor="middle" x="388" y="-229.8" font-family="Times,serif" font-size="14.00" fill="#000000">Dropdown </text>
</g>
<!-- DropdownModule&#45;&gt;Dropdown  -->
<g id="edge6" class="edge">
<title>DropdownModule&#45;&gt;Dropdown </title>
<path fill="none" stroke="#000000" stroke-dasharray="5,2" d="M306.948,-180C339.9798,-180 374.3544,-180 374.3544,-180 374.3544,-180 374.3544,-205.7181 374.3544,-205.7181"/>
<polygon fill="#000000" stroke="#000000" points="370.8545,-205.718 374.3544,-215.7181 377.8545,-205.7181 370.8545,-205.718"/>
</g>
<!-- DropdownNotClosableZone  -->
<g id="node8" class="node">
<title>DropdownNotClosableZone </title>
<polygon fill="#fb8072" stroke="#000000" points="330.1298,-252 151.8702,-252 151.8702,-216 330.1298,-216 330.1298,-252"/>
<text text-anchor="middle" x="241" y="-229.8" font-family="Times,serif" font-size="14.00" fill="#000000">DropdownNotClosableZone </text>
</g>
<!-- DropdownModule&#45;&gt;DropdownNotClosableZone  -->
<g id="edge7" class="edge">
<title>DropdownModule&#45;&gt;DropdownNotClosableZone </title>
<path fill="none" stroke="#000000" stroke-dasharray="5,2" d="M247,-187.1061C247,-187.1061 247,-205.991 247,-205.991"/>
<polygon fill="#000000" stroke="#000000" points="243.5001,-205.9909 247,-215.991 250.5001,-205.991 243.5001,-205.9909"/>
</g>
<!-- DropdownOpen  -->
<g id="node9" class="node">
<title>DropdownOpen </title>
<polygon fill="#fb8072" stroke="#000000" points="133.6954,-252 24.3046,-252 24.3046,-216 133.6954,-216 133.6954,-252"/>
<text text-anchor="middle" x="79" y="-229.8" font-family="Times,serif" font-size="14.00" fill="#000000">DropdownOpen </text>
</g>
<!-- DropdownModule&#45;&gt;DropdownOpen  -->
<g id="edge8" class="edge">
<title>DropdownModule&#45;&gt;DropdownOpen </title>
<path fill="none" stroke="#000000" stroke-dasharray="5,2" d="M187.1637,-175C134.6366,-175 66.5508,-175 66.5508,-175 66.5508,-175 66.5508,-205.9775 66.5508,-205.9775"/>
<polygon fill="#000000" stroke="#000000" points="63.0509,-205.9774 66.5508,-215.9775 70.0509,-205.9775 63.0509,-205.9774"/>
</g>
</g>
</svg>
