<?xml version="1.0" encoding="UTF-8" standalone="no"?>
<!DOCTYPE svg PUBLIC "-//W3C//DTD SVG 1.1//EN"
 "http://www.w3.org/Graphics/SVG/1.1/DTD/svg11.dtd">
<!-- Generated by graphviz version 2.40.1 (20161225.0304)
 -->
<!-- Title: dependencies Pages: 1 -->
<svg width="522pt" height="211pt"
 viewBox="0.00 0.00 522.00 211.00" xmlns="http://www.w3.org/2000/svg" xmlns:xlink="http://www.w3.org/1999/xlink">
<g id="graph0" class="graph" transform="scale(1 1) rotate(0) translate(4 207)">
<title>dependencies</title>
<polygon fill="#ffffff" stroke="transparent" points="-4,4 -4,-207 518,-207 518,4 -4,4"/>
<text text-anchor="start" x="236.0091" y="-42.4" font-family="sans-serif" font-weight="bold" font-size="14.00" fill="#000000">Legend</text>
<polygon fill="#ffffb3" stroke="transparent" points="23,-10 23,-30 43,-30 43,-10 23,-10"/>
<text text-anchor="start" x="46.629" y="-15.4" font-family="sans-serif" font-size="14.00" fill="#000000"> &#160;Declarations</text>
<polygon fill="#8dd3c7" stroke="transparent" points="136,-10 136,-30 156,-30 156,-10 136,-10"/>
<text text-anchor="start" x="159.7251" y="-15.4" font-family="sans-serif" font-size="14.00" fill="#000000"> &#160;Module</text>
<polygon fill="#80b1d3" stroke="transparent" points="222,-10 222,-30 242,-30 242,-10 222,-10"/>
<text text-anchor="start" x="245.7812" y="-15.4" font-family="sans-serif" font-size="14.00" fill="#000000"> &#160;Bootstrap</text>
<polygon fill="#fdb462" stroke="transparent" points="319,-10 319,-30 339,-30 339,-10 319,-10"/>
<text text-anchor="start" x="342.6732" y="-15.4" font-family="sans-serif" font-size="14.00" fill="#000000"> &#160;Providers</text>
<polygon fill="#fb8072" stroke="transparent" points="415,-10 415,-30 435,-30 435,-10 415,-10"/>
<text text-anchor="start" x="438.7258" y="-15.4" font-family="sans-serif" font-size="14.00" fill="#000000"> &#160;Exports</text>
<g id="clust1" class="cluster">
<title>cluster_UserDtoModule</title>
<polygon fill="none" stroke="#000000" stroke-dasharray="1,5" points="8,-70 8,-195 506,-195 506,-70 8,-70"/>
</g>
<g id="clust6" class="cluster">
<title>cluster_UserDtoModule_providers</title>
<polygon fill="none" stroke="#000000" points="16,-78 16,-130 498,-130 498,-78 16,-78"/>
</g>
<!-- ActiveUsers -->
<g id="node1" class="node">
<title>ActiveUsers</title>
<ellipse fill="#fdb462" stroke="#000000" cx="431" cy="-104" rx="58.5232" ry="18"/>
<text text-anchor="middle" x="431" y="-99.8" font-family="Times,serif" font-size="14.00" fill="#000000">ActiveUsers</text>
</g>
<!-- UserDtoModule -->
<g id="node5" class="node">
<title>UserDtoModule</title>
<polygon fill="#8dd3c7" stroke="#000000" points="294.4734,-187 291.4734,-191 270.4734,-191 267.4734,-187 187.5266,-187 187.5266,-151 294.4734,-151 294.4734,-187"/>
<text text-anchor="middle" x="241" y="-164.8" font-family="Times,serif" font-size="14.00" fill="#000000">UserDtoModule</text>
</g>
<!-- ActiveUsers&#45;&gt;UserDtoModule -->
<g id="edge1" class="edge">
<title>ActiveUsers&#45;&gt;UserDtoModule</title>
<path fill="none" stroke="#000000" d="M431,-122.1061C431,-141.3391 431,-169 431,-169 431,-169 304.6845,-169 304.6845,-169"/>
<polygon fill="#000000" stroke="#000000" points="304.6846,-165.5001 294.6845,-169 304.6845,-172.5001 304.6846,-165.5001"/>
</g>
<!-- AllUsers -->
<g id="node2" class="node">
<title>AllUsers</title>
<ellipse fill="#fdb462" stroke="#000000" cx="309" cy="-104" rx="45.2189" ry="18"/>
<text text-anchor="middle" x="309" y="-99.8" font-family="Times,serif" font-size="14.00" fill="#000000">AllUsers</text>
</g>
<!-- AllUsers&#45;&gt;UserDtoModule -->
<g id="edge2" class="edge">
<title>AllUsers&#45;&gt;UserDtoModule</title>
<path fill="none" stroke="#000000" d="M279.0637,-117.7848C279.0637,-117.7848 279.0637,-140.5475 279.0637,-140.5475"/>
<polygon fill="#000000" stroke="#000000" points="275.5638,-140.5474 279.0637,-150.5475 282.5638,-140.5475 275.5638,-140.5474"/>
</g>
<!-- AlternativeUser -->
<g id="node3" class="node">
<title>AlternativeUser</title>
<ellipse fill="#fdb462" stroke="#000000" cx="173" cy="-104" rx="72.9063" ry="18"/>
<text text-anchor="middle" x="173" y="-99.8" font-family="Times,serif" font-size="14.00" fill="#000000">AlternativeUser</text>
</g>
<!-- AlternativeUser&#45;&gt;UserDtoModule -->
<g id="edge3" class="edge">
<title>AlternativeUser&#45;&gt;UserDtoModule</title>
<path fill="none" stroke="#000000" d="M216.6081,-118.4256C216.6081,-118.4256 216.6081,-140.8939 216.6081,-140.8939"/>
<polygon fill="#000000" stroke="#000000" points="213.1082,-140.8938 216.6081,-150.8939 220.1082,-140.8939 213.1082,-140.8938"/>
</g>
<!-- User -->
<g id="node4" class="node">
<title>User</title>
<ellipse fill="#fdb462" stroke="#000000" cx="53" cy="-104" rx="29.0318" ry="18"/>
<text text-anchor="middle" x="53" y="-99.8" font-family="Times,serif" font-size="14.00" fill="#000000">User</text>
</g>
<!-- User&#45;&gt;UserDtoModule -->
<g id="edge4" class="edge">
<title>User&#45;&gt;UserDtoModule</title>
<path fill="none" stroke="#000000" d="M53,-122.1061C53,-141.3391 53,-169 53,-169 53,-169 177.3783,-169 177.3783,-169"/>
<polygon fill="#000000" stroke="#000000" points="177.3784,-172.5001 187.3783,-169 177.3783,-165.5001 177.3784,-172.5001"/>
</g>
</g>
</svg>
