<svg width="24" height="24" xmlns="http://www.w3.org/2000/svg"><g fill="#FFF" fill-rule="evenodd"><path d="M23.531 9.785h-3a.469.469 0 0 0-.468.469v2.367a.469.469 0 0 0 .937 0v-1.898h2.063v12.34H21v-6.926a.469.469 0 0 0-.938 0v6.925h-.937V13.36a.469.469 0 0 0-.469-.468h-3a.469.469 0 0 0-.469.468v9.704h-.937V16.64a.469.469 0 0 0-.469-.47h-3a.469.469 0 0 0-.469.47v6.422h-.937V19.33a.469.469 0 0 0-.469-.469h-3a.469.469 0 0 0-.468.47v3.732H1.405a.47.47 0 0 1-.468-.47V1.407a.47.47 0 0 1 .468-.468H13.5V4.03c0 .776.63 1.407 1.406 1.407H18v5.765a.469.469 0 0 0 .937 0V4.97a.469.469 0 0 0-.137-.332l-4.5-4.5A.469.469 0 0 0 13.968 0H1.406C.631 0 0 .63 0 1.406v21.188C0 23.369.63 24 1.406 24h22.125c.26 0 .469-.21.469-.469V10.254a.469.469 0 0 0-.469-.469zM14.436 1.6l2.9 2.9h-2.43a.47.47 0 0 1-.47-.469v-2.43zM8.438 23.062H6.374V19.8h2.063v3.264zm4.874 0H11.25V17.11h2.063v5.953zm4.876 0h-2.063v-9.234h2.063v9.235z" fill-rule="nonzero"/><path d="M20.863 13.96a.47.47 0 0 0-.663 0 .472.472 0 0 0 0 .663.472.472 0 0 0 .663 0 .472.472 0 0 0 0-.663z"/><path d="M6.824 2.565a.469.469 0 0 0-.469.47v.842a4.317 4.317 0 0 0-3.842 4.286 4.316 4.316 0 0 0 4.31 4.312 4.317 4.317 0 0 0 4.287-3.843h.843c.259 0 .469-.21.469-.469a5.604 5.604 0 0 0-5.598-5.598zm0 8.972A3.378 3.378 0 0 1 3.45 8.163a3.38 3.38 0 0 1 2.905-3.341v3.341c0 .26.21.47.469.47h3.341a3.38 3.38 0 0 1-3.341 2.904zm.469-3.842V3.526a4.67 4.67 0 0 1 4.168 4.169H7.293z" fill-rule="nonzero"/><path d="M11.953 13.793H3a.469.469 0 0 0 0 .937h8.953a.469.469 0 0 0 0-.937zM6 16.055H3a.469.469 0 0 0 0 .937h3a.469.469 0 0 0 0-.937zm2.679.137a.472.472 0 0 0-.663 0 .47.47 0 0 0 .332.8.472.472 0 0 0 .468-.469.472.472 0 0 0-.137-.331z"/></g></svg>