<svg width="18" height="14" xmlns="http://www.w3.org/2000/svg"><path d="M7.831 8.473h-.098A.738.738 0 0 0 7 9.21v2.405L1.842 7 7 2.387v2.402c0 .409.33.736.737.736h.736c3.518 0 6.495 2.362 7.431 5.582-2.086-1.769-4.749-2.634-8.073-2.634zm9.116 5.526a.731.731 0 0 0 .737-.737c0-5.077-4.132-9.21-9.21-9.21V.736a.732.732 0 0 0-.437-.67.734.734 0 0 0-.791.121l-7 6.263a.735.735 0 0 0 0 1.098l7 6.263a.735.735 0 0 0 1.227-.549V9.957c3.49.13 6.01 1.334 7.892 3.758.142.184.36.284.582.284z" fill="currentColor" fill-rule="evenodd"/></svg>