<svg width="24" height="24" xmlns="http://www.w3.org/2000/svg"><path d="M23.057 18.063c-2.158-1.875-4.154-4.52-4.154-11.126C18.903 3.112 15.806 0 12 0 8.194 0 5.097 3.112 5.097 6.937c0 6.612-1.996 9.255-4.155 11.128A2.753 2.753 0 0 0 0 20.135c0 .437.352.79.785.79h7.452C8.6 22.678 10.149 24 12 24c1.85 0 3.4-1.321 3.763-3.075h7.452a.787.787 0 0 0 .785-.79 2.74 2.74 0 0 0-.943-2.072zM12 22.422a2.278 2.278 0 0 1-2.134-1.497h4.268A2.278 2.278 0 0 1 12 22.422zM1.88 19.347c.028-.031.059-.061.09-.09 3.293-2.856 4.697-6.54 4.697-12.32 0-2.955 2.393-5.359 5.333-5.359 2.94 0 5.332 2.404 5.332 5.36 0 5.773 1.405 9.458 4.699 12.32.032.028.062.058.091.089H1.88z" fill="none"/></svg>