<svg width="16" height="18" xmlns="http://www.w3.org/2000/svg"><path d="M12.291 8.568c1.28-.662 2.041-1.935 2.041-3.418 0-1.723-.998-3.13-2.61-3.72-.94-.358-1.864-.43-3.05-.43H1.609C1.273 1 1 1.256 1 1.571v1.18c0 .316.273.572.609.572h1.26V14.7h-1.26c-.336 0-.609.256-.609.572v1.158c0 .315.273.571.609.571h7.444c.921 0 1.706-.046 2.544-.27 1.94-.545 3.403-2.207 3.403-4.372 0-1.864-1.01-3.275-2.709-3.79zm-6.185-5.11h2.566c.62 0 1.047.072 1.427.24.603.302.948.946.948 1.765 0 1.251-.773 2.028-2.017 2.028H6.106V3.457zm4.285 10.91c-.385.144-.862.175-1.195.175h-3.09V9.927h3.21c1.508 0 2.399.906 2.399 2.252 0 1.015-.52 1.874-1.324 2.188z" fill="#929395" fill-rule="nonzero" stroke="#FFF"/></svg>