<svg width="19" height="16" xmlns="http://www.w3.org/2000/svg">
  <path
    d="M17.595.008H1.55C.539.008 0 .346 0 1.087v3.64c0 .337.27.607.607.674v8.697c0 .809.809 1.887 1.685 1.887h14.696c.944 0 1.348-1.078 1.348-1.887V5.4c.337-.067.607-.337.607-.674v-3.64C18.876.008 17.932.008 17.595.008zm-.607 14.022c-.067.27-.135.472-.202.54H2.292c-.135-.068-.404-.405-.404-.54V5.401H4.65v1.281c0 .877.877 1.686 1.753 1.686h6.404c.81 0 1.416-.675 1.416-1.686v-1.28h2.764v8.628zM6 5.401h6.808v1.281a.818.818 0 0 1-.067.337H6.404C6.27 7.02 6 6.817 6 6.682v-1.28zm11.527-1.28H1.348V1.357H17.527V4.12z"
    fill="currentColor" fill-rule="nonzero" /></svg>