<?xml version="1.0" encoding="UTF-8"?>
<svg width="16px" height="15px" viewBox="0 0 16 15" version="1.1" xmlns="http://www.w3.org/2000/svg" xmlns:xlink="http://www.w3.org/1999/xlink">
    <!-- Generator: Sketch 52.4 (67378) - http://www.bohemiancoding.com/sketch -->
    <title>company</title>
    <desc>Created with Sketch.</desc>
    <g id="Mailbox" stroke="none" stroke-width="1" fill="none" fill-rule="evenodd">
        <g id="Individual-Ticket-closed-Copy-3" transform="translate(-1867.000000, -101.000000)" fill="#929395">
            <g id="company" transform="translate(1867.000000, 101.000000)">
                <g id="close">
                    <path d="M15.8107187,0.177473231 C15.5583123,-0.0591577437 15.1490933,-0.0591577437 14.896687,0.177473231 L0.18930478,13.9656147 C-0.0631015933,14.2022457 -0.0631015933,14.5858885 0.18930478,14.8225194 C0.315492342,14.9408789 0.480929922,15 0.646336253,15 C0.811742584,15 0.977148915,14.9408496 1.10336773,14.8224901 L15.8107187,1.03434865 C16.0630938,0.797746972 16.0630938,0.414104206 15.8107187,0.177473231 Z" id="Path"></path>
                    <path d="M15.8107144,13.9656147 L1.10330711,0.177473231 C0.850931557,-0.0591577437 0.441680658,-0.0591577437 0.189305103,0.177473231 C-0.0631017012,0.414074909 -0.0631017012,0.797717675 0.189305103,1.03434865 L14.8967124,14.8225194 C15.0229002,14.9408496 15.1883381,15 15.3537447,15 C15.5191513,15 15.6845892,14.9408496 15.8107457,14.8225487 C16.06309,14.5858885 16.06309,14.2022457 15.8107144,13.9656147 Z" id="Path"></path>
                </g>
            </g>
        </g>
    </g>
</svg>