<svg width="22" height="24" xmlns="http://www.w3.org/2000/svg"><g fill="curentColor" fill-rule="evenodd"><path d="M-1 0h24v24H-1z"/><path d="M13.708 22.095c-1.05.087-2.251.14-3.62.14-5.757 0-8.574-.94-9.607-1.4-.266-.118-.481-.457-.481-.749v-1.968c0-2.95 2.245-5.396 5.11-5.724a.478.478 0 01.288.079A7.971 7.971 0 0010.088 14c1.752 0 3.37-.57 4.69-1.527a.478.478 0 01.288-.079 5.78 5.78 0 013.923 2.232 5 5 0 00-5.281 7.469zm-3.62-10.154a5.97 5.97 0 110-11.941 5.97 5.97 0 010 11.941zm2.89-3.615H7.32c.272.898 1.435 1.573 2.83 1.573 1.394 0 2.558-.675 2.83-1.573zm5.689 10.536v-1.334a.667.667 0 00-1.334 0v1.334H16a.667.667 0 000 1.333h1.333v1.333a.667.667 0 001.334 0v-1.333H20a.667.667 0 100-1.333h-1.333zM18 23.528a4 4 0 110-8 4 4 0 010 8z" fill-rule="nonzero" opacity=".85"/></g></svg>