<svg width="18" height="24" xmlns="http://www.w3.org/2000/svg"><g fill="#FFF" fill-rule="evenodd"><path d="M17.82 6.453L11.408.139a.486.486 0 0 0-.34-.139H2.027C.931 0 .038.879.038 1.96v20.08c0 1.081.893 1.96 1.99 1.96h13.944c1.097 0 1.99-.879 1.99-1.96V6.789a.47.47 0 0 0-.141-.335zm-6.272-4.834l4.769 4.695h-3.742a1.02 1.02 0 0 1-1.027-1.011V1.619zm5.45 20.422c0 .557-.46 1.01-1.026 1.01H2.028a1.02 1.02 0 0 1-1.026-1.01V1.959c0-.557.46-1.01 1.026-1.01h8.556v4.354c0 1.08.893 1.96 1.99 1.96h4.424V22.04z" fill-rule="nonzero"/><path d="M12.858 9.797h-7.71a.478.478 0 0 0-.481.474c0 .262.215.475.482.475h7.709a.478.478 0 0 0 .482-.475.478.478 0 0 0-.482-.474zm0 2.109h-7.71a.478.478 0 0 0-.481.475c0 .262.215.474.482.474h7.709a.478.478 0 0 0 .482-.474.478.478 0 0 0-.482-.475zm0 2.11h-7.71a.478.478 0 0 0-.481.474c0 .262.215.474.482.474h7.709a.478.478 0 0 0 .482-.474.478.478 0 0 0-.482-.474zm-2.506 2.109H5.15a.478.478 0 0 0-.482.474c0 .262.215.475.482.475h5.203a.478.478 0 0 0 .482-.475.478.478 0 0 0-.482-.474z"/></g></svg>