<svg width="16" height="13" xmlns="http://www.w3.org/2000/svg"><path d="M15.858.2c-.1-.1-.2-.2-.301-.2H.703C.502 0 .4.1.2.2.1.302 0 .503 0 .603v11.342c0 .2.1.3.2.502.101.1.201.2.302.2h14.754c.2 0 .401-.1.502-.2.1-.1.2-.302.2-.502V.602c.1-.1 0-.3-.1-.401zM8.23 6.224c-.1.1-.301.1-.401 0l-5.42-4.918H13.65L8.23 6.223zM1.305 2.108L5.62 6.022l-4.316 4.316v-8.23zm5.42 4.918l.3.2c.201.201.503.302.703.402h.401c.402 0 .804-.1 1.105-.402l.3-.2 4.417 4.316H2.308l4.417-4.316zm3.613-.904l4.316-3.914v8.23l-4.316-4.316z" fill="currentColor"/></svg>