<svg xmlns="http://www.w3.org/2000/svg" width="512" height="326"><rect width="100%" height="100%" fill="none" /><g fill="#14CD9A" class="currentLayer"><path d="M508.745 153.206C504.171 146.949 395.188 0 255.997 0S7.818 146.949 3.249 153.2a16.896 16.896 0 0 0 0 19.923c4.569 6.257 113.557 153.206 252.748 153.206s248.174-146.95 252.748-153.201a16.875 16.875 0 0 0 0-19.922zM255.997 292.571c-102.529 0-191.33-97.533-217.617-129.418C64.633 131.24 153.248 33.758 255.997 33.758c102.524 0 191.319 97.516 217.617 129.418-26.253 31.912-114.868 129.395-217.617 129.395z"/><path d="M257.14 62.154c-55.842 0-101.275 45.433-101.275 101.275s45.433 101.275 101.275 101.275 101.275-45.433 101.275-101.275S312.982 62.154 257.14 62.154zm0 168.79c-37.23 0-67.516-30.286-67.516-67.515s30.287-67.516 67.516-67.516 67.516 30.287 67.516 67.516-30.286 67.516-67.516 67.516z"/></g></svg>