<?xml version="1.0" encoding="UTF-8"?>
<svg width="50px" height="50px" viewBox="0 0 50 50" version="1.1" xmlns="http://www.w3.org/2000/svg" xmlns:xlink="http://www.w3.org/1999/xlink">
    <!-- Generator: sketchtool 52.4 (67378) - http://www.bohemiancoding.com/sketch -->
    <title>43DD8DFC-4F5D-43D5-88A8-AC02A0E56172</title>
    <desc>Created with sketchtool.</desc>
    <defs>
        <path d="M22.9546339,16.6723559 L20.9166077,17.7537142 C20.2668376,18.0985497 19.8211885,18.7118146 19.6941104,19.436399 L19.2955253,21.7088433 C19.2204457,22.1369296 18.8246728,22.4244606 18.3941988,22.3637071 L16.1098161,22.040573 C15.3813053,21.9373718 14.6604351,22.1718429 14.1316944,22.6832862 L12.4734701,24.2873364 C12.1611602,24.5894588 11.6717899,24.5894588 11.3593739,24.2873364 L9.70120269,22.6832331 C9.25433322,22.2509551 8.67014503,22.0166961 8.06027591,22.0166961 C7.94853201,22.0166961 7.8358861,22.024549 7.723081,22.04052 L5.43869827,22.3636541 C5.00859568,22.4244606 4.61250442,22.1368765 4.53737177,21.7087902 L4.13873364,19.4362929 C4.01160241,18.7117085 3.56600637,18.0983905 2.91618323,17.7536611 L0.878157057,16.6723028 C0.494216484,16.4686063 0.342996109,16.003219 0.53385214,15.612752 L1.54708171,13.5399717 C1.87010966,12.8790591 1.87010966,12.121047 1.54708171,11.4601344 L0.53385214,9.38735409 C0.342996109,8.99688716 0.494216484,8.53149982 0.878157057,8.32780333 L2.91618323,7.24644499 C3.56595331,6.90160948 4.01160241,6.28834453 4.13868058,5.56376017 L4.53726565,3.29131588 C4.6123983,2.86322957 5.00811815,2.57564556 5.43859215,2.63645207 L7.72297489,2.95958613 C8.45122037,3.06268129 9.17235585,2.82831624 9.70109657,2.31687301 L11.3593208,0.712769721 C11.6716307,0.410647329 12.1610011,0.410647329 12.473417,0.712769721 L14.1315883,2.31687301 C14.660329,2.8283693 15.3813583,3.06268129 16.1097099,2.95958613 L18.3940927,2.63645207 C18.8242483,2.5755925 19.2203396,2.86322957 19.2954192,3.29131588 L19.6940042,5.56381323 C19.8211355,6.28839759 20.2667315,6.9017156 20.9165547,7.24644499 L22.9545808,8.32780333 C23.3385214,8.53149982 23.4897418,8.99688716 23.2988857,9.38735409 L22.2856562,11.4600814 C21.9626282,12.1209409 21.9626282,12.8790591 22.2856562,13.5399186 L23.2988857,15.6126459 C23.4897948,16.003219 23.3385745,16.4686594 22.9546339,16.6723559 Z" id="path-1"></path>
        <filter x="-52.8%" y="-45.9%" width="205.6%" height="200.1%" filterUnits="objectBoundingBox" id="filter-2">
            <feMorphology radius="1" operator="erode" in="SourceAlpha" result="shadowSpreadOuter1"></feMorphology>
            <feOffset dx="0" dy="1" in="shadowSpreadOuter1" result="shadowOffsetOuter1"></feOffset>
            <feGaussianBlur stdDeviation="5" in="shadowOffsetOuter1" result="shadowBlurOuter1"></feGaussianBlur>
            <feColorMatrix values="0 0 0 0 0.6804   0 0 0 0 0.84   0 0 0 0 0.77882  0 0 0 1 0" type="matrix" in="shadowBlurOuter1"></feColorMatrix>
        </filter>
    </defs>
    <g id="Page-1" stroke="none" stroke-width="1" fill="none" fill-rule="evenodd">
        <g id="landing" transform="translate(-150.000000, -1727.000000)">
            <g id="7-screen" transform="translate(150.000000, 1210.000000)">
                <g id="bullets" transform="translate(0.000000, 517.000000)">
                    <g id="1">
                        <g id="Group-4">
                            <circle id="Oval" fill="#C2F0DE" cx="25" cy="25" r="25"></circle>
                            <g id="discount" transform="translate(13.000000, 13.000000)">
                                <g id="Path" fill-rule="nonzero">
                                    <use fill="black" fill-opacity="1" filter="url(#filter-2)" xlink:href="#path-1"></use>
                                    <use fill="#FFFFFF" xlink:href="#path-1"></use>
                                </g>
                                <g id="Group-7" transform="translate(7.954545, 7.954545)" fill="#0FB783">
                                    <path d="M7.80124156,1.26774748 C7.59690134,1.09256902 7.26549093,1.09256902 7.06111527,1.26774748 L0.153281745,7.18875494 C-0.0510939151,7.36393339 -0.0510939151,7.64796797 0.153281745,7.82314642 C0.255469576,7.91073565 0.389416093,7.95454545 0.523327166,7.95454545 C0.657238239,7.95454545 0.791220201,7.91076603 0.893372587,7.82314642 L7.80120611,1.90216934 C8.00565266,1.72696051 8.00565266,1.44295631 7.80124156,1.26774748 Z" id="Path"></path>
                                    <path d="M1.70454545,0 C0.764666792,0 0,0.764666792 0,1.70454545 C0,2.64442412 0.764666792,3.40909091 1.70454545,3.40909091 C2.64442412,3.40909091 3.40909091,2.64442412 3.40909091,1.70454545 C3.40909091,0.764666792 2.64442412,0 1.70454545,0 Z M1.70454545,2.47931881 C1.27733074,2.47931881 0.929772102,2.13176017 0.929772102,1.70451397 C0.929772102,1.27729926 1.27733074,0.929740617 1.70454545,0.929740617 C2.13176017,0.929740617 2.47935029,1.27729926 2.47935029,1.70451397 C2.47931881,2.13176017 2.13176017,2.47931881 1.70454545,2.47931881 Z" id="Shape" fill-rule="nonzero"></path>
                                    <path d="M6.25,5.68181818 C5.31012134,5.68181818 4.54545455,6.44648497 4.54545455,7.38636364 C4.54545455,8.3262423 5.31012134,9.09090909 6.25,9.09090909 C7.18987866,9.09090909 7.95454545,8.3262423 7.95454545,7.38636364 C7.95454545,6.44648497 7.18987866,5.68181818 6.25,5.68181818 Z M6.25,8.16113699 C5.82278529,8.16113699 5.47519516,7.81357835 5.47519516,7.38636364 C5.47519516,6.95914892 5.8227538,6.61159028 6.25,6.61159028 C6.67721471,6.61159028 7.02477335,6.95914892 7.02477335,7.38636364 C7.02477335,7.81357835 6.67721471,8.16113699 6.25,8.16113699 Z" id="Shape" fill-rule="nonzero"></path>
                                </g>
                            </g>
                        </g>
                    </g>
                </g>
            </g>
        </g>
    </g>
</svg>