<?xml version="1.0" encoding="UTF-8"?>
<svg width="50px" height="50px" viewBox="0 0 50 50" version="1.1" xmlns="http://www.w3.org/2000/svg" xmlns:xlink="http://www.w3.org/1999/xlink">
    <!-- Generator: sketchtool 52.4 (67378) - http://www.bohemiancoding.com/sketch -->
    <title>6C5AD3B6-5B39-4AF9-A054-3A3DC07BC636</title>
    <desc>Created with sketchtool.</desc>
    <defs>
        <rect id="path-1" x="13" y="13" width="24" height="24" rx="2"></rect>
        <filter x="-47.9%" y="-47.9%" width="204.2%" height="204.2%" filterUnits="objectBoundingBox" id="filter-2">
            <feMorphology radius="1" operator="erode" in="SourceAlpha" result="shadowSpreadOuter1"></feMorphology>
            <feOffset dx="1" dy="1" in="shadowSpreadOuter1" result="shadowOffsetOuter1"></feOffset>
            <feGaussianBlur stdDeviation="5" in="shadowOffsetOuter1" result="shadowBlurOuter1"></feGaussianBlur>
            <feColorMatrix values="0 0 0 0 0.3526   0 0 0 0 0.69536   0 0 0 0 0.82  0 0 0 0.5 0" type="matrix" in="shadowBlurOuter1"></feColorMatrix>
        </filter>
    </defs>
    <g id="Page-1" stroke="none" stroke-width="1" fill="none" fill-rule="evenodd">
        <g id="landing" transform="translate(-150.000000, -1875.000000)">
            <g id="7-screen" transform="translate(150.000000, 1210.000000)">
                <g id="bullets" transform="translate(0.000000, 517.000000)">
                    <g id="3" transform="translate(0.000000, 148.000000)">
                        <g id="Group-8">
                            <circle id="Oval-Copy-4" fill="#CBEAF5" cx="25" cy="25" r="25"></circle>
                            <g id="Rectangle" transform="translate(25.000000, 25.000000) rotate(45.000000) translate(-25.000000, -25.000000) ">
                                <use fill="black" fill-opacity="1" filter="url(#filter-2)" xlink:href="#path-1"></use>
                                <use fill="#FFFFFF" fill-rule="evenodd" xlink:href="#path-1"></use>
                            </g>
                            <g id="ticket" transform="translate(17.000000, 17.000000)" fill="#65C7EB">
                                <path d="M15.6189212,5.29795851 L14.4246639,4.11329461 C14.0709046,4.46702075 13.6411286,4.6440166 13.1357676,4.6440166 C12.6302407,4.6440166 12.2007303,4.46702075 11.8470041,4.11329461 C11.4930124,3.75943568 11.3162822,3.32985892 11.3162822,2.82433195 C11.3162822,2.31877178 11.4932448,1.88919502 11.8470041,1.5353029 L10.6621743,0.350639004 C10.4281494,0.116946058 10.1423402,3.31950207e-05 9.80448133,3.31950207e-05 C9.46642324,3.31950207e-05 9.18061411,0.116979253 8.94682158,0.350639004 L0.350738589,8.93719502 C0.116879668,9.17108714 0,9.45712863 0,9.79485477 C0,10.1328465 0.116879668,10.4186224 0.350738589,10.6525477 L1.53540249,11.846805 C1.88926141,11.4930788 2.31893776,11.316083 2.82439834,11.316083 C3.32982573,11.316083 3.75940249,11.4928465 4.11322822,11.846805 C4.46698755,12.2005643 4.64391701,12.6302075 4.64391701,13.1357012 C4.64391701,13.641195 4.46708714,14.0706058 4.11322822,14.4245975 L5.30745228,15.6187552 C5.54127801,15.8525477 5.82721992,15.9694274 6.16524481,15.9694274 C6.5033029,15.9694274 6.78924481,15.8525477 7.02290456,15.6187552 L15.6189212,7.01327801 C15.8527137,6.77951867 15.9694938,6.49367635 15.9694938,6.15561826 C15.9694606,5.81759336 15.8526805,5.53178423 15.6189212,5.29795851 Z M13.0504564,7.19339419 L7.19342739,13.0502573 C7.07983402,13.1642158 6.93765975,13.2210124 6.76697095,13.2210124 C6.59644813,13.2210124 6.45430705,13.1642158 6.34058091,13.0502573 L2.90964315,9.61968465 C2.78957676,9.49948548 2.72959336,9.35737759 2.72959336,9.19322822 C2.72959336,9.02894606 2.78957676,8.886639 2.90964315,8.76653942 L8.766639,2.90957676 C8.88046473,2.79581743 9.02270539,2.73888797 9.1933278,2.73888797 C9.36375104,2.73888797 9.50595851,2.79581743 9.61978423,2.90957676 L13.0504896,6.34038174 C13.1706888,6.46051452 13.2306722,6.6026888 13.2306722,6.76693776 C13.2306058,6.93115353 13.1706556,7.07329461 13.0504564,7.19339419 Z" id="Shape" fill-rule="nonzero"></path>
                                <polygon id="Path" points="9.19352697 3.77224896 12.1884813 6.76703734 6.76746888 12.1880498 3.7726805 9.19326141"></polygon>
                            </g>
                        </g>
                    </g>
                </g>
            </g>
        </g>
    </g>
</svg>