<svg width="16" height="14" xmlns="http://www.w3.org/2000/svg"><g fill="currentColor" fill-rule="evenodd"><path d="M0-1h16v16H0z"/><path d="M15.986 5.459a.706.706 0 0 0-.04-.134L14.119.847A1.332 1.332 0 0 0 12.894 0H3.106c-.534 0-1.015.333-1.225.848L.054 5.324v.001A.706.706 0 0 0 0 5.6v7c0 .772.598 1.4 1.333 1.4h13.334c.735 0 1.333-.628 1.333-1.4v-7a.722.722 0 0 0-.014-.141zM3.106 1.4h9.788l1.428 3.5h-2.37c-.66 0-1.216.486-1.32 1.155C10.42 7.415 9.313 8.4 8 8.4c-1.313 0-2.42-.986-2.632-2.345A1.342 1.342 0 0 0 4.048 4.9h-2.37l1.428-3.5zM1.333 12.6v-1.4h1.334c.368 0 .666-.314.666-.7 0-.386-.298-.7-.666-.7H1.333V6.3h2.715l.005-.02C4.37 8.32 6.03 9.8 8 9.8s3.63-1.48 3.952-3.5h2.715v3.5h-1.334c-.368 0-.666.314-.666.7 0 .386.298.7.666.7h1.334v1.4H1.333z"/></g></svg>