<svg width="22" height="18" xmlns="http://www.w3.org/2000/svg"><path d="M4.75 2.846c0 1.02-.84 1.846-1.875 1.846C1.839 4.692 1 3.866 1 2.846S1.84 1 2.875 1c1.036 0 1.875.827 1.875 1.846zM2.875 7.154C1.839 7.154 1 7.98 1 9s.84 1.846 1.875 1.846c1.036 0 1.875-.826 1.875-1.846s-.84-1.846-1.875-1.846zm0 6.154c-1.036 0-1.875.826-1.875 1.846S1.84 17 2.875 17c1.036 0 1.875-.827 1.875-1.846 0-1.02-.84-1.846-1.875-1.846zm3.75-9.077h13.75A.62.62 0 0 0 21 3.615V2.077a.62.62 0 0 0-.625-.615H6.625A.62.62 0 0 0 6 2.077v1.538c0 .34.28.616.625.616zm0 6.154h13.75A.62.62 0 0 0 21 9.769V8.231a.62.62 0 0 0-.625-.616H6.625A.62.62 0 0 0 6 8.231v1.538c0 .34.28.616.625.616zm0 6.153h13.75a.62.62 0 0 0 .625-.615v-1.538a.62.62 0 0 0-.625-.616H6.625a.62.62 0 0 0-.625.616v1.538c0 .34.28.615.625.615z" fill="#929395" fill-rule="nonzero" stroke="#FFF"/></svg>