<svg width="24" height="18" xmlns="http://www.w3.org/2000/svg"><g fill="currentColor" fill-rule="evenodd"><path d="M2.625 5H.375a.36.36 0 0 0-.264.111.36.36 0 0 0-.111.264v2.25c0 .102.037.19.111.264A.361.361 0 0 0 .375 8h2.25a.36.36 0 0 0 .264-.111A.36.36 0 0 0 3 7.625v-2.25a.36.36 0 0 0-.111-.264A.36.36 0 0 0 2.625 5zM2.625 15H.375a.36.36 0 0 0-.264.111.36.36 0 0 0-.111.264v2.25c0 .102.037.19.111.264A.36.36 0 0 0 .375 18h2.25a.36.36 0 0 0 .264-.111.36.36 0 0 0 .111-.264v-2.25a.36.36 0 0 0-.111-.264.36.36 0 0 0-.264-.111zM2.625 10H.375a.361.361 0 0 0-.264.111.36.36 0 0 0-.111.264v2.25c0 .102.037.19.111.264A.36.36 0 0 0 .375 13h2.25a.36.36 0 0 0 .264-.111.36.36 0 0 0 .111-.264v-2.25a.36.36 0 0 0-.111-.264.36.36 0 0 0-.264-.111zM2.625 0H.375a.36.36 0 0 0-.264.111A.36.36 0 0 0 0 .375v2.25c0 .102.037.19.111.264A.36.36 0 0 0 .375 3h2.25a.36.36 0 0 0 .264-.111A.36.36 0 0 0 3 2.625V.375a.36.36 0 0 0-.111-.264A.361.361 0 0 0 2.625 0zM23.568 15H5.432a.447.447 0 0 0-.304.111.339.339 0 0 0-.128.264v2.25c0 .102.043.19.128.264a.447.447 0 0 0 .304.111h18.136a.448.448 0 0 0 .304-.111.339.339 0 0 0 .128-.264v-2.25a.34.34 0 0 0-.128-.264.449.449 0 0 0-.304-.111zM23.568 10H5.432a.449.449 0 0 0-.304.111.339.339 0 0 0-.128.264v2.25c0 .102.043.19.128.264a.448.448 0 0 0 .304.111h18.136a.448.448 0 0 0 .304-.111.339.339 0 0 0 .128-.264v-2.25a.34.34 0 0 0-.128-.264.45.45 0 0 0-.304-.111zM23.872.111A.449.449 0 0 0 23.568 0H5.432a.448.448 0 0 0-.304.111A.339.339 0 0 0 5 .375v2.25c0 .102.043.19.128.264A.448.448 0 0 0 5.432 3h18.136a.448.448 0 0 0 .304-.111.339.339 0 0 0 .128-.264V.375a.34.34 0 0 0-.128-.264zM23.568 5H5.432a.448.448 0 0 0-.304.111.34.34 0 0 0-.128.264v2.25c0 .102.043.19.128.264A.449.449 0 0 0 5.432 8h18.136a.449.449 0 0 0 .304-.111.339.339 0 0 0 .128-.264v-2.25a.34.34 0 0 0-.128-.264.449.449 0 0 0-.304-.111z"/></g></svg>