<svg width="16" height="16" xmlns="http://www.w3.org/2000/svg"><g fill="currentColor" fill-rule="evenodd"><path d="M15.976 5.27v-.14c0-.023-.023-.047-.023-.047 0-.023 0-.023-.024-.046v-.024c0-.023-.023-.023-.023-.047 0-.023-.024-.023-.024-.047 0 0 0-.023-.023-.023v-.023l-.024-.024c0-.023-.023-.023-.023-.047 0 0-.024 0-.024-.023l-.047-.047c-.023 0-.023-.023-.047-.023l-2.706-1.664V.655c0-.35-.306-.655-.682-.655H3.647a.656.656 0 0 0-.659.656v2.39L.282 4.755c-.023 0-.023.023-.047.023l-.047.047s-.023 0-.023.023c-.024 0-.024.024-.024.047l-.023.023v.024s0 .023-.024.023c0 .024-.023.024-.023.047 0 .024-.024.024-.024.047v.023c0 .024 0 .024-.023.047 0 .024-.024.047-.024.047v10.285c0 .024.024.047.024.07 0 .024.023.047.023.07 0 .024.024.048.024.048.023.023.023.046.047.07 0 0 0 .023.023.023l.024.024.047.047.047.046.047.047c.023 0 .047.024.047.024.023 0 .047.023.07.023.024 0 .048.024.071.024.024 0 .047 0 .07.023h14.778c.047 0 .094 0 .141-.023h.024c.023 0 .07-.024.094-.024.024 0 .024-.023.047-.023.024-.024.047-.024.07-.047.024 0 .024-.024.048-.024l.07-.07.024-.023s0-.024.023-.024c.024-.023.024-.047.047-.07 0-.023.024-.047.024-.047 0-.023.023-.047.023-.07 0-.024.024-.047.024-.07V5.317c-.024 0-.024 0-.024-.047 0 .023 0 .023 0 0zM1.318 6.654l4.54 3.514-4.54 3.701V6.653zm6.023 4.006l.33-.258a.496.496 0 0 1 .611 0l.306.258 4.847 3.935H2.518L7.34 10.66zm2.753-.492l4.541-3.49v7.215l-4.54-3.725zm4.07-4.802l-1.176.913v-1.64l1.177.727zm-2.517-4.03V7.31L9.035 9.324a1.809 1.809 0 0 0-2.094 0L4.33 7.309V1.335h7.318zM2.988 6.278l-1.176-.913 1.176-.75v1.663z"/><path d="M6.609 4H9.39c.35 0 .61-.232.61-.5S9.717 3 9.391 3H6.61c-.35 0-.61.232-.61.5s.283.5.609.5zm0 2H9.39c.35 0 .61-.232.61-.5S9.717 5 9.391 5H6.61c-.35 0-.61.232-.61.5s.283.5.609.5z"/></g></svg>