<svg width="64" height="64" xmlns="http://www.w3.org/2000/svg"><defs><linearGradient x1="100%" y1="50%" x2="9.905%" y2="50%" id="a"><stop stop-color="#08AEEA" offset="0%"/><stop stop-color="#14CD9A" offset="100%"/></linearGradient></defs><g stroke="url(#a)" fill="none" fill-rule="evenodd"><circle cx="32" cy="32" r="31.5"/><path d="M45.572 30.766H33.234V18.428c0-.679-.553-1.234-1.234-1.234-.681 0-1.234.555-1.234 1.234v12.338H18.428c-.681 0-1.234.555-1.234 1.234 0 .685.553 1.234 1.234 1.234h12.338v12.338c0 .685.553 1.234 1.234 1.234.681 0 1.234-.55 1.234-1.234V33.234h12.338c.681 0 1.234-.55 1.234-1.234 0-.679-.553-1.234-1.234-1.234" stroke-width=".2" fill="url(#a)"/></g></svg>