<?xml version="1.0" encoding="UTF-8"?>
<svg width="70px" height="16px" viewBox="0 0 70 16" version="1.1" xmlns="http://www.w3.org/2000/svg" xmlns:xlink="http://www.w3.org/1999/xlink">
    <!-- Generator: sketchtool 54.1 (76490) - https://sketchapp.com -->
    <title>F34B8F62-A72A-4272-BEC7-C60F44924914</title>
    <desc>Created with sketchtool.</desc>
    <g id="Mailbox-v4" stroke="none" stroke-width="1" fill="none" fill-rule="evenodd">
        <g id="Settings-mailbox-settings-Connecition-settings-popup" transform="translate(-1756.000000, -28.000000)" fill-rule="nonzero">
            <g id="progress-bar" transform="translate(1756.000000, 28.000000)">
                <g id="Group" transform="translate(4.192708, 3.463542)">
                    <path d="M0.269791667,4.375 C0.269791667,6.65729167 2.1196875,8.5071875 4.40197917,8.5071875 L7.31864583,8.5071875 L7.31864583,0.2428125 L4.40197917,0.2428125 C2.1196875,0.2428125 0.269791667,2.09270833 0.269791667,4.375 Z" id="Path" fill="#E7E8EB"></path>
                    <polygon id="Path" fill="#E2E3E6" points="8.68583333 0.2428125 14.5191667 0.2428125 14.5191667 8.50645833 8.68583333 8.50645833"></polygon>
                    <polygon id="Path" fill="#DFE0E3" points="15.8863542 0.2428125 21.7196875 0.2428125 21.7196875 8.50645833 15.8863542 8.50645833"></polygon>
                    <polygon id="Path" fill="#D8D9DB" points="23.086875 0.2428125 28.9202083 0.2428125 28.9202083 8.50645833 23.086875 8.50645833"></polygon>
                    <polygon id="Path" fill="#D0D1D4" points="30.2873958 0.2428125 36.1207292 0.2428125 36.1207292 8.50645833 30.2873958 8.50645833"></polygon>
                    <polygon id="Path" fill="#C9C9CC" points="37.4879167 0.2428125 43.32125 0.2428125 43.32125 8.50645833 37.4879167 8.50645833"></polygon>
                    <polygon id="Path" fill="#C1C2C4" points="44.6884375 0.2428125 50.5217708 0.2428125 50.5217708 8.50645833 44.6884375 8.50645833"></polygon>
                </g>
                <path d="M62.0666667,0.0605208333 L29.5130208,0.0605208333 C29.1097917,0.0605208333 28.7838542,0.386458333 28.7838542,0.7896875 C28.7838542,1.19291667 29.1097917,1.51885417 29.5130208,1.51885417 L62.0666667,1.51885417 C65.5513542,1.51885417 68.3863542,4.35385417 68.3863542,7.83854167 C68.3863542,11.3225 65.5513542,14.1575 62.0666667,14.1575 L7.86479167,14.1575 C4.38083333,14.1575 1.54583333,11.3225 1.54583333,7.83854167 C1.54583333,4.35385417 4.38083333,1.51885417 7.86479167,1.51885417 L29.4670833,1.51885417 C29.8703125,1.51885417 30.19625,1.19291667 30.19625,0.7896875 C30.19625,0.386458333 29.8703125,0.0605208333 29.4670833,0.0605208333 L7.86479167,0.0605208333 C3.5765625,0.0605208333 0.0875,3.54958333 0.0875,7.83854167 C0.0875,12.1267708 3.5765625,15.6158333 7.86479167,15.6158333 L62.0666667,15.6158333 C66.355625,15.6158333 69.8446875,12.1267708 69.8446875,7.83854167 C69.8446875,3.54958333 66.355625,0.0605208333 62.0666667,0.0605208333 Z" id="Path" fill="#929395"></path>
            </g>
        </g>
    </g>
</svg>