<svg width="24" height="24" xmlns="http://www.w3.org/2000/svg"><g fill="#FFF" fill-rule="evenodd"><path d="M9.035 7.094c-.106.106-.14.177-.211.212.105-.07.211-.212.211-.212zm4.2.776c.318.389.46.848.46 1.377 0 .388-.107.741-.319 1.094-.105.212-.282.388-.458.565l-.636.635c-.6.6-1.023 1.13-1.2 1.588-.176.46-.282 1.095-.282 1.836h1.412c0-.67.07-1.165.212-1.518.14-.353.494-.776.988-1.27.706-.671 1.164-1.2 1.412-1.553.247-.353.352-.812.352-1.377 0-.918-.317-1.694-.952-2.294-.636-.6-1.483-.882-2.506-.882-1.13 0-2.012.353-2.683 1.058-.635.706-.988 1.624-.988 2.789H9.46c.035-.706.141-1.236.317-1.589.353-.67.953-.988 1.836-.988.776-.035 1.306.141 1.623.53z"/><path d="M24 12c0-6.635-5.365-12-12-12S0 5.365 0 12s5.365 12 12 12 12-5.365 12-12zM1.059 12A10.926 10.926 0 0 1 12 1.059 10.926 10.926 0 0 1 22.941 12 10.926 10.926 0 0 1 12 22.941 10.926 10.926 0 0 1 1.059 12z"/><path d="M10.765 16.306h1.588v1.659h-1.588z"/></g></svg>