<svg width="12" height="14" xmlns="http://www.w3.org/2000/svg"><g fill="none" fill-rule="evenodd"><path d="M-1 0h14v14H-1z"/><path d="M.619 7.479a5.324 5.324 0 01.18-2.115A5.343 5.343 0 015.851 1.53V.094c0-.08.1-.122.165-.074l2.95 2.169c.049.037.049.11 0 .145L6.02 4.502c-.069.049-.165.006-.165-.074V2.997A3.863 3.863 0 002.36 5.364a3.811 3.811 0 00.544 3.89c.262.327.199.805-.14 1.053a.74.74 0 01-1.018-.142A5.262 5.262 0 01.619 7.479zm8.52-2.755a3.8 3.8 0 01.842 2.2 3.837 3.837 0 01-.3 1.69 3.858 3.858 0 01-3.493 2.367v-1.43c0-.08-.1-.123-.166-.075l-2.95 2.168c-.049.037-.049.111 0 .146l2.948 2.168c.068.048.165.006.165-.074V12.45a5.333 5.333 0 005.233-5.95 5.234 5.234 0 00-1.124-2.686.74.74 0 00-1.02-.143.736.736 0 00-.136 1.053z" fill="#09B0E2" fill-rule="nonzero"/></g></svg>