<svg width="24" height="24" xmlns="http://www.w3.org/2000/svg"><g fill="#FFF" fill-rule="evenodd"><path d="M22.819 9.522l-1.698-.283c-.177-.566-.39-1.133-.672-1.628l.99-1.38a1.458 1.458 0 0 0-.177-1.912l-1.45-1.558a1.44 1.44 0 0 0-1.062-.425c-.318 0-.6.106-.849.283l-1.415.992a9.031 9.031 0 0 0-1.698-.708l-.283-1.664A1.48 1.48 0 0 0 13.055 0h-2.123c-.743 0-1.344.531-1.45 1.239l-.284 1.7c-.566.176-1.096.424-1.627.672l-1.38-.992c-.283-.141-.601-.247-.884-.247-.39 0-.779.141-1.062.424L2.76 4.283c-.496.496-.567 1.31-.177 1.912l.99 1.416a9.289 9.289 0 0 0-.672 1.628l-1.663.319A1.48 1.48 0 0 0 0 11.008v2.125c0 .743.53 1.345 1.238 1.451l1.698.283c.177.567.425 1.098.673 1.629l-.991 1.38a1.458 1.458 0 0 0 .177 1.912l1.486 1.486a1.44 1.44 0 0 0 1.061.425c.319 0 .602-.106.85-.283l1.414-.991a6.243 6.243 0 0 0 1.592.637l.283 1.7A1.48 1.48 0 0 0 10.931 24h2.124c.743 0 1.344-.531 1.45-1.239l.283-1.7c.566-.176 1.132-.388 1.628-.672l1.38.992c.247.177.565.283.848.283.39 0 .779-.142 1.062-.425l1.486-1.487c.495-.495.566-1.31.176-1.911l-.99-1.416a9.289 9.289 0 0 0 .672-1.629l1.698-.283a1.48 1.48 0 0 0 1.238-1.451v-2.124c.107-.673-.424-1.31-1.167-1.416zm-.106 3.575c0 .071-.036.107-.106.142l-2.123.354a.602.602 0 0 0-.53.495c-.178.744-.496 1.452-.885 2.124-.142.248-.142.531.035.744l1.239 1.734c.035.036.035.142 0 .177l-1.486 1.487c-.036.035-.071.035-.107.035-.035 0-.07 0-.07-.035l-1.77-1.239a.701.701 0 0 0-.742-.035 9.328 9.328 0 0 1-2.123.885c-.247.07-.46.283-.495.53l-.354 2.124c0 .071-.07.107-.141.107h-2.123c-.07 0-.106-.036-.142-.107l-.353-2.123a.602.602 0 0 0-.496-.531 7.404 7.404 0 0 1-2.052-.85.597.597 0 0 0-.353-.106.532.532 0 0 0-.39.141l-1.769 1.24c-.035 0-.035.035-.07.035-.036 0-.071 0-.106-.036l-1.486-1.486c-.036-.036-.036-.107 0-.177l1.238-1.735a.702.702 0 0 0 .035-.743 7.728 7.728 0 0 1-.884-2.089c-.07-.247-.283-.46-.53-.495L1.45 13.31c-.071 0-.107-.071-.107-.142v-2.124c0-.07.036-.106.107-.141l2.087-.354a.602.602 0 0 0 .53-.496c.177-.743.46-1.451.85-2.124a.702.702 0 0 0-.036-.743l-1.238-1.77c-.035-.035-.035-.142 0-.177L5.13 3.752c.035-.035.07-.035.106-.035.035 0 .07 0 .07.035l1.734 1.24a.701.701 0 0 0 .743.035 7.72 7.72 0 0 1 2.088-.885c.247-.071.46-.284.495-.531l.354-2.124c0-.071.07-.106.141-.106h2.123c.07 0 .106.035.141.106l.354 2.088a.602.602 0 0 0 .495.531 8.161 8.161 0 0 1 2.158.885c.248.142.531.142.743-.035l1.734-1.24c.035 0 .035-.035.07-.035.036 0 .071 0 .107.036l1.486 1.487c.035.035.035.106 0 .177l-1.168 1.77a.702.702 0 0 0-.035.743c.39.672.672 1.38.884 2.124.071.247.283.46.531.495l2.123.354c.07 0 .106.071.106.142v2.088z"/><path d="M12 7c-2.755 0-5 2.245-5 5s2.245 5 5 5 5-2.245 5-5-2.245-5-5-5zm0 8.707a3.68 3.68 0 0 1-3.673-3.673c0-2.007 1.632-3.707 3.673-3.707 2.04 0 3.707 1.632 3.707 3.673A3.716 3.716 0 0 1 12 15.707z"/></g></svg>