<?xml version="1.0" encoding="UTF-8"?>
<svg width="80px" height="51px" viewBox="0 0 80 51" version="1.1" xmlns="http://www.w3.org/2000/svg" xmlns:xlink="http://www.w3.org/1999/xlink">
    <!-- Generator: Sketch 52.4 (67378) - http://www.bohemiancoding.com/sketch -->
    <title>icon</title>
    <desc>Created with Sketch.</desc>
    <g id="Page-1" stroke="none" stroke-width="1" fill="none" fill-rule="evenodd">
        <g id="Settings-General" transform="translate(-1420.000000, -146.000000)" fill="#14CD9A" fill-rule="nonzero">
            <g id="ticketing" transform="translate(1347.000000, 146.000000)">
                <g id="icon" transform="translate(73.000000, 0.000000)">
                    <path d="M49.8440247,49.8440247 C49.1620742,50.5259751 48.2371509,50.9090909 47.2727273,50.9090909 L3.63636364,50.9090909 C1.62805545,50.9090909 0,49.2810355 0,47.2727273 L0,34.3636035 C0,32.634144 1.21808064,31.143964 2.91297385,30.7999189 C5.43030398,30.2889278 7.27272727,28.0598385 7.27272727,25.4545455 C7.27272727,22.8492524 5.43030398,20.6201631 2.91297385,20.109172 C1.21808064,19.7651269 0,18.2749469 0,16.5454875 L0,3.63636364 C0,1.62805545 1.62805545,0 3.63636364,0 L47.2727273,0 C48.2371509,0 49.1620742,0.383115818 49.8440247,1.06506618 L52.7272727,3.94831436 L55.6105207,1.06506618 C56.2924713,0.383115818 57.2173945,0 58.1818182,0 L76.3636364,0 C78.3719445,0 80,1.62805545 80,3.63636364 L80,16.5454875 C80,18.2749469 78.7819195,19.7651269 77.0870262,20.109172 C74.569696,20.6201631 72.7272727,22.8492524 72.7272727,25.4545455 C72.7272727,28.0598385 74.569696,30.2889278 77.0870262,30.7999189 C78.7819195,31.143964 80,32.634144 80,34.3636035 L80,47.2727273 C80,49.2810355 78.3719445,50.9090909 76.3636364,50.9090909 L58.1818182,50.9090909 C57.2173945,50.9090909 56.2924713,50.5259751 55.6105207,49.8440247 L52.7272727,46.9607765 L49.8440247,49.8440247 Z M75,46 L75,36.9575415 C70.6587655,34.8984529 67.7360502,30.4784964 67.7360502,25.4545455 C67.7360502,20.4305945 70.6587655,16.010638 75,13.9515495 L75,5 L58.3244129,5 L55,8.32441291 L55,42.6755871 L58.3244129,46 L75,46 Z M50,42.8825276 L50,8.32441291 L46.6755871,5 L5,5 L5,15 C9.34123445,17.0590885 12.239238,20.4305945 12.239238,25.4545455 C12.239238,30.4784964 9.34123445,33.9409115 5,36 L5,46.2069405 L46.6755871,46.2069405 L50,42.8825276 Z" id="Combined-Shape"></path>
                </g>
            </g>
        </g>
    </g>
</svg>