<svg width="24" height="24" xmlns="http://www.w3.org/2000/svg" fill="#929395">
  <g fill="#929395" fill-rule="evenodd">
    <path d="M6.15 10.164a.472.472 0 0 0 .47-.469.472.472 0 0 0-.47-.468.472.472 0 0 0-.468.468.473.473 0 0 0 .469.47zm6.716-.621a.473.473 0 0 0-.663 0 .472.472 0 0 0 0 .663.472.472 0 0 0 .663 0 .471.471 0 0 0 0-.663zm1.309-.84a.472.472 0 0 0 .468-.469.472.472 0 0 0-.468-.468.473.473 0 0 0-.47.468.472.472 0 0 0 .47.469z" />
    <path d="M22.594 11.531h-1.308l2.302-2.302c.266-.266.412-.62.412-.995s-.146-.729-.412-.994L21.5 5.152a.469.469 0 0 0-.663 0 1.397 1.397 0 0 1-.994.412c-.376 0-.729-.147-.995-.412a1.396 1.396 0 0 1-.411-.995 1.4 1.4 0 0 1 .411-.994.469.469 0 0 0 0-.663L16.76.412A1.397 1.397 0 0 0 15.766 0c-.376 0-.729.146-.995.412L7.03 8.154a.469.469 0 1 0 .663.663l7.742-7.742a.465.465 0 0 1 .663 0l1.79 1.79a2.33 2.33 0 0 0-.388 1.292c0 .626.244 1.215.686 1.658a2.329 2.329 0 0 0 1.658.686c.467 0 .912-.135 1.293-.388l1.79 1.79a.47.47 0 0 1 0 .663L19.96 11.53h-2.055l1.54-1.54a.469.469 0 0 0 0-.663l-4.773-4.773a.469.469 0 0 0-.663 0L7.033 11.53H1.406C.631 11.53 0 12.16 0 12.936v2.953c0 .26.21.47.469.47a1.407 1.407 0 0 1 0 2.812.469.469 0 0 0-.469.469v2.954C0 23.369.63 24 1.406 24h21.188c.775 0 1.406-.631 1.406-1.406V19.64a.469.469 0 0 0-.469-.468 1.408 1.408 0 0 1-1.406-1.407c0-.775.63-1.406 1.406-1.406.26 0 .469-.21.469-.469v-2.953c0-.775-.63-1.406-1.406-1.406zM14.34 5.55l4.11 4.11-1.87 1.872h-1.857l1.374-1.374a.469.469 0 1 0-.663-.663l-2.037 2.037H8.36l5.981-5.982zm8.723 9.92a2.348 2.348 0 0 0-1.875 2.296c0 1.132.806 2.08 1.875 2.297v2.532a.47.47 0 0 1-.47.468H1.407a.47.47 0 0 1-.468-.468v-2.532a2.348 2.348 0 0 0 1.875-2.297A2.348 2.348 0 0 0 .937 15.47v-2.532a.47.47 0 0 1 .47-.468h21.187a.47.47 0 0 1 .468.468v2.532z"
      fill-rule="nonzero" />
    <path d="M10.011 16.972a.472.472 0 0 0-.331-.8.472.472 0 0 0-.47.468.473.473 0 0 0 .47.47.473.473 0 0 0 .331-.138zm4.641 0a.472.472 0 0 0-.331-.8.472.472 0 0 0-.47.468.473.473 0 0 0 .47.47.469.469 0 0 0 .33-.138zm-2.321 0a.472.472 0 0 0-.331-.8.472.472 0 0 0-.469.468.473.473 0 0 0 .469.47.473.473 0 0 0 .331-.138zm-4.971.138a.472.472 0 0 0 .468-.47.472.472 0 0 0-.469-.468.472.472 0 0 0-.468.468.473.473 0 0 0 .468.47zm9.612-.138a.472.472 0 0 0-.331-.8.472.472 0 0 0-.47.468.473.473 0 0 0 .47.47.473.473 0 0 0 .331-.138zM7.36 19.36h9.28a.469.469 0 0 0 0-.938H7.36a.469.469 0 1 0 0 .937zm1.702 1.312a.472.472 0 0 0-.469.468.473.473 0 0 0 .469.47.472.472 0 0 0 .469-.47.47.47 0 0 0-.47-.468z" />
    <path d="M19.125 13.922H4.875a.469.469 0 0 0-.469.468v6.75c0 .26.21.47.469.47h1.953a.469.469 0 0 0 0-.938H5.344v-5.813h13.312v5.813h-7.61a.469.469 0 1 0 0 .937h8.079c.259 0 .469-.21.469-.469v-6.75a.469.469 0 0 0-.469-.468z" />
  </g>
</svg>