<svg width="18" height="18" xmlns="http://www.w3.org/2000/svg"><g fill="currentColor" fill-rule="nonzero"><rect width="3" height="3" rx=".5"/><rect y="5" width="3" height="3" rx=".5"/><rect y="10" width="3" height="3" rx=".5"/><rect y="15" width="3" height="3" rx=".5"/><rect x="5" width="3" height="3" rx=".5"/><rect x="5" y="5" width="3" height="3" rx=".5"/><rect x="5" y="10" width="3" height="3" rx=".5"/><rect x="5" y="15" width="3" height="3" rx=".5"/><rect x="10" width="3" height="3" rx=".5"/><rect x="10" y="5" width="3" height="3" rx=".5"/><rect x="10" y="10" width="3" height="3" rx=".5"/><rect x="10" y="15" width="3" height="3" rx=".5"/><rect x="15" width="3" height="3" rx=".5"/><rect x="15" y="5" width="3" height="3" rx=".5"/><rect x="15" y="10" width="3" height="3" rx=".5"/><rect x="15" y="15" width="3" height="3" rx=".5"/></g></svg>