<svg width="16" height="18" xmlns="http://www.w3.org/2000/svg"><path d="M8.008 13.133c-2.864 0-4.894-1.6-4.894-4.732V3H2.23a.5.5 0 0 1-.5-.5v-1a.5.5 0 0 1 .5-.5h4.294a.5.5 0 0 1 .5.5v1a.5.5 0 0 1-.5.5h-.9v5.401c0 1.679.884 2.483 2.384 2.483 1.468 0 2.369-.795 2.369-2.499V3h-.884a.5.5 0 0 1-.5-.5v-1a.5.5 0 0 1 .5-.5h4.277a.5.5 0 0 1 .5.5v1a.5.5 0 0 1-.5.5h-.884v5.401c0 3.107-2.028 4.732-4.878 4.732zM1.5 15h13a.5.5 0 0 1 .5.5v1a.5.5 0 0 1-.5.5h-13a.5.5 0 0 1-.5-.5v-1a.5.5 0 0 1 .5-.5z" fill="#929395" fill-rule="nonzero" stroke="#FFF"/></svg>