<svg width="24" height="24" xmlns="http://www.w3.org/2000/svg"><g fill="none" fill-rule="evenodd"><rect stroke="#FFF" stroke-width="1.2" x=".6" y=".6" width="22.8" height="22.8" rx="4"/><path d="M12 12.825c1.8 0 3.3-1.5 3.3-3.3 0-1.8-1.5-3.3-3.3-3.3-1.8 0-3.3 1.5-3.3 3.3 0 1.8 1.5 3.3 3.3 3.3zm-2.175-3.3c0-1.2.975-2.175 2.175-2.175 1.2 0 2.175.975 2.175 2.175 0 1.2-.975 2.175-2.175 2.175-1.2 0-2.175-.975-2.175-2.175zm4.125 3.6h-3.9C7.8 13.125 6 15 6 17.25c0 .3.225.525.525.525H17.4c.3 0 .525-.225.525-.525.075-2.325-1.725-4.125-3.975-4.125zM7.2 16.65c.3-1.35 1.5-2.4 2.925-2.4h3.825c1.425 0 2.625 1.05 2.925 2.4H7.2z" fill="#FFF"/></g></svg>