<svg width="24" height="24" xmlns="http://www.w3.org/2000/svg"><g fill="none" fill-rule="evenodd" opacity=".7"><path d="M0 0h24v24H0z"/><path d="M10.088 12.413a5.97 5.97 0 100-11.941 5.97 5.97 0 000 11.941zm2.89-3.615c-.271.898-1.435 1.573-2.83 1.573-1.394 0-2.557-.675-2.829-1.573h5.66zm10.874 10.085l-5.462 4.553a.42.42 0 01-.555-.025l-2.72-2.72a.413.413 0 010-.583l.582-.582c.16-.16.422-.16.583 0l1.922 1.922 4.596-3.83a.413.413 0 01.58.053l.527.632a.413.413 0 01-.053.58zm-9.378 2.448l1.036 1.036c-1.414.2-3.196.34-5.422.34-5.757 0-8.574-.94-9.607-1.4C.215 21.19 0 20.85 0 20.557V18.59c0-2.95 2.245-5.396 5.11-5.724a.478.478 0 01.288.079 7.971 7.971 0 004.69 1.527c1.752 0 3.37-.57 4.69-1.527a.478.478 0 01.288-.079c2.865.328 5.11 2.775 5.11 5.724v.033l-1.918 1.6-1.338-1.338a1.31 1.31 0 00-.932-.386 1.31 1.31 0 00-.931.386l-.583.583a1.319 1.319 0 000 1.863z" fill="curentColor" fill-rule="nonzero"/></g></svg>