<svg width="677" height="501" xmlns="http://www.w3.org/2000/svg"><defs><linearGradient x1="70.574%" y1="95.077%" x2="25.104%" y2=".085%" id="a"><stop stop-color="#08AEEA" offset="0%"/><stop stop-color="#40BBE6" offset="37%"/><stop stop-color="#7BC9E3" offset="80%"/><stop stop-color="#92CEE1" offset="100%"/></linearGradient><linearGradient x1="1.044%" y1="3.062%" x2="62.414%" y2="71.654%" id="b"><stop stop-color="#14663B" offset="0%"/><stop stop-color="#44B37A" offset="100%"/></linearGradient><linearGradient x1="869.469%" y1="-974.308%" x2="761.278%" y2="-969.383%" id="c"><stop stop-color="#14663B" offset="0%"/><stop stop-color="#44B37A" offset="100%"/></linearGradient><linearGradient x1="1003.589%" y1="-727.997%" x2="1001.806%" y2="-825.654%" id="d"><stop stop-color="#14663B" offset="0%"/><stop stop-color="#44B37A" offset="100%"/></linearGradient><linearGradient x1="768.342%" y1="-872.229%" x2="895.243%" y2="-872.229%" id="e"><stop stop-color="#14663B" offset="0%"/><stop stop-color="#44B37A" offset="100%"/></linearGradient><linearGradient x1="52.689%" y1="-1.087%" x2="46.178%" y2="69.128%" id="f"><stop stop-color="#14663B" offset="0%"/><stop stop-color="#44B37A" offset="100%"/></linearGradient><linearGradient x1="84.548%" y1="-4.804%" x2="6.727%" y2="76.965%" id="g"><stop stop-color="#14CD9A" offset="0%"/><stop stop-color="#61EEB6" offset="67%"/></linearGradient><linearGradient x1="103.239%" y1="56.119%" x2="18.038%" y2="53.048%" id="h"><stop stop-color="#14663B" offset="0%"/><stop stop-color="#44B37A" offset="100%"/></linearGradient><linearGradient x1="97.299%" y1="88.622%" x2="14.97%" y2="16.496%" id="i"><stop stop-color="#148175" offset="1%"/><stop stop-color="#4AD79D" offset="100%"/></linearGradient><linearGradient x1="44.928%" y1="102.216%" x2="52.424%" y2="19.306%" id="j"><stop stop-color="#14663B" offset="0%"/><stop stop-color="#44B37A" offset="100%"/></linearGradient><linearGradient x1="-1.134%" y1="103.47%" x2="95.975%" y2="10.337%" id="k"><stop stop-color="#14663B" offset="0%"/><stop stop-color="#44B37A" offset="100%"/></linearGradient><linearGradient x1="-.948%" y1="49.473%" x2="98.691%" y2="61.239%" id="l"><stop stop-color="#14663B" offset="0%"/><stop stop-color="#44B37A" offset="100%"/></linearGradient><linearGradient x1="30.519%" y1="-3.015%" x2="61.804%" y2="66.877%" id="m"><stop stop-color="#148175" offset="1%"/><stop stop-color="#4AD79D" offset="100%"/></linearGradient><linearGradient x1="103.831%" y1="22.316%" x2="17.599%" y2="60.827%" id="n"><stop stop-color="#148175" offset="1%"/><stop stop-color="#4AD79D" offset="100%"/></linearGradient><linearGradient x1="72.144%" y1="94.935%" x2="37.073%" y2="12.854%" id="o"><stop stop-color="#148175" offset="1%"/><stop stop-color="#4AD79D" offset="100%"/></linearGradient><linearGradient x1="2.451%" y1="64.838%" x2="104.49%" y2="27.06%" id="p"><stop stop-color="#148175" offset="1%"/><stop stop-color="#4AD79D" offset="100%"/></linearGradient><linearGradient x1="92.215%" y1="-9.821%" x2="38.481%" y2="60.6%" id="q"><stop stop-color="#148175" offset="1%"/><stop stop-color="#4AD79D" offset="100%"/></linearGradient><linearGradient x1="99.581%" y1="2.491%" x2="12.837%" y2="71.826%" id="r"><stop stop-color="#14CD9A" offset="0%"/><stop stop-color="#61EEB6" offset="67%"/></linearGradient><linearGradient x1="110.757%" y1="79.874%" x2="27.516%" y2="17.664%" id="s"><stop stop-color="#14CD9A" offset="0%"/><stop stop-color="#61EEB6" offset="67%"/></linearGradient><linearGradient x1="93.136%" y1="92.994%" x2="22.658%" y2="12.952%" id="t"><stop stop-color="#14CD9A" offset="0%"/><stop stop-color="#61EEB6" offset="100%"/></linearGradient><linearGradient x1="26.673%" y1="100.421%" x2="87.345%" y2="16.794%" id="u"><stop stop-color="#148175" offset="1%"/><stop stop-color="#4AD79D" offset="100%"/></linearGradient><linearGradient x1="968.595%" y1="-1210.729%" x2="1092.653%" y2="-1210.729%" id="v"><stop stop-color="#14CD9A" offset="0%"/><stop stop-color="#61EEB6" offset="100%"/></linearGradient><linearGradient x1="2.547%" y1="8.657%" x2="98.21%" y2="88.593%" id="w"><stop stop-color="#148175" offset="1%"/><stop stop-color="#4AD79D" offset="100%"/></linearGradient><linearGradient x1="1131.178%" y1="-1026.145%" x2="1132.9%" y2="-943.687%" id="x"><stop stop-color="#14CD9A" offset="0%"/><stop stop-color="#61EEB6" offset="100%"/></linearGradient><linearGradient x1="26.507%" y1="107.512%" x2="70.125%" y2=".879%" id="y"><stop stop-color="#B2E1FF" offset="0%"/><stop stop-color="#DFEFFF" offset="60%"/><stop stop-color="#FFF9FF" offset="100%"/></linearGradient><linearGradient x1="90.14%" y1="49.588%" x2="32.662%" y2="50.157%" id="z"><stop stop-color="#08AEEA" offset="0%"/><stop stop-color="#48C5E6" offset="40%"/><stop stop-color="#83DBE2" offset="81%"/><stop stop-color="#9AE3E1" offset="100%"/></linearGradient><linearGradient x1="41.982%" y1="101.09%" x2="61.044%" y2="8.487%" id="A"><stop stop-color="#B2E1FF" offset="0%"/><stop stop-color="#C0E6FF" offset="10%"/><stop stop-color="#DCEEFF" offset="32%"/><stop stop-color="#EFF4FF" offset="54%"/><stop stop-color="#FBF8FF" offset="77%"/><stop stop-color="#FFF9FF" offset="100%"/></linearGradient><linearGradient x1="-.001%" y1="49.999%" x2="100%" y2="49.999%" id="B"><stop stop-color="#0879A5" offset="0%"/><stop stop-color="#45A5BE" offset="60%"/><stop stop-color="#68BFCC" offset="100%"/></linearGradient><linearGradient x1="51.657%" y1="108.411%" x2="46.565%" y2="17.667%" id="C"><stop stop-color="#B2E1FF" offset="0%"/><stop stop-color="#DFEFFF" offset="60%"/><stop stop-color="#FFF9FF" offset="100%"/></linearGradient><linearGradient x1="51.72%" y1="5.808%" x2="49.729%" y2="71.638%" id="D"><stop stop-color="#FF948D" offset="0%"/><stop stop-color="#EDD6BC" offset="93%"/></linearGradient><linearGradient x1="-8.681%" y1="-74.411%" x2="-49.427%" y2="-162.274%" id="E"><stop stop-color="#FFF9FF" offset="0%"/><stop stop-color="#DFEFFF" offset="25%"/><stop stop-color="#B2E1FF" offset="63%"/></linearGradient><linearGradient x1="-.001%" y1="50%" x2="99.996%" y2="50%" id="F"><stop stop-color="#FFF9FF" offset="0%"/><stop stop-color="#DFEFFF" offset="25%"/><stop stop-color="#B2E1FF" offset="63%"/></linearGradient><linearGradient x1="75.71%" y1="60.379%" x2="19.499%" y2="35.385%" id="G"><stop stop-color="#B2E1FF" offset="0%"/><stop stop-color="#C0E6FF" offset="10%"/><stop stop-color="#DCEEFF" offset="32%"/><stop stop-color="#EFF4FF" offset="54%"/><stop stop-color="#FBF8FF" offset="77%"/><stop stop-color="#FFF9FF" offset="100%"/></linearGradient><linearGradient x1="79.342%" y1="61.335%" x2="12.187%" y2="29.101%" id="H"><stop stop-color="#B2E1FF" offset="0%"/><stop stop-color="#C0E6FF" offset="10%"/><stop stop-color="#DCEEFF" offset="32%"/><stop stop-color="#EFF4FF" offset="54%"/><stop stop-color="#FBF8FF" offset="77%"/><stop stop-color="#FFF9FF" offset="100%"/></linearGradient><linearGradient x1="50.688%" y1="95.667%" x2="49.314%" y2="5.447%" id="I"><stop stop-color="#0879A5" offset="0%"/><stop stop-color="#45A5BE" offset="60%"/><stop stop-color="#68BFCC" offset="100%"/></linearGradient><linearGradient x1="54.01%" y1="108.625%" x2="48.022%" y2="21.625%" id="J"><stop stop-color="#B2E1FF" offset="0%"/><stop stop-color="#DFEFFF" offset="60%"/><stop stop-color="#FFF9FF" offset="100%"/></linearGradient><linearGradient x1="-.024%" y1="49.98%" x2="100.032%" y2="49.98%" id="K"><stop stop-color="#0879A5" offset="0%"/><stop stop-color="#45A5BE" offset="60%"/><stop stop-color="#68BFCC" offset="100%"/></linearGradient><linearGradient x1="99.388%" y1="65.656%" x2="43.916%" y2="48.283%" id="L"><stop stop-color="#08AEEA" offset="0%"/><stop stop-color="#40BBE6" offset="37%"/><stop stop-color="#7BC9E3" offset="80%"/><stop stop-color="#92CEE1" offset="100%"/></linearGradient><linearGradient x1="48.381%" y1="-2.806%" x2="50.727%" y2="67.229%" id="M"><stop stop-color="#28DAAA" offset="0%"/><stop stop-color="#77F5BF" offset="100%"/></linearGradient><linearGradient x1="103.608%" y1="45.848%" x2="18.31%" y2="52.746%" id="N"><stop stop-color="#28DAAA" offset="0%"/><stop stop-color="#77F5BF" offset="100%"/></linearGradient><linearGradient x1="51.246%" y1="99.236%" x2="48.913%" y2="16.633%" id="O"><stop stop-color="#28DAAA" offset="0%"/><stop stop-color="#77F5BF" offset="100%"/></linearGradient><linearGradient x1=".035%" y1="49.986%" x2="100.037%" y2="49.986%" id="P"><stop stop-color="#28DAAA" offset="0%"/><stop stop-color="#77F5BF" offset="100%"/></linearGradient><linearGradient x1="96.692%" y1=".411%" x2="31.118%" y2="68.938%" id="Q"><stop stop-color="#28DAAA" offset="0%"/><stop stop-color="#77F5BF" offset="100%"/></linearGradient><linearGradient x1="109.11%" y1="104.255%" x2="28.768%" y2="21.515%" id="R"><stop stop-color="#28DAAA" offset="0%"/><stop stop-color="#77F5BF" offset="100%"/></linearGradient><linearGradient x1="16.009%" y1="109.119%" x2="91.35%" y2="28.087%" id="S"><stop stop-color="#28DAAA" offset="0%"/><stop stop-color="#77F5BF" offset="100%"/></linearGradient><linearGradient x1="2.503%" y1="14.215%" x2="93.523%" y2="116.407%" id="T"><stop stop-color="#28DAAA" offset="0%"/><stop stop-color="#77F5BF" offset="100%"/></linearGradient><linearGradient x1="50.313%" y1="90.252%" x2="49.269%" y2="-6.965%" id="U"><stop stop-color="#08AEEA" offset="0%"/><stop stop-color="#48C5E6" offset="40%"/><stop stop-color="#83DBE2" offset="81%"/><stop stop-color="#9AE3E1" offset="100%"/></linearGradient><linearGradient x1="0%" y1="49.966%" x2="100.072%" y2="49.966%" id="V"><stop stop-color="#08AEEA" offset="0%"/><stop stop-color="#1AB2E9" offset="17%"/><stop stop-color="#49BDE6" offset="52%"/><stop stop-color="#92CEE1" offset="100%"/></linearGradient><linearGradient x1="17.078%" y1="50.001%" x2="2.896%" y2="50.001%" id="W"><stop stop-color="#08AEEA" offset="0%"/><stop stop-color="#40BBE6" offset="37%"/><stop stop-color="#7BC9E3" offset="80%"/><stop stop-color="#92CEE1" offset="100%"/></linearGradient><linearGradient x1="84.719%" y1="68.357%" x2="24.825%" y2="43.488%" id="X"><stop stop-color="#08AEEA" offset="0%"/><stop stop-color="#40BBE6" offset="37%"/><stop stop-color="#7BC9E3" offset="80%"/><stop stop-color="#92CEE1" offset="100%"/></linearGradient><linearGradient x1="69.258%" y1="55.502%" x2="38.575%" y2="45.952%" id="Y"><stop stop-color="#0879A5" offset="0%"/><stop stop-color="#45A5BE" offset="60%"/><stop stop-color="#68BFCC" offset="100%"/></linearGradient><linearGradient x1="0%" y1="50.015%" x2="99.999%" y2="50.015%" id="Z"><stop stop-color="#0879A5" offset="0%"/><stop stop-color="#45A5BE" offset="60%"/><stop stop-color="#68BFCC" offset="100%"/></linearGradient><linearGradient x1="17.025%" y1="152.412%" x2="111.582%" y2="-58.229%" id="aa"><stop stop-color="#0879A5" offset="0%"/><stop stop-color="#45A5BE" offset="60%"/><stop stop-color="#68BFCC" offset="100%"/></linearGradient><linearGradient x1="130.722%" y1="76.207%" x2="34.547%" y2="28.987%" id="ab"><stop stop-color="#08AEEA" offset="0%"/><stop stop-color="#40BBE6" offset="37%"/><stop stop-color="#7BC9E3" offset="80%"/><stop stop-color="#92CEE1" offset="100%"/></linearGradient><linearGradient x1="108.797%" y1="42.213%" x2="21.722%" y2="53.645%" id="ac"><stop stop-color="#08AEEA" offset="0%"/><stop stop-color="#40BBE6" offset="37%"/><stop stop-color="#7BC9E3" offset="80%"/><stop stop-color="#92CEE1" offset="100%"/></linearGradient><linearGradient x1="79.56%" y1="46.13%" x2="32.644%" y2="51.742%" id="ad"><stop stop-color="#0879A5" offset="0%"/><stop stop-color="#45A5BE" offset="60%"/><stop stop-color="#68BFCC" offset="100%"/></linearGradient><linearGradient x1="-52.793%" y1="72.23%" x2="109.903%" y2="32.784%" id="ae"><stop stop-color="#0879A5" offset="0%"/><stop stop-color="#45A5BE" offset="60%"/><stop stop-color="#68BFCC" offset="100%"/></linearGradient><linearGradient x1="70.309%" y1="155.855%" x2="9.815%" y2="-57.006%" id="af"><stop stop-color="#0879A5" offset="0%"/><stop stop-color="#45A5BE" offset="60%"/><stop stop-color="#68BFCC" offset="100%"/></linearGradient><linearGradient x1="119.46%" y1="30.321%" x2="9.407%" y2="54.367%" id="ag"><stop stop-color="#08AEEA" offset="0%"/><stop stop-color="#40BBE6" offset="37%"/><stop stop-color="#7BC9E3" offset="80%"/><stop stop-color="#92CEE1" offset="100%"/></linearGradient><linearGradient x1="0%" y1="50.014%" x2="100%" y2="50.014%" id="ah"><stop stop-color="#B2E1FF" offset="0%"/><stop stop-color="#C0E6FF" offset="10%"/><stop stop-color="#DCEEFF" offset="32%"/><stop stop-color="#EFF4FF" offset="54%"/><stop stop-color="#FBF8FF" offset="77%"/><stop stop-color="#FFF9FF" offset="100%"/></linearGradient></defs><g fill="none" fill-rule="evenodd"><path d="M619.242 251.715c-7.793 4.232-9.68 4.216-49.668-31.93-7.394-6.697-11.895-11.756-10.326-13.692-4.884 3.9-5.301 11.434-6.43 23.806-3.192 35.457-6.372 52.46 9.047 53.44 15.419.978 69.575 2.034 92.269.67 22.694-1.366 17.682-15.948 21.068-41.4 2.218-16.633 2.797-27.48-1.788-33.263 1.428 2.526-46.379 38.14-54.172 42.369z" fill="#E29A3B"/><path d="M619.242 251.715c-7.793 4.232-9.68 4.216-49.668-31.93-7.394-6.697-11.895-11.756-10.326-13.692-4.884 3.9-5.301 11.434-6.43 23.806-3.192 35.457-6.372 52.46 9.047 53.44 15.419.978 69.575 2.034 92.269.67 22.694-1.366 17.682-15.948 21.068-41.4 2.218-16.633 2.797-27.48-1.788-33.263 1.428 2.526-46.379 38.14-54.172 42.369z" fill="#E29A3B"/><path d="M568.766 219.529a99.77 99.77 0 0 1-7.173-6.984c4.738 6.853 15.321 19.435 37.81 37.106 13.383 10.515 14.582 9.836 28.895.392 13.3-8.775 33.589-26.076 42.874-38.257-8.933 8.903-45.748 35.985-52.51 39.64-7.83 4.228-9.725 4.212-49.896-31.897z" fill="#002630" opacity=".06"/><path d="M661.316 204.273c-16.837-.948-60.558-1.154-85.813-1.584-5.93-.1-10.134.446-13.169 1.763-.89.489-1.547.842-1.922 1.038a9.828 9.828 0 0 0-.788.578c-1.573 1.95 2.912 7.049 10.291 13.792 39.853 36.409 41.734 36.425 49.5 32.162 7.768-4.263 55.413-40.132 54.01-42.677-2.42-3.087-6.28-4.742-12.109-5.072z" fill="#F4B145"/><path d="M620.128 248.097c-8.3 4.547-14.365 4.68-56.252-32.895 1.499 1.52 3.257 3.184 5.225 4.961 39.92 36.085 41.803 36.1 49.583 31.876 5.751-3.124 33.378-23.394 46.78-34.751-15.379 11.427-39.832 27.79-45.336 30.809z" fill="#FCCC8B"/><path d="M561.877 283.35c15.133.949 67.56 1.977 91.032.74a52.946 52.946 0 0 1-8.29-8.077c-6.617-8.163-35.08-10.717-51.114-15.456-16.035-4.74-35.276-14.171-42.037-15.75-2.383 25.352-2.737 37.717 10.41 38.543z" fill="#002630" opacity=".06"/><path d="M578.227 313.937c-8.81 2.515-10.705 2.069-42.595-43.761-5.904-8.49-9.268-14.654-7.232-16.26-5.811 2.846-7.963 10.394-11.93 22.7-11.366 35.262-18.472 51.795-3.207 56.311 15.265 4.517 69.486 17.966 92.624 21.769 23.139 3.803 21.442-12.161 30.704-37.21 6.058-16.381 9.13-27.254 5.853-34.173.85 2.888-55.417 28.11-64.217 30.624z" fill="#E29A3B"/><path d="M535.25 270.526c-2.317-3.274-4.247-6.195-5.618-8.64 3.194 7.947 10.949 22.986 29.532 45.83 11.061 13.592 12.429 13.172 29.06 6.9 15.457-5.83 39.933-18.662 52.129-28.819-11.078 6.94-54.502 25.886-62.17 28.038-8.879 2.489-10.79 2.047-42.933-43.309z" fill="#002630" opacity=".06"/><path d="M631.506 276.482c-16.861-4.768-61.175-14.894-86.68-21.054-5.99-1.446-10.38-1.853-13.762-1.23-1.012.286-1.76.49-2.183.601-.322.12-.645.251-.932.397-2.047 1.59 1.335 7.689 7.272 16.09 32.063 45.349 33.969 45.79 42.827 43.302 8.857-2.489 65.42-27.446 64.579-30.303-1.748-3.63-5.285-6.153-11.121-7.803z" fill="#F4B145"/><path d="M581.414 310.865c-9.489 2.746-15.684 1.483-49.499-46.701 1.168 1.904 2.57 4.012 4.154 6.291 32.171 46.203 34.083 46.653 42.97 44.117 6.568-1.875 39.337-16.278 55.607-24.827-18.289 8.167-46.936 19.297-53.232 21.12z" fill="#FCCC8B"/><path d="M642.444 283.422c-1.738-3.66-5.256-6.21-11.06-7.874-16.768-4.81-60.837-15.029-86.202-21.245-5.958-1.459-10.323-1.87-13.686-1.24-1.007.288-1.751.493-2.171.605-.321.122-.642.254-.927.401-5.81 2.842-7.962 10.379-11.929 22.666-11.365 35.21-18.47 51.717-3.207 56.226 15.264 4.51 69.48 17.938 92.616 21.736 23.137 3.797 21.44-12.143 30.701-37.153 6.07-16.35 9.142-27.2 5.865-34.122z" fill="#002630" opacity=".13"/><path d="M577.483 314.47c-8.786 1.216-10.546.537-34.967-47.48-4.523-8.895-6.918-15.23-4.751-16.49-5.952 1.92-9.034 8.852-14.492 20.063-15.644 32.124-24.687 46.946-10.639 53.31 14.049 6.363 64.227 26.474 85.906 33.208 21.68 6.735 22.206-8.728 34.457-31.385 8.026-14.813 12.424-24.785 10.209-31.826.41 2.876-56.936 19.384-65.723 20.6z" fill="#E29A3B"/><path d="M542.963 266.503a100.793 100.793 0 0 1-4.199-9.171c1.967 8.182 7.338 23.862 22.005 48.614 8.721 14.727 10.097 14.504 26.876 10.632 15.594-3.6 40.784-12.807 53.85-21.058-11.554 5.268-55.72 17.881-63.355 18.944-8.837 1.225-10.607.54-35.177-47.96z" fill="#002630" opacity=".06"/><path d="M634.238 285.467c-15.416-6.86-56.27-22.565-79.738-31.924-5.513-2.198-9.64-3.179-12.947-3.028-1.007.138-1.744.237-2.161.285-.32.074-.641.16-.962.26-2.165 1.262.228 7.606 4.746 16.513 24.396 48.089 26.153 48.768 34.93 47.55 8.778-1.217 66.073-17.75 65.67-20.633-1.171-3.733-4.199-6.649-9.538-9.023z" fill="#F4B145"/><path d="M580.953 311.906c-9.438 1.347-15.188-.686-41.048-51.158.862 1.968 1.917 4.17 3.127 6.554 24.546 48.361 26.314 49.044 35.146 47.82 6.528-.909 39.776-10.247 56.468-16.214-18.564 5.333-47.44 12.106-53.693 12.998z" fill="#FCCC8B"/><path d="M643.207 293.524c-1.172-3.75-4.202-6.677-9.547-9.06-15.43-6.887-56.322-22.653-79.813-32.048-5.518-2.207-9.65-3.19-12.96-3.04-1.007.139-1.745.238-2.163.287-.32.074-.642.16-.963.26-5.951 1.93-9.033 8.9-14.49 20.17-15.642 32.295-24.685 47.197-10.638 53.594 14.047 6.397 64.22 26.615 85.897 33.386 21.677 6.77 22.204-8.775 34.453-31.553 8.028-14.888 12.439-24.92 10.224-31.996z" fill="#002630" opacity=".06"/><path d="M460.484 466.775c55.93-3.69 55.189-60.871 34.632-86.057-20.558-25.185-74.79-23.672-83.65 21.428-10.82 55.07 33.4 65.658 49.018 64.63z" fill="url(#a)"/><path d="M461.83 373.473c5.01 6.178 5.023 18.965 5.023 18.965s-1.836 11.987-2.512 11.775c-.675-.212-3.636-1.929-3.636-1.929l-1.842-24.549 2.967-4.262z" fill="#002630" opacity=".06"/><path d="M460.321 466.775c56.122-3.66 55.378-60.377 34.75-85.358-6.097-7.383-15.141-12.45-25.091-14.776 15.203 6.228 25.101 32.63 17.584 61.718-7.518 29.088-37.303 39.075-54.955 31.753 10.219 5.589 21.34 7.08 27.712 6.663z" fill="#002630" opacity=".06"/><path d="M462.49 444.037c26.664-1.763 26.31-29.081 16.51-41.115-9.801-12.035-35.651-11.312-39.878 10.236-5.165 26.311 15.925 31.368 23.368 30.879z" fill="#002630" opacity=".06"/><path d="M198.97 75.15s34.02 9.157 36.169 52.991c0 0-4.3 3.237-22.86-6.368-19.008-9.837-25.197-28.292-13.309-46.623z" fill="url(#b)"/><path d="M195.188 78.846s-4.86 33.697-47.012 38.434c0 0-3.635-3.994 3.475-22.658 7.281-19.11 24.405-26.258 43.537-15.776z" fill="url(#c)"/><path d="M198.553 79.705s-33.036-8.623-33.043-50.721c0 0 4.386-3.13 22.189 6.001 18.25 9.35 23.437 27.048 10.854 44.72z" fill="url(#d)"/><path d="M200.895 73.745s4.846-33.687 47.008-38.447c0 0 3.64 3.992-3.46 22.65-7.272 19.108-24.4 26.26-43.548 15.797z" fill="url(#e)"/><path d="M201.393 75.15s21.675 27.967-3.662 63.764c0 0-5.45-.077-14.43-18.961-9.198-19.337-2.78-37.633 18.092-44.803z" fill="url(#f)"/><path d="M195.827 78.972s6.226 27.947-25.15 44c0 0-4.013-2.083-4.025-18.85-.013-17.177 11.182-27.808 29.175-25.15z" fill="url(#g)"/><path d="M195.188 75.277s-24.512 23.873-60.496 2.095c0 0-.4-5.383 16.644-15.925 17.451-10.795 35.277-6.103 43.852 13.83z" fill="url(#h)"/><path d="M190.559 75.076s-28.575 3.075-41.03-30.505c0 0 2.531-3.822 19.253-1.902 17.12 1.966 26.462 14.516 21.777 32.407z" fill="url(#i)"/><path d="M197.611 77.427s-21.167-27.05 4.805-60.347c0 0 5.452.21 14.088 18.337 8.847 18.56 2.1 35.742-18.893 42.01z" fill="url(#j)"/><path d="M201.4 66.78s-6.241-27.94 25.133-44.007c0 0 4.017 2.08 4.04 18.84.022 17.171-11.171 27.804-29.172 25.166z" fill="url(#k)"/><path d="M203.178 75.04s24.496-23.882 60.496-2.135c0 0 .403 5.381-16.644 15.933-17.435 10.814-35.264 6.124-43.852-13.798z" fill="url(#l)"/><path d="M199.73 75.15s23.708 18.325 11.238 53.492c0 0-4.415 1.141-15.86-12.478-11.717-13.944-10.613-30.477 4.622-41.014z" fill="url(#m)"/><path d="M196.33 77.024s-15.094 25.033-50.157 15.19c0 0-1.557-4.325 10.311-16.764 12.154-12.736 28.138-12.86 39.845 1.574z" fill="url(#n)"/><path d="M197.747 78.566s-23.414-17.755-9.626-51.22c0 0 4.512-1.04 15.66 12.091 11.415 13.45 9.75 29.228-6.034 39.129z" fill="url(#o)"/><path d="M202.037 75.57s15.08-25.027 50.156-15.222c0 0 1.56 4.32-10.302 16.76-12.15 12.752-28.141 12.885-39.854-1.538z" fill="url(#p)"/><path d="M201.2 75.213s7.724 29.57-23.766 50.037c0 0-4.223-1.847-5.032-19.96-.827-18.54 10.172-31.143 28.798-30.077z" fill="url(#q)"/><path d="M197.47 76.794s-4.297 24.347-34.812 26.822c0 0-2.528-2.986 3.04-16.365 5.704-13.724 18.22-18.517 31.773-10.457z" fill="url(#r)"/><path d="M197.47 74.328S169.964 85.02 148.389 56.47c0 0 1.461-4.318 18.58-7.028 17.534-2.78 30.225 6.61 30.503 24.885z" fill="url(#s)"/><path d="M194.24 72.873S170.258 65.9 171.246 35.61c0 0 3.284-2.15 16.098 4.834 13.123 7.15 16.517 20.005 6.894 32.429z" fill="url(#t)"/><path d="M198.32 77.232s-7.777-28.446 23.718-46.489c0 0 4.23 1.93 5.064 19.192.854 17.667-10.14 29.15-28.781 27.297z" fill="url(#u)"/><path d="M204.32 70.103s4.286-24.362 34.81-26.835c0 0 2.532 2.984-3.032 16.376-5.696 13.701-18.214 18.503-31.779 10.459z" fill="url(#v)"/><path d="M203.178 77.114s27.494-10.696 49.082 17.832c0 0-1.457 4.32-18.57 7.047-17.527 2.79-30.234-6.597-30.512-24.879z" fill="url(#w)"/><path d="M202.29 77.427s24.325 7.489 24.858 39.53c0 0-3.175 2.26-16.339-5.19-13.481-7.624-17.52-21.242-8.519-34.34z" fill="url(#x)"/><path d="M418.36 137.775s-129.278 11.65-147.837 13.693c0 0 16.007 182.322 17.068 195.816 0 0 146.255-13.344 156.433-13.357 0 0-20.942-178.127-25.665-196.152z" fill="url(#y)"/><path d="M286.504 161.524s114.6-9.625 122.11-10.085c0 0 .969 4.89 1.166 7.027l-122.038 10.052-1.238-6.994zM287.645 175.187s114.603-9.624 122.11-10.085c0 0 .97 4.89 1.167 7.027L288.88 182.182l-1.235-6.995zM289.928 189.986s114.603-9.621 122.11-10.081c0 0 .97 4.89 1.167 7.027l-122.039 10.052-1.238-6.998zM292.211 203.653s114.603-9.624 122.11-10.085c0 0 .97 4.89 1.166 7.027L293.45 210.648l-1.238-6.995zM293.352 221.868s114.603-9.621 122.113-10.082c0 0 .97 4.89 1.164 7.027L294.59 228.866l-1.239-6.998zM294.494 235.532s114.603-9.622 122.11-10.082c0 0 .97 4.89 1.166 7.027L295.732 242.53l-1.238-6.998zM296.777 250.336s114.602-9.626 122.11-10.084c0 0 .97 4.888 1.166 7.025l-122.041 10.055-1.235-6.996zM299.06 265.138s114.6-9.623 122.11-10.083c0 0 .969 4.89 1.166 7.025l-122.038 10.054-1.238-6.996zM300.201 282.219s114.6-9.624 122.11-10.085c0 0 .97 4.89 1.167 7.027l-122.039 10.053-1.238-6.995z" fill="#002630" opacity=".06"/><path d="M354.597 142.33c.068 5.158 5.823 1.785 6.233 14.115.41 12.33 3.543 24.766-2.603 26.94-6.145 2.175-8.419.826-8.256 15.417.162 14.591 11.916 22.707 13.774 30.287 1.857 7.58 2.928 24.73 2.602 32.513-.325 7.782-7.017 25.373-9.828 32.583-2.81 7.21-4.499 10.985-1.063 18.53 3.435 7.544 5.39 27.399 5.39 27.399l-21.234 8.309s-17.668-57.17-16.53-59.935c1.14-2.766 10.844-136.202 10.844-136.202l14.828-9.423 5.843-.533z" fill="#002630" opacity=".06"/><path d="M345.799 206.379c.858 11.564-1.928 79.046-4.543 136.35l5.462-.488c2.66-57.957 5.561-127.713 4.69-139.499 0 0-38.416-3.504-76.319-6.897l.363 4.176a44886.54 44886.54 0 0 1 70.347 6.358z" fill="#002630" opacity=".06"/><path d="M301.924 160.972c-.531-9.82-1.176-17.832-1.5-22.644-.323-4.81-3.056-2.574-1.366-9.297 1.69-6.723-3.471-7.373-3.15-13.143.32-5.77 3.072-6.732 3.15-16.026.078-9.294-1.784-52.952-4.627-74.697-1.425-10.9-3.361-22.44-3.361-22.44s11.611.933 22.579-1.632 17.742.321 27.741-.644c10-.965 11.936 1.953 15.805.67 3.87-1.285-2.59 41.353-3.885 54.5-1.296 13.145 4.21 4.183 0 16.026s-2.42 82.15-2.662 88.68c-.243 6.53-25.921 8.193-25.921 8.193l-22.803-7.546z" fill="url(#z)"/><path d="M312.867 124.101c9.792 0 15.723-2.157 7.224-1.97-8.498.187-19.469 2.157-23.314-2.574.594 1.226 1.313 2.297 1.849 3.563 3.874 1.161 6.564.981 14.241.981z" fill="#002630" opacity=".06"/><path d="M313.55 1.1c-10.92 2.575-22.48 1.632-22.48 1.632s1.934 11.54 3.346 22.439c2.83 21.744 4.68 65.395 4.607 74.689-.074 9.293-2.815 10.259-3.137 16.028-.322 5.77 4.836 6.414 3.137 13.143-1.7 6.728 1.038 4.505 1.36 9.296.323 4.792.967 12.824 1.493 22.642l22.718 7.55s25.565-1.661 25.807-8.194c.093-2.503-.11-14.4-.162-28.778-.664 10.896-11.215 8.975-24.204 9.297-12.989.322-9.81-8.975-9.971-23.24-.161-14.266-1.767-45.522-1.935-77.627C313.972 8.44 319.71.396 324.336.019a41.676 41.676 0 0 0-10.787 1.082zM340.152 79.477s8.547 1.228 11.58-2.02c.194-1.93.52-3.843.976-5.723-1.521 4.136-8.496 7.422-12.556 7.743z" fill="#002630" opacity=".06"/><path d="M345.701 205.459s-128.722-11.749-147.264-13.03c0 0-15.666 203.367-16.947 218.392 0 0 145.654 13.113 155.635 15.029 0 0 10.107-199.688 8.576-220.391z" fill="url(#A)"/><path d="M210.027 208.37s113.55 10.38 120.962 11.225c0 0 .106 4.886-.073 6.994l-120.89-11.231v-6.988zM207.744 222.034s113.55 10.381 120.962 11.224c0 0 .106 4.89-.073 6.994l-120.89-11.242v-6.976zM207.744 236.836s113.55 10.378 120.962 11.224c0 0 .106 4.887-.073 6.995l-120.89-11.224v-6.995zM207.744 251.639s113.55 10.379 120.962 11.224c0 0 .106 4.886-.073 6.994L207.743 258.6v-6.961zM205.46 268.718s113.553 10.381 120.962 11.224c0 0 .109 4.89-.07 6.994L205.46 275.7v-6.982zM204.32 283.52s113.55 10.381 120.962 11.224c0 0 .106 4.89-.074 6.995L204.32 290.503v-6.983zM204.32 297.184s113.55 10.378 120.962 11.224c0 0 .106 4.886-.074 6.994L204.32 304.17v-6.985zM204.32 311.986s113.55 10.381 120.962 11.224c0 0 .106 4.89-.074 6.995L204.32 318.968v-6.982zM202.037 330.205s113.55 10.38 120.962 11.223c0 0 .106 4.89-.074 6.995l-120.888-11.236v-6.982zM199.754 343.868s113.55 10.381 120.962 11.224c0 0 .106 4.89-.073 6.994l-120.89-11.236v-6.982zM199.754 357.532s113.55 10.378 120.962 11.223c0 0 .106 4.887-.073 6.995l-120.89-11.233v-6.985z" fill="#002630" opacity=".06"/><path d="M337.126 425.85s10.106-199.759 8.575-220.467c0 0-25.234-2.305-54.965-4.983 32.074 3.26 21.454 72.003 17.687 108.294-3.768 36.29-5.446 92.325-23.656 94.573-18.209 2.248-93.068-4.01-93.068-4.01l-9.714 5.458c-.231 2.929-.402 5.019-.495 6.101.016 0 145.655 13.117 155.636 15.034z" fill="#002630" opacity=".06"/><path d="M365.969 256.132c1.077-10.697.402-22.9-4.79-25.377-4.246-2.037-6.72 0-6.72 0 .79-1.224 1.356-7.594-2.177-11.539-5.185-5.782-11.25-2.248-11.25-2.248.154-11.54-2.177-15.69-1.865-8.352.312 7.336-2.69 29.354-5.786 35.875-1.337 2.81-6.188 1.313-9.142-7.848-1.571-4.883-3.214-10.498-3.992-13.138-3.362-11.388-8.788-10.842-8.251-5.738 1.375 13.11-.463 43.273.88 58.895.705 8.207.92 16.448.643 24.68-.176 5.085-3.07 23.302-3.07 23.302l2.19-1.053c-1.039 11.904-4.083 39.087-7.512 68.685-.322 2.782-6.908 21.703-6.908 21.703s2.816-2.117 4.802-3.618c0 .09-.022.18-.032.27l-.039.322c-.093.774-.254 2.165-.401 3.408-.058.504-.116 1.005-.177 1.506-.216 1.85-4.153 13.874-4.153 13.874a39.118 39.118 0 0 1 2.915-3.35A25989.27 25989.27 0 0 1 292.211 501h62.8s-.167-5.968-.395-15.904l3.413 3.177s-3.783-20.475-3.857-25.056c-.354-18.493-.704-41.815-.807-65.37l2.893 2.184s-2.893-23.691-2.893-29.232c.093-18.243.396-35.519 1.032-49.56l1.688.617c-.53-4.427-.553-18.111 0-23.238.42-3.366.903-6.052 1.45-7.94 5.043-17.466 7.598-26.226 8.434-34.546z" fill="#E29A3B"/><path d="M344.323 216.473c-.06 8.475-.953 19.578-1.888 29.472.787.002 1.497-.5 1.798-1.272 2.14-4.772 4.23-17.968 5.05-27.449a7.591 7.591 0 0 0-4.96-.75zM314.94 251.208c-3.504 8.274-1.204 29.382-1.198 33.526.02.348-.053.695-.21 1.006.275 6.057.227 11.288.088 16.179-.178 5.07-3.085 23.234-3.085 23.234l2.2-1.05c-1.043 11.87-4.102 38.974-7.548 68.487-.323 2.774-6.94 21.64-6.94 21.64s2.83-2.111 4.825-3.607c0 .09-.023.18-.032.27-.01.089-.023.195-.04.32-.093.771-.254 2.158-.403 3.398-.058.503-.116 1.003-.177 1.502-.217 1.845-4.173 13.834-4.173 13.834a39.093 39.093 0 0 1 2.93-3.34C296.49 466.003 292.21 501 292.21 501h10.438s4.276-34.993 8.962-74.394a38.781 38.781 0 0 0-2.926 3.341s3.953-11.989 4.173-13.834c.058-.5.116-1 .177-1.502.145-1.24.323-2.627.4-3.398 0-.132.03-.237.04-.32l.032-.27c-1.993 1.496-4.822 3.607-4.822 3.607s6.61-18.866 6.937-21.64c3.446-29.513 6.504-56.617 7.547-68.487l-2.199 1.05s2.907-18.164 3.084-23.234c.278-8.209.062-16.426-.646-24.61-.697-8.039-.542-19.935-.42-31.363-3.509-.023-6.686 2.054-8.047 5.262z" fill="#002630" opacity=".06"/><path d="M322.975 247.843c2.405-3.66 6.605-1.767 8.423 3.456 2.563 7.369-1.805 12.324-5.97 10.016-3.254-1.801-4.701-10.062-2.453-13.472zM342.933 220.932c3.33-2.937 6.99-.084 7.444 5.4.624 7.731-4.978 11.434-8.502 8.188-2.764-2.536-2.052-10.849 1.058-13.588zM355.487 234.596c3.331-2.938 6.995-.084 7.445 5.4.628 7.731-4.978 11.434-8.503 8.188-2.761-2.533-2.05-10.846 1.058-13.588z" fill="#EAC096" opacity=".37"/><path d="M248.344 280.216c-10.32-7.4-98.747-57.538-118.324-68.997-19.577-11.459-41.985-19.454-46.368-21.586-7.902-3.841-12.44 9.106-46.587 69.326-11.656 20.55-30.571 68.91-35.5 80.296-4.927 11.385 1.004 11.776 28.94 21.545 27.936 9.769 135.966 61.734 145.019 65.123 9.053 3.39 11.355 9.923 22.06-15.402 10.704-25.325 45.961-100.698 50.573-108.796 7.899-13.862 5.97-17.36.187-21.509z" fill="url(#B)"/><path d="M17.51 309.833c-2.205 6.085-10.923 28.417-11.778 31.088-.854 2.672 20.343 8.328 34.688 14.212 14.345 5.884 45.56 21.528 51.267 24.244 5.707 2.717 16.19 4.843 31.598 12.29 15.41 7.448 52.557 31.608 58.039 34.132 5.481 2.524 7.048 1.39 9.834-6.906 2.786-8.295 20.346-58.362 29.341-75.127 8.996-16.765 30.754-47.207 28.117-52.088-2.638-4.882-134.54-22.96-134.54-22.96l-96.565 41.115z" fill="#002630" opacity=".06"/><path d="M97.023 378.027c43.546 12.335 87.892 46.684 87.892 46.684-29.65-37.37-87.892-46.684-87.892-46.684zM97.114 376.889s-31.3-19.36-54.373-26.758c-23.073-7.398-34.75-10.822-34.75-10.822s25.657-5.85 28.964-5.685c3.307.165 66.917 18.178 66.917 18.178l-6.758 25.087z" fill="#9BE2FF"/><path d="M463.417 391.304c.023-13.135.37-18.97-5.33-18.97-5.862 0-7.215 1.15-7.215 5.983v13.374a26.116 26.116 0 0 1 12.545-.387z" fill="url(#C)"/><path d="M326.92 168.552c-13.198.241-32.832 1.58-32.42 7.904.412 6.324 21.614 5.927 32.42 5.536 10.804-.39 29.212.586 29.212-6.62 0-7.207-23.197-6.927-29.213-6.82z" fill="#007DA9"/><path d="M309.718 163.89c0 18.87.533 50.146-5.618 60.267-7.468 12.319-8.118 27.66-9.417 38.524-1.298 10.866 4.504 7.667 4.504 7.667 4.504 12.784 7.469 3.53 7.469 3.53 1.299 8.946 7.508 14.698 7.504 10.544-.003-4.155-2.318-25.292 1.205-33.578 3.247-7.638 15.766-7.42 16.2 3.529.413 10.378 8.74 20.771 8.74 15.337 0-5.434 5.497-43.779 4.22-59.988-1.276-16.21-4.22-36.57-4.22-48.036l-20.699 4.812-9.888-2.608z" fill="url(#D)"/><path d="M343.197 197.555c-1.049.12-2.435.087-3.98.087-3.364 0-8.652.38-8.652.38-.409 3.632-1.239 3.715-5.468 3.867-4.13.145-8.142.193-11.368.216.643-11.568 1.724-25.53 4.674-25.494 2.95.036 17.942-1.105 22.667 0-.52-5.703-.878-10.871-.878-14.925l-20.503 4.834-9.778-2.614c0 10.782.17 25.597-.804 38.24-.084 1.075-.175 2.13-.274 3.168-.794 8.23-2.155 15.234-4.487 19.126-6.176 10.311-7.65 22.723-8.71 32.892.62-5.8 3.969-12.057 6.754-19.761 2.574-7.121 9.515-21.012 11.053-32.28 5.632-.08 13.49-.241 16.984.033 4.648.364 1.93-3.97 4.007-4.131 1.47-.113 6.386-.065 9.142-.03a257.248 257.248 0 0 1-.38-3.608z" fill="#002630" opacity=".06"/><path d="M459.065 440.622c26.665-1.763 26.31-29.082 16.51-41.116-9.801-12.035-35.653-11.312-39.88 10.236-5.156 26.308 15.923 31.366 23.37 30.88z" fill="url(#E)"/><path d="M459.579 438.346c24.713-1.588 24.386-26.371 15.302-37.289-9.084-10.917-33.033-10.26-36.962 9.284-4.78 23.865 14.758 28.453 21.66 28.005z" fill="url(#F)"/><path d="M448.156 418.995c3.031-15.521 18.185-19.343 28.97-14.975a22.86 22.86 0 0 0-2.569-3.977c-9.006-11.108-32.748-10.441-36.643 9.449-3.127 16.012 4.229 23.495 11.558 26.606-1.968-4.162-2.754-9.727-1.316-17.103z" fill="#002630" opacity=".06"/><path d="M166.652 243.518s-33.985-45.468-88.2-47.673c0 0-44.696 55.958-70.462 143.016 0 0 53.167 4.27 89.51 38.028 0 0 24.342-92.314 69.152-133.37z" fill="url(#G)"/><path d="M165.998 243.668s-3.534 3.613-9.171 9.403c-38.836 44.11-59.804 123.626-59.804 123.626s57.802 9.352 87.228 46.876c0 0 18.578-73.868 63.443-132.114 0 0-33.968-43.118-81.696-47.79z" fill="url(#H)"/><path d="M100.448 212.589s-7.24-4.784-17.832-5.357c0 0-8.071 8.288-16.412 25.793 0 0 9.851 1.337 18.124 6.089.013-.013 7.132-17.518 16.12-26.525zM131.267 277.417s-7.534-7.275-20.695-8.699c0 0-8.521 10.952-18.115 31.188 0 0 11.898 3.163 21.412 8.664 0 .007 7.058-20.742 17.398-31.153zM223.724 321.636s-6.098-6.214-16.067-7.372c0 0-7.651 6.464-15.894 24.153 0 0 7.742 1.556 16.048 10.006-.006 0 7.029-17.687 15.913-26.787z" fill="#002630" opacity=".06"/><path d="M462.241 39.571c23.178-10.9 23.07-11.111 52.468-23.95 11.96-5.226 13.758-1.924 31.355 34.17 17.596 36.094 32.19 65.854 43.507 85.274 12.477 21.396 11.199 21.075-19.514 36.085-27.243 13.314-43.118 22.162-56.626 27.57-19.517 7.803-21.518 4.703-32.633-15.016-16.058-28.506-46.7-91.02-54.706-106.112-9.6-18.113-1.92-20.139 36.15-38.02z" fill="url(#I)"/><path d="M472.872 43.217c2.49-.74 2.29-2.843 1.211-3.831-1.077-.989-3.67-1.133-3.8 1.279-.13 2.411 1.879 2.76 2.59 2.552zM545.434 177.55c3.107-1.11 2.861-4.263 1.513-5.744-1.349-1.48-4.583-1.71-4.75 1.915-.168 3.625 2.364 4.14 3.237 3.83z" fill="#002630" opacity=".06"/><path d="M519.93 26.189s-75.216 35.388-83.896 39.853c0 0 53.358 98.515 62.68 119.556 0 0 66.86-33.158 82.284-38.576.006 0-41.781-85.762-61.068-120.833z" fill="url(#J)"/><path d="M519.097 28.731c17.592 32.084 53.905 106.47 60.145 119.292.646-.247 1.23-.466 1.756-.642 0 0-41.786-86.03-61.071-121.192 0 0-75.214 35.493-83.893 39.971l.906 1.679c14.117-6.998 82.157-39.108 82.157-39.108z" fill="#002630" opacity=".06"/><path d="M474.014 42.083c2.489-.741 2.289-2.846 1.21-3.835-1.077-.99-3.67-1.134-3.8 1.277-.13 2.41 1.886 2.754 2.59 2.558z" fill="#007DA9"/><path d="M546.575 177.55c3.107-1.11 2.862-4.263 1.513-5.744-1.348-1.48-4.582-1.71-4.75 1.915-.168 3.625 2.364 4.14 3.237 3.83z" fill="url(#K)"/><path d="M525.277 454.788c5.907-10.073 16.915-26.57 19.698-31.5 0 0-5.353-2.82-3.425-10.622 1.929-7.802 11.134-14.449 14.775-12.732 3.418 1.613 3.663 10.59 1.935 17.142-2.358 8.893-11.35 7.07-11.35 7.07s-5.656 12.538-9.21 23.356c-4.333 13.203-8.993 28.284-15.632 25.925-5.11-1.81-2.395-9.102 3.209-18.64z" fill="url(#L)"/><path fill="#F9BD67" d="M61.241 15.94L50.224 105.5l3.254.393 11.585-89.488z"/><path d="M56.82 15.94c-1.211 8.459-9.64 67.818-12.303 89.448l4.384.505 11.596-89.53-3.678-.422zM68.487 17.524l-3.831-.444-12.15 89.507 3.842.445c3.692-26.819 11.876-82.43 12.139-89.508z" fill="#E29A3B"/><path d="M65.066 3.416l-2.286 4.02 3.424.534c-.627-2.58-1.138-4.554-1.138-4.554z" fill="#007DA9"/><path d="M66.17 7.3l-3.488-.468-5.527 8.364c-.023.148-.053.349-.083.572l11.4 1.312a3.506 3.506 0 0 0 0-.628c-.338-2.05-1.432-6.09-2.302-9.153z" fill="#F9BD67"/><path d="M200.5 75.15s13.73 16.199 0 38.714c0 0-3.217.137-9.151-10.989-6.077-11.395-2.914-22.684 9.152-27.725z" fill="url(#M)"/><path d="M199.754 76.617S185.74 91.4 163.23 79.844c0 0-.425-3.137 9.524-9.872 10.188-6.898 21.142-4.74 27 6.645z" fill="url(#N)"/><path d="M198.636 77.427s-13.415-15.543.804-36.436c0 0 3.225-.055 8.939 10.565 5.85 10.843 2.448 21.399-9.743 25.871z" fill="url(#O)"/><path d="M200.895 75.97s14.006-14.787 36.524-3.249c0 0 .428 3.136-9.518 9.871-10.171 6.917-21.116 4.754-27.006-6.623z" fill="url(#P)"/><path d="M202.036 75.982s.208 15.733-18.531 21.94c0 0-1.932-1.46-.048-10.594 1.932-9.358 9.17-14.244 18.58-11.346z" fill="url(#Q)"/><path d="M200.375 76.215s-15.18 2.057-22.309-15.54c0 0 1.293-2.06 10.231-1.296 9.157.784 14.315 7.289 12.078 16.836z" fill="url(#R)"/><path d="M199.754 76.327s-.33-15.393 18.498-20.534c0 0 1.955 1.523.122 10.364-1.875 9.056-9.127 13.493-18.62 10.17z" fill="url(#S)"/><path d="M201.41 76.364s15.177-2.071 22.314 15.532c0 0-1.29 2.065-10.228 1.303-9.152-.778-14.312-7.283-12.085-16.835z" fill="url(#T)"/><path d="M572.895 311.454c-8.595 2.361-10.437 1.913-41.062-42.84-5.672-8.287-8.888-14.297-6.894-15.837-5.682 2.71-7.844 10.011-11.815 21.903-11.38 34.11-18.445 50.086-3.617 54.606 14.828 4.519 67.47 18.056 89.957 21.954 22.488 3.897 20.972-11.596 30.222-35.824 6.042-15.831 9.133-26.36 6.004-33.102.79 2.818-54.206 26.782-62.795 29.14z" fill="#E29A3B"/><path d="M532.668 269.202a99.46 99.46 0 0 1-5.318-8.454c2.994 7.773 10.31 22.466 27.958 44.859 10.5 13.327 11.819 12.93 27.855 6.973 14.9-5.535 38.52-17.807 50.341-27.582-10.702 6.654-52.594 24.708-59.983 26.732-8.551 2.344-10.384 1.9-40.853-42.528z" fill="#002630" opacity=".06"/><path d="M625.144 274.524c-16.184-4.809-58.749-15.067-83.242-21.315-5.755-1.465-9.977-1.901-13.236-1.324-.979.27-1.7.461-2.108.564-.32.115-.61.244-.902.381-1.982 1.533 1.216 7.515 6.856 15.763 30.45 44.541 32.283 44.987 40.829 42.637 8.546-2.35 63.22-26.198 62.438-28.993-1.65-3.552-5.03-6.052-10.635-7.713z" fill="#F4B145"/><path d="M575.488 307.746c-9.11 2.52-15.032 1.27-46.997-44.721 1.102 1.815 2.424 3.828 3.923 6.002 30.399 44.096 32.227 44.537 40.759 42.21 6.309-1.716 37.822-15.087 53.483-23.05-17.589 7.582-45.13 17.896-51.168 19.56z" fill="#FCCC8B"/><path d="M356.132 154.662c0-6.987-23.175-6.712-29.213-6.605-13.197.23-32.83 1.531-32.419 7.659v20.773c-.392-6.128 19.216-7.425 32.42-7.66 6.025-.103 29.212-.381 29.212 6.605v-20.772z" fill="url(#U)"/><path d="M307.04 254.363c.094-4.077-.562-7.083-.79 2.586-.208 8.803-.652 14.547 0 18.601a9.79 9.79 0 0 0 .65-1.652c-.65-4.936.048-15.456.14-19.535zM300.201 252.188c0-2.8-.526-2.8-1.363 5.322-.837 8.12-.92 12.347-.92 12.347a6.057 6.057 0 0 0 1.015-.313c-.518-5.175 1.268-14.567 1.268-17.356z" fill="#002630" opacity=".06"/><path d="M328.737 182.518s11.689-.375 12.535-.372l-.102-.973s1.737-.525 2.131.536c.394 1.061 1.349 11.946 1.415 13.506.067 1.56-2.544 1.4-5.861 1.4-3.318 0-8.556.37-8.556.37l-1.562-14.467z" fill="url(#V)"/><path d="M317.027 182.85s-9.95.35-10.812.414l.033-1.007s-1.809-.414-2.137.7c-.329 1.113-.514 12.341-.482 13.94.033 1.597 2.687 1.26 6.08 1.026 3.392-.235 8.755-.215 8.755-.215l-1.437-14.857z" fill="url(#W)"/><path d="M306.083 191.692c.189-5.08.141-5.083.547-11.436.164-2.586.893-2.455 8.695-2.406 5.12.032 4.204.085 11.158-.18 4.8-.187 4.64-.05 4.48 6.736-.131 6.02-.02 9.626-.291 12.5-.394 4.154-1.108 4.226-5.501 4.38-6.355.226-12.438.22-15.76.252-3.968.04-3.648-1.502-3.328-9.846z" fill="#ED4C4C"/><path d="M330.685 197.241c.264-2.754.156-6.21.283-11.979.146-6.502.31-6.634-4.346-6.455-2.272.084-3.678.134-4.733.163 4.224.313 3.442 13.347 2.905 16.784a9.973 9.973 0 0 1-2.856 5.785c1.12-.025 2.266-.06 3.415-.1 4.258-.148 4.95-.217 5.332-4.198z" fill="#D83A3A"/><path d="M104.236 215.099c1.882.38 2.777 2.252 4.282 3.265 1.637 1.098 3.516.86 5.382.834 1.323-.02 2.557.148 3.544 1.094.713.672 1.208 1.54 1.838 2.287 1.153 1.368 2.508 1.854 4.234 2.134.978.157 2.036.263 2.876.842 1.07.744 1.387 2.04 2.01 3.121a7.544 7.544 0 0 0 3.666 3.195c1.917.789 4.218.171 5.826 1.693 1.112 1.055 1.805 2.474 2.805 3.626a5.372 5.372 0 0 0 1.732 1.387c.96.444 1.953.27 2.944.518 1.467.363 2.524 1.756 3.515 2.847a45.628 45.628 0 0 1 3.065 3.78c.393.538 1.297 0 .9-.53a44.615 44.615 0 0 0-4.642-5.47c-.64-.643-1.34-1.287-2.202-1.609-1.033-.376-2.164-.045-3.167-.505-1.525-.698-2.343-2.513-3.333-3.78-.991-1.268-2.122-2.162-3.775-2.375-2.486-.322-4.675-.643-6.193-2.915-1.08-1.609-1.403-3.475-3.359-4.286-1.955-.81-4.125-.36-5.71-1.93-1.31-1.287-2.014-3.089-3.82-3.806-2.32-.924-5.033.38-7.25-.847-1.835-1.01-2.691-3.153-4.883-3.594-.64-.131-.937.879-.278 1.01l-.007.014zM97.401 224.208c1.879.38 2.777 2.252 4.281 3.265 1.636 1.098 3.515.86 5.378.834 1.322-.02 2.556.148 3.546 1.094.712.672 1.208 1.54 1.837 2.287 1.153 1.368 2.508 1.854 4.233 2.134.978.157 2.035.26 2.876.843 1.07.743 1.386 2.036 2.013 3.117a7.55 7.55 0 0 0 3.664 3.199c1.933.788 4.217.17 5.821 1.692 1.115 1.055 1.809 2.471 2.809 3.623a5.371 5.371 0 0 0 1.728 1.39c.959.444 1.952.27 2.943.515 1.47.366 2.524 1.756 3.514 2.85a46.288 46.288 0 0 1 3.064 3.78c.393.538 1.297 0 .898-.53a44.374 44.374 0 0 0-4.642-5.47c-.64-.643-1.34-1.287-2.202-1.609-1.028-.376-2.16-.048-3.166-.508-1.524-.698-2.339-2.51-3.329-3.777-.99-1.268-2.121-2.162-3.773-2.375-2.49-.322-4.678-.643-6.192-2.915-1.083-1.609-1.406-3.478-3.361-4.285-1.955-.808-4.122-.36-5.706-1.931-1.31-1.287-2.013-3.092-3.834-3.81-2.32-.92-5.029.383-7.25-.842-1.833-1.014-2.69-3.154-4.881-3.594-.64-.132-.933.878-.275 1.01l.006.013zM89.42 233.317c1.882.38 2.777 2.252 4.281 3.266 1.636 1.1 3.514.859 5.38.833 1.322-.02 2.54.148 3.542 1.094.713.672 1.208 1.541 1.837 2.287 1.153 1.368 2.508 1.857 4.233 2.134.98.157 2.034.264 2.875.843 1.07.743 1.386 2.04 2.009 3.12a7.542 7.542 0 0 0 3.664 3.196c1.932.788 4.216.17 5.823 1.692 1.112 1.055 1.805 2.474 2.808 3.626a5.325 5.325 0 0 0 1.728 1.387c.959.444 1.952.27 2.942.518 1.466.363 2.524 1.757 3.514 2.847a46.248 46.248 0 0 1 3.06 3.78c.393.538 1.297 0 .901-.53a44.61 44.61 0 0 0-4.641-5.47c-.64-.643-1.339-1.287-2.201-1.608-1.032-.377-2.163-.046-3.166-.506-1.524-.698-2.341-2.512-3.332-3.78-.99-1.268-2.12-2.162-3.772-2.375-2.485-.321-4.674-.643-6.191-2.915-1.08-1.608-1.402-3.475-3.357-4.285-1.955-.811-4.124-.36-5.709-1.93-1.31-1.288-2.012-3.09-3.833-3.807-2.319-.924-5.031.38-7.248-.846-1.834-1.01-2.69-3.154-4.881-3.594-.655-.132-.936.878-.278 1.01l.013.013zM59.162 241.004c2.179-2.864 6.25 1.391 8.493 2.078 1.156.357 2.287.207 3.44-.08.903-.225 1.813-.585 2.758-.496 1.06.099 1.679.675 2.377 1.391.698.716 1.282 1.432 2.204 1.763 1.362.49 2.53-.194 3.844-.493 3.092-.71 4.344 2.883 7.14 3.469 1.35.283 2.727 0 4.082-.064 1.967-.08 3.184.596 4.427 2.053.814.955 1.58 1.91 2.768 2.435 1.281.55 2.703.455 4.046.735 1.806.376 2.405 1.636 3.258 3.078a7.7 7.7 0 0 0 2.489 2.622c.909.581 1.934.959 3.004 1.108 1.871.257 3.412-.02 4.85 1.403 1.522 1.502 2.563 3.87 4.758 4.52.64.193 1.3.088 1.963.12 1.39.07 2.271.853 3.236 1.744a45.947 45.947 0 0 1 4.388 4.704c.423.522 1.157-.216.737-.732a46.332 46.332 0 0 0-3.96-4.306c-1.044-.993-2.187-2.18-3.686-2.41-1.56-.24-2.586.144-3.845-1.04-.893-.834-1.547-1.884-2.348-2.8a6.242 6.242 0 0 0-2.431-1.86c-1.55-.578-3.258-.12-4.828-.696-1.653-.602-2.79-1.792-3.626-3.29-.64-1.172-1.243-2.229-2.524-2.817-1.282-.59-2.797-.427-4.165-.77-1.87-.462-2.668-1.86-3.908-3.158-2.338-2.454-5.007-1.219-7.967-1.54-2.844-.318-4.055-3.877-7.047-3.705-1.679.096-3.204 1.458-4.805.389-1.144-.755-1.782-2.079-3.089-2.632-1.444-.615-2.883-.064-4.318.273-2.313.548-3.78-.226-5.68-1.441-2.072-1.328-5.093-2.413-6.88-.077-.407.532.5 1.047.903.522h-.058zM55.667 249.064c1.983-2.4 5.019.33 6.794 1.516 1.95 1.319 3.575 1.395 5.818.92 1.648-.35 2.96-.478 4.225.837.605.633 1.076 1.388 1.778 1.922 1.872 1.431 3.488.043 5.496 0 2.276-.026 3.384 2.73 5.227 3.683 2.06 1.064 4.355.19 6.52.6 2.493.471 3.107 3.059 4.954 4.434 1.92 1.437 4.599.728 6.461 2.202.53.422 1.284-.33.748-.758-1.882-1.494-4.346-.897-6.303-2.11-2.05-1.273-2.6-3.973-5.11-4.695-2.567-.745-5.424.66-7.673-1.25-1.512-1.278-2.62-3.2-4.824-3.18-1.345 0-2.707.989-4.05.633-1.235-.33-1.888-1.725-2.762-2.555-1.648-1.563-3.465-1.085-5.487-.7-1.859.353-3.15 0-4.684-1.064-.949-.66-1.82-1.414-2.876-1.882-1.677-.749-3.738-.858-5 .659-.435.527.326 1.292.748.758v.03zM48.837 258.175c1.982-2.4 5.018.33 6.792 1.516 1.95 1.318 3.575 1.39 5.814.92 1.65-.35 2.964-.478 4.225.837.607.63 1.079 1.384 1.78 1.922 1.873 1.427 3.488.042 5.496 0 2.275-.03 3.383 2.726 5.226 3.682 2.06 1.064 4.351.19 6.5.6 2.492.47 3.11 3.055 4.952 4.433 1.924 1.434 4.602.725 6.461 2.202.533.422 1.3-.33.75-.761-1.88-1.494-4.348-.897-6.304-2.11-2.047-1.27-2.6-3.956-5.105-4.694-2.571-.742-5.424.66-7.673-1.246-1.512-1.282-2.62-3.204-4.823-3.181-1.346 0-2.707 1.005-4.05.633-1.234-.33-1.89-1.724-2.765-2.555-1.644-1.562-3.461-1.084-5.482-.702-1.86.356-3.15 0-4.687-1.061-.945-.66-1.82-1.414-2.873-1.886-1.677-.745-3.737-.857-5.001.66-.432.524.325 1.288.75.758l.017.033zM43.111 268.42c1.983-2.4 5.021.33 6.796 1.517 1.95 1.319 3.574 1.395 5.814.92 1.65-.35 2.96-.478 4.224.837.605.633 1.076 1.388 1.778 1.922 1.875 1.43 3.49.043 5.499 0 2.258-.026 3.38 2.73 5.225 3.682 2.057 1.065 4.352.195 6.516.6 2.493.472 3.11 3.06 4.953 4.434 1.92 1.438 4.598.729 6.46 2.203.53.422 1.3-.33.75-.759-1.884-1.493-4.347-.896-6.304-2.11-2.05-1.272-2.6-3.955-5.108-4.694-2.568-.745-5.424.66-7.67-1.25-1.514-1.278-2.622-3.2-4.822-3.18-1.346 0-2.71.988-4.053.636-1.232-.33-1.888-1.728-2.762-2.559-1.648-1.562-3.461-1.084-5.483-.698-1.862.352-3.149 0-4.686-1.065-.946-.66-1.82-1.415-2.876-1.883-1.677-.748-3.737-.857-4.998.66-.436.527.325 1.292.747.758v.03zM37.422 278.67c1.983-2.4 5.018.33 6.793 1.516 1.95 1.319 3.574 1.391 5.813.917 1.651-.35 2.964-.478 4.225.84.608.63 1.08 1.385 1.781 1.922 1.872 1.427 3.487.04 5.496 0 2.275-.03 3.383 2.726 5.225 3.682 2.06 1.065 4.352.191 6.5.6 2.493.471 3.11 3.056 4.953 4.433 1.924 1.434 4.602.726 6.46 2.202.533.422 1.3-.33.751-.761-1.881-1.493-4.348-.897-6.304-2.11-2.048-1.269-2.6-3.955-5.106-4.694-2.57-.745-5.424.66-7.673-1.246-1.511-1.282-2.62-3.204-4.823-3.18-1.345 0-2.707.988-4.049.632-1.235-.33-1.891-1.724-2.765-2.554-1.645-1.563-3.462-1.085-5.483-.702-1.859.352-3.15 0-4.686-1.062-.946-.66-1.82-1.414-2.873-1.885-1.677-.745-3.737-.857-5.002.659-.432.527.325 1.292.751.761l.016.03zM33.966 290.022c2.368-2.807 6.012 1.401 8.244 2.298a5.738 5.738 0 0 0 3.222.272c2.062-.351 3.725-.958 5.348.753.719.75 1.289 1.67 2.285 2.117 1.198.543 2.339.13 3.544-.156 1.949-.467 2.9.172 4.217 1.494.825.833 1.65 1.682 2.79 2.078 1.308.45 2.71.294 4.066.265 2.107-.044 3.47.505 4.762 2.168.696.894 1.343 1.855 2.339 2.452 1.127.674 2.461.76 3.724.987 1.878.338 2.758 1.235 3.583 2.873a8.337 8.337 0 0 0 2.397 3.081 7.526 7.526 0 0 0 3.07 1.389c1.75.342 3.325.07 4.691 1.411 1.563 1.536 2.387 3.943 4.51 4.875a4.871 4.871 0 0 0 1.698.32c1.563.115 2.233.463 3.322 1.497a40.283 40.283 0 0 1 4.51 5.233c.397.533 1.309 0 .91-.524a47.71 47.71 0 0 0-3.455-4.179c-.982-1.054-2.087-2.398-3.511-2.873-1.473-.498-2.787.041-4.06-1.121-.966-.872-1.61-2.043-2.387-3.052a6.493 6.493 0 0 0-2.317-2.018c-1.424-.639-3.05-.32-4.51-.817a6.652 6.652 0 0 1-3.734-3.302c-.712-1.34-1.205-2.608-2.655-3.304-1.176-.565-2.503-.562-3.753-.853-1.875-.43-2.68-1.692-3.818-3.09-2.127-2.615-4.53-1.999-7.568-2.178-2.027-.121-2.967-1.248-4.308-2.535-.786-.753-1.665-1.44-2.787-1.56-1.61-.173-3.221 1.11-4.777.462-1.347-.565-1.934-2.168-3.177-2.921-1.324-.805-2.768-.508-4.189-.214-1.07.223-2.12.44-3.192.124-.941-.274-1.772-.903-2.558-1.459-2.004-1.424-5.197-3.138-7.21-.753-.433.51.321 1.248.743.734l-.01.026zM30.535 300.27c2.371-2.807 6.015 1.4 8.248 2.298a5.738 5.738 0 0 0 3.222.271c2.062-.35 3.72-.957 5.348.754.718.75 1.288 1.67 2.284 2.117 1.199.542 2.339.13 3.544-.157 1.952-.466 2.9.173 4.22 1.494.825.834 1.65 1.683 2.79 2.076 1.309.453 2.71.293 4.067.268 2.107-.045 3.47.504 4.761 2.168.696.894 1.344 1.855 2.34 2.452 1.127.673 2.46.76 3.724.986 1.878.339 2.758 1.236 3.582 2.874a8.337 8.337 0 0 0 2.397 3.08 7.506 7.506 0 0 0 3.07 1.39c1.75.341 3.326.07 4.692 1.41 1.562 1.537 2.384 3.944 4.51 4.876a4.871 4.871 0 0 0 1.695.32c1.566.114 2.236.462 3.325 1.497a40.283 40.283 0 0 1 4.51 5.233c.397.533 1.308 0 .909-.524a48.303 48.303 0 0 0-3.454-4.18c-.966-1.053-2.088-2.397-3.512-2.873-1.472-.498-2.787.042-4.06-1.12-.966-.872-1.594-2.044-2.387-3.053a6.493 6.493 0 0 0-2.316-2.017c-1.424-.639-3.051-.32-4.51-.818a6.668 6.668 0 0 1-3.738-3.301c-.709-1.341-1.202-2.608-2.651-3.304-1.176-.566-2.504-.562-3.754-.853-1.875-.434-2.68-1.692-3.818-3.09-2.126-2.615-4.53-2-7.568-2.178-2.026-.121-2.967-1.248-4.307-2.535-.786-.753-1.666-1.44-2.787-1.561-1.61-.173-3.222 1.11-4.778.463-1.347-.565-1.933-2.168-3.177-2.922-1.324-.804-2.767-.507-4.188-.214-1.07.224-2.12.441-3.196.125-.937-.275-1.772-.904-2.555-1.46-2.004-1.423-5.196-3.138-7.21-.753-.432.511.322 1.249.74.735l-.012.025zM25.974 310.52c2.371-2.807 6.015 1.398 8.245 2.295a5.751 5.751 0 0 0 3.222.275c2.061-.355 3.72-.958 5.348.75.718.75 1.288 1.673 2.284 2.117 1.198.545 2.339.134 3.544-.154 1.95-.469 2.9.17 4.22 1.494.825.834 1.65 1.68 2.79 2.076 1.309.45 2.71.293 4.066.265 2.108-.045 3.47.504 4.762 2.168.696.893 1.344 1.858 2.34 2.451 1.124.674 2.46.76 3.724.987 1.875.342 2.758 1.236 3.582 2.873a8.311 8.311 0 0 0 2.397 3.078 7.513 7.513 0 0 0 3.07 1.392c1.747.342 3.326.07 4.692 1.408 1.562 1.536 2.384 3.946 4.51 4.879a4.872 4.872 0 0 0 1.695.319c1.566.118 2.236.463 3.325 1.5a40.254 40.254 0 0 1 4.51 5.23c.397.536 1.308 0 .906-.524a47.661 47.661 0 0 0-3.45-4.179c-.984-1.053-2.089-2.398-3.513-2.873-1.475-.495-2.787.041-4.062-1.118-.967-.874-1.592-2.046-2.385-3.055a6.538 6.538 0 0 0-2.32-2.018c-1.423-.638-3.047-.32-4.51-.817a6.678 6.678 0 0 1-3.734-3.298c-.709-1.341-1.205-2.612-2.651-3.308-1.176-.562-2.504-.562-3.754-.85-1.875-.433-2.68-1.694-3.82-3.093-2.124-2.615-4.527-1.995-7.569-2.177-2.023-.121-2.964-1.249-4.307-2.535-.783-.754-1.663-1.437-2.787-1.558-1.611-.176-3.222 1.108-4.775.463-1.347-.569-1.933-2.171-3.177-2.925-1.324-.804-2.767-.507-4.188-.21-1.07.22-2.12.44-3.196.124-.937-.278-1.772-.907-2.555-1.462-2.004-1.42-5.197-3.139-7.21-.754-.432.511.306 1.252.74.738l-.009.025zM23.693 321.906c2.368-2.807 6.012 1.398 8.244 2.295a5.738 5.738 0 0 0 3.222.275c2.062-.355 3.724-.958 5.348.75.719.75 1.289 1.673 2.285 2.117 1.198.546 2.339.134 3.544-.153 1.949-.47 2.9.169 4.217 1.494.825.833 1.65 1.68 2.79 2.075 1.308.453 2.71.294 4.066.265 2.107-.045 3.47.504 4.762 2.168.696.894 1.343 1.858 2.339 2.452 1.127.677 2.461.76 3.724.986 1.878.342 2.758 1.236 3.583 2.874a8.311 8.311 0 0 0 2.397 3.078 7.532 7.532 0 0 0 3.07 1.392c1.75.341 3.325.07 4.691 1.407 1.563 1.536 2.387 3.947 4.51 4.879a4.872 4.872 0 0 0 1.698.32c1.563.117 2.233.462 3.322 1.5a40.254 40.254 0 0 1 4.51 5.23c.397.536 1.309 0 .91-.524a48.302 48.302 0 0 0-3.455-4.18c-.966-1.053-2.087-2.397-3.511-2.873-1.424-.476-2.787.042-4.06-1.117-.966-.872-1.595-2.047-2.387-3.056a6.554 6.554 0 0 0-2.317-2.017c-1.424-.639-3.05-.32-4.51-.818a6.659 6.659 0 0 1-3.734-3.298c-.712-1.34-1.205-2.611-2.655-3.307-1.176-.562-2.503-.562-3.753-.85-1.875-.434-2.68-1.695-3.818-3.093-2.127-2.615-4.53-1.996-7.568-2.178-2.027-.121-2.967-1.248-4.308-2.535-.786-.753-1.665-1.436-2.787-1.558-1.61-.175-3.221 1.111-4.778.463-1.346-.568-1.933-2.17-3.176-2.924-1.324-.805-2.768-.508-4.189-.211-1.07.22-2.12.44-3.192.124-.941-.277-1.776-.906-2.558-1.462-2.004-1.42-5.197-3.138-7.21-.753-.433.51.321 1.251.743.737l-.01.026zM165.227 256.939c2.277-2.696 5.787 1.332 7.919 2.208a5.835 5.835 0 0 0 3.437.24c2.028-.38 3.536-.782 5.05.92.643.714 1.228 1.542 2.148 1.931 1.16.49 2.25.096 3.424-.188 3.337-.816 4.147 2.712 6.954 3.537 1.212.357 2.478.223 3.72.191 2.028-.044 3.356.494 4.6 2.094.675.87 1.286 1.803 2.27 2.383 1.102.66 2.408.73 3.642.956 1.93.357 2.707 1.345 3.537 3.008a7.602 7.602 0 0 0 2.437 2.926 7.403 7.403 0 0 0 3.27 1.274c1.645.22 2.922.16 4.146 1.409 1.476 1.504 2.3 3.855 4.405 4.665.617.235 1.132.204 1.78.26 1.448.128 2.161.686 3.13 1.652a42.8 42.8 0 0 1 4.179 4.865c.395.532 1.305 0 .906-.525a46.951 46.951 0 0 0-3.154-3.843c-.984-1.068-2.109-2.47-3.536-2.973-1.428-.504-2.749.019-3.99-1.106-.88-.803-1.479-1.877-2.199-2.814a7.001 7.001 0 0 0-2.057-1.953c-1.344-.749-2.894-.44-4.325-.835a6.416 6.416 0 0 1-3.967-3.298c-.643-1.236-1.135-2.47-2.44-3.151-1.125-.587-2.437-.6-3.655-.858-1.875-.404-2.678-1.625-3.81-3.017-1.993-2.45-4.228-1.989-7.105-2.103-1.977-.08-2.932-1.033-4.253-2.317-.795-.771-1.64-1.504-2.788-1.654-1.562-.2-3.215 1.077-4.69.44-1.238-.526-1.826-1.972-2.92-2.718-1.154-.787-2.427-.679-3.735-.427-1.235.239-2.405.605-3.662.204-.913-.293-1.707-.905-2.479-1.45-1.929-1.367-4.993-2.944-6.918-.666-.431.51.321 1.246.742.733h-.013zM158.387 266.042c2.276-2.696 5.786 1.332 7.918 2.205a5.835 5.835 0 0 0 3.44.242c2.025-.379 3.536-.78 5.05.921.643.714 1.228 1.543 2.144 1.931 1.161.491 2.25.096 3.424-.188 3.34-.816 4.147 2.709 6.957 3.537 1.209.357 2.475.22 3.716.192 2.029-.048 3.357.494 4.6 2.093.676.87 1.306 1.804 2.27 2.384 1.106.66 2.408.73 3.643.956 1.929.36 2.707 1.348 3.536 3.008a7.625 7.625 0 0 0 2.434 2.929 7.36 7.36 0 0 0 3.27 1.274c1.648.223 2.921.163 4.15 1.412 1.475 1.504 2.298 3.856 4.404 4.665.614.236 1.128.204 1.777.261 1.447.128 2.164.686 3.128 1.651a42.802 42.802 0 0 1 4.18 4.863c.395.535 1.305 0 .903-.523a46.416 46.416 0 0 0-3.154-3.843c-.983-1.07-2.109-2.47-3.536-2.973-1.427-.503-2.752.02-3.993-1.109-.88-.8-1.479-1.877-2.199-2.814a6.992 6.992 0 0 0-2.057-1.95c-1.34-.749-2.893-.44-4.32-.835a6.416 6.416 0 0 1-3.968-3.298c-.643-1.236-1.135-2.47-2.443-3.152-1.125-.586-2.437-.599-3.652-.86-1.878-.401-2.681-1.625-3.813-3.018-1.993-2.447-4.224-1.985-7.101-2.103-1.978-.076-2.936-1.032-4.257-2.313-.794-.772-1.64-1.504-2.787-1.654-1.562-.204-3.196 1.074-4.69.44-1.235-.526-1.823-1.973-2.92-2.719-1.154-.787-2.427-.682-3.735-.427-1.235.24-2.402.606-3.659.204-.916-.293-1.707-.905-2.481-1.453-1.93-1.364-4.993-2.941-6.915-.663-.431.507.305 1.246.739.733l-.003-.006zM150.414 276.296c2.275-2.696 5.785 1.332 7.916 2.208a5.831 5.831 0 0 0 3.435.239c2.028-.38 3.535-.78 5.049.92.643.715 1.228 1.543 2.147 1.932 1.16.49 2.25.096 3.422-.188 3.336-.816 4.146 2.712 6.952 3.537 1.211.357 2.478.223 3.718.191 2.028-.044 3.355.494 4.6 2.094.674.87 1.285 1.803 2.268 2.383 1.102.66 2.407.73 3.641.956 1.929.357 2.706 1.345 3.535 3.008a7.602 7.602 0 0 0 2.437 2.925 7.4 7.4 0 0 0 3.268 1.275c1.645.22 2.921.16 4.146 1.408 1.475 1.504 2.298 3.856 4.403 4.665.617.236 1.13.204 1.78.262 1.446.127 2.16.685 3.127 1.65a42.797 42.797 0 0 1 4.178 4.866c.395.532 1.305 0 .906-.526a46.948 46.948 0 0 0-3.152-3.843c-.984-1.067-2.109-2.47-3.536-2.973-1.427-.503-2.747.02-3.988-1.105-.88-.803-1.478-1.877-2.198-2.814a7 7 0 0 0-2.057-1.953c-1.343-.75-2.892-.44-4.323-.835a6.414 6.414 0 0 1-3.991-3.298c-.643-1.237-1.135-2.47-2.44-3.152-1.124-.586-2.435-.596-3.653-.857-1.874-.404-2.677-1.625-3.809-3.017-1.992-2.45-4.226-1.989-7.102-2.104-1.977-.08-2.931-1.032-4.252-2.316-.794-.771-1.64-1.504-2.786-1.654-1.562-.2-3.214 1.077-4.69.44-1.237-.526-1.825-1.973-2.917-2.718-1.154-.787-2.427-.679-3.735-.427-1.234.239-2.404.605-3.66.204-.913-.293-1.707-.905-2.478-1.45-1.928-1.367-4.991-2.944-6.916-.666-.43.51.321 1.246.742.733h.013zM145.833 286.553c1.832-2.167 4.683.158 6.34 1.288 1.743 1.184 3.315 1.551 5.384 1.14 1.393-.277 2.802-.75 4.053.196.776.586 1.276 1.461 2.007 2.099 1.48 1.288 2.942.766 4.67.377 2.562-.573 3.513 1.61 5.29 2.897 1.643 1.191 3.572.966 5.485.927 1.39-.019 2.627.203 3.64 1.21.734.725 1.238 1.653 1.949 2.4 1.39 1.461 3.13 1.551 5.01 1.931 1.716.345 2.492 1.265 3.248 2.769a8.305 8.305 0 0 0 1.903 2.65 7.483 7.483 0 0 0 2.498 1.47c1.325.461 2.728.323 4.072.645.65.167.942-.844.28-1.011-1.186-.303-2.44-.18-3.612-.515a6.41 6.41 0 0 1-3.52-2.489c-1.176-1.716-1.507-3.603-3.699-4.324-1.026-.322-2.124-.373-3.17-.621-1.438-.345-2.273-1.236-3.14-2.363-1.146-1.494-2.273-2.576-4.241-2.782-2.65-.264-4.872.506-6.982-1.568-1.183-1.156-2.316-2.501-4.131-2.447-1.27.039-2.598.944-3.875.6-1.12-.303-1.76-1.52-2.533-2.277-1.377-1.349-2.922-1.355-4.725-.966-1.802.39-3.247.45-4.887-.583-1.05-.66-1.985-1.513-3.124-2.018-1.624-.731-3.683-.857-4.927.615-.435.515.309 1.262.747.74l-.01.01zM141.269 295.668c1.828-2.166 4.68.158 6.34 1.287 1.74 1.185 3.312 1.549 5.38 1.137 1.394-.277 2.803-.747 4.053.196.78.586 1.277 1.461 2.01 2.098 1.482 1.288 2.94.766 4.668.38 2.562-.576 3.513 1.61 5.293 2.897 1.643 1.19 3.572.966 5.482.927 1.393-.023 2.627.2 3.644 1.207.73.727 1.234 1.654 1.948 2.401 1.39 1.461 3.131 1.551 5.011 1.931 1.718.348 2.495 1.265 3.248 2.772a8.28 8.28 0 0 0 1.9 2.645 7.484 7.484 0 0 0 2.497 1.471c1.325.464 2.728.322 4.073.644.65.167.942-.843.282-1.014-1.188-.303-2.439-.177-3.614-.512a6.412 6.412 0 0 1-3.517-2.491c-1.176-1.712-1.51-3.602-3.703-4.32-1.026-.321-2.12-.373-3.17-.624-1.438-.344-2.273-1.233-3.14-2.36-1.146-1.493-2.273-2.574-4.241-2.783-2.647-.264-4.872.508-6.982-1.568-1.18-1.155-2.316-2.5-4.128-2.443-1.273.039-2.598.94-3.875.599-1.12-.303-1.76-1.52-2.536-2.279-1.377-1.348-2.923-1.352-4.722-.965-1.8.386-3.247.45-4.89-.586-1.046-.644-1.985-1.51-3.125-2.018-1.624-.73-3.683-.856-4.927.615-.435.514.325 1.261.75.743l-.01.013zM134.416 304.777c1.831-2.166 4.683.158 6.339 1.287 1.744 1.182 3.316 1.549 5.384 1.137 1.39-.277 2.8-.747 4.053.196.777.586 1.277 1.461 2.007 2.099 1.481 1.287 2.943.766 4.67.38 2.56-.577 3.511 1.609 5.29 2.896 1.644 1.188 3.573.966 5.483.927 1.393-.022 2.63.2 3.644 1.207.733.728 1.237 1.651 1.948 2.401 1.39 1.461 3.134 1.552 5.014 1.931 1.715.348 2.491 1.265 3.248 2.772a8.328 8.328 0 0 0 1.9 2.645 7.484 7.484 0 0 0 2.497 1.471c1.328.464 2.728.322 4.073.644.65.167.945-.846.282-1.014-1.185-.302-2.439-.177-3.614-.512a6.435 6.435 0 0 1-3.518-2.49c-1.175-1.713-1.506-3.603-3.699-4.323-1.029-.322-2.123-.37-3.172-.622-1.436-.344-2.274-1.232-3.138-2.359-1.15-1.493-2.273-2.575-4.244-2.784-2.647-.264-4.872.505-6.98-1.568-1.181-1.155-2.315-2.5-4.13-2.446-1.27.042-2.598.943-3.875.602-1.12-.302-1.76-1.52-2.533-2.279-1.377-1.348-2.922-1.355-4.725-.965-1.802.39-3.247.45-4.89-.586-1.046-.644-1.982-1.51-3.122-2.018-1.623-.73-3.686-.856-4.93.615-.431.515.325 1.261.75.743l-.012.013zM129.854 315.024c2.276-2.695 5.786 1.331 7.918 2.204a5.811 5.811 0 0 0 3.436.242c2.029-.38 3.536-.78 5.054.92.643.714 1.224 1.539 2.144 1.93 1.16.49 2.25.096 3.423-.188 3.34-.815 4.147 2.708 6.957 3.536 1.209.357 2.475.22 3.716.191 2.028-.048 3.356.494 4.6 2.093.675.866 1.302 1.802 2.27 2.379 1.106.662 2.408.732 3.642.955 1.929.36 2.707 1.348 3.536 3.007a7.622 7.622 0 0 0 2.434 2.927 7.362 7.362 0 0 0 3.269 1.274c1.649.22 2.922.16 4.15 1.411 1.476 1.503 2.299 3.854 4.4 4.663.618.236 1.132.204 1.782.261 1.446.128 2.163.685 3.128 1.647a43.424 43.424 0 0 1 4.179 4.863c.392.535 1.305 0 .903-.522a46.397 46.397 0 0 0-3.154-3.841c-.983-1.07-2.108-2.469-3.536-2.972-1.427-.503-2.751.02-3.992-1.108-.881-.8-1.479-1.876-2.2-2.813a7.044 7.044 0 0 0-2.056-1.949c-1.341-.748-2.894-.44-4.324-.834a6.414 6.414 0 0 1-3.967-3.316c-.643-1.233-1.135-2.465-2.443-3.147-1.125-.586-2.437-.599-3.652-.86-1.877-.401-2.681-1.624-3.813-3.016-1.993-2.45-4.224-1.987-7.104-2.102-1.974-.08-2.932-1.032-4.253-2.316-.794-.77-1.64-1.5-2.787-1.65-1.562-.203-3.196 1.074-4.69.44-1.238-.526-1.823-1.972-2.92-2.717-1.153-.787-2.426-.681-3.735-.427-1.234.236-2.401.606-3.658.204-.916-.293-1.71-.904-2.482-1.452-1.928-1.363-4.992-2.943-6.918-.666-.427.51.322 1.249.743.736v.013zM124.144 325.257c2.276-2.696 5.786 1.332 7.918 2.209a5.835 5.835 0 0 0 3.44.239c2.025-.38 3.536-.781 5.05.92.643.714 1.228 1.543 2.144 1.932 1.16.49 2.25.095 3.424-.188 3.34-.816 4.147 2.711 6.957 3.537 1.208.357 2.475.223 3.716.191 2.028-.048 3.356.494 4.6 2.094.675.87 1.306 1.803 2.27 2.383 1.106.66 2.408.73 3.642.956 1.93.357 2.707 1.345 3.537 3.008a7.593 7.593 0 0 0 2.433 2.926 7.403 7.403 0 0 0 3.27 1.274c1.649.22 2.922.16 4.15 1.409 1.476 1.504 2.299 3.856 4.404 4.665.614.236 1.129.204 1.778.262 1.447.127 2.164.685 3.128 1.65a42.802 42.802 0 0 1 4.18 4.863c.395.535 1.304 0 .903-.523a46.952 46.952 0 0 0-3.154-3.843c-.984-1.067-2.11-2.47-3.536-2.973-1.428-.503-2.752.02-3.993-1.109-.881-.8-1.479-1.874-2.2-2.81a6.963 6.963 0 0 0-2.057-1.954c-1.34-.749-2.893-.44-4.323-.835a6.396 6.396 0 0 1-3.964-3.298c-.643-1.236-1.135-2.47-2.444-3.152-1.125-.586-2.436-.599-3.652-.86-1.877-.401-2.68-1.622-3.812-3.014-1.993-2.451-4.225-1.989-7.105-2.104-1.974-.08-2.932-1.032-4.253-2.316-.794-.772-1.64-1.504-2.787-1.654-1.563-.201-3.196 1.074-4.69.44-1.235-.526-1.824-1.973-2.92-2.719-1.154-.787-2.427-.678-3.735-.427-1.235.24-2.402.606-3.659.204-.916-.293-1.707-.905-2.482-1.45-1.928-1.367-4.992-2.944-6.918-.666-.427.507.322 1.246.743.733h-.003zM120.71 335.504c2.277-2.696 5.788 1.332 7.92 2.205a5.783 5.783 0 0 0 3.436.24c2.029-.38 3.536-.778 5.05.923.644.714 1.229 1.54 2.148 1.931 1.158.491 2.267.096 3.424-.188 3.337-.815 4.144 2.709 6.954 3.537 1.209.357 2.479.22 3.72.192 2.025-.048 3.356.494 4.6 2.093.672.867 1.286 1.804 2.27 2.38 1.103.663 2.405.733 3.643.957 1.929.36 2.707 1.347 3.536 3.008a7.634 7.634 0 0 0 2.437 2.928 7.361 7.361 0 0 0 3.27 1.275c1.646.22 2.922.16 4.147 1.411 1.476 1.504 2.299 3.856 4.404 4.662.618.24 1.132.207 1.778.265 1.45.127 2.164.685 3.132 1.647a43.405 43.405 0 0 1 4.179 4.866c.395.532 1.305 0 .907-.522a46.415 46.415 0 0 0-3.154-3.843c-.987-1.071-2.112-2.47-3.537-2.974-1.424-.503-2.752.02-3.99-1.108-.88-.803-1.482-1.877-2.198-2.814a7.072 7.072 0 0 0-2.058-1.95c-1.344-.75-2.893-.44-4.324-.835a6.416 6.416 0 0 1-3.967-3.302c-.643-1.233-1.135-2.466-2.444-3.148-1.122-.59-2.433-.599-3.652-.86-1.877-.402-2.678-1.625-3.813-3.018-1.99-2.45-4.224-1.988-7.102-2.103-1.977-.08-2.932-1.032-4.253-2.317-.797-.77-1.643-1.504-2.787-1.65-1.563-.204-3.2 1.074-4.69.44-1.239-.526-1.827-1.973-2.92-2.719-1.154-.787-2.427-.682-3.74-.427-1.23.236-2.4.606-3.658.204-.913-.293-1.707-.905-2.478-1.453-1.93-1.364-4.993-2.944-6.919-.666-.43.51.322 1.25.743.736l-.013-.003zM117.295 345.753c2.276-2.696 5.786 1.332 7.918 2.208a5.835 5.835 0 0 0 3.437.239c2.028-.38 3.536-.78 5.053.921.643.714 1.225 1.542 2.144 1.931 1.161.49 2.25.096 3.424-.188 3.34-.816 4.147 2.712 6.957 3.537 1.209.357 2.475.223 3.716.191 2.029-.044 3.357.494 4.6 2.094.676.87 1.303 1.804 2.27 2.384 1.106.66 2.408.73 3.643.956 1.929.357 2.707 1.344 3.536 3.008a7.593 7.593 0 0 0 2.434 2.925 7.403 7.403 0 0 0 3.27 1.275c1.648.22 2.921.16 4.15 1.408 1.475 1.504 2.298 3.856 4.4 4.666.618.235 1.132.204 1.781.261 1.447.127 2.164.685 3.129 1.65a43.4 43.4 0 0 1 4.179 4.863c.392.536 1.305 0 .903-.522a46.952 46.952 0 0 0-3.154-3.843c-.983-1.068-2.109-2.47-3.536-2.973-1.427-.504-2.752.019-3.993-1.106-.88-.803-1.478-1.877-2.199-2.814a7.001 7.001 0 0 0-2.057-1.953c-1.34-.75-2.893-.44-4.324-.835a6.39 6.39 0 0 1-3.964-3.298c-.643-1.237-1.135-2.47-2.443-3.152-1.125-.586-2.437-.6-3.652-.857-1.878-.405-2.681-1.625-3.813-3.018-1.993-2.45-4.224-1.989-7.105-2.103-1.973-.08-2.931-1.033-4.253-2.317-.794-.771-1.64-1.504-2.787-1.654-1.562-.2-3.196 1.077-4.69.44-1.238-.526-1.823-1.973-2.92-2.718-1.154-.787-2.427-.679-3.735-.427-1.235.239-2.401.605-3.658.204-.917-.293-1.71-.905-2.482-1.45-1.93-1.367-4.993-2.945-6.919-.666-.427.51.322 1.246.743.733h-.003zM113.869 354.867c2.276-2.695 5.786 1.332 7.918 2.205a5.794 5.794 0 0 0 3.44.239c2.025-.38 3.536-.778 5.05.92.643.717 1.228 1.542 2.145 1.934 1.16.49 2.266.096 3.424-.188 3.34-.815 4.147 2.708 6.957 3.537 1.208.353 2.475.22 3.716.191 2.028-.048 3.356.494 4.6 2.093.676.867 1.306 1.803 2.273 2.38 1.103.663 2.405.733 3.64.956 1.928.36 2.706 1.348 3.536 3.008a7.662 7.662 0 0 0 2.434 2.927 7.362 7.362 0 0 0 3.27 1.275c1.648.22 2.921.16 4.15 1.411 1.475 1.504 2.298 3.852 4.404 4.661.614.24 1.132.208 1.778.265 1.446.127 2.163.685 3.128 1.647a43.096 43.096 0 0 1 4.18 4.865c.395.532 1.304 0 .903-.526a46.986 46.986 0 0 0-3.151-3.823c-.987-1.07-2.112-2.469-3.536-2.972-1.425-.504-2.752.019-3.99-1.11-.884-.802-1.482-1.876-2.202-2.812a6.953 6.953 0 0 0-2.058-1.95c-1.34-.752-2.893-.44-4.32-.835a6.415 6.415 0 0 1-3.971-3.323c-.643-1.233-1.135-2.466-2.443-3.148-1.125-.59-2.437-.599-3.652-.86-1.878-.401-2.682-1.625-3.813-3.017-1.993-2.45-4.225-1.988-7.102-2.103-1.977-.08-2.935-1.032-4.256-2.316-.794-.771-1.64-1.504-2.788-1.65-1.562-.204-3.195 1.073-4.69.44-1.235-.527-1.823-1.973-2.92-2.718-1.153-.787-2.423-.682-3.735-.427-1.231.235-2.401.605-3.659.2-.916-.293-1.707-.901-2.481-1.45-1.93-1.363-4.993-2.943-6.916-.665-.43.51.322 1.249.74.736l-.003.003zM110.438 366.242c2.28-2.696 5.787 1.332 7.921 2.205a5.81 5.81 0 0 0 3.437.242c2.026-.379 3.537-.78 5.05.921.644.714 1.229 1.543 2.145 1.931 1.16.491 2.267.096 3.424-.188 3.34-.816 4.147 2.712 6.957 3.537 1.21.357 2.476.22 3.72.192 2.025-.048 3.356.494 4.6 2.093.672.87 1.287 1.804 2.27 2.384 1.103.66 2.405.73 3.643.956 1.929.36 2.707 1.348 3.536 3.008a7.635 7.635 0 0 0 2.437 2.929 7.348 7.348 0 0 0 3.27 1.274c1.646.223 2.919.163 4.147 1.412 1.476 1.504 2.299 3.856 4.405 4.665.617.236 1.131.204 1.777.261 1.45.128 2.164.686 3.129 1.651a42.802 42.802 0 0 1 4.179 4.863c.395.535 1.305 0 .907-.523a47.074 47.074 0 0 0-3.154-3.843c-.987-1.07-2.113-2.47-3.537-2.973-1.424-.503-2.752.02-3.99-1.109-.88-.8-1.482-1.877-2.198-2.814a7.046 7.046 0 0 0-2.061-1.95c-1.34-.749-2.894-.44-4.321-.835a6.416 6.416 0 0 1-3.967-3.298c-.643-1.236-1.135-2.47-2.444-3.152-1.125-.586-2.433-.599-3.652-.86-1.877-.401-2.678-1.625-3.813-3.018-1.99-2.447-4.224-1.985-7.102-2.103-1.977-.076-2.932-1.032-4.256-2.313-.794-.772-1.64-1.504-2.784-1.654-1.563-.204-3.2 1.074-4.69.44-1.239-.526-1.827-1.973-2.92-2.719-1.157-.787-2.427-.682-3.74-.427-1.23.24-2.4.606-3.658.204-.913-.293-1.707-.905-2.482-1.453-1.929-1.364-4.992-2.941-6.915-.663-.43.507.322 1.246.74.733l-.01-.006z" fill="#D5EFFF"/><path d="M166.652 243.79s-6.358-8.513-17.95-18.34c4.836 4.355-11.532 28.02-24.212 52.08C111.81 301.588 94 340 92.033 351.637c-1.967 11.64-24.186 4.192-32.678.794 12.966 5.604 26.574 13.448 38.394 24.457-.006-.004 24.25-92.126 68.903-133.098zM202.766 337.873c-12.252 26.509-19.746 55.584-24.948 59.057-5.538 3.694-16.933 4.393-28.288-.765 12.828 6.92 25.644 16.215 35.378 28.546 0 0 18.72-73.949 63.928-132.26 0 0-4.645-5.857-12.913-13.485 5.112 4.982-20.911 32.41-33.157 58.907z" fill="#002630" opacity=".06"/><path d="M99.306 210.324s-7.246-4.783-17.825-5.37c0 0-8.074 8.288-16.418 25.795 0 0 9.854 1.336 18.13 6.087 0-.01 7.12-17.506 16.113-26.512zM130.125 275.143s-7.534-7.276-20.694-8.702c0 0-8.521 10.95-18.115 31.188 0 0 11.898 3.163 21.412 8.664 0 0 7.058-20.74 17.397-31.15zM222.583 319.358s-6.099-6.213-16.067-7.372c0 0-7.655 6.464-15.894 24.154 0 0 7.741 1.556 16.048 10.005-.007.01 7.029-17.673 15.913-26.787z" fill="#ACD7E5"/><path d="M418.24 136.636s-17.578 1.585-40.728 3.688c19.928-1.807 21.5 52.668 26.02 97.895 4.136 41.396 3.938 90.305-30.278 101.095 34.029-2.98 66.18-5.685 70.77-5.691 0 0-21.04-178.885-25.784-196.987z" fill="#002630" opacity=".06"/><path d="M59.18 145.745c-.184.352-.362.701-.537 1.03-7.602 14.586-13.518 23.593-9.294 25.74 4.224 2.149 7.395 2.788 9.507-1.291 2.28-4.402 6.132-10.564 10.772-19.28a17.634 17.634 0 0 0-10.448-6.199z" fill="url(#X)"/><path d="M86.838 92.23a44.59 44.59 0 0 0-.782 1.414c-1.938 3.677-18.737 37.669-26.7 52.762a17.985 17.985 0 0 1 10.612 6.171 629.91 629.91 0 0 0 1.938-3.65c5.15-10.032 25.638-48.977 26.168-50.16l.09-.206a18.06 18.06 0 0 0-11.326-6.331z" fill="url(#Y)"/><path d="M64.017 162.507c1.23.74 2.512 1.392 3.835 1.953.658.325 14.426-25.776 15.41-28.048.985-2.272 2.13-.163 0 4.703-2.13 4.866-14.265 26.265-14.265 26.265l-6.217-2.78 1.237-2.093z" fill="url(#Z)"/><path d="M99.965 80.843c-1.546 1.066-2.89 1.876-4.083 2.634l4.566 1.92a25.899 25.899 0 0 0-.483-4.554z" fill="url(#aa)"/><path d="M95.353 83.12c-3.384 2.03-5.806 3.71-8.603 8.518a18.058 18.058 0 0 1 11.29 6.285c2.106-4.718 2.493-9.414 2.393-12.76l-5.08-2.043z" fill="url(#ab)"/><path d="M100.433 85.679a26.08 26.08 0 0 0-.541-4.836s-.441 1.534-1.355 4.081a122.22 122.22 0 0 1-4.214 10.199 114.689 114.689 0 0 1-3.32 6.529c-4.01 7.29-15.975 30.726-24.74 47.354-4.636 8.79-8.373 15.676-9.573 17.274-3.462 4.615-4 7.571-7.608 6.255 4.308 2.122 7.537 2.758 9.69-1.279 2.324-4.356 6.25-10.454 10.979-19.08a624.452 624.452 0 0 0 1.945-3.63c5.167-9.975 25.726-48.7 26.257-49.876l.091-.204c2.1-4.727 2.49-9.432 2.39-12.787z" fill="#002630" opacity=".06"/><path d="M466.853 286.086l.277 1.146c3.875 16.194 5.314 27.029 10.057 25.798 4.743-1.231 7.65-2.87 6.558-7.386-1.178-4.885-2.31-12.15-4.558-21.893a18.562 18.562 0 0 0-12.334 2.335z" fill="url(#ac)"/><path d="M452.014 228.32c.1.5.218 1.023.35 1.57.976 4.032 10.892 40.51 14.902 57.046a18.28 18.28 0 0 1 12.143-2.297c-.306-1.334-.63-2.673-.975-4.003-2.778-10.897-13.192-53.501-13.572-54.739-.02-.073-.046-.144-.069-.214a18.369 18.369 0 0 0-12.78 2.637z" fill="url(#ad)"/><path d="M481.378 295.977a32.397 32.397 0 0 0 4.29-1.011c.725-.18-6.453-28.39-7.242-30.708-.789-2.317 1.53-1.486 3.205 3.489 1.675 4.974 6.91 28.65 6.91 28.65l-6.684 1.926-.479-2.346z" fill="url(#ae)"/><path d="M453.744 210.648c-.603 1.774-1.209 3.224-1.73 4.554l5.707-1.608a28.006 28.006 0 0 0-3.977-2.946z" fill="url(#af)"/><path d="M452.267 215.833c-1.238 3.693-1.962 6.505-.831 11.894 3.885-2.38 8.566-3.31 13.134-2.606-1.609-4.875-4.543-8.625-6.93-11.057l-5.373 1.769z" fill="url(#ag)"/><path d="M457.938 213.948a26.736 26.736 0 0 0-3.641-3.3s.694 1.448 1.707 3.968c1.012 2.52 2.35 6.14 3.635 10.468.649 2.2 1.298 4.582 1.863 7.102 1.85 8.13 8.502 33.653 13.014 51.945 2.385 9.668 4.173 17.313 4.339 19.304.473 5.747 2.044 8.348-1.555 9.69 4.664-1.204 7.523-2.829 6.449-7.282-1.159-4.816-2.272-11.98-4.482-21.587a147.07 147.07 0 0 0-.974-4.01c-2.775-10.917-13.176-53.602-13.556-54.841-.02-.074-.045-.145-.068-.215-1.558-4.955-4.404-8.766-6.73-11.242z" fill="#002630" opacity=".06"/><path d="M48.536 126.144c3.67.62 6.203.547 6.752-6.218.088-1.076.314-3.093.643-5.843l-10.803-1.358c-1.192 12.65-.929 12.697 3.408 13.419z" fill="#ED4C4C"/><path d="M44.336 104.755c-.294 2.694-.52 4.93-.674 6.573l-.287 3.166 12.542 1.647c.32-2.701.702-5.982 1.155-9.714l-12.736-1.672z" fill="url(#ah)"/><path d="M68.468 16.883c-.319-2.092-1.378-6.235-2.233-9.376-.619-2.318-1.123-4.091-1.123-4.091s-.214 1.41-.568 3.862c-.344 2.357-.817 5.672-1.359 9.621-1.509 10.999-3.535 26.874-4.67 40.405-1.238 14.758-3.628 35.037-5.446 48.903l.175.023 1.682-12.975-1.682 12.975-.012.135-.103.782-.178-.023c-.393 2.984-.76 5.643-1.075 7.854-.048.341-.096.67-.14.988-.425 2.897-.747 4.893-.92 5.585-.874 3.54-3.403 5.208-5.158 5.092.638.322 1.49.46 2.626.644 3.732.608 6.31.537 6.868-6.1.077-.914.258-2.526.523-4.696l.833.11c.319-2.73.702-6.045 1.155-9.818l-.728-.096c3.609-27.302 11.29-82.114 11.543-89.16l-.22-.026.22.026c.015-.214.011-.43-.01-.644zM589.537 134.731c-11.368-19.359-26.03-49.048-43.703-85.046-17.672-35.997-19.482-39.278-31.496-34.07a2797.73 2797.73 0 0 0-17.808 7.78c12.627-5.529 20.225 15.535 37.494 52.504 17.269 36.97 35.59 69.092 38.483 75.643 2.894 6.551 6.278 14.803-5.065 20.392l2.497-1.215c30.848-14.97 32.132-14.65 19.598-35.988zM452.868 379.59c0-4.831 1.296-5.984 6.896-5.984.465-.004.928.048 1.381.155-.755-.945-1.842-1.427-3.377-1.427-5.603 0-6.896 1.15-6.896 5.983v13.374a21.528 21.528 0 0 1 1.987-.488l.01-11.614zM521.719 472.291c6.7 2.331 11.39-12.572 15.777-25.62 3.58-10.691 9.294-23.082 9.294-23.082s9.076 1.801 11.455-6.987c1.751-6.476 1.504-15.35-1.952-16.94 2.216 2.962-1.026 14.192-5.403 18.64s-3.404.638-8.428 11.115c-5.025 10.478-12.321 29.383-15.074 34.307-2.753 4.923-5.858 8.743-8.029 6.514a3.74 3.74 0 0 0 2.36 2.053zM311.327 450.9s-2.044 16.253-3.136 20.495c0 0 3.544-3.11 4.908-5.23 0 0 .136 3.675 0 5.23 0 0 3.271-2.546 4.224-5.512a20.774 20.774 0 0 0-2.588 2.12 18.348 18.348 0 0 1-.136-4.804s-2.095 2.106-3.952 3.701l.68-16z" fill="#002630" opacity=".06"/><path d="M311.327 450.9s-2.044 16.253-3.136 20.495c0 0 3.544-3.11 4.908-5.23 0 0 .136 3.675 0 5.23 0 0 3.271-2.546 4.224-5.512a20.774 20.774 0 0 0-2.588 2.12 18.348 18.348 0 0 1-.136-4.804s-2.095 2.106-3.952 3.701l.68-16zM326.517 380.305s-1.531 10.822-2.345 13.663c0 0 2.653-2.071 3.685-3.488 0 0 .1 2.452 0 3.488 0 0 2.45-1.697 3.163-3.676-.686.424-1.334.898-1.94 1.416a10.911 10.911 0 0 1-.1-3.203s-1.568 1.403-2.962 2.473l.499-10.673zM323.093 266.44s-1.535 10.825-2.346 13.665c0 0 2.654-2.073 3.686-3.486 0 0 .1 2.45 0 3.486 0 0 2.45-1.695 3.163-3.675a15.83 15.83 0 0 0-1.94 1.414 10.916 10.916 0 0 1-.1-3.204s-1.569 1.404-2.963 2.474l.5-10.673zM336.997 422.434s1.474 12.328 2.013 15.941l-4.565-3.736c1.02.12 2.017.401 2.954.834l-.402-13.039zM335.854 322.234s1.479 12.325 2.015 15.941l-4.566-3.736c1.02.12 2.016.4 2.954.831l-.403-13.036zM349.552 256.193s1.478 12.325 2.014 15.941l-4.565-3.736c1.02.12 2.015.4 2.953.831l-.402-13.036z" fill="#002630" opacity=".06"/><path d="M349.283 217.011s-.263-1.336-1.461-1.698c-1.198-.363-3.104.12-3.104 2.167a2.94 2.94 0 0 1 1.394-1.116c.468-.176 1.211-.064 1.341.114.245.037.485.092.718.165.636.19 1.112.382 1.112.382v-.014zM360.698 230.531s-.343-1.195-1.517-1.556c-1.173-.36-3.049.12-3.049 2.168.312-.493.79-.884 1.367-1.117.459-.176 1.164-.03 1.292.148 0 0 .219 0 .849.109.367.03.725.118 1.058.26v-.012zM320.747 245.269s.34-1.113 1.517-1.486c1.177-.373 3.049.12 3.049 2.162a2.893 2.893 0 0 0-1.367-1.127c-.462-.175-1.164-.03-1.295.148a3.138 3.138 0 0 0-.796.064c-.378.043-.75.123-1.108.239z" fill="#191919"/></g></svg>