<?xml version="1.0" encoding="UTF-8" standalone="no"?>
<!DOCTYPE svg PUBLIC "-//W3C//DTD SVG 1.1//EN"
 "http://www.w3.org/Graphics/SVG/1.1/DTD/svg11.dtd">
<!-- Generated by graphviz version 2.40.1 (20161225.0304)
 -->
<!-- Title: dependencies Pages: 1 -->
<svg width="1685pt" height="284pt"
 viewBox="0.00 0.00 1685.00 284.00" xmlns="http://www.w3.org/2000/svg" xmlns:xlink="http://www.w3.org/1999/xlink">
<g id="graph0" class="graph" transform="scale(1 1) rotate(0) translate(4 280)">
<title>dependencies</title>
<polygon fill="#ffffff" stroke="transparent" points="-4,4 -4,-280 1681,-280 1681,4 -4,4"/>
<text text-anchor="start" x="817.5091" y="-42.4" font-family="sans-serif" font-weight="bold" font-size="14.00" fill="#000000">Legend</text>
<polygon fill="#ffffb3" stroke="transparent" points="604.5,-10 604.5,-30 624.5,-30 624.5,-10 604.5,-10"/>
<text text-anchor="start" x="628.129" y="-15.4" font-family="sans-serif" font-size="14.00" fill="#000000"> &#160;Declarations</text>
<polygon fill="#8dd3c7" stroke="transparent" points="717.5,-10 717.5,-30 737.5,-30 737.5,-10 717.5,-10"/>
<text text-anchor="start" x="741.2251" y="-15.4" font-family="sans-serif" font-size="14.00" fill="#000000"> &#160;Module</text>
<polygon fill="#80b1d3" stroke="transparent" points="803.5,-10 803.5,-30 823.5,-30 823.5,-10 803.5,-10"/>
<text text-anchor="start" x="827.2812" y="-15.4" font-family="sans-serif" font-size="14.00" fill="#000000"> &#160;Bootstrap</text>
<polygon fill="#fdb462" stroke="transparent" points="900.5,-10 900.5,-30 920.5,-30 920.5,-10 900.5,-10"/>
<text text-anchor="start" x="924.1732" y="-15.4" font-family="sans-serif" font-size="14.00" fill="#000000"> &#160;Providers</text>
<polygon fill="#fb8072" stroke="transparent" points="996.5,-10 996.5,-30 1016.5,-30 1016.5,-10 996.5,-10"/>
<text text-anchor="start" x="1020.2258" y="-15.4" font-family="sans-serif" font-size="14.00" fill="#000000"> &#160;Exports</text>
<g id="clust1" class="cluster">
<title>cluster_ModalsModule</title>
<polygon fill="none" stroke="#000000" stroke-dasharray="1,5" points="8,-70 8,-268 1669,-268 1669,-70 8,-70"/>
</g>
<g id="clust2" class="cluster">
<title>cluster_ModalsModule_declarations</title>
<polygon fill="none" stroke="#000000" points="581,-78 581,-130 1661,-130 1661,-78 581,-78"/>
</g>
<g id="clust11" class="cluster">
<title>cluster_ModalsModule_imports</title>
<polygon fill="none" stroke="#000000" points="16,-78 16,-130 573,-130 573,-78 16,-78"/>
</g>
<g id="clust12" class="cluster">
<title>cluster_ModalsModule_exports</title>
<polygon fill="none" stroke="#000000" points="359,-208 359,-260 1467,-260 1467,-208 359,-208"/>
</g>
<!-- AddAnotherUser -->
<g id="node1" class="node">
<title>AddAnotherUser</title>
<polygon fill="#ffffb3" stroke="#000000" points="1653.4061,-122 1540.5939,-122 1540.5939,-86 1653.4061,-86 1653.4061,-122"/>
<text text-anchor="middle" x="1597" y="-99.8" font-family="Times,serif" font-size="14.00" fill="#000000">AddAnotherUser</text>
</g>
<!-- ModalsModule -->
<g id="node9" class="node">
<title>ModalsModule</title>
<polygon fill="#8dd3c7" stroke="#000000" points="965.5452,-187 962.5452,-191 941.5452,-191 938.5452,-187 864.4548,-187 864.4548,-151 965.5452,-151 965.5452,-187"/>
<text text-anchor="middle" x="915" y="-164.8" font-family="Times,serif" font-size="14.00" fill="#000000">ModalsModule</text>
</g>
<!-- AddAnotherUser&#45;&gt;ModalsModule -->
<g id="edge1" class="edge">
<title>AddAnotherUser&#45;&gt;ModalsModule</title>
<path fill="none" stroke="#000000" d="M1597,-122.308C1597,-142.1455 1597,-171 1597,-171 1597,-171 975.7037,-171 975.7037,-171"/>
<polygon fill="#000000" stroke="#000000" points="975.7037,-167.5001 965.7037,-171 975.7036,-174.5001 975.7037,-167.5001"/>
</g>
<!-- AddUserComponent -->
<g id="node2" class="node">
<title>AddUserComponent</title>
<polygon fill="#ffffb3" stroke="#000000" points="1522.8655,-122 1391.1345,-122 1391.1345,-86 1522.8655,-86 1522.8655,-122"/>
<text text-anchor="middle" x="1457" y="-99.8" font-family="Times,serif" font-size="14.00" fill="#000000">AddUserComponent</text>
</g>
<!-- AddUserComponent&#45;&gt;ModalsModule -->
<g id="edge2" class="edge">
<title>AddUserComponent&#45;&gt;ModalsModule</title>
<path fill="none" stroke="#000000" d="M1425.01,-122.2222C1425.01,-140.8285 1425.01,-167 1425.01,-167 1425.01,-167 975.7663,-167 975.7663,-167"/>
<polygon fill="#000000" stroke="#000000" points="975.7663,-163.5001 965.7663,-167 975.7662,-170.5001 975.7663,-163.5001"/>
</g>
<!-- CreateCannedReplies -->
<g id="node3" class="node">
<title>CreateCannedReplies</title>
<polygon fill="#ffffb3" stroke="#000000" points="1372.7893,-122 1235.2107,-122 1235.2107,-86 1372.7893,-86 1372.7893,-122"/>
<text text-anchor="middle" x="1304" y="-99.8" font-family="Times,serif" font-size="14.00" fill="#000000">CreateCannedReplies</text>
</g>
<!-- CreateCannedReplies&#45;&gt;ModalsModule -->
<g id="edge3" class="edge">
<title>CreateCannedReplies&#45;&gt;ModalsModule</title>
<path fill="none" stroke="#000000" d="M1280.0191,-122.0225C1280.0191,-139.3734 1280.0191,-163 1280.0191,-163 1280.0191,-163 975.7543,-163 975.7543,-163"/>
<polygon fill="#000000" stroke="#000000" points="975.7544,-159.5001 965.7543,-163 975.7543,-166.5001 975.7544,-159.5001"/>
</g>
<!-- CreateLabel -->
<g id="node4" class="node">
<title>CreateLabel</title>
<polygon fill="#ffffb3" stroke="#000000" points="1217.405,-122 1132.595,-122 1132.595,-86 1217.405,-86 1217.405,-122"/>
<text text-anchor="middle" x="1175" y="-99.8" font-family="Times,serif" font-size="14.00" fill="#000000">CreateLabel</text>
</g>
<!-- CreateLabel&#45;&gt;ModalsModule -->
<g id="edge4" class="edge">
<title>CreateLabel&#45;&gt;ModalsModule</title>
<path fill="none" stroke="#000000" d="M1152.0963,-122.0091C1152.0963,-138.0494 1152.0963,-159 1152.0963,-159 1152.0963,-159 975.5723,-159 975.5723,-159"/>
<polygon fill="#000000" stroke="#000000" points="975.5723,-155.5001 965.5723,-159 975.5722,-162.5001 975.5723,-155.5001"/>
</g>
<!-- CreateTicket -->
<g id="node5" class="node">
<title>CreateTicket</title>
<polygon fill="#ffffb3" stroke="#000000" points="1115.2951,-122 1026.7049,-122 1026.7049,-86 1115.2951,-86 1115.2951,-122"/>
<text text-anchor="middle" x="1071" y="-99.8" font-family="Times,serif" font-size="14.00" fill="#000000">CreateTicket</text>
</g>
<!-- CreateTicket&#45;&gt;ModalsModule -->
<g id="edge5" class="edge">
<title>CreateTicket&#45;&gt;ModalsModule</title>
<path fill="none" stroke="#000000" d="M1086.9667,-122.1243C1086.9667,-136.7832 1086.9667,-155 1086.9667,-155 1086.9667,-155 975.6656,-155 975.6656,-155"/>
<polygon fill="#000000" stroke="#000000" points="975.6656,-151.5001 965.6656,-155 975.6655,-158.5001 975.6656,-151.5001"/>
</g>
<!-- FormErrors -->
<g id="node6" class="node">
<title>FormErrors</title>
<polygon fill="#ffffb3" stroke="#000000" points="1008.8134,-122 927.1866,-122 927.1866,-86 1008.8134,-86 1008.8134,-122"/>
<text text-anchor="middle" x="968" y="-99.8" font-family="Times,serif" font-size="14.00" fill="#000000">FormErrors</text>
</g>
<!-- FormErrors&#45;&gt;ModalsModule -->
<g id="edge6" class="edge">
<title>FormErrors&#45;&gt;ModalsModule</title>
<path fill="none" stroke="#000000" d="M946.5579,-122.1061C946.5579,-122.1061 946.5579,-140.991 946.5579,-140.991"/>
<polygon fill="#000000" stroke="#000000" points="943.0579,-140.9909 946.5579,-150.991 950.0579,-140.991 943.0579,-140.9909"/>
</g>
<!-- MergeTickets -->
<g id="node7" class="node">
<title>MergeTickets</title>
<polygon fill="#ffffb3" stroke="#000000" points="908.7424,-122 815.2576,-122 815.2576,-86 908.7424,-86 908.7424,-122"/>
<text text-anchor="middle" x="862" y="-99.8" font-family="Times,serif" font-size="14.00" fill="#000000">MergeTickets</text>
</g>
<!-- MergeTickets&#45;&gt;ModalsModule -->
<g id="edge7" class="edge">
<title>MergeTickets&#45;&gt;ModalsModule</title>
<path fill="none" stroke="#000000" d="M886.5495,-122.1061C886.5495,-122.1061 886.5495,-140.991 886.5495,-140.991"/>
<polygon fill="#000000" stroke="#000000" points="883.0495,-140.9909 886.5495,-150.991 890.0495,-140.991 883.0495,-140.9909"/>
</g>
<!-- NotificationDropdownComponent -->
<g id="node8" class="node">
<title>NotificationDropdownComponent</title>
<polygon fill="#ffffb3" stroke="#000000" points="797.3556,-122 588.6444,-122 588.6444,-86 797.3556,-86 797.3556,-122"/>
<text text-anchor="middle" x="693" y="-99.8" font-family="Times,serif" font-size="14.00" fill="#000000">NotificationDropdownComponent</text>
</g>
<!-- NotificationDropdownComponent&#45;&gt;ModalsModule -->
<g id="edge8" class="edge">
<title>NotificationDropdownComponent&#45;&gt;ModalsModule</title>
<path fill="none" stroke="#000000" d="M740.8645,-122.1243C740.8645,-136.7832 740.8645,-155 740.8645,-155 740.8645,-155 854.1647,-155 854.1647,-155"/>
<polygon fill="#000000" stroke="#000000" points="854.1647,-158.5001 864.1647,-155 854.1647,-151.5001 854.1647,-158.5001"/>
</g>
<!-- AddAnotherUser  -->
<g id="node14" class="node">
<title>AddAnotherUser </title>
<polygon fill="#fb8072" stroke="#000000" points="1458.9054,-252 1343.0946,-252 1343.0946,-216 1458.9054,-216 1458.9054,-252"/>
<text text-anchor="middle" x="1401" y="-229.8" font-family="Times,serif" font-size="14.00" fill="#000000">AddAnotherUser </text>
</g>
<!-- ModalsModule&#45;&gt;AddAnotherUser  -->
<g id="edge13" class="edge">
<title>ModalsModule&#45;&gt;AddAnotherUser </title>
<path fill="none" stroke="#000000" stroke-dasharray="5,2" d="M965.8001,-175C1082.1214,-175 1357.8459,-175 1357.8459,-175 1357.8459,-175 1357.8459,-205.9775 1357.8459,-205.9775"/>
<polygon fill="#000000" stroke="#000000" points="1354.346,-205.9774 1357.8459,-215.9775 1361.346,-205.9775 1354.346,-205.9774"/>
</g>
<!-- AddUserComponent  -->
<g id="node15" class="node">
<title>AddUserComponent </title>
<polygon fill="#fb8072" stroke="#000000" points="1324.8659,-252 1189.1341,-252 1189.1341,-216 1324.8659,-216 1324.8659,-252"/>
<text text-anchor="middle" x="1257" y="-229.8" font-family="Times,serif" font-size="14.00" fill="#000000">AddUserComponent </text>
</g>
<!-- ModalsModule&#45;&gt;AddUserComponent  -->
<g id="edge14" class="edge">
<title>ModalsModule&#45;&gt;AddUserComponent </title>
<path fill="none" stroke="#000000" stroke-dasharray="5,2" d="M965.8715,-179C1048.6251,-179 1203.2597,-179 1203.2597,-179 1203.2597,-179 1203.2597,-205.9909 1203.2597,-205.9909"/>
<polygon fill="#000000" stroke="#000000" points="1199.7597,-205.9909 1203.2597,-215.9909 1206.7597,-205.991 1199.7597,-205.9909"/>
</g>
<!-- CreateCannedReplies  -->
<g id="node16" class="node">
<title>CreateCannedReplies </title>
<polygon fill="#fb8072" stroke="#000000" points="1171.2892,-252 1030.7108,-252 1030.7108,-216 1171.2892,-216 1171.2892,-252"/>
<text text-anchor="middle" x="1101" y="-229.8" font-family="Times,serif" font-size="14.00" fill="#000000">CreateCannedReplies </text>
</g>
<!-- ModalsModule&#45;&gt;CreateCannedReplies  -->
<g id="edge15" class="edge">
<title>ModalsModule&#45;&gt;CreateCannedReplies </title>
<path fill="none" stroke="#000000" stroke-dasharray="5,2" d="M965.6936,-183C1007.0905,-183 1058.7861,-183 1058.7861,-183 1058.7861,-183 1058.7861,-205.8757 1058.7861,-205.8757"/>
<polygon fill="#000000" stroke="#000000" points="1055.2862,-205.8757 1058.7861,-215.8757 1062.2862,-205.8757 1055.2862,-205.8757"/>
</g>
<!-- CreateLabel  -->
<g id="node17" class="node">
<title>CreateLabel </title>
<polygon fill="#fb8072" stroke="#000000" points="1012.9041,-252 925.0959,-252 925.0959,-216 1012.9041,-216 1012.9041,-252"/>
<text text-anchor="middle" x="969" y="-229.8" font-family="Times,serif" font-size="14.00" fill="#000000">CreateLabel </text>
</g>
<!-- ModalsModule&#45;&gt;CreateLabel  -->
<g id="edge16" class="edge">
<title>ModalsModule&#45;&gt;CreateLabel </title>
<path fill="none" stroke="#000000" stroke-dasharray="5,2" d="M945.4101,-187.1061C945.4101,-187.1061 945.4101,-205.991 945.4101,-205.991"/>
<polygon fill="#000000" stroke="#000000" points="941.9101,-205.9909 945.4101,-215.991 948.9101,-205.991 941.9101,-205.9909"/>
</g>
<!-- CreateTicket  -->
<g id="node18" class="node">
<title>CreateTicket </title>
<polygon fill="#fb8072" stroke="#000000" points="906.7948,-252 815.2052,-252 815.2052,-216 906.7948,-216 906.7948,-252"/>
<text text-anchor="middle" x="861" y="-229.8" font-family="Times,serif" font-size="14.00" fill="#000000">CreateTicket </text>
</g>
<!-- ModalsModule&#45;&gt;CreateTicket  -->
<g id="edge17" class="edge">
<title>ModalsModule&#45;&gt;CreateTicket </title>
<path fill="none" stroke="#000000" stroke-dasharray="5,2" d="M885.5626,-187.1061C885.5626,-187.1061 885.5626,-205.991 885.5626,-205.991"/>
<polygon fill="#000000" stroke="#000000" points="882.0627,-205.9909 885.5626,-215.991 889.0627,-205.991 882.0627,-205.9909"/>
</g>
<!-- FormErrors  -->
<g id="node19" class="node">
<title>FormErrors </title>
<polygon fill="#fb8072" stroke="#000000" points="797.313,-252 712.687,-252 712.687,-216 797.313,-216 797.313,-252"/>
<text text-anchor="middle" x="755" y="-229.8" font-family="Times,serif" font-size="14.00" fill="#000000">FormErrors </text>
</g>
<!-- ModalsModule&#45;&gt;FormErrors  -->
<g id="edge18" class="edge">
<title>ModalsModule&#45;&gt;FormErrors </title>
<path fill="none" stroke="#000000" stroke-dasharray="5,2" d="M864.393,-183C822.2639,-183 769.1355,-183 769.1355,-183 769.1355,-183 769.1355,-205.8757 769.1355,-205.8757"/>
<polygon fill="#000000" stroke="#000000" points="765.6356,-205.8757 769.1355,-215.8757 772.6356,-205.8757 765.6356,-205.8757"/>
</g>
<!-- MergeTickets  -->
<g id="node20" class="node">
<title>MergeTickets </title>
<polygon fill="#fb8072" stroke="#000000" points="694.7423,-252 597.2577,-252 597.2577,-216 694.7423,-216 694.7423,-252"/>
<text text-anchor="middle" x="646" y="-229.8" font-family="Times,serif" font-size="14.00" fill="#000000">MergeTickets </text>
</g>
<!-- ModalsModule&#45;&gt;MergeTickets  -->
<g id="edge19" class="edge">
<title>ModalsModule&#45;&gt;MergeTickets </title>
<path fill="none" stroke="#000000" stroke-dasharray="5,2" d="M864.4032,-179C786.4804,-179 646,-179 646,-179 646,-179 646,-205.9909 646,-205.9909"/>
<polygon fill="#000000" stroke="#000000" points="642.5001,-205.9909 646,-215.9909 649.5001,-205.991 642.5001,-205.9909"/>
</g>
<!-- NotificationDropdownComponent  -->
<g id="node21" class="node">
<title>NotificationDropdownComponent </title>
<polygon fill="#fb8072" stroke="#000000" points="579.3559,-252 366.6441,-252 366.6441,-216 579.3559,-216 579.3559,-252"/>
<text text-anchor="middle" x="473" y="-229.8" font-family="Times,serif" font-size="14.00" fill="#000000">NotificationDropdownComponent </text>
</g>
<!-- ModalsModule&#45;&gt;NotificationDropdownComponent  -->
<g id="edge20" class="edge">
<title>ModalsModule&#45;&gt;NotificationDropdownComponent </title>
<path fill="none" stroke="#000000" stroke-dasharray="5,2" d="M864.4092,-175C769.0358,-175 572.1359,-175 572.1359,-175 572.1359,-175 572.1359,-205.9775 572.1359,-205.9775"/>
<polygon fill="#000000" stroke="#000000" points="568.636,-205.9774 572.1359,-215.9775 575.636,-205.9775 568.636,-205.9774"/>
</g>
<!-- ChangeLabelModule -->
<g id="node10" class="node">
<title>ChangeLabelModule</title>
<polygon fill="#8dd3c7" stroke="#000000" points="565.1881,-122 562.1881,-126 541.1881,-126 538.1881,-122 430.8119,-122 430.8119,-86 565.1881,-86 565.1881,-122"/>
<text text-anchor="middle" x="498" y="-99.8" font-family="Times,serif" font-size="14.00" fill="#000000">ChangeLabelModule</text>
</g>
<!-- ChangeLabelModule&#45;&gt;ModalsModule -->
<g id="edge9" class="edge">
<title>ChangeLabelModule&#45;&gt;ModalsModule</title>
<path fill="none" stroke="#000000" d="M498,-122.0091C498,-138.0494 498,-159 498,-159 498,-159 854.2845,-159 854.2845,-159"/>
<polygon fill="#000000" stroke="#000000" points="854.2845,-162.5001 864.2845,-159 854.2845,-155.5001 854.2845,-162.5001"/>
</g>
<!-- DirectivesModule -->
<g id="node11" class="node">
<title>DirectivesModule</title>
<polygon fill="#8dd3c7" stroke="#000000" points="412.5772,-122 409.5772,-126 388.5772,-126 385.5772,-122 295.4228,-122 295.4228,-86 412.5772,-86 412.5772,-122"/>
<text text-anchor="middle" x="354" y="-99.8" font-family="Times,serif" font-size="14.00" fill="#000000">DirectivesModule</text>
</g>
<!-- DirectivesModule&#45;&gt;ModalsModule -->
<g id="edge10" class="edge">
<title>DirectivesModule&#45;&gt;ModalsModule</title>
<path fill="none" stroke="#000000" d="M389.6804,-122.0225C389.6804,-139.3734 389.6804,-163 389.6804,-163 389.6804,-163 854.1528,-163 854.1528,-163"/>
<polygon fill="#000000" stroke="#000000" points="854.1529,-166.5001 864.1528,-163 854.1528,-159.5001 854.1529,-166.5001"/>
</g>
<!-- DropdownModule -->
<g id="node12" class="node">
<title>DropdownModule</title>
<polygon fill="#8dd3c7" stroke="#000000" points="277.9244,-122 274.9244,-126 253.9244,-126 250.9244,-122 158.0756,-122 158.0756,-86 277.9244,-86 277.9244,-122"/>
<text text-anchor="middle" x="218" y="-99.8" font-family="Times,serif" font-size="14.00" fill="#000000">DropdownModule</text>
</g>
<!-- DropdownModule&#45;&gt;ModalsModule -->
<g id="edge11" class="edge">
<title>DropdownModule&#45;&gt;ModalsModule</title>
<path fill="none" stroke="#000000" d="M218,-122.2222C218,-140.8285 218,-167 218,-167 218,-167 854.312,-167 854.312,-167"/>
<polygon fill="#000000" stroke="#000000" points="854.3121,-170.5001 864.312,-167 854.312,-163.5001 854.3121,-170.5001"/>
</g>
<!-- TicketDtoModule -->
<g id="node13" class="node">
<title>TicketDtoModule</title>
<polygon fill="#8dd3c7" stroke="#000000" points="140.3104,-122 137.3104,-126 116.3104,-126 113.3104,-122 23.6896,-122 23.6896,-86 140.3104,-86 140.3104,-122"/>
<text text-anchor="middle" x="82" y="-99.8" font-family="Times,serif" font-size="14.00" fill="#000000">TicketDtoModule</text>
</g>
<!-- TicketDtoModule&#45;&gt;ModalsModule -->
<g id="edge12" class="edge">
<title>TicketDtoModule&#45;&gt;ModalsModule</title>
<path fill="none" stroke="#000000" d="M82,-122.308C82,-142.1455 82,-171 82,-171 82,-171 854.1461,-171 854.1461,-171"/>
<polygon fill="#000000" stroke="#000000" points="854.1461,-174.5001 864.1461,-171 854.146,-167.5001 854.1461,-174.5001"/>
</g>
</g>
</svg>
