<?xml version="1.0" encoding="UTF-8" standalone="no"?>
<!DOCTYPE svg PUBLIC "-//W3C//DTD SVG 1.1//EN"
 "http://www.w3.org/Graphics/SVG/1.1/DTD/svg11.dtd">
<!-- Generated by graphviz version 2.40.1 (20161225.0304)
 -->
<!-- Title: dependencies Pages: 1 -->
<svg width="504pt" height="284pt"
 viewBox="0.00 0.00 504.00 284.00" xmlns="http://www.w3.org/2000/svg" xmlns:xlink="http://www.w3.org/1999/xlink">
<g id="graph0" class="graph" transform="scale(1 1) rotate(0) translate(4 280)">
<title>dependencies</title>
<polygon fill="#ffffff" stroke="transparent" points="-4,4 -4,-280 500,-280 500,4 -4,4"/>
<text text-anchor="start" x="227.0091" y="-42.4" font-family="sans-serif" font-weight="bold" font-size="14.00" fill="#000000">Legend</text>
<polygon fill="#ffffb3" stroke="transparent" points="14,-10 14,-30 34,-30 34,-10 14,-10"/>
<text text-anchor="start" x="37.629" y="-15.4" font-family="sans-serif" font-size="14.00" fill="#000000"> &#160;Declarations</text>
<polygon fill="#8dd3c7" stroke="transparent" points="127,-10 127,-30 147,-30 147,-10 127,-10"/>
<text text-anchor="start" x="150.7251" y="-15.4" font-family="sans-serif" font-size="14.00" fill="#000000"> &#160;Module</text>
<polygon fill="#80b1d3" stroke="transparent" points="213,-10 213,-30 233,-30 233,-10 213,-10"/>
<text text-anchor="start" x="236.7812" y="-15.4" font-family="sans-serif" font-size="14.00" fill="#000000"> &#160;Bootstrap</text>
<polygon fill="#fdb462" stroke="transparent" points="310,-10 310,-30 330,-30 330,-10 310,-10"/>
<text text-anchor="start" x="333.6732" y="-15.4" font-family="sans-serif" font-size="14.00" fill="#000000"> &#160;Providers</text>
<polygon fill="#fb8072" stroke="transparent" points="406,-10 406,-30 426,-30 426,-10 406,-10"/>
<text text-anchor="start" x="429.7258" y="-15.4" font-family="sans-serif" font-size="14.00" fill="#000000"> &#160;Exports</text>
<g id="clust1" class="cluster">
<title>cluster_DirectivesModule</title>
<polygon fill="none" stroke="#000000" stroke-dasharray="1,5" points="79,-70 79,-268 417,-268 417,-70 79,-70"/>
</g>
<g id="clust2" class="cluster">
<title>cluster_DirectivesModule_declarations</title>
<polygon fill="none" stroke="#000000" points="91,-78 91,-130 405,-130 405,-78 91,-78"/>
</g>
<g id="clust6" class="cluster">
<title>cluster_DirectivesModule_exports</title>
<polygon fill="none" stroke="#000000" points="87,-208 87,-260 409,-260 409,-208 87,-208"/>
</g>
<!-- CloseModalsDirective -->
<g id="node1" class="node">
<title>CloseModalsDirective</title>
<polygon fill="#ffffb3" stroke="#000000" points="396.9636,-122 255.0364,-122 255.0364,-86 396.9636,-86 396.9636,-122"/>
<text text-anchor="middle" x="326" y="-99.8" font-family="Times,serif" font-size="14.00" fill="#000000">CloseModalsDirective</text>
</g>
<!-- DirectivesModule -->
<g id="node3" class="node">
<title>DirectivesModule</title>
<polygon fill="#8dd3c7" stroke="#000000" points="227.5772,-187 224.5772,-191 203.5772,-191 200.5772,-187 110.4228,-187 110.4228,-151 227.5772,-151 227.5772,-187"/>
<text text-anchor="middle" x="169" y="-164.8" font-family="Times,serif" font-size="14.00" fill="#000000">DirectivesModule</text>
</g>
<!-- CloseModalsDirective&#45;&gt;DirectivesModule -->
<g id="edge1" class="edge">
<title>CloseModalsDirective&#45;&gt;DirectivesModule</title>
<path fill="none" stroke="#000000" d="M349.7439,-122.0225C349.7439,-139.3734 349.7439,-163 349.7439,-163 349.7439,-163 237.6824,-163 237.6824,-163"/>
<polygon fill="#000000" stroke="#000000" points="237.6824,-159.5001 227.6824,-163 237.6823,-166.5001 237.6824,-159.5001"/>
</g>
<!-- ShowElipsisDirective -->
<g id="node2" class="node">
<title>ShowElipsisDirective</title>
<polygon fill="#ffffb3" stroke="#000000" points="237.0856,-122 98.9144,-122 98.9144,-86 237.0856,-86 237.0856,-122"/>
<text text-anchor="middle" x="168" y="-99.8" font-family="Times,serif" font-size="14.00" fill="#000000">ShowElipsisDirective</text>
</g>
<!-- ShowElipsisDirective&#45;&gt;DirectivesModule -->
<g id="edge2" class="edge">
<title>ShowElipsisDirective&#45;&gt;DirectivesModule</title>
<path fill="none" stroke="#000000" d="M169,-122.1061C169,-122.1061 169,-140.991 169,-140.991"/>
<polygon fill="#000000" stroke="#000000" points="165.5001,-140.9909 169,-150.991 172.5001,-140.991 165.5001,-140.9909"/>
</g>
<!-- CloseModalsDirective  -->
<g id="node4" class="node">
<title>CloseModalsDirective </title>
<polygon fill="#fb8072" stroke="#000000" points="400.9643,-252 255.0357,-252 255.0357,-216 400.9643,-216 400.9643,-252"/>
<text text-anchor="middle" x="328" y="-229.8" font-family="Times,serif" font-size="14.00" fill="#000000">CloseModalsDirective </text>
</g>
<!-- DirectivesModule&#45;&gt;CloseModalsDirective  -->
<g id="edge3" class="edge">
<title>DirectivesModule&#45;&gt;CloseModalsDirective </title>
<path fill="none" stroke="#000000" stroke-dasharray="5,2" d="M227.5577,-175C263.4291,-175 302.5061,-175 302.5061,-175 302.5061,-175 302.5061,-205.9775 302.5061,-205.9775"/>
<polygon fill="#000000" stroke="#000000" points="299.0062,-205.9774 302.5061,-215.9775 306.0062,-205.9775 299.0062,-205.9774"/>
</g>
<!-- ShowElipsisDirective  -->
<g id="node5" class="node">
<title>ShowElipsisDirective </title>
<polygon fill="#fb8072" stroke="#000000" points="236.5862,-252 95.4138,-252 95.4138,-216 236.5862,-216 236.5862,-252"/>
<text text-anchor="middle" x="166" y="-229.8" font-family="Times,serif" font-size="14.00" fill="#000000">ShowElipsisDirective </text>
</g>
<!-- DirectivesModule&#45;&gt;ShowElipsisDirective  -->
<g id="edge4" class="edge">
<title>DirectivesModule&#45;&gt;ShowElipsisDirective </title>
<path fill="none" stroke="#000000" stroke-dasharray="5,2" d="M169,-187.1061C169,-187.1061 169,-205.991 169,-205.991"/>
<polygon fill="#000000" stroke="#000000" points="165.5001,-205.9909 169,-215.991 172.5001,-205.991 165.5001,-205.9909"/>
</g>
</g>
</svg>
