<?xml version="1.0" encoding="UTF-8" standalone="no"?>
<!DOCTYPE svg PUBLIC "-//W3C//DTD SVG 1.1//EN"
 "http://www.w3.org/Graphics/SVG/1.1/DTD/svg11.dtd">
<!-- Generated by graphviz version 2.40.1 (20161225.0304)
 -->
<!-- Title: dependencies Pages: 1 -->
<svg width="504pt" height="211pt"
 viewBox="0.00 0.00 504.00 211.00" xmlns="http://www.w3.org/2000/svg" xmlns:xlink="http://www.w3.org/1999/xlink">
<g id="graph0" class="graph" transform="scale(1 1) rotate(0) translate(4 207)">
<title>dependencies</title>
<polygon fill="#ffffff" stroke="transparent" points="-4,4 -4,-207 500,-207 500,4 -4,4"/>
<text text-anchor="start" x="227.0091" y="-42.4" font-family="sans-serif" font-weight="bold" font-size="14.00" fill="#000000">Legend</text>
<polygon fill="#ffffb3" stroke="transparent" points="14,-10 14,-30 34,-30 34,-10 14,-10"/>
<text text-anchor="start" x="37.629" y="-15.4" font-family="sans-serif" font-size="14.00" fill="#000000"> &#160;Declarations</text>
<polygon fill="#8dd3c7" stroke="transparent" points="127,-10 127,-30 147,-30 147,-10 127,-10"/>
<text text-anchor="start" x="150.7251" y="-15.4" font-family="sans-serif" font-size="14.00" fill="#000000"> &#160;Module</text>
<polygon fill="#80b1d3" stroke="transparent" points="213,-10 213,-30 233,-30 233,-10 213,-10"/>
<text text-anchor="start" x="236.7812" y="-15.4" font-family="sans-serif" font-size="14.00" fill="#000000"> &#160;Bootstrap</text>
<polygon fill="#fdb462" stroke="transparent" points="310,-10 310,-30 330,-30 330,-10 310,-10"/>
<text text-anchor="start" x="333.6732" y="-15.4" font-family="sans-serif" font-size="14.00" fill="#000000"> &#160;Providers</text>
<polygon fill="#fb8072" stroke="transparent" points="406,-10 406,-30 426,-30 426,-10 406,-10"/>
<text text-anchor="start" x="429.7258" y="-15.4" font-family="sans-serif" font-size="14.00" fill="#000000"> &#160;Exports</text>
<g id="clust1" class="cluster">
<title>cluster_CannedReplyDtoModule</title>
<polygon fill="none" stroke="#000000" stroke-dasharray="1,5" points="103,-70 103,-195 393,-195 393,-70 103,-70"/>
</g>
<g id="clust6" class="cluster">
<title>cluster_CannedReplyDtoModule_providers</title>
<polygon fill="none" stroke="#000000" points="111,-78 111,-130 385,-130 385,-78 111,-78"/>
</g>
<!-- CannedReplies -->
<g id="node1" class="node">
<title>CannedReplies</title>
<ellipse fill="#fdb462" stroke="#000000" cx="307" cy="-104" rx="69.5012" ry="18"/>
<text text-anchor="middle" x="307" y="-99.8" font-family="Times,serif" font-size="14.00" fill="#000000">CannedReplies</text>
</g>
<!-- CannedReplyDtoModule -->
<g id="node3" class="node">
<title>CannedReplyDtoModule</title>
<polygon fill="#8dd3c7" stroke="#000000" points="326.2548,-187 323.2548,-191 302.2548,-191 299.2548,-187 169.7452,-187 169.7452,-151 326.2548,-151 326.2548,-187"/>
<text text-anchor="middle" x="248" y="-164.8" font-family="Times,serif" font-size="14.00" fill="#000000">CannedReplyDtoModule</text>
</g>
<!-- CannedReplies&#45;&gt;CannedReplyDtoModule -->
<g id="edge1" class="edge">
<title>CannedReplies&#45;&gt;CannedReplyDtoModule</title>
<path fill="none" stroke="#000000" d="M281.9383,-121.078C281.9383,-121.078 281.9383,-140.8993 281.9383,-140.8993"/>
<polygon fill="#000000" stroke="#000000" points="278.4384,-140.8992 281.9383,-150.8993 285.4384,-140.8993 278.4384,-140.8992"/>
</g>
<!-- Categorys -->
<g id="node2" class="node">
<title>Categorys</title>
<ellipse fill="#fdb462" stroke="#000000" cx="169" cy="-104" rx="50.38" ry="18"/>
<text text-anchor="middle" x="169" y="-99.8" font-family="Times,serif" font-size="14.00" fill="#000000">Categorys</text>
</g>
<!-- Categorys&#45;&gt;CannedReplyDtoModule -->
<g id="edge2" class="edge">
<title>Categorys&#45;&gt;CannedReplyDtoModule</title>
<path fill="none" stroke="#000000" d="M194.4062,-119.7347C194.4062,-119.7347 194.4062,-140.6451 194.4062,-140.6451"/>
<polygon fill="#000000" stroke="#000000" points="190.9063,-140.645 194.4062,-150.6451 197.9063,-140.6451 190.9063,-140.645"/>
</g>
</g>
</svg>
