<?xml version="1.0" encoding="UTF-8" standalone="no"?>
<!DOCTYPE svg PUBLIC "-//W3C//DTD SVG 1.1//EN"
 "http://www.w3.org/Graphics/SVG/1.1/DTD/svg11.dtd">
<!-- Generated by graphviz version 2.40.1 (20161225.0304)
 -->
<!-- Title: dependencies Pages: 1 -->
<svg width="2028pt" height="211pt"
 viewBox="0.00 0.00 2028.00 211.00" xmlns="http://www.w3.org/2000/svg" xmlns:xlink="http://www.w3.org/1999/xlink">
<g id="graph0" class="graph" transform="scale(1 1) rotate(0) translate(4 207)">
<title>dependencies</title>
<polygon fill="#ffffff" stroke="transparent" points="-4,4 -4,-207 2024,-207 2024,4 -4,4"/>
<text text-anchor="start" x="989.0091" y="-42.4" font-family="sans-serif" font-weight="bold" font-size="14.00" fill="#000000">Legend</text>
<polygon fill="#ffffb3" stroke="transparent" points="776,-10 776,-30 796,-30 796,-10 776,-10"/>
<text text-anchor="start" x="799.629" y="-15.4" font-family="sans-serif" font-size="14.00" fill="#000000"> &#160;Declarations</text>
<polygon fill="#8dd3c7" stroke="transparent" points="889,-10 889,-30 909,-30 909,-10 889,-10"/>
<text text-anchor="start" x="912.7251" y="-15.4" font-family="sans-serif" font-size="14.00" fill="#000000"> &#160;Module</text>
<polygon fill="#80b1d3" stroke="transparent" points="975,-10 975,-30 995,-30 995,-10 975,-10"/>
<text text-anchor="start" x="998.7812" y="-15.4" font-family="sans-serif" font-size="14.00" fill="#000000"> &#160;Bootstrap</text>
<polygon fill="#fdb462" stroke="transparent" points="1072,-10 1072,-30 1092,-30 1092,-10 1072,-10"/>
<text text-anchor="start" x="1095.6732" y="-15.4" font-family="sans-serif" font-size="14.00" fill="#000000"> &#160;Providers</text>
<polygon fill="#fb8072" stroke="transparent" points="1168,-10 1168,-30 1188,-30 1188,-10 1168,-10"/>
<text text-anchor="start" x="1191.7258" y="-15.4" font-family="sans-serif" font-size="14.00" fill="#000000"> &#160;Exports</text>
<g id="clust1" class="cluster">
<title>cluster_AppModule</title>
<polygon fill="none" stroke="#000000" stroke-dasharray="1,5" points="8,-70 8,-195 2012,-195 2012,-70 8,-70"/>
</g>
<g id="clust2" class="cluster">
<title>cluster_AppModule_declarations</title>
<polygon fill="none" stroke="#000000" points="16,-78 16,-130 2004,-130 2004,-78 16,-78"/>
</g>
<!-- AddMailbox -->
<g id="node1" class="node">
<title>AddMailbox</title>
<polygon fill="#ffffb3" stroke="#000000" points="1995.5482,-122 1908.4518,-122 1908.4518,-86 1995.5482,-86 1995.5482,-122"/>
<text text-anchor="middle" x="1952" y="-99.8" font-family="Times,serif" font-size="14.00" fill="#000000">AddMailbox</text>
</g>
<!-- AppModule -->
<g id="node18" class="node">
<title>AppModule</title>
<polygon fill="#8dd3c7" stroke="#000000" points="1004.6571,-187 1001.6571,-191 980.6571,-191 977.6571,-187 921.3429,-187 921.3429,-151 1004.6571,-151 1004.6571,-187"/>
<text text-anchor="middle" x="963" y="-164.8" font-family="Times,serif" font-size="14.00" fill="#000000">AppModule</text>
</g>
<!-- AddMailbox&#45;&gt;AppModule -->
<g id="edge1" class="edge">
<title>AddMailbox&#45;&gt;AppModule</title>
<path fill="none" stroke="#000000" d="M1952,-122.3228C1952,-145.6602 1952,-183 1952,-183 1952,-183 1014.8644,-183 1014.8644,-183"/>
<polygon fill="#000000" stroke="#000000" points="1014.8644,-179.5001 1004.8644,-183 1014.8644,-186.5001 1014.8644,-179.5001"/>
</g>
<!-- CannedReplies -->
<g id="node2" class="node">
<title>CannedReplies</title>
<polygon fill="#ffffb3" stroke="#000000" points="1890.2577,-122 1789.7423,-122 1789.7423,-86 1890.2577,-86 1890.2577,-122"/>
<text text-anchor="middle" x="1840" y="-99.8" font-family="Times,serif" font-size="14.00" fill="#000000">CannedReplies</text>
</g>
<!-- CannedReplies&#45;&gt;AppModule -->
<g id="edge2" class="edge">
<title>CannedReplies&#45;&gt;AppModule</title>
<path fill="none" stroke="#000000" d="M1840,-122.1554C1840,-144.3519 1840,-179 1840,-179 1840,-179 1014.7095,-179 1014.7095,-179"/>
<polygon fill="#000000" stroke="#000000" points="1014.7096,-175.5001 1004.7095,-179 1014.7095,-182.5001 1014.7096,-175.5001"/>
</g>
<!-- CompanyAPI -->
<g id="node3" class="node">
<title>CompanyAPI</title>
<polygon fill="#ffffb3" stroke="#000000" points="1771.4916,-122 1678.5084,-122 1678.5084,-86 1771.4916,-86 1771.4916,-122"/>
<text text-anchor="middle" x="1725" y="-99.8" font-family="Times,serif" font-size="14.00" fill="#000000">CompanyAPI</text>
</g>
<!-- CompanyAPI&#45;&gt;AppModule -->
<g id="edge3" class="edge">
<title>CompanyAPI&#45;&gt;AppModule</title>
<path fill="none" stroke="#000000" d="M1725,-122.2843C1725,-143.3211 1725,-175 1725,-175 1725,-175 1014.7813,-175 1014.7813,-175"/>
<polygon fill="#000000" stroke="#000000" points="1014.7813,-171.5001 1004.7813,-175 1014.7813,-178.5001 1014.7813,-171.5001"/>
</g>
<!-- CompanyBilling -->
<g id="node4" class="node">
<title>CompanyBilling</title>
<polygon fill="#ffffb3" stroke="#000000" points="1660.8413,-122 1551.1587,-122 1551.1587,-86 1660.8413,-86 1660.8413,-122"/>
<text text-anchor="middle" x="1606" y="-99.8" font-family="Times,serif" font-size="14.00" fill="#000000">CompanyBilling</text>
</g>
<!-- CompanyBilling&#45;&gt;AppModule -->
<g id="edge4" class="edge">
<title>CompanyBilling&#45;&gt;AppModule</title>
<path fill="none" stroke="#000000" d="M1606,-122.308C1606,-142.1455 1606,-171 1606,-171 1606,-171 1014.6936,-171 1014.6936,-171"/>
<polygon fill="#000000" stroke="#000000" points="1014.6936,-167.5001 1004.6936,-171 1014.6936,-174.5001 1014.6936,-167.5001"/>
</g>
<!-- CompanyGroups -->
<g id="node5" class="node">
<title>CompanyGroups</title>
<polygon fill="#ffffb3" stroke="#000000" points="1533.6541,-122 1422.3459,-122 1422.3459,-86 1533.6541,-86 1533.6541,-122"/>
<text text-anchor="middle" x="1478" y="-99.8" font-family="Times,serif" font-size="14.00" fill="#000000">CompanyGroups</text>
</g>
<!-- CompanyGroups&#45;&gt;AppModule -->
<g id="edge5" class="edge">
<title>CompanyGroups&#45;&gt;AppModule</title>
<path fill="none" stroke="#000000" d="M1478,-122.2222C1478,-140.8285 1478,-167 1478,-167 1478,-167 1014.7084,-167 1014.7084,-167"/>
<polygon fill="#000000" stroke="#000000" points="1014.7084,-163.5001 1004.7084,-167 1014.7083,-170.5001 1014.7084,-163.5001"/>
</g>
<!-- CompanyUsersActive -->
<g id="node6" class="node">
<title>CompanyUsersActive</title>
<polygon fill="#ffffb3" stroke="#000000" points="1403.6303,-122 1264.3697,-122 1264.3697,-86 1403.6303,-86 1403.6303,-122"/>
<text text-anchor="middle" x="1334" y="-99.8" font-family="Times,serif" font-size="14.00" fill="#000000">CompanyUsersActive</text>
</g>
<!-- CompanyUsersActive&#45;&gt;AppModule -->
<g id="edge6" class="edge">
<title>CompanyUsersActive&#45;&gt;AppModule</title>
<path fill="none" stroke="#000000" d="M1334,-122.0225C1334,-139.3734 1334,-163 1334,-163 1334,-163 1014.8372,-163 1014.8372,-163"/>
<polygon fill="#000000" stroke="#000000" points="1014.8373,-159.5001 1004.8372,-163 1014.8372,-166.5001 1014.8373,-159.5001"/>
</g>
<!-- CoreComment -->
<g id="node7" class="node">
<title>CoreComment</title>
<polygon fill="#ffffb3" stroke="#000000" points="1246.4358,-122 1147.5642,-122 1147.5642,-86 1246.4358,-86 1246.4358,-122"/>
<text text-anchor="middle" x="1197" y="-99.8" font-family="Times,serif" font-size="14.00" fill="#000000">CoreComment</text>
</g>
<!-- CoreComment&#45;&gt;AppModule -->
<g id="edge7" class="edge">
<title>CoreComment&#45;&gt;AppModule</title>
<path fill="none" stroke="#000000" d="M1197,-122.0091C1197,-138.0494 1197,-159 1197,-159 1197,-159 1014.8345,-159 1014.8345,-159"/>
<polygon fill="#000000" stroke="#000000" points="1014.8345,-155.5001 1004.8345,-159 1014.8345,-162.5001 1014.8345,-155.5001"/>
</g>
<!-- DeleteUser -->
<g id="node8" class="node">
<title>DeleteUser</title>
<polygon fill="#ffffb3" stroke="#000000" points="1129.458,-122 1050.542,-122 1050.542,-86 1129.458,-86 1129.458,-122"/>
<text text-anchor="middle" x="1090" y="-99.8" font-family="Times,serif" font-size="14.00" fill="#000000">DeleteUser</text>
</g>
<!-- DeleteUser&#45;&gt;AppModule -->
<g id="edge8" class="edge">
<title>DeleteUser&#45;&gt;AppModule</title>
<path fill="none" stroke="#000000" d="M1090,-122.1243C1090,-136.7832 1090,-155 1090,-155 1090,-155 1014.9365,-155 1014.9365,-155"/>
<polygon fill="#000000" stroke="#000000" points="1014.9366,-151.5001 1004.9365,-155 1014.9365,-158.5001 1014.9366,-151.5001"/>
</g>
<!-- EmailForgetPassword -->
<g id="node9" class="node">
<title>EmailForgetPassword</title>
<polygon fill="#ffffb3" stroke="#000000" points="1032.6415,-122 893.3585,-122 893.3585,-86 1032.6415,-86 1032.6415,-122"/>
<text text-anchor="middle" x="963" y="-99.8" font-family="Times,serif" font-size="14.00" fill="#000000">EmailForgetPassword</text>
</g>
<!-- EmailForgetPassword&#45;&gt;AppModule -->
<g id="edge9" class="edge">
<title>EmailForgetPassword&#45;&gt;AppModule</title>
<path fill="none" stroke="#000000" d="M963,-122.1061C963,-122.1061 963,-140.991 963,-140.991"/>
<polygon fill="#000000" stroke="#000000" points="959.5001,-140.9909 963,-150.991 966.5001,-140.991 959.5001,-140.9909"/>
</g>
<!-- ErrorsPopup -->
<g id="node10" class="node">
<title>ErrorsPopup</title>
<polygon fill="#ffffb3" stroke="#000000" points="875.2619,-122 788.7381,-122 788.7381,-86 875.2619,-86 875.2619,-122"/>
<text text-anchor="middle" x="832" y="-99.8" font-family="Times,serif" font-size="14.00" fill="#000000">ErrorsPopup</text>
</g>
<!-- ErrorsPopup&#45;&gt;AppModule -->
<g id="edge10" class="edge">
<title>ErrorsPopup&#45;&gt;AppModule</title>
<path fill="none" stroke="#000000" d="M832,-122.1243C832,-136.7832 832,-155 832,-155 832,-155 911.1906,-155 911.1906,-155"/>
<polygon fill="#000000" stroke="#000000" points="911.1906,-158.5001 921.1906,-155 911.1906,-151.5001 911.1906,-158.5001"/>
</g>
<!-- ForgetPassword -->
<g id="node11" class="node">
<title>ForgetPassword</title>
<polygon fill="#ffffb3" stroke="#000000" points="771.2022,-122 664.7978,-122 664.7978,-86 771.2022,-86 771.2022,-122"/>
<text text-anchor="middle" x="718" y="-99.8" font-family="Times,serif" font-size="14.00" fill="#000000">ForgetPassword</text>
</g>
<!-- ForgetPassword&#45;&gt;AppModule -->
<g id="edge11" class="edge">
<title>ForgetPassword&#45;&gt;AppModule</title>
<path fill="none" stroke="#000000" d="M718,-122.0091C718,-138.0494 718,-159 718,-159 718,-159 911.1614,-159 911.1614,-159"/>
<polygon fill="#000000" stroke="#000000" points="911.1614,-162.5001 921.1614,-159 911.1613,-155.5001 911.1614,-162.5001"/>
</g>
<!-- HourSettings -->
<g id="node12" class="node">
<title>HourSettings</title>
<polygon fill="#ffffb3" stroke="#000000" points="646.8809,-122 557.1191,-122 557.1191,-86 646.8809,-86 646.8809,-122"/>
<text text-anchor="middle" x="602" y="-99.8" font-family="Times,serif" font-size="14.00" fill="#000000">HourSettings</text>
</g>
<!-- HourSettings&#45;&gt;AppModule -->
<g id="edge12" class="edge">
<title>HourSettings&#45;&gt;AppModule</title>
<path fill="none" stroke="#000000" d="M602,-122.0225C602,-139.3734 602,-163 602,-163 602,-163 911.236,-163 911.236,-163"/>
<polygon fill="#000000" stroke="#000000" points="911.2361,-166.5001 921.236,-163 911.236,-159.5001 911.2361,-166.5001"/>
</g>
<!-- Loading -->
<g id="node13" class="node">
<title>Loading</title>
<polygon fill="#ffffb3" stroke="#000000" points="539.1587,-122 476.8413,-122 476.8413,-86 539.1587,-86 539.1587,-122"/>
<text text-anchor="middle" x="508" y="-99.8" font-family="Times,serif" font-size="14.00" fill="#000000">Loading</text>
</g>
<!-- Loading&#45;&gt;AppModule -->
<g id="edge13" class="edge">
<title>Loading&#45;&gt;AppModule</title>
<path fill="none" stroke="#000000" d="M508,-122.2222C508,-140.8285 508,-167 508,-167 508,-167 911.0103,-167 911.0103,-167"/>
<polygon fill="#000000" stroke="#000000" points="911.0103,-170.5001 921.0103,-167 911.0102,-163.5001 911.0103,-170.5001"/>
</g>
<!-- LoginAgent -->
<g id="node14" class="node">
<title>LoginAgent</title>
<polygon fill="#ffffb3" stroke="#000000" points="458.6557,-122 375.3443,-122 375.3443,-86 458.6557,-86 458.6557,-122"/>
<text text-anchor="middle" x="417" y="-99.8" font-family="Times,serif" font-size="14.00" fill="#000000">LoginAgent</text>
</g>
<!-- LoginAgent&#45;&gt;AppModule -->
<g id="edge14" class="edge">
<title>LoginAgent&#45;&gt;AppModule</title>
<path fill="none" stroke="#000000" d="M417,-122.308C417,-142.1455 417,-171 417,-171 417,-171 911.0629,-171 911.0629,-171"/>
<polygon fill="#000000" stroke="#000000" points="911.0629,-174.5001 921.0629,-171 911.0629,-167.5001 911.0629,-174.5001"/>
</g>
<!-- NumberedCycle -->
<g id="node15" class="node">
<title>NumberedCycle</title>
<polygon fill="#ffffb3" stroke="#000000" points="356.7437,-122 249.2563,-122 249.2563,-86 356.7437,-86 356.7437,-122"/>
<text text-anchor="middle" x="303" y="-99.8" font-family="Times,serif" font-size="14.00" fill="#000000">NumberedCycle</text>
</g>
<!-- NumberedCycle&#45;&gt;AppModule -->
<g id="edge15" class="edge">
<title>NumberedCycle&#45;&gt;AppModule</title>
<path fill="none" stroke="#000000" d="M303,-122.2843C303,-143.3211 303,-175 303,-175 303,-175 911.2133,-175 911.2133,-175"/>
<polygon fill="#000000" stroke="#000000" points="911.2134,-178.5001 921.2133,-175 911.2133,-171.5001 911.2134,-178.5001"/>
</g>
<!-- ResetPassword -->
<g id="node16" class="node">
<title>ResetPassword</title>
<polygon fill="#ffffb3" stroke="#000000" points="231.2549,-122 130.7451,-122 130.7451,-86 231.2549,-86 231.2549,-122"/>
<text text-anchor="middle" x="181" y="-99.8" font-family="Times,serif" font-size="14.00" fill="#000000">ResetPassword</text>
</g>
<!-- ResetPassword&#45;&gt;AppModule -->
<g id="edge16" class="edge">
<title>ResetPassword&#45;&gt;AppModule</title>
<path fill="none" stroke="#000000" d="M181,-122.1554C181,-144.3519 181,-179 181,-179 181,-179 911.2327,-179 911.2327,-179"/>
<polygon fill="#000000" stroke="#000000" points="911.2328,-182.5001 921.2327,-179 911.2327,-175.5001 911.2328,-182.5001"/>
</g>
<!-- VerifyPopup -->
<g id="node17" class="node">
<title>VerifyPopup</title>
<polygon fill="#ffffb3" stroke="#000000" points="112.3162,-122 23.6838,-122 23.6838,-86 112.3162,-86 112.3162,-122"/>
<text text-anchor="middle" x="68" y="-99.8" font-family="Times,serif" font-size="14.00" fill="#000000">VerifyPopup</text>
</g>
<!-- VerifyPopup&#45;&gt;AppModule -->
<g id="edge17" class="edge">
<title>VerifyPopup&#45;&gt;AppModule</title>
<path fill="none" stroke="#000000" d="M68,-122.3228C68,-145.6602 68,-183 68,-183 68,-183 911.3305,-183 911.3305,-183"/>
<polygon fill="#000000" stroke="#000000" points="911.3305,-186.5001 921.3305,-183 911.3304,-179.5001 911.3305,-186.5001"/>
</g>
</g>
</svg>
