<?xml version="1.0" encoding="UTF-8" standalone="no"?>
<!DOCTYPE svg PUBLIC "-//W3C//DTD SVG 1.1//EN"
 "http://www.w3.org/Graphics/SVG/1.1/DTD/svg11.dtd">
<!-- Generated by graphviz version 2.40.1 (20161225.0304)
 -->
<!-- Title: dependencies Pages: 1 -->
<svg width="504pt" height="284pt"
 viewBox="0.00 0.00 504.00 284.00" xmlns="http://www.w3.org/2000/svg" xmlns:xlink="http://www.w3.org/1999/xlink">
<g id="graph0" class="graph" transform="scale(1 1) rotate(0) translate(4 280)">
<title>dependencies</title>
<polygon fill="#ffffff" stroke="transparent" points="-4,4 -4,-280 500,-280 500,4 -4,4"/>
<text text-anchor="start" x="227.0091" y="-42.4" font-family="sans-serif" font-weight="bold" font-size="14.00" fill="#000000">Legend</text>
<polygon fill="#ffffb3" stroke="transparent" points="14,-10 14,-30 34,-30 34,-10 14,-10"/>
<text text-anchor="start" x="37.629" y="-15.4" font-family="sans-serif" font-size="14.00" fill="#000000"> &#160;Declarations</text>
<polygon fill="#8dd3c7" stroke="transparent" points="127,-10 127,-30 147,-30 147,-10 127,-10"/>
<text text-anchor="start" x="150.7251" y="-15.4" font-family="sans-serif" font-size="14.00" fill="#000000"> &#160;Module</text>
<polygon fill="#80b1d3" stroke="transparent" points="213,-10 213,-30 233,-30 233,-10 213,-10"/>
<text text-anchor="start" x="236.7812" y="-15.4" font-family="sans-serif" font-size="14.00" fill="#000000"> &#160;Bootstrap</text>
<polygon fill="#fdb462" stroke="transparent" points="310,-10 310,-30 330,-30 330,-10 310,-10"/>
<text text-anchor="start" x="333.6732" y="-15.4" font-family="sans-serif" font-size="14.00" fill="#000000"> &#160;Providers</text>
<polygon fill="#fb8072" stroke="transparent" points="406,-10 406,-30 426,-30 426,-10 406,-10"/>
<text text-anchor="start" x="429.7258" y="-15.4" font-family="sans-serif" font-size="14.00" fill="#000000"> &#160;Exports</text>
<g id="clust1" class="cluster">
<title>cluster_SidebarModule</title>
<polygon fill="none" stroke="#000000" stroke-dasharray="1,5" points="56,-70 56,-268 440,-268 440,-70 56,-70"/>
</g>
<g id="clust2" class="cluster">
<title>cluster_SidebarModule_declarations</title>
<polygon fill="none" stroke="#000000" points="236,-78 236,-130 432,-130 432,-78 236,-78"/>
</g>
<g id="clust5" class="cluster">
<title>cluster_SidebarModule_imports</title>
<polygon fill="none" stroke="#000000" points="64,-78 64,-130 228,-130 228,-78 64,-78"/>
</g>
<g id="clust6" class="cluster">
<title>cluster_SidebarModule_exports</title>
<polygon fill="none" stroke="#000000" points="180,-208 180,-260 384,-260 384,-208 180,-208"/>
</g>
<!-- Sidebar -->
<g id="node1" class="node">
<title>Sidebar</title>
<polygon fill="#ffffb3" stroke="#000000" points="424.2635,-122 365.7365,-122 365.7365,-86 424.2635,-86 424.2635,-122"/>
<text text-anchor="middle" x="395" y="-99.8" font-family="Times,serif" font-size="14.00" fill="#000000">Sidebar</text>
</g>
<!-- SidebarModule -->
<g id="node3" class="node">
<title>SidebarModule</title>
<polygon fill="#8dd3c7" stroke="#000000" points="347.3133,-187 344.3133,-191 323.3133,-191 320.3133,-187 244.6867,-187 244.6867,-151 347.3133,-151 347.3133,-187"/>
<text text-anchor="middle" x="296" y="-164.8" font-family="Times,serif" font-size="14.00" fill="#000000">SidebarModule</text>
</g>
<!-- Sidebar&#45;&gt;SidebarModule -->
<g id="edge1" class="edge">
<title>Sidebar&#45;&gt;SidebarModule</title>
<path fill="none" stroke="#000000" d="M370.875,-122.1061C370.875,-141.3391 370.875,-169 370.875,-169 370.875,-169 357.1841,-169 357.1841,-169"/>
<polygon fill="#000000" stroke="#000000" points="357.1841,-165.5001 347.1841,-169 357.184,-172.5001 357.1841,-165.5001"/>
</g>
<!-- SidebarSettings -->
<g id="node2" class="node">
<title>SidebarSettings</title>
<polygon fill="#ffffb3" stroke="#000000" points="347.8767,-122 244.1233,-122 244.1233,-86 347.8767,-86 347.8767,-122"/>
<text text-anchor="middle" x="296" y="-99.8" font-family="Times,serif" font-size="14.00" fill="#000000">SidebarSettings</text>
</g>
<!-- SidebarSettings&#45;&gt;SidebarModule -->
<g id="edge2" class="edge">
<title>SidebarSettings&#45;&gt;SidebarModule</title>
<path fill="none" stroke="#000000" d="M296,-122.1061C296,-122.1061 296,-140.991 296,-140.991"/>
<polygon fill="#000000" stroke="#000000" points="292.5001,-140.9909 296,-150.991 299.5001,-140.991 292.5001,-140.9909"/>
</g>
<!-- Sidebar  -->
<g id="node5" class="node">
<title>Sidebar </title>
<polygon fill="#fb8072" stroke="#000000" points="376.2636,-252 313.7364,-252 313.7364,-216 376.2636,-216 376.2636,-252"/>
<text text-anchor="middle" x="345" y="-229.8" font-family="Times,serif" font-size="14.00" fill="#000000">Sidebar </text>
</g>
<!-- SidebarModule&#45;&gt;Sidebar  -->
<g id="edge4" class="edge">
<title>SidebarModule&#45;&gt;Sidebar </title>
<path fill="none" stroke="#000000" stroke-dasharray="5,2" d="M330.5125,-187.1061C330.5125,-187.1061 330.5125,-205.991 330.5125,-205.991"/>
<polygon fill="#000000" stroke="#000000" points="327.0125,-205.9909 330.5125,-215.991 334.0125,-205.991 327.0125,-205.9909"/>
</g>
<!-- SidebarSettings  -->
<g id="node6" class="node">
<title>SidebarSettings </title>
<polygon fill="#fb8072" stroke="#000000" points="295.8773,-252 188.1227,-252 188.1227,-216 295.8773,-216 295.8773,-252"/>
<text text-anchor="middle" x="242" y="-229.8" font-family="Times,serif" font-size="14.00" fill="#000000">SidebarSettings </text>
</g>
<!-- SidebarModule&#45;&gt;SidebarSettings  -->
<g id="edge5" class="edge">
<title>SidebarModule&#45;&gt;SidebarSettings </title>
<path fill="none" stroke="#000000" stroke-dasharray="5,2" d="M270.2659,-187.1061C270.2659,-187.1061 270.2659,-205.991 270.2659,-205.991"/>
<polygon fill="#000000" stroke="#000000" points="266.766,-205.9909 270.2659,-215.991 273.766,-205.991 266.766,-205.9909"/>
</g>
<!-- SidebarRoutingModule -->
<g id="node4" class="node">
<title>SidebarRoutingModule</title>
<polygon fill="#8dd3c7" stroke="#000000" points="219.9312,-122 216.9312,-126 195.9312,-126 192.9312,-122 72.0688,-122 72.0688,-86 219.9312,-86 219.9312,-122"/>
<text text-anchor="middle" x="146" y="-99.8" font-family="Times,serif" font-size="14.00" fill="#000000">SidebarRoutingModule</text>
</g>
<!-- SidebarRoutingModule&#45;&gt;SidebarModule -->
<g id="edge3" class="edge">
<title>SidebarRoutingModule&#45;&gt;SidebarModule</title>
<path fill="none" stroke="#000000" d="M204.0135,-122.1061C204.0135,-141.3391 204.0135,-169 204.0135,-169 204.0135,-169 234.6279,-169 234.6279,-169"/>
<polygon fill="#000000" stroke="#000000" points="234.6279,-172.5001 244.6279,-169 234.6278,-165.5001 234.6279,-172.5001"/>
</g>
</g>
</svg>
